<svg xmlns="http://www.w3.org/2000/svg" width="28.316" height="35.309" viewBox="0 0 28.316 35.309"><defs><style>.a{fill:#707070;}</style></defs><path class="a" d="M28.777,21.786V16.158A10.619,10.619,0,0,0,19.928,5.7V3.77a1.77,1.77,0,1,0-3.54,0V5.7A10.619,10.619,0,0,0,7.54,16.158v5.628A5.309,5.309,0,0,0,4,26.777v3.54a1.77,1.77,0,0,0,1.77,1.77h5.557a7.079,7.079,0,0,0,13.663,0h5.557a1.77,1.77,0,0,0,1.77-1.77v-3.54a5.309,5.309,0,0,0-3.54-4.991Zm-17.7-5.628a7.079,7.079,0,0,1,14.158,0v5.309H11.079Zm7.079,17.7a3.54,3.54,0,0,1-3.044-1.77H21.2A3.54,3.54,0,0,1,18.158,33.856Zm10.619-5.309H7.54v-1.77a1.77,1.77,0,0,1,1.77-1.77h17.7a1.77,1.77,0,0,1,1.77,1.77Z" transform="translate(-4 -2)"/></svg>