<svg xmlns="http://www.w3.org/2000/svg" width="22" height="18.703" viewBox="0 0 22 18.703"><defs><style>.a{fill:#fff;}</style></defs><path class="a" d="M23.466,18.82l-1.048-3.86h0l-3.3-11.59a1.053,1.053,0,0,0-1.278-.71l-4.054,1a1.07,1.07,0,0,0-.765-.33H2.548a1.025,1.025,0,0,0-1.048,1v16a1.025,1.025,0,0,0,1.048,1H13.023a1.025,1.025,0,0,0,1.048-1v-8l2.3,8.22a1.043,1.043,0,0,0,1.048.74,1.262,1.262,0,0,0,.272,0L22.754,20a1.042,1.042,0,0,0,.639-.47,1.007,1.007,0,0,0,.073-.71Zm-16.76.55H3.564v-2H6.706Zm0-4H3.564v-6H6.706Zm0-8H3.564v-2H6.706Zm5.238,12H8.8v-2h3.143Zm0-4H8.8v-6h3.143Zm0-8H8.8v-2h3.143ZM14.3,5.63l3.038-.78.545,1.93-3.038.78Zm2.713,9.66L15.39,9.49l3.038-.78,1.624,5.8Zm1.048,3.86-.545-1.93,3.038-.78.545,1.93Z" transform="translate(-1.5 -2.627)"/></svg>