<svg xmlns="http://www.w3.org/2000/svg" width="23.601" height="23.835" viewBox="0 0 23.601 23.835"><defs><style>.a{fill:#fff;}</style></defs><path class="a" d="M24.594,2.094a15.438,15.438,0,0,0-2.557-.224,15.249,15.249,0,0,0-8.249,2.416A15.249,15.249,0,0,0,5.538,1.929a15.438,15.438,0,0,0-2.557.224A1.178,1.178,0,0,0,2,3.331V17.473a1.178,1.178,0,0,0,1.379,1.178A12.845,12.845,0,0,1,13.1,20.9l.141.082h.13a1.072,1.072,0,0,0,.825,0h.13l.141-.082a12.845,12.845,0,0,1,9.722-2.381,1.178,1.178,0,0,0,1.379-1.178V3.2a1.178,1.178,0,0,0-.978-1.108ZM12.609,17.756a15.167,15.167,0,0,0-7.071-1.744H4.359V4.227a10.241,10.241,0,0,1,1.178,0,12.8,12.8,0,0,1,7.071,2.121Zm10.606-1.7H22.036A15.167,15.167,0,0,0,14.966,17.8V6.348a12.8,12.8,0,0,1,7.071-2.121,10.241,10.241,0,0,1,1.178,0Zm1.379,4.891a15.438,15.438,0,0,0-2.557-.224,15.249,15.249,0,0,0-8.249,2.416,15.249,15.249,0,0,0-8.249-2.416,15.439,15.439,0,0,0-2.557.224,1.161,1.161,0,1,0,.4,2.286A12.845,12.845,0,0,1,13.1,25.487a1.178,1.178,0,0,0,1.367,0,12.845,12.845,0,0,1,9.722-2.251,1.161,1.161,0,1,0,.4-2.286Z" transform="translate(-1.987 -1.87)"/></svg>