<svg xmlns="http://www.w3.org/2000/svg" width="36.561" height="36.924" viewBox="0 0 36.561 36.924"><defs><style>.a{fill:#707070;}</style></defs><path class="a" d="M37.008,2.217a23.915,23.915,0,0,0-3.962-.347A23.624,23.624,0,0,0,20.267,5.613,23.623,23.623,0,0,0,7.488,1.961a23.915,23.915,0,0,0-3.962.347A1.826,1.826,0,0,0,2.011,4.134V26.041a1.826,1.826,0,0,0,2.136,1.826,19.9,19.9,0,0,1,15.061,3.487l.219.128h.2a1.661,1.661,0,0,0,1.278,0h.2l.219-.128a19.9,19.9,0,0,1,15.061-3.688,1.826,1.826,0,0,0,2.136-1.826V3.933A1.826,1.826,0,0,0,37.008,2.217ZM18.442,26.479a23.5,23.5,0,0,0-10.954-2.7H5.662V5.521a15.864,15.864,0,0,1,1.826,0A19.826,19.826,0,0,1,18.442,8.807ZM34.872,23.85H33.046a23.5,23.5,0,0,0-10.954,2.7V8.807A19.826,19.826,0,0,1,33.046,5.521a15.865,15.865,0,0,1,1.826,0Zm2.136,7.576a23.916,23.916,0,0,0-3.962-.347,23.624,23.624,0,0,0-12.779,3.743A23.623,23.623,0,0,0,7.488,31.08a23.916,23.916,0,0,0-3.962.347,1.8,1.8,0,1,0,.621,3.542,19.9,19.9,0,0,1,15.061,3.487,1.826,1.826,0,0,0,2.118,0,19.9,19.9,0,0,1,15.061-3.487,1.8,1.8,0,1,0,.621-3.542Z" transform="translate(-1.987 -1.87)"/></svg>