<svg xmlns="http://www.w3.org/2000/svg" width="25.332" height="25.331" viewBox="0 0 25.332 25.331"><defs><style>.a{fill:#fff;}</style></defs><g transform="translate(0 -0.013)"><g transform="translate(0 11.687)"><g transform="translate(0)"><path class="a" d="M24.539,236.782a2.225,2.225,0,0,0-3.064.185l-2.181,2.342a2.23,2.23,0,0,0-2.126-1.566H13.275c-.3,0-.394-.113-.907-.508a5.206,5.206,0,0,0-6.845.016l-1.431,1.26a2.217,2.217,0,0,0-2.041-.026L.41,239.3a.743.743,0,0,0-.332,1l4.453,8.905a.743.743,0,0,0,1,.332l1.641-.821a2.225,2.225,0,0,0,1.23-2.069h8.77a5.219,5.219,0,0,0,4.156-2.078l3.563-4.75A2.22,2.22,0,0,0,24.539,236.782ZM6.5,247.389l-.977.489L1.738,240.3l.978-.489a.742.742,0,0,1,1,.332l3.125,6.25A.742.742,0,0,1,6.5,247.389ZM23.7,238.929l-3.563,4.75a3.728,3.728,0,0,1-2.968,1.484H7.88L5.1,239.6l1.4-1.236a3.72,3.72,0,0,1,4.9,0,2.627,2.627,0,0,0,1.869.862h3.893a.742.742,0,0,1,0,1.484h-3.79a.742.742,0,0,0,0,1.484h4.287a2.233,2.233,0,0,0,1.629-.709l3.267-3.507a.742.742,0,0,1,1.137.95Z" transform="translate(0 -235.959)"/></g></g><g transform="translate(8.955 0.013)"><path class="a" d="M187.643,5.077a2.956,2.956,0,0,0,.821-2.046A3.009,3.009,0,0,0,185.5.013a3.058,3.058,0,0,0-3.018,3.018,2.913,2.913,0,0,0,.848,2.052,4.527,4.527,0,0,0-2.333,3.934v.742a.742.742,0,0,0,.742.742h7.47a.742.742,0,0,0,.742-.742V9.017A4.524,4.524,0,0,0,187.643,5.077ZM185.5,1.5a1.53,1.53,0,0,1,1.484,1.534A1.486,1.486,0,0,1,185.5,4.515a1.53,1.53,0,0,1-1.534-1.484A1.574,1.574,0,0,1,185.5,1.5Zm-3.018,7.52A3.058,3.058,0,0,1,185.5,6a3,3,0,0,1,2.968,3.018Z" transform="translate(-180.994 -0.013)"/></g></g></svg>