<svg xmlns="http://www.w3.org/2000/svg" width="43.437" height="34.75" viewBox="0 0 43.437 34.75"><defs><style>.a{fill:#707070;}</style></defs><path class="a" d="M25.89,34.406H4.172a2.172,2.172,0,1,0,0,4.344H25.89a2.172,2.172,0,0,0,0-4.344ZM4.172,12.687H21.547a2.172,2.172,0,1,0,0-4.344H4.172a2.172,2.172,0,1,0,0,4.344Zm0,8.687H21.547a2.172,2.172,0,0,0,0-4.344H4.172a2.172,2.172,0,1,0,0,4.344Zm39.093,4.344H4.172a2.172,2.172,0,0,0,0,4.344H43.265a2.172,2.172,0,0,0,0-4.344ZM43.265,4H30.234a2.172,2.172,0,0,0-2.172,2.172V19.2a2.172,2.172,0,0,0,2.172,2.172H43.265A2.172,2.172,0,0,0,45.437,19.2V6.172A2.172,2.172,0,0,0,43.265,4ZM41.093,17.031H32.406V8.344h8.687Z" transform="translate(-2 -4)"/></svg>