<svg xmlns="http://www.w3.org/2000/svg" width="21.574" height="24" viewBox="0 0 21.574 24"><defs><style>.a{fill:#fff;}</style></defs><path class="a" d="M23.376,9.2h0l-7.191-6.3a3.6,3.6,0,0,0-4.794,0L4.2,9.2A3.6,3.6,0,0,0,3,11.9V22.38a3.6,3.6,0,0,0,3.6,3.6H20.979a3.6,3.6,0,0,0,3.6-3.6V11.893a3.6,3.6,0,0,0-1.2-2.7ZM16.184,23.579H11.39V17.586a1.2,1.2,0,0,1,1.2-1.2h2.4a1.2,1.2,0,0,1,1.2,1.2Zm5.993-1.2a1.2,1.2,0,0,1-1.2,1.2h-2.4V17.586a3.6,3.6,0,0,0-3.6-3.6h-2.4a3.6,3.6,0,0,0-3.6,3.6v5.993H6.6a1.2,1.2,0,0,1-1.2-1.2V11.893a1.2,1.2,0,0,1,.408-.9L13,4.7a1.2,1.2,0,0,1,1.582,0l7.191,6.292a1.2,1.2,0,0,1,.408.9Z" transform="translate(-3 -1.976)"/></svg>