<svg xmlns="http://www.w3.org/2000/svg" width="21" height="26.25" viewBox="0 0 21 26.25"><defs><style>.a{fill:#fdfdfd;}</style></defs><path class="a" d="M10.563,12.5h1.313a1.313,1.313,0,0,0,0-2.625H10.563a1.313,1.313,0,0,0,0,2.625Zm0,2.625a1.313,1.313,0,0,0,0,2.625h7.875a1.313,1.313,0,0,0,0-2.625ZM25,11.109a1.719,1.719,0,0,0-.079-.354v-.118a1.4,1.4,0,0,0-.249-.368h0L16.8,2.394h0a1.4,1.4,0,0,0-.368-.249.42.42,0,0,0-.118,0A1.155,1.155,0,0,0,15.878,2H7.937A3.938,3.938,0,0,0,4,5.938V24.313A3.938,3.938,0,0,0,7.938,28.25H21.063A3.937,3.937,0,0,0,25,24.313v-13.2ZM17.125,6.476l3.4,3.4H18.438a1.312,1.312,0,0,1-1.312-1.312Zm5.25,17.837a1.313,1.313,0,0,1-1.312,1.313H7.937a1.312,1.312,0,0,1-1.312-1.312V5.938A1.312,1.312,0,0,1,7.937,4.625H14.5V8.563A3.937,3.937,0,0,0,18.438,12.5h3.938Zm-3.937-3.937H10.563a1.313,1.313,0,0,0,0,2.625h7.875a1.313,1.313,0,0,0,0-2.625Z" transform="translate(-4 -2)"/></svg>