<svg xmlns="http://www.w3.org/2000/svg" width="65" height="65" viewBox="0 0 65 65">
  <g id="Group_9433" data-name="Group 9433" transform="translate(-27 -27)">
    <rect id="Rectangle_221" data-name="Rectangle 221" width="65" height="65" rx="10" transform="translate(27 27)" fill="#4791ff" opacity="0.17"/>
    <g id="sad-baby" transform="translate(37 21.868)">
      <circle id="Ellipse_105" data-name="Ellipse 105" cx="1.807" cy="1.807" r="1.807" transform="translate(11.455 42.487)" fill="#4791ff" stroke="#4791ff" stroke-width="1"/>
      <circle id="Ellipse_106" data-name="Ellipse 106" cx="1.807" cy="1.807" r="1.807" transform="translate(30.43 42.487)" fill="#4791ff" stroke="#4791ff" stroke-width="1"/>
      <path id="Path_2172" data-name="Path 2172" d="M45.5,43.526a5.336,5.336,0,0,0-4.388-5.243v-.79a18.362,18.362,0,0,0-36.723,0v.79a5.327,5.327,0,0,0,.064,10.5A10.645,10.645,0,0,0,9.97,57.674c2.946,1.654,7.126,2.458,12.779,2.458s9.833-.8,12.779-2.458a10.645,10.645,0,0,0,5.518-8.893A5.336,5.336,0,0,0,45.5,43.526Zm-43.617,0a3.453,3.453,0,0,1,2.507-3.316v6.631A3.452,3.452,0,0,1,1.881,43.526ZM39.23,47.3c0,4.13-1.512,6.987-4.622,8.733-2.657,1.492-6.536,2.217-11.858,2.217h0c-5.322,0-9.2-.725-11.858-2.217-3.11-1.746-4.622-4.6-4.622-8.733V37.494A16.51,16.51,0,0,1,18.014,21.707c5.17.065,7.924,3.8,7.924,6.5a3.758,3.758,0,0,1-3.754,3.754,2.818,2.818,0,0,1-2.815-2.815,2.066,2.066,0,0,1,2.064-2.064.94.94,0,0,0,0-1.881,3.949,3.949,0,0,0-3.945,3.945,4.7,4.7,0,0,0,4.7,4.7,5.641,5.641,0,0,0,5.635-5.635A8.055,8.055,0,0,0,25.2,22.59a9.568,9.568,0,0,0-2.22-1.574A16.5,16.5,0,0,1,39.23,37.494Zm1.881-.459V40.211a3.446,3.446,0,0,1,0,6.631Z" transform="translate(0 0)" fill="#4791ff" stroke="#4791ff" stroke-width="1"/>
      <path id="Path_2173" data-name="Path 2173" d="M149.2,278.716a.94.94,0,0,0,1.33,1.33,5.15,5.15,0,0,1,7.274,0,.94.94,0,1,0,1.33-1.33A7.033,7.033,0,0,0,149.2,278.716Z" transform="translate(-131.416 -227.256)" fill="#4791ff" stroke="#4791ff" stroke-width="1"/>
      <path id="Path_2174" data-name="Path 2174" d="M83.906,169.826a.94.94,0,0,0-1.881,0,1.791,1.791,0,0,1-1.789,1.789.94.94,0,0,0,0,1.881A3.674,3.674,0,0,0,83.906,169.826Z" transform="translate(-69.974 -132.15)" fill="#4791ff" stroke="#4791ff" stroke-width="1"/>
      <path id="Path_2175" data-name="Path 2175" d="M270.407,169.826a.94.94,0,0,0-1.881,0,3.674,3.674,0,0,0,3.67,3.67.94.94,0,1,0,0-1.881A1.791,1.791,0,0,1,270.407,169.826Z" transform="translate(-236.959 -132.15)" fill="#4791ff" stroke="#4791ff" stroke-width="1"/>
    </g>
  </g>
</svg>
