<svg xmlns="http://www.w3.org/2000/svg" width="65" height="65" viewBox="0 0 65 65">
  <g id="Group_9430" data-name="Group 9430" transform="translate(-26.869 -27)">
    <path id="Rectangle_227" data-name="Rectangle 227" d="M10,0H59a6,6,0,0,1,6,6V55A10,10,0,0,1,55,65H10A10,10,0,0,1,0,55V10A10,10,0,0,1,10,0Z" transform="translate(26.869 27)" fill="#02bc77" opacity="0.17"/>
    <g id="XMLID_675_" transform="translate(34.641 36.5)">
      <g id="XMLID_1072_" transform="translate(0.228 0)">
        <path id="XMLID_1133_" d="M239.429,152.478a.972.972,0,0,0-1.375-1.375.472.472,0,0,1-.667,0,.972.972,0,0,0-1.375,1.375,2.416,2.416,0,0,0,3.417,0Z" transform="translate(-212.827 -136.153)" fill="#02bc77" stroke="#02bc77" stroke-width="1"/>
        <path id="XMLID_1134_" d="M120.393,452h-8.987a.973.973,0,0,0-.688.285l-3.89,3.89a.972.972,0,0,0,1.375,1.375l3.605-3.6h8.585a.972.972,0,1,0,0-1.945Z" transform="translate(-96.205 -408.048)" fill="#02bc77" stroke="#02bc77" stroke-width="1"/>
        <path id="XMLID_1142_" d="M49.955,30.219A3.727,3.727,0,0,0,43.5,28.045L39.685,32.2v-.737a9.183,9.183,0,0,0-7.376-8.985l-2.03-.4a2.745,2.745,0,0,1-1.661-1.044,9.622,9.622,0,0,0,5.455-5.574A6.3,6.3,0,0,0,39.06,17.9a6.411,6.411,0,0,0,.66-.034.972.972,0,0,0,.839-1.219l-.18-.67.671.18a.972.972,0,0,0,1.219-.839A6.321,6.321,0,0,0,34.609,8.5a9.57,9.57,0,0,0-19.02,0,6.321,6.321,0,0,0-7.66,6.825.972.972,0,0,0,1.219.839l.67-.18-.18.67a.972.972,0,0,0,.839,1.219,6.411,6.411,0,0,0,.66.034,6.3,6.3,0,0,0,4.987-2.446,9.622,9.622,0,0,0,5.455,5.574,2.745,2.745,0,0,1-1.661,1.044l-2.03.4a9.183,9.183,0,0,0-7.375,8.931,12.678,12.678,0,0,0-3.469,2.466L.513,40.409a.972.972,0,1,0,1.375,1.375l6.532-6.532A10.648,10.648,0,0,1,16,32.113a7.165,7.165,0,0,1,5.1,2.113.973.973,0,0,0,.688.285h6.377a1.712,1.712,0,1,1,0,3.423H20.772a.972.972,0,0,0,0,1.945h7.589a15.781,15.781,0,0,0,11.6-5.1L44.93,29.36a1.779,1.779,0,0,1,2.37-.23,1.782,1.782,0,0,1,.246,2.65l-6.3,6.756A16.993,16.993,0,0,1,32.9,43.45a.972.972,0,1,0,.469,1.887,18.933,18.933,0,0,0,9.3-5.475l6.3-6.756a3.73,3.73,0,0,0,.985-2.887ZM34.841,10.442a4.378,4.378,0,0,1,5.459,3.5l-1.043-.279a.972.972,0,0,0-1.191,1.191l.279,1.043a4.378,4.378,0,0,1-3.5-5.459ZM32.7,8.922a10.435,10.435,0,0,1-6.267-2.875,11.5,11.5,0,0,0,1.682-3.48A7.64,7.64,0,0,1,32.7,8.922ZM25.1,1.945a7.652,7.652,0,0,1,1.141.086A9.632,9.632,0,0,1,17.5,8.952a7.634,7.634,0,0,1,7.6-7.007ZM14.227,14.679A4.356,4.356,0,0,1,11.854,15.9l.279-1.043a.972.972,0,0,0-1.191-1.191L9.9,13.946a4.378,4.378,0,0,1,5.459-3.5,4.387,4.387,0,0,1-1.131,4.237Zm3.247-2.546V10.9a11.574,11.574,0,0,0,7.7-3.37,12.386,12.386,0,0,0,7.556,3.345v1.256a7.626,7.626,0,0,1-15.251,0ZM25.1,21.7a9.593,9.593,0,0,0,1.567-.129,4.68,4.68,0,0,0,1.171,1.434,3.561,3.561,0,0,1-5.476,0,4.68,4.68,0,0,0,1.171-1.434A9.578,9.578,0,0,0,25.1,21.7Zm3.065,10.862H22.178A9.092,9.092,0,0,0,16,30.168a12.719,12.719,0,0,0-3.494.486,7.236,7.236,0,0,1,5.763-6.267l2.03-.4c.1-.021.206-.045.307-.072a5.508,5.508,0,0,0,8.989,0c.1.027.2.051.307.072l2.03.4a7.233,7.233,0,0,1,5.81,7.078v2.789a13.847,13.847,0,0,1-6.172,3.3,3.654,3.654,0,0,0-3.4-4.988Z" transform="translate(-0.228 0)" fill="#02bc77" stroke="#02bc77" stroke-width="1"/>
        <path id="XMLID_1527_" d="M284.94,452a.973.973,0,1,0,.687.285A.979.979,0,0,0,284.94,452Z" transform="translate(-256.377 -408.048)" fill="#02bc77" stroke="#02bc77" stroke-width="1"/>
      </g>
    </g>
  </g>
</svg>
