<svg xmlns="http://www.w3.org/2000/svg" xmlns:xlink="http://www.w3.org/1999/xlink" width="19.792" height="19.843" viewBox="0 0 19.792 19.843"><defs><style>.a{fill:url(#a);}.b{fill:#bdd0fb;}.c,.f,.i{fill:#fff;}.c{opacity:0.43;}.d{fill:#91b3fa;}.e{fill:url(#b);}.f,.h{opacity:0.6;}.g{fill:url(#c);}.j{fill:url(#d);}.k{fill:url(#e);}.l{fill:url(#f);}.m{fill:url(#g);}.n{fill:url(#h);}.o{fill:url(#i);}.p{fill:url(#j);}.q{fill:url(#k);}.r{fill:url(#l);}.bw,.bx,.by,.bz,.ca,.s,.u,.v,.w{fill-rule:evenodd;}.s{fill:url(#m);}.t{fill:url(#n);}.u{fill:url(#o);}.v{fill:url(#p);}.w{fill:url(#q);}.x{fill:url(#r);}.y{fill:url(#s);}.z{fill:url(#t);}.aa{fill:url(#u);}.ab{fill:url(#v);}.ac{fill:url(#w);}.ad{fill:url(#x);}.ae{fill:url(#y);}.af{fill:url(#z);}.ag{fill:url(#aa);}.ah{fill:url(#ab);}.ai{fill:url(#ac);}.aj{fill:url(#ad);}.ak{fill:url(#ae);}.al{fill:url(#af);}.am{fill:url(#ag);}.an{fill:url(#ai);}.ao{fill:url(#aj);}.ap{fill:url(#ak);}.aq{fill:url(#al);}.ar{fill:#7d97f4;}.as{fill:url(#an);}.at{fill:url(#ao);}.au{fill:url(#ap);}.av{fill:url(#aq);}.aw{fill:url(#ar);}.ax{fill:url(#as);}.ay{fill:url(#at);}.az{fill:url(#au);}.ba{fill:url(#av);}.bb{fill:url(#aw);}.bc{fill:url(#ax);}.bd{fill:url(#ay);}.be{fill:url(#az);}.bf{fill:url(#ba);}.bg{fill:url(#bb);}.bh{fill:url(#bc);}.bi{fill:url(#bd);}.bj{fill:url(#be);}.bk{fill:url(#bf);}.bl{fill:url(#bg);}.bm{fill:url(#bh);}.bn{fill:url(#bi);}.bo{fill:url(#bj);}.bp{fill:url(#bk);}.bq{fill:url(#bl);}.br{fill:url(#bm);}.bs{fill:url(#bn);}.bt{fill:url(#bo);}.bu{fill:url(#bp);}.bv{fill:url(#bq);}.bw{fill:url(#br);}.bx{fill:url(#bs);}.by{fill:url(#bt);}.bz{fill:url(#bu);}.ca{fill:url(#bv);}.cb{fill:url(#bw);}.cc{fill:url(#bx);}.cd{fill:url(#by);}</style><linearGradient id="a" x1="1.086" y1="1.014" x2="0.335" y2="0.363" gradientUnits="objectBoundingBox"><stop offset="0" stop-color="#dae3fe"/><stop offset="1" stop-color="#e9effd"/></linearGradient><linearGradient id="b" x1="1.77" y1="0.101" x2="1.319" y2="0.242" gradientUnits="objectBoundingBox"><stop offset="0" stop-color="#e1473d"/><stop offset="1" stop-color="#e9605a"/></linearGradient><linearGradient id="c" y1="0.5" x2="1" y2="0.5" gradientUnits="objectBoundingBox"><stop offset="0" stop-color="#ff928e"/><stop offset="1" stop-color="#fe7062"/></linearGradient><linearGradient id="d" x1="0.354" y1="0.707" x2="3.738" y2="-4.059" xlink:href="#c"/><linearGradient id="e" x1="4.103" y1="-4.203" x2="2.811" y2="-2.531" xlink:href="#c"/><linearGradient id="f" x1="4.9" y1="-5.234" x2="3.608" y2="-3.562" xlink:href="#c"/><linearGradient id="g" x1="6.494" y1="-7.296" x2="5.201" y2="-5.624" xlink:href="#c"/><linearGradient id="h" x1="5.676" y1="-6.238" x2="4.383" y2="-4.565" xlink:href="#c"/><linearGradient id="i" x1="1.519" y1="-0.775" x2="-1.484" y2="2.907" gradientUnits="objectBoundingBox"><stop offset="0" stop-color="#09005d"/><stop offset="1" stop-color="#1a0f91"/></linearGradient><linearGradient id="j" x1="1.004" y1="-2.464" x2="-0.074" y2="4.125" xlink:href="#i"/><linearGradient id="k" x1="1.467" y1="-7.452" x2="0.984" y2="-3.485" xlink:href="#c"/><linearGradient id="l" y1="0.5" x2="1" y2="0.5" gradientUnits="objectBoundingBox"><stop offset="0" stop-color="#53d8ff"/><stop offset="1" stop-color="#3840f7"/></linearGradient><linearGradient id="m" y1="0.5" x2="1" y2="0.5" gradientUnits="objectBoundingBox"><stop offset="0" stop-color="#cb236d"/><stop offset="1" stop-color="#4c246d"/></linearGradient><linearGradient id="n" x1="-0.09" y1="0.001" x2="0.312" y2="0.409" xlink:href="#i"/><linearGradient id="o" x1="-0.146" y1="1.993" x2="0.525" y2="0.231" gradientUnits="objectBoundingBox"><stop offset="0" stop-color="#febbba"/><stop offset="1" stop-color="#ff928e"/></linearGradient><linearGradient id="p" x1="28.433" y1="0.5" x2="29.433" y2="0.5" xlink:href="#m"/><linearGradient id="q" x1="0.5" y1="1.548" x2="0.5" y2="0.19" xlink:href="#o"/><linearGradient id="r" x1="3.951" y1="-0.36" x2="1.439" y2="0.298" gradientUnits="objectBoundingBox"><stop offset="0" stop-color="#4f52ff"/><stop offset="1" stop-color="#4042e2"/></linearGradient><linearGradient id="s" x1="-0.423" y1="2.168" x2="0.77" y2="-0.08" xlink:href="#o"/><linearGradient id="t" x1="-0.036" y1="0.959" x2="1.072" y2="-0.031" xlink:href="#o"/><linearGradient id="u" x1="0.239" y1="-0.131" x2="0.971" y2="1.225" xlink:href="#i"/><linearGradient id="v" x1="-2.54" y1="2.603" x2="2.713" y2="-1.291" xlink:href="#o"/><linearGradient id="w" x1="-0.217" y1="1.293" x2="0.808" y2="0.097" xlink:href="#o"/><linearGradient id="x" x1="0.11" y1="1.512" x2="1.969" y2="-3.648" xlink:href="#o"/><linearGradient id="y" x1="0.626" y1="-0.026" x2="0.36" y2="1.096" xlink:href="#o"/><linearGradient id="z" x1="0" y1="0.5" x2="1" y2="0.5" xlink:href="#i"/><linearGradient id="aa" x1="-4.372" y1="-3.971" x2="-7.897" y2="1.653" gradientUnits="objectBoundingBox"><stop offset="0" stop-color="#a22b25"/><stop offset="1" stop-color="#c0423c"/></linearGradient><linearGradient id="ab" x1="0" y1="0.502" x2="1" y2="0.502" xlink:href="#i"/><linearGradient id="ac" x1="-0.636" y1="2.016" x2="-1.808" y2="3.839" gradientUnits="objectBoundingBox"><stop offset="0" stop-color="#53eac9"/><stop offset="0.996" stop-color="#45aed8"/></linearGradient><linearGradient id="ad" x1="0.94" y1="-0.484" x2="-1.895" y2="6.012" xlink:href="#i"/><linearGradient id="ae" x1="0" y1="0.5" x2="1" y2="0.5" xlink:href="#aa"/><linearGradient id="af" x1="2.09" y1="0.031" x2="-0.807" y2="0.887" xlink:href="#i"/><linearGradient id="ag" x1="3.08" y1="-2.223" x2="-3.938" y2="5.384" xlink:href="#i"/><linearGradient id="ai" x1="1.57" y1="-0.035" x2="-0.471" y2="0.806" xlink:href="#i"/><linearGradient id="aj" x1="1.05" y1="-0.57" x2="-0.105" y2="1.959" xlink:href="#aa"/><linearGradient id="ak" x1="-0.14" y1="1.798" x2="3.406" y2="-5.157" gradientUnits="objectBoundingBox"><stop offset="0" stop-color="#9cfffb"/><stop offset="1" stop-color="#9bfffa"/></linearGradient><linearGradient id="al" x1="0.384" y1="-0.062" x2="0.897" y2="2.428" xlink:href="#r"/><linearGradient id="an" x1="-22.603" y1="-0.386" x2="-23.793" y2="0.385" xlink:href="#aa"/><linearGradient id="ao" x1="-5.902" y1="-0.635" x2="-4.568" y2="1.156" xlink:href="#i"/><linearGradient id="ap" x1="-94.401" y1="-2.654" x2="-99.342" y2="-0.287" xlink:href="#aa"/><linearGradient id="aq" x1="-8.492" y1="-1.338" x2="-8.929" y2="0.108" xlink:href="#o"/><linearGradient id="ar" x1="-12.06" y1="0.5" x2="-11.06" y2="0.5" xlink:href="#r"/><linearGradient id="as" x1="-11.413" y1="-3.224" x2="-11.647" y2="-1.442" xlink:href="#i"/><linearGradient id="at" x1="-44.709" y1="0.5" x2="-43.709" y2="0.5" xlink:href="#o"/><linearGradient id="au" x1="-42.395" y1="0.5" x2="-41.395" y2="0.5" xlink:href="#r"/><linearGradient id="av" x1="-26.834" y1="-2.242" x2="-27.239" y2="-1.31" xlink:href="#i"/><linearGradient id="aw" x1="-46.645" y1="0.5" x2="-45.645" y2="0.5" xlink:href="#o"/><linearGradient id="ax" x1="-4.349" y1="0.066" x2="-5.505" y2="1.243" xlink:href="#i"/><linearGradient id="ay" x1="5.92" y1="-6.108" x2="2.174" y2="-1.54" gradientUnits="objectBoundingBox"><stop offset="0" stop-color="#020039"/><stop offset="1" stop-color="#090056"/></linearGradient><linearGradient id="az" x1="2.511" y1="-0.549" x2="1.559" y2="-0.091" xlink:href="#c"/><linearGradient id="ba" x1="-23.066" y1="1.478" x2="-22.794" y2="0.434" xlink:href="#o"/><linearGradient id="bb" x1="-15.765" y1="0.35" x2="-16.877" y2="1.106" xlink:href="#o"/><linearGradient id="bc" x1="-11.958" y1="0.152" x2="-11.208" y2="1.129" xlink:href="#i"/><linearGradient id="bd" x1="-68.116" y1="-0.685" x2="-72.667" y2="1.784" xlink:href="#o"/><linearGradient id="be" x1="-27.364" y1="-0.184" x2="-28.205" y2="1.203" xlink:href="#o"/><linearGradient id="bf" x1="0.843" y1="-0.276" x2="0.174" y2="1.236" xlink:href="#r"/><linearGradient id="bg" x1="0.862" y1="0.627" x2="-0.317" y2="0.052" xlink:href="#o"/><linearGradient id="bh" x1="3.429" y1="-3.759" x2="2.28" y2="-2.1" xlink:href="#r"/><linearGradient id="bi" x1="-10.175" y1="-2.479" x2="-10.144" y2="-7.307" xlink:href="#i"/><linearGradient id="bj" x1="-60.305" y1="0.026" x2="-65.599" y2="0.001" xlink:href="#r"/><linearGradient id="bk" x1="-31.253" y1="-4.058" x2="-34.692" y2="3.366" xlink:href="#o"/><linearGradient id="bl" x1="-62.095" y1="-4.98" x2="-62.065" y2="-9.907" xlink:href="#i"/><linearGradient id="bm" x1="-343.715" y1="-0.588" x2="-348.836" y2="-0.613" xlink:href="#r"/><linearGradient id="bn" x1="-30.497" y1="-6.36" x2="-33.985" y2="1.144" xlink:href="#o"/><linearGradient id="bo" x1="-2.04" y1="-0.294" x2="-2.854" y2="1.012" xlink:href="#i"/><linearGradient id="bp" x1="-2.683" y1="0.898" x2="-2.908" y2="-0.262" xlink:href="#i"/><linearGradient id="bq" x1="-8.981" y1="1.753" x2="-9.003" y2="-0.794" xlink:href="#o"/><linearGradient id="br" x1="-1.316" y1="-0.478" x2="-0.642" y2="1.164" xlink:href="#i"/><linearGradient id="bs" x1="0.913" y1="0.5" x2="-0.321" y2="0.5" xlink:href="#o"/><linearGradient id="bt" x1="10.548" y1="0.5" x2="-3.065" y2="0.5" xlink:href="#o"/><linearGradient id="bu" x1="-1.718" y1="-1.146" x2="-0.869" y2="1.434" xlink:href="#i"/><linearGradient id="bv" x1="0.386" y1="0.5" x2="-5.934" y2="0.5" xlink:href="#o"/><linearGradient id="bw" x1="-51.807" y1="-0.211" x2="-50.114" y2="2.297" xlink:href="#o"/><linearGradient id="bx" x1="-6.281" y1="0.041" x2="-5.789" y2="1.874" xlink:href="#o"/><linearGradient id="by" x1="3.112" y1="1.169" x2="-0.166" y2="0.296" xlink:href="#o"/></defs><g transform="translate(-472.309 -479.67)"><path class="a" d="M491.073,503.313a10.908,10.908,0,0,1-11.351,6.3,8.436,8.436,0,0,1-4.406-1.984c-3.337-2.976-4.051-8.869-1.359-13.022a10.384,10.384,0,0,1,8.809-4.65,9.734,9.734,0,0,1,5.9,2.129,9.081,9.081,0,0,1,1.847,2.1A10.118,10.118,0,0,1,491.073,503.313Z" transform="translate(0 -10.213)"/><g transform="translate(483.754 479.708)"><g transform="translate(0.497 2.985)"><path class="b" d="M2148.075,902.12a.118.118,0,0,0-.226-.033c-.447,1.1-1.709,3.939-3.314,5.34-2.613,2.282-4.628,6.24-3.384,8.551C2141.152,915.977,2149.4,915.41,2148.075,902.12Z" transform="translate(-2140.774 -902.014)"/><path class="c" d="M2292.186,1135.935c-.007.037-.016.066-.024.1l-.026.095-.053.189c-.037.126-.075.251-.114.376q-.116.375-.242.748c-.167.5-.348.989-.536,1.478s-.389.974-.6,1.454-.43.956-.665,1.426a25.13,25.13,0,0,1-1.565,2.73c-.294.434-.6.861-.931,1.269a13.585,13.585,0,0,1-1.062,1.162.02.02,0,0,1-.029,0,.021.021,0,0,1,0-.029h0a15.3,15.3,0,0,0,1.024-1.186c.322-.411.619-.841.906-1.277s.554-.885.812-1.339.5-.919.733-1.385c.469-.934.887-1.893,1.28-2.862q.292-.728.556-1.467.133-.369.259-.741l.122-.373.059-.187.029-.094c.009-.031.019-.064.025-.091v0a.02.02,0,0,1,.025-.015A.021.021,0,0,1,2292.186,1135.935Z" transform="translate(-2285.292 -1134.237)"/></g><g transform="translate(0 0)"><path class="d" d="M2075.369,484.981a.126.126,0,0,0-.241.035c-.123,1.256-.549,4.538-1.76,6.456-1.973,3.122-2.829,7.773-.857,9.753C2072.51,501.225,2080.751,498.143,2075.369,484.981Z" transform="translate(-2071.391 -484.903)"/><path class="c" d="M2271.639,737.321c0,.04,0,.073.005.108l0,.1,0,.209c0,.14,0,.279,0,.419q-.005.419-.02.837c-.02.558-.055,1.115-.1,1.671s-.1,1.112-.171,1.666-.148,1.107-.245,1.657a26.784,26.784,0,0,1-.769,3.261c-.169.533-.352,1.061-.565,1.578a14.45,14.45,0,0,1-.731,1.507.022.022,0,0,1-.03.009.022.022,0,0,1-.009-.03h0a16.27,16.27,0,0,0,.685-1.521c.2-.517.377-1.046.537-1.578s.3-1.072.422-1.613.229-1.089.328-1.636c.195-1.1.331-2.2.437-3.309q.078-.831.123-1.666.023-.417.039-.834l.012-.417,0-.209v-.1c0-.034,0-.071,0-.1v-.005a.022.022,0,0,1,.044,0Z" transform="translate(-2267.594 -735.494)"/></g></g><g transform="translate(472.315 479.67)"><path class="e" d="M473.176,793.707a1.2,1.2,0,0,1,1.2-1.2h10.2a1.056,1.056,0,0,1,1.055,1l.753,14.784a.779.779,0,0,1-.764.818l-11.687.212a.739.739,0,0,1-.753-.739Z" transform="translate(-473.176 -790.269)"/><path class="f" d="M525.561,2715.567h0l-1.308-.017a.807.807,0,0,1-.793-.8v-1.975a.028.028,0,0,1,.056,0v1.975a.75.75,0,0,0,.738.747l1.308.017a.028.028,0,0,1,.028.028A.028.028,0,0,1,525.561,2715.567Z" transform="translate(-523.1 -2696.761)"/><path class="f" d="M523.488,2582.993a.028.028,0,0,1-.028-.028v-.32a.028.028,0,1,1,.056,0v.32A.028.028,0,0,1,523.488,2582.993Z" transform="translate(-523.1 -2567.567)"/><g transform="translate(0.835 2.116)"><path class="g" d="M589.9,775.665a.348.348,0,0,1,.4-.347,54.385,54.385,0,0,0,10.14.469.322.322,0,0,1,.347.3l.789,14.85a.371.371,0,0,1-.348.39,108.033,108.033,0,0,1-10.968.223.294.294,0,0,1-.263-.291Z" transform="translate(-589.896 -775.314)"/><path class="f" d="M612.813,829.489a.335.335,0,0,1,.38-.334,52.321,52.321,0,0,0,9.758.451.31.31,0,0,1,.334.292l.759,14.29a.357.357,0,0,1-.335.375,103.983,103.983,0,0,1-10.555.215.283.283,0,0,1-.253-.28Z" transform="translate(-612.649 -828.766)"/><g class="h" transform="translate(5.303 1.816)"><path class="i" d="M1335.376,1029.368a.032.032,0,0,0,.032-.033l0-.14a.035.035,0,0,0-.034-.033l-4.525-.069a.02.02,0,0,0-.02.03l.089.215a.053.053,0,0,0,.045.03Z" transform="translate(-1330.822 -1029.094)"/></g><g class="h" transform="translate(5.303 2.387)"><path class="i" d="M1330.844,1108.895a.02.02,0,0,0-.02.03l.089.215a.053.053,0,0,0,.045.03h4.418a.032.032,0,0,0,.032-.033l0-.14a.035.035,0,0,0-.034-.033Z" transform="translate(-1330.822 -1108.895)"/></g><g class="h" transform="translate(5.303 2.967)"><path class="i" d="M1330.844,1189.855a.02.02,0,0,0-.02.03l.089.215a.053.053,0,0,0,.045.03h4.418a.032.032,0,0,0,.032-.033l0-.14a.035.035,0,0,0-.034-.033Z" transform="translate(-1330.822 -1189.855)"/></g><g class="h" transform="translate(1.054 5.546)"><path class="i" d="M745.922,1550.481a.03.03,0,0,0,.031-.033l-.009-.14a.036.036,0,0,0-.035-.033l-8.789-.069c-.018,0-.024.011-.012.025l.178.224a.077.077,0,0,0,.053.026Z" transform="translate(-737.101 -1550.206)"/></g><g class="h" transform="translate(1.054 6.117)"><path class="i" d="M737.119,1630.008c-.018,0-.024.011-.012.025l.178.224a.077.077,0,0,0,.053.026h8.583a.03.03,0,0,0,.031-.033l-.009-.14a.036.036,0,0,0-.035-.033Z" transform="translate(-737.101 -1630.008)"/></g><path class="j" d="M718.494,1789.757c.207-.016.6-.023.809-.026a.193.193,0,0,1,.191.148,3.148,3.148,0,0,1,.091.782.172.172,0,0,1-.173.168l-.788-.008a.19.19,0,0,1-.187-.172l-.069-.741A.138.138,0,0,1,718.494,1789.757Z" transform="translate(-717.447 -1782.471)"/><g class="h" transform="translate(2.389 7.587)"><path class="i" d="M923.718,1835.42a.026.026,0,0,0-.028.031l.045.3a.04.04,0,0,0,.038.032h2.087a.032.032,0,0,0,.032-.033l0-.206a.036.036,0,0,0-.033-.034Z" transform="translate(-923.69 -1835.42)"/></g><path class="f" d="M1318.323,1789.757c.207-.016.6-.023.809-.026a.194.194,0,0,1,.191.148,3.167,3.167,0,0,1,.091.782.172.172,0,0,1-.173.168l-.788-.008a.189.189,0,0,1-.186-.172l-.07-.741A.138.138,0,0,1,1318.323,1789.757Z" transform="translate(-1312.983 -1782.471)"/><g class="h" transform="translate(6.682 7.587)"><path class="i" d="M1523.547,1835.42a.026.026,0,0,0-.028.031l.045.3a.04.04,0,0,0,.038.032h2.087a.032.032,0,0,0,.032-.033l0-.206a.036.036,0,0,0-.033-.034Z" transform="translate(-1523.518 -1835.42)"/></g><g transform="translate(0.946 8.985)"><path class="i" d="M723.124,2066.228h0l-.727-.007a.2.2,0,0,1-.2-.167l-.064-.61a.133.133,0,0,1,.031-.1.16.16,0,0,1,.111-.055h0l.239-.019c.192-.016.432-.037.566-.039a.2.2,0,0,1,.2.142,3.049,3.049,0,0,1,.027.688A.18.18,0,0,1,723.124,2066.228Zm-.846-.882a.1.1,0,0,0-.072.035.076.076,0,0,0-.018.058l.064.61a.14.14,0,0,0,.144.116l.727.007h0a.124.124,0,0,0,.13-.111,3.029,3.029,0,0,0-.026-.672.15.15,0,0,0-.149-.1c-.133,0-.371.022-.562.038l-.24.02Z" transform="translate(-722.13 -2064.985)"/><path class="f" d="M740.612,2083.486c.153-.01.485-.044.642-.046a.14.14,0,0,1,.141.1,2.468,2.468,0,0,1,.021.543.121.121,0,0,1-.128.111l-.581-.006a.134.134,0,0,1-.137-.113l-.051-.488A.094.094,0,0,1,740.612,2083.486Z" transform="translate(-740.387 -2083.063)"/><g class="h" transform="translate(1.626 0.611)"><path class="i" d="M949.3,2116.315a.18.18,0,0,0,.176.134l6.728-.057a.136.136,0,0,0,0-.273l-6.728-.031A.18.18,0,0,0,949.3,2116.315Z" transform="translate(-949.299 -2116.089)"/></g><path class="k" d="M749.949,2031.218h0a.112.112,0,0,1,.154.042l.143.257a.036.036,0,0,0,.064,0l.356-.792a.04.04,0,0,1,.076.017,1.564,1.564,0,0,1-.455,1.088.851.851,0,0,1-.385-.46A.117.117,0,0,1,749.949,2031.218Z" transform="translate(-749.693 -2030.698)"/><path class="i" d="M723.124,2283.976h0l-.727-.007a.2.2,0,0,1-.2-.167l-.064-.61a.133.133,0,0,1,.031-.1.162.162,0,0,1,.111-.055h0l.239-.019c.192-.016.432-.037.566-.039h0a.2.2,0,0,1,.2.143,3.045,3.045,0,0,1,.027.688A.18.18,0,0,1,723.124,2283.976Zm-.846-.882a.1.1,0,0,0-.072.035.077.077,0,0,0-.018.058l.064.61a.14.14,0,0,0,.144.117l.727.007h0a.124.124,0,0,0,.13-.111,3.032,3.032,0,0,0-.026-.672.149.149,0,0,0-.149-.1c-.133,0-.371.021-.562.038l-.24.02Z" transform="translate(-722.13 -2281.174)"/><path class="f" d="M740.612,2301.238c.153-.01.485-.044.642-.046a.141.141,0,0,1,.141.1,2.474,2.474,0,0,1,.021.543.121.121,0,0,1-.128.11l-.581-.005a.134.134,0,0,1-.137-.113l-.051-.488A.1.1,0,0,1,740.612,2301.238Z" transform="translate(-740.387 -2299.257)"/><g class="h" transform="translate(1.626 2.17)"><path class="i" d="M949.3,2334.067a.181.181,0,0,0,.176.135l6.728-.057a.137.137,0,0,0,0-.273l-6.728-.031A.18.18,0,0,0,949.3,2334.067Z" transform="translate(-949.299 -2333.841)"/></g><path class="l" d="M749.949,2248.97h0a.112.112,0,0,1,.154.042l.143.257a.036.036,0,0,0,.064,0l.356-.792a.04.04,0,0,1,.076.017,1.564,1.564,0,0,1-.455,1.088.849.849,0,0,1-.385-.46A.117.117,0,0,1,749.949,2248.97Z" transform="translate(-749.693 -2246.892)"/><path class="i" d="M723.124,2501.728h0l-.727-.007a.2.2,0,0,1-.2-.166l-.064-.61a.132.132,0,0,1,.031-.1.157.157,0,0,1,.111-.055h0l.239-.02c.192-.016.432-.036.566-.038h0a.2.2,0,0,1,.2.143,3.044,3.044,0,0,1,.027.688A.18.18,0,0,1,723.124,2501.728Zm-.846-.882a.1.1,0,0,0-.072.035.075.075,0,0,0-.018.058l.064.61a.139.139,0,0,0,.144.116l.727.008h0a.124.124,0,0,0,.13-.112,3.027,3.027,0,0,0-.026-.671.149.149,0,0,0-.149-.1c-.133,0-.371.022-.562.038l-.24.019Z" transform="translate(-722.13 -2497.368)"/><path class="f" d="M740.612,2518.99c.153-.01.485-.044.642-.046a.141.141,0,0,1,.141.1,2.47,2.47,0,0,1,.021.543.121.121,0,0,1-.128.111l-.581-.005a.135.135,0,0,1-.137-.113l-.051-.488A.094.094,0,0,1,740.612,2518.99Z" transform="translate(-740.387 -2515.449)"/><g class="h" transform="translate(1.626 3.728)"><path class="i" d="M949.3,2551.819a.181.181,0,0,0,.176.135l6.728-.057a.137.137,0,0,0,0-.273l-6.728-.031A.18.18,0,0,0,949.3,2551.819Z" transform="translate(-949.299 -2551.593)"/></g><path class="i" d="M723.124,2719.48h0l-.727-.007a.2.2,0,0,1-.2-.166l-.064-.61a.133.133,0,0,1,.031-.1.159.159,0,0,1,.111-.055h0l.239-.02c.192-.016.432-.036.566-.038h0a.2.2,0,0,1,.2.143,3.043,3.043,0,0,1,.027.688A.18.18,0,0,1,723.124,2719.48Zm-.846-.882a.1.1,0,0,0-.072.035.077.077,0,0,0-.018.058l.064.61a.14.14,0,0,0,.144.116l.727.007h0a.124.124,0,0,0,.13-.112,3.03,3.03,0,0,0-.026-.672.149.149,0,0,0-.149-.1c-.133,0-.371.022-.562.038l-.24.02Z" transform="translate(-722.13 -2713.561)"/><path class="f" d="M740.612,2736.742c.153-.01.485-.044.642-.046a.141.141,0,0,1,.141.1,2.468,2.468,0,0,1,.021.543.121.121,0,0,1-.128.11l-.581-.005a.134.134,0,0,1-.137-.113l-.051-.488A.094.094,0,0,1,740.612,2736.742Z" transform="translate(-740.387 -2731.643)"/><g class="h" transform="translate(1.626 5.287)"><path class="i" d="M949.3,2769.571h0a.18.18,0,0,0,.176.134l6.728-.057a.136.136,0,0,0,0-.273l-6.728-.031A.18.18,0,0,0,949.3,2769.571Z" transform="translate(-949.299 -2769.345)"/></g><path class="m" d="M749.949,2684.473h0a.112.112,0,0,1,.154.042l.143.257a.036.036,0,0,0,.064,0l.356-.792a.04.04,0,0,1,.076.017,1.565,1.565,0,0,1-.455,1.088.849.849,0,0,1-.385-.46A.117.117,0,0,1,749.949,2684.473Z" transform="translate(-749.693 -2679.279)"/><path class="n" d="M749.949,2461h0a.112.112,0,0,1,.154.042l.143.257a.036.036,0,0,0,.064,0l.356-.792a.04.04,0,0,1,.076.017,1.564,1.564,0,0,1-.455,1.088.849.849,0,0,1-.385-.46A.117.117,0,0,1,749.949,2461Z" transform="translate(-749.693 -2457.403)"/></g><g transform="translate(0.71 0.538)"><circle class="d" cx="1.602" cy="1.602" r="1.602" transform="translate(0 2.265) rotate(-45)"/><path class="i" d="M850.894,1014.486h-.532v-.458a.2.2,0,0,0-.195-.195h-.39a.2.2,0,0,0-.195.195v.458h-.532a.2.2,0,0,0-.195.195v.453a.2.2,0,0,0,.195.195h.532v.458a.2.2,0,0,0,.195.195h.39a.2.2,0,0,0,.195-.195v-.458h.532a.2.2,0,0,0,.195-.195v-.453A.2.2,0,0,0,850.894,1014.486Z" transform="translate(-847.712 -1012.664)"/></g></g><path class="o" d="M1270.067,479.893a1.036,1.036,0,0,0-.914-.185.45.45,0,0,0-.319.473l.1,1.061,1.157.1S1270.789,480.4,1270.067,479.893Zm-.509.856a.288.288,0,1,1,.289-.289A.289.289,0,0,1,1269.558,480.75Z" transform="translate(-1263.137 -479.67)"/><g transform="translate(5.838 0.155)"><path class="b" d="M1288.887,502.353a.028.028,0,0,1-.028-.025l-.016-.169a.028.028,0,0,1,.025-.03.028.028,0,0,1,.03.025l.015.169a.028.028,0,0,1-.025.03Zm-.03-.331a.028.028,0,0,1-.028-.025l-.012-.128a.429.429,0,0,1,.3-.45.865.865,0,0,1,.423-.017.028.028,0,1,1-.011.055.81.81,0,0,0-.4.016.373.373,0,0,0-.264.392l.012.128a.028.028,0,0,1-.025.03Z" transform="translate(-1288.816 -501.382)"/></g><path class="p" d="M1062.056,676.054v-.534a.325.325,0,0,1,.337-.325l3.679.126a.317.317,0,0,1,.305.3l.031.513Z" transform="translate(-1057.841 -673.795)"/><path class="b" d="M1227.889,695.567h-.158a.028.028,0,1,1,0-.056h.158a.028.028,0,0,1,0,.056Z" transform="translate(-1222.303 -693.966)"/><path class="b" d="M1086,696.057a.028.028,0,0,1-.028-.028v-.216a.3.3,0,0,1,.3-.3h.582a.028.028,0,0,1,0,.056h-.582a.247.247,0,0,0-.247.247v.216A.028.028,0,0,1,1086,696.057Z" transform="translate(-1081.589 -693.966)"/><path class="q" d="M862.226,766.343a.347.347,0,0,1,.346-.33h6.433a.475.475,0,0,1,.469.394l.005.031a.408.408,0,0,1-.4.478h-6.6a.265.265,0,0,1-.265-.278Z" transform="translate(-859.427 -763.964)"/></g><path class="r" d="M1288.169,3027.871l-.01-.01A.047.047,0,0,1,1288.169,3027.871Z" transform="translate(-810.01 -2529.953)"/><g transform="translate(484.505 484.703)"><path class="s" d="M2297.281,3083.435s-.607.472-.414.458a4.451,4.451,0,0,0,.758-.085c.011-.037-.051-.38-.1-.373S2297.281,3083.486,2297.281,3083.435Z" transform="translate(-2295.966 -3069.832)"/><path class="t" d="M2301.311,1206.489a1.327,1.327,0,0,1,.483,1.167,2.834,2.834,0,0,0,.594,1.522c.359.559,1.058,1.149.608,1.864-.281.449-.962,1.131-1.544,1.069a1.361,1.361,0,0,1-.854-.6c-.9-1.678-.868-4.072-.471-4.534A1.838,1.838,0,0,1,2301.311,1206.489Z" transform="translate(-2298.977 -1206.32)"/><g transform="translate(1.016 10.689)"><path class="u" d="M2318.924,2676.243s0,2.29-.107,2.936a.078.078,0,0,1-.064.065.2.2,0,0,1-.121-.018.077.077,0,0,1-.045-.062l-.3-2.88Z" transform="translate(-2318.283 -2676.243)"/><path class="v" d="M2437.381,3076.344l-.036.088-.026.316a.1.1,0,0,0,.086.089,1.588,1.588,0,0,0,.292.013.1.1,0,0,0,.087-.131l-.106-.228a.137.137,0,0,0-.081-.073Z" transform="translate(-2436.467 -3073.48)"/><path class="w" d="M2430.348,2676.243s0,2.321.11,2.951a.058.058,0,0,0,.039.044.2.2,0,0,0,.154-.017.058.058,0,0,0,.033-.046l.306-2.892Z" transform="translate(-2429.546 -2676.243)"/></g><path class="x" d="M2177.656,1494.965a1.478,1.478,0,0,0-.473.819c-.073.488-.631.985-.075,1.525a2.881,2.881,0,0,0-.34,3.4c.137,1.432.228,2.836.228,2.836h2.069s.9-4.625-.2-5.144a19.462,19.462,0,0,0,.257-2.823A1.363,1.363,0,0,0,2177.656,1494.965Z" transform="translate(-2176.33 -1492.676)"/><path class="y" d="M2362.451,1421.355v.752a.122.122,0,0,0,.1.121.931.931,0,0,0,.386-.013.124.124,0,0,0,.086-.142l-.14-.718Z" transform="translate(-2361.119 -1419.648)"/><path class="z" d="M2298.961,1215.7s-.476,1.269.129,1.423c.712.182.952-.759.952-.759S2299.417,1214.571,2298.961,1215.7Z" transform="translate(-2297.907 -1215.095)"/><path class="aa" d="M2295.971,1183.329a.143.143,0,0,0,.171.177,1.4,1.4,0,0,1,.35-.042c.764.03.466.526.466.6,0,.162.16-.084.169-.03a2.041,2.041,0,0,1-.073.48,1.251,1.251,0,0,0,.648-.341c.159-.238-.02-.773-.079-.972a.793.793,0,0,0-.675-.377C2296.752,1182.847,2296.129,1182.754,2295.971,1183.329Z" transform="translate(-2295.109 -1182.828)"/><path class="ab" d="M2444.205,1337.362s.06-.3.218-.238-.118.4-.218.456Z" transform="translate(-2442.288 -1336.011)"/><g transform="translate(1.61 2.675)"><path class="ac" d="M2469.342,1556.72a.188.188,0,0,1,.344-.02c.388.772,1.064,2.573-.463,3.518l-.18-.257a2.465,2.465,0,0,0,.192-2.386.567.567,0,0,1-.036-.464Z" transform="translate(-2468.558 -1556.596)"/><path class="ad" d="M2401.769,2026.436s-.447.165-.471.518.024.448.094.33a.922.922,0,0,1,.283-.33,1.674,1.674,0,0,0,.282-.259S2401.934,2026.436,2401.769,2026.436Z" transform="translate(-2401.292 -2023.073)"/></g><path class="ae" d="M2178.663,1924.3s-.335.431-.074.488a1.142,1.142,0,0,0,.3-.355A.133.133,0,1,0,2178.663,1924.3Z" transform="translate(-2178.474 -1918.923)"/><path class="d" d="M2541.717,1339.263h0a.009.009,0,0,1-.005-.011c.173-.468-.064-.944-.563-1.659a3.748,3.748,0,0,1-.544-1.719.009.009,0,0,1,.009-.009h0a.009.009,0,0,1,.009.009,3.719,3.719,0,0,0,.541,1.709c.5.72.741,1.2.565,1.676A.008.008,0,0,1,2541.717,1339.263Z" transform="translate(-2537.994 -1334.768)"/></g><g transform="translate(475.528 484.839)"><path class="af" d="M1075.205,1593.824l0,0h.009s.006.006.006.01h0l-.01,0s-.005.01-.006.017l0,0c-.016.094-.1.35-.2.682l0,.008c-.211.745-.516,1.868-.608,2.387,0,0-.163.052-.416.124h0a3.3,3.3,0,0,1-1.43.015,16.934,16.934,0,0,1,.058-4.2,11.5,11.5,0,0,1,1.823-.279s.01-.01.015-.01c.076,0,.153-.016.23-.016h.088a.81.81,0,0,1,.193.075s.007.005.007.006h0l.021.012.029.014.007,0,0,0,.02.01,0,0,.024.013s-.005,0,0,0l.031.016c.009,0,.015.009.016.015v-.008l.014.008h0a1.017,1.017,0,0,1,.149.1h0l0,0C1075.487,1593.2,1075.585,1593.776,1075.205,1593.824Z" transform="translate(-1071.359 -1589.774)"/><g transform="translate(3.321 2.813)"><path class="b" d="M1388.687,1596.771a2.552,2.552,0,0,1-1.756-1.3,1.053,1.053,0,0,0-.985-.51l.316,1.361a2.185,2.185,0,0,0,2.4,1.052A1.206,1.206,0,0,0,1388.687,1596.771Z" transform="translate(-1385.946 -1594.951)"/><path class="b" d="M1766.931,1819.622l-.347.085a2.747,2.747,0,0,1-1.085.127,1.208,1.208,0,0,1-.024.6,2.9,2.9,0,0,0,.732-.238C1767,1819.964,1766.931,1819.622,1766.931,1819.622Z" transform="translate(-1762.758 -1818.014)"/></g><path class="ag" d="M1907.962,1791.647a.232.232,0,0,0-.094-.178l-.553-.409s.011-.082.165-.1a.192.192,0,0,0,.162-.183s-.214.038-.529.1a.678.678,0,0,0-.382.246l.1.25a2.922,2.922,0,0,0,1.131.391Z" transform="translate(-1899.683 -1786.563)"/><path class="ah" d="M1396.255,1594.782h0Z" transform="translate(-1392.849 -1591.969)"/><path class="i" d="M1427.724,1593.252h0Z" transform="translate(-1424.104 -1590.451)"/><path class="ai" d="M1424.538,1593.38h0Z" transform="translate(-1420.94 -1590.577)"/><path class="aj" d="M1336.227,3076.9s-.05.281-.074.558a.191.191,0,0,0,.183.207c.37.015,1.16.045,1.443.033a.062.062,0,0,0,.055-.085h0a.138.138,0,0,0-.071-.075l-1.306-.6Z" transform="translate(-1333.188 -3063.48)"/><path class="ak" d="M1340.9,3046.708l.04.335a.415.415,0,0,0,.385-.014l-.095-.374Z" transform="translate(-1337.899 -3033.454)"/><path class="al" d="M1201.251,2173.252a34.279,34.279,0,0,0,.365,6.288.065.065,0,0,1-.038.076,1.132,1.132,0,0,1-.373.076.112.112,0,0,1-.111-.08,22.008,22.008,0,0,1-.839-4.806c-.091-2.381,0-.081,0-.081l.053-1.472Z" transform="translate(-1198.223 -2166.3)"/><path class="am" d="M1114.9,3097.33a2.024,2.024,0,0,0-.155.517.117.117,0,0,0,.1.14c.122.012.31.028.46.027a.117.117,0,0,0,.115-.13.981.981,0,0,0-.229-.538Z" transform="translate(-1113.363 -3083.764)"/><path class="ak" d="M1127.076,3034.35l.093.507a.327.327,0,0,0,.274.019l-.044-.545Z" transform="translate(-1125.608 -3021.215)"/><path class="an" d="M1072.007,2158.765a21.373,21.373,0,0,0,.235,6.233.1.1,0,0,0,.082.077.678.678,0,0,0,.293-.012.093.093,0,0,0,.067-.085,30.114,30.114,0,0,1,.332-5.031.289.289,0,0,1,.112-.16l.677-.481.052-.778Z" transform="translate(-1070.791 -2151.681)"/><path class="i" d="M926.774,1635.861l-.43-1.086a3.135,3.135,0,0,0-1.22,1.615,2.472,2.472,0,0,1,.911.244C926.112,1636.208,926.774,1635.861,926.774,1635.861Z" transform="translate(-925.102 -1631.677)"/><path class="ao" d="M1216.68,1466.4l-.357,1.032a.037.037,0,0,0,.017.045.839.839,0,0,0,.87-.059.175.175,0,0,0,.081-.125l.116-.893Z" transform="translate(-1214.215 -1464.503)"/><path class="i" d="M1048.318,1568.369l.426-.362.637,1.555-.465,6.181-1.451.044a.038.038,0,0,1-.027-.011.037.037,0,0,1-.011-.027l.2-5.946s.005-1.285.142-1.317S1048.318,1568.369,1048.318,1568.369Z" transform="translate(-1046.53 -1565.387)"/><path class="b" d="M1256.841,1569.449l.008.01h0l-.01,0-.006.017,0,0-.123,1.227h0l-.5,5.12a.037.037,0,0,1-.012.026.036.036,0,0,1-.027.007l-.785-.113.228-3.074v0l.239-3.183.217-1.278h0l.03-.2.21.185h0l.06,0h.025c.039.01.2.071.2.071l.082.038,0,0,.024.012s0,0,0,0c.016.009.035.019.035.03h0l.093,1.084.01,0Z" transform="translate(-1252.991 -1565.395)"/><path class="ap" d="M1357.6,1776.569v.151l.55-.034v-.168Z" transform="translate(-1354.479 -1772.406)"/><path class="d" d="M1184,1641.2H1184l-.489-.263a.012.012,0,0,1-.006-.009l-.067-.454-.181-.032a.012.012,0,0,1-.009-.008l-.189-.614a.012.012,0,0,1,.008-.015.012.012,0,0,1,.015.008l.187.607.182.032a.012.012,0,0,1,.01.01l.068.456.484.26a.012.012,0,0,1,0,.016A.012.012,0,0,1,1184,1641.2Z" transform="translate(-1181.187 -1636.671)"/><path class="i" d="M1330.56,1594.271h0a.009.009,0,0,1,0-.012l.257-.451-.042-.255a.009.009,0,0,1,0-.009l.208-.111-.053-.734a.009.009,0,0,1,.018,0l.053.739a.009.009,0,0,1,0,.009l-.208.11.042.252a.011.011,0,0,1,0,.006l-.259.454A.009.009,0,0,1,1330.56,1594.271Z" transform="translate(-1327.626 -1589.891)"/><g transform="translate(0 3.369)"><path class="i" d="M924.559,1856.392s-1.176.665-1.573.1a.447.447,0,0,1-.082-.347,2.472,2.472,0,0,0-.911-.244,1.246,1.246,0,0,0,.135.854c.7,1.272,2.586-.07,2.586-.07Z" transform="translate(-921.969 -1854.587)"/><g transform="translate(2.446)"><path class="aq" d="M1263.693,1705.538l.642-2.242a.065.065,0,0,1,.055-.047c.116-.014.453-.052.842-.084a9.536,9.536,0,0,1,1.338-.044.065.065,0,0,1,.054.094,22.439,22.439,0,0,1-1.327,2.4.066.066,0,0,1-.053.026l-1.49-.014A.065.065,0,0,1,1263.693,1705.538Z" transform="translate(-1263.69 -1702.892)"/><path class="d" d="M1480.657,1672.76l.465-.077a.033.033,0,0,1,.037.043l-.046.14a.033.033,0,0,1-.027.022l-.448.06a.033.033,0,0,1-.037-.041l.028-.122A.034.034,0,0,1,1480.657,1672.76Z" transform="translate(-1479.048 -1672.682)"/><path class="ar" d="M1439.677,1692.5l.038-.2a.046.046,0,0,1,.041-.037l.94-.1a.046.046,0,0,1,.05.056l-.06.249a.047.047,0,0,1-.043.035l-.919.046A.046.046,0,0,1,1439.677,1692.5Z" transform="translate(-1438.417 -1692.03)"/><path class="ak" d="M1277.129,1860.663a1.629,1.629,0,0,1-.053-.5c.036-.13.106-.3.339-.261a3.412,3.412,0,0,1,.508.135.134.134,0,0,1-.191.115l.11.085s-.016.136-.165.063l.1.113a.119.119,0,0,1-.174.04C1277.494,1860.383,1277.441,1860.707,1277.129,1860.663Z" transform="translate(-1276.972 -1858.558)"/></g></g><path class="d" d="M1088.774,1919.227a.6.6,0,0,1-.285-.058.012.012,0,0,1,0-.016.012.012,0,0,1,.016,0c.315.173,1.09-.122,1.1-.125a.413.413,0,0,0,.208-.159.012.012,0,0,1,.021.011.428.428,0,0,1-.221.171A2.8,2.8,0,0,1,1088.774,1919.227Z" transform="translate(-1087.292 -1913.726)"/><path class="d" d="M1068.149,1987.932a.012.012,0,0,1,0-.024,2.5,2.5,0,0,0,1.409-.445.012.012,0,0,1,.017,0,.012.012,0,0,1,0,.017,2.523,2.523,0,0,1-1.423.45Z" transform="translate(-1067.091 -1981.838)"/><g transform="translate(1.86 0)"><path class="as" d="M1246.007,1329.7a3.811,3.811,0,0,1,.145.938c-.027.312.011.522-.355.533a.768.768,0,0,1-.761-.542s-.188-.511-.1-.7S1246.007,1329.7,1246.007,1329.7Z" transform="translate(-1244.459 -1328.787)"/><path class="at" d="M1181.927,1202.856c.078-.049.129-.032.158-.007a.025.025,0,0,0,.027,0c0-.009.06-.649.932-.536a.225.225,0,0,0,.225-.112c.1-.182.3-.449.447-.188.21.371.272.858-.323.959-.035.006-.071.011-.106.015-.246.061-.526.08-.629.106-.173.044-.041.447-.041.447l-.045-.006-.1-.014c-.014,0-.028.014-.029.028l-.022.275a.026.026,0,0,1-.022.024.5.5,0,0,1-.334-.128c-.172-.126-.089-.19-.037-.214a.024.024,0,0,0,.007-.039C1181.8,1203.212,1181.792,1202.941,1181.927,1202.856Z" transform="translate(-1181.84 -1201.907)"/><path class="au" d="M1242.68,1394.731s-.044-.39-.228-.309.027.434.161.468Z" transform="translate(-1241.947 -1393.033)"/><path class="i" d="M1419.045,1224.873a.012.012,0,0,1-.008,0,.012.012,0,0,1,0-.017.486.486,0,0,0,.2-.341.613.613,0,0,0-.15-.408.012.012,0,0,1,0-.017.012.012,0,0,1,.017,0,.625.625,0,0,1,.156.427.509.509,0,0,1-.214.358A.011.011,0,0,1,1419.045,1224.873Z" transform="translate(-1417.337 -1223.923)"/></g><path class="i" d="M1427.724,1593.252h0Z" transform="translate(-1424.104 -1590.451)"/></g><g transform="translate(487.143 484.626)"><path class="av" d="M2643.494,1966.611l-1.069.013.374-.353a.279.279,0,0,1,.342-.032.8.8,0,0,1,.19.169,2.139,2.139,0,0,0,.991-.789.655.655,0,1,1-.828.991Z" transform="translate(-2641.726 -1959.941)"/><path class="aw" d="M2591.017,3169.779c.285.025.779.065,1.168.082a1.137,1.137,0,0,0,.447-.043c0,.009,0,.017,0,.024a.081.081,0,0,1-.077.076,13.491,13.491,0,0,1-1.53,0,.057.057,0,0,1-.047-.086A.44.44,0,0,1,2591.017,3169.779Z" transform="translate(-2590.64 -3155.481)"/><path class="ax" d="M2598.7,3090.1c-.39-.017-.884-.057-1.169-.082a2.93,2.93,0,0,1,1.169-.575h.251a1.056,1.056,0,0,1,.2.613A1.135,1.135,0,0,1,2598.7,3090.1Z" transform="translate(-2597.15 -3075.723)"/><path class="ay" d="M2736.811,3032.2l-.024.465a.106.106,0,0,1-.09.1.412.412,0,0,1-.189-.016.125.125,0,0,1-.084-.1l-.081-.452Z" transform="translate(-2734.972 -3018.891)"/><g transform="translate(4.019 13.456)"><path class="az" d="M3149.126,3201.377a.235.235,0,0,0,.2-.175v0a.192.192,0,0,1-.108.213.614.614,0,0,1-.3.054.283.283,0,0,1-.225-.12h0A.655.655,0,0,0,3149.126,3201.377Z" transform="translate(-3148.394 -3200.136)"/><path class="ba" d="M3106.569,3052.2h.207c.315-.007.513.767.578,1.066a.235.235,0,0,1-.2.175.654.654,0,0,1-.429-.027,2.538,2.538,0,0,1-.3-.866A.314.314,0,0,1,3106.569,3052.2Z" transform="translate(-3106.418 -3052.202)"/></g><path class="bb" d="M3091.411,2991.942l.115.457a.124.124,0,0,1-.064.141.445.445,0,0,1-.239.058.106.106,0,0,1-.085-.069l-.168-.481Z" transform="translate(-3087.061 -2978.917)"/><path class="bc" d="M2587.732,2132.845s1.027,6.419,1.01,6.455a.853.853,0,0,0,.593.016s-.093-3.432-.311-4.747a44.053,44.053,0,0,1,2.31,4.6,1.4,1.4,0,0,0,.531-.193s-1.887-5.521-2.391-6.257Z" transform="translate(-2587.425 -2125.84)"/><path class="bd" d="M2663.275,2283a.049.049,0,0,0,.026-.008.05.05,0,0,0,.016-.068l-.384-.613a.05.05,0,0,0-.032-.022l-.283-.057a.05.05,0,0,0-.019.1l.261.052.373.595A.05.05,0,0,0,2663.275,2283Z" transform="translate(-2661.717 -2274.286)"/><path class="be" d="M2545.037,1530.765c.173-.362,1.664-.4,2.757-.04a.848.848,0,0,1,.512.466c.3.678.774,2.223-.554,3a3.289,3.289,0,0,0-.321-.607,1.386,1.386,0,0,0-.1-1.5,9.385,9.385,0,0,0-.434,2.321,1.031,1.031,0,0,0,.081.464l.006.016a.055.055,0,0,1-.038.075,6.308,6.308,0,0,1-1.758.1.1.1,0,0,1-.085-.073A9.622,9.622,0,0,1,2545.037,1530.765Z" transform="translate(-2544.835 -1527.908)"/><path class="bf" d="M2697.878,1399.844a10.44,10.44,0,0,0,.142,1.036.08.08,0,0,1-.038.092.783.783,0,0,1-.755-.012.168.168,0,0,1-.093-.158l.033-.773Z" transform="translate(-2696.044 -1398.214)"/><g transform="translate(0.793 0)"><path class="bg" d="M2661.5,1256.869a3.56,3.56,0,0,0-.258.847c-.017.292-.08.481.258.54a.717.717,0,0,0,.775-.4s.241-.448.187-.631S2661.5,1256.869,2661.5,1256.869Z" transform="translate(-2661.189 -1256.262)"/><path class="bh" d="M2656.611,1173.479l-.019-.008a.047.047,0,0,1-.023-.064c.048-.092.141-.3.021-.352-.154-.063-.766-.188-.9-.4a.4.4,0,0,1,.155-.554.023.023,0,0,1,.03.01l.014.027a.023.023,0,0,0,.042,0h0a.023.023,0,0,1,.042-.006.621.621,0,0,0,.443.224c.416.077.691.245.7.533a.023.023,0,0,0,.036.019c.031-.019.08-.028.146.028.114.1.067.345-.183.55a.023.023,0,0,0,0,.037c.045.03.113.1-.062.194a.59.59,0,0,1-.369.08.023.023,0,0,1-.019-.027l.056-.253a.023.023,0,0,0-.022-.028Z" transform="translate(-2655.638 -1172.094)"/><path class="bi" d="M2790.217,1335.209s.093-.355.251-.255-.083.4-.21.411Z" transform="translate(-2789.254 -1333.771)"/></g><path class="bj" d="M2749.254,2022.88a.358.358,0,0,0-.3-.152c-.212,0-.455.395-.455.395a2.144,2.144,0,0,1,.455.273C2749.072,2023.517,2749.254,2023.123,2749.254,2022.88Z" transform="translate(-2747.037 -2016.64)"/></g><g transform="translate(480.933 494.224)"><g transform="translate(0.456 3.228)"><path class="bk" d="M1740.894,2965.083l.82.029a.1.1,0,0,0,.1-.1l-.038-.809a.1.1,0,0,0-.095-.09h-.781a.1.1,0,0,0-.095.095v.78A.1.1,0,0,0,1740.894,2965.083Z" transform="translate(-1740.802 -2964.113)"/></g><path class="bl" d="M1903.738,2877.7s-.819.852-1.337,0l-.15.234s.6,1.237,1.906.15Z" transform="translate(-1900.639 -2875.089)"/><path class="bm" d="M2091.751,2777.938a1.075,1.075,0,0,1,.327-.152c.044-.012.281.057.428.054a2.576,2.576,0,0,1,.572-.055,1.181,1.181,0,0,1,.378.15,1.4,1.4,0,0,1,.454.781,1.069,1.069,0,0,1-.357.235l-.037,1.489-.9.272-.986-.326.036-1.456a4.955,4.955,0,0,1-.437-.408C2091.206,2778.468,2091.469,2778.131,2091.751,2777.938Z" transform="translate(-2088.264 -2775.88)"/><g transform="translate(5.227 4.741)"><path class="bn" d="M2424.909,3176.691a3.935,3.935,0,0,0-.732-.023l-.02.057-.035.279a5.832,5.832,0,0,0,.727.088.228.228,0,0,0,.067-.01l.021-.021A.264.264,0,0,0,2424.909,3176.691Z" transform="translate(-2424.002 -3176.653)"/><path class="bo" d="M2534.1,3180.967l-.022-.006a.264.264,0,0,1,.028.369.207.207,0,0,1-.021.021A.2.2,0,0,0,2534.1,3180.967Z" transform="translate(-2533.169 -3180.922)"/><path class="bp" d="M2407.474,3175.484l.087,0a.167.167,0,0,1,.122.063.2.2,0,0,1,.045.141.163.163,0,0,1-.047.106.132.132,0,0,1-.1.038l-.133-.01Z" transform="translate(-2407.446 -3175.484)"/></g><g transform="translate(2.19 4.733)"><path class="bq" d="M1991.628,3174.458a3.869,3.869,0,0,1,.732,0l.019.057.028.281a5.83,5.83,0,0,1-.728.065.247.247,0,0,1-.067-.012.214.214,0,0,1-.021-.021A.263.263,0,0,1,1991.628,3174.458Z" transform="translate(-1991.471 -3174.438)"/><path class="br" d="M1983.276,3177.207l.022,0a.263.263,0,0,0-.037.368.216.216,0,0,0,.021.021A.2.2,0,0,1,1983.276,3177.207Z" transform="translate(-1983.141 -3177.182)"/><path class="bs" d="M2092.065,3175.494h-.086a.165.165,0,0,0-.123.059.2.2,0,0,0-.048.139.162.162,0,0,0,.044.108.133.133,0,0,0,.1.042l.133-.006Z" transform="translate(-2091.03 -3175.486)"/></g><path class="bt" d="M2120.427,3028.223a.378.378,0,0,0-.554-.16,13.907,13.907,0,0,1-2.49.979,1.26,1.26,0,0,1,.054.333c0,.025,0,.05,0,.073a11.4,11.4,0,0,0,2.7-.606A.461.461,0,0,0,2120.427,3028.223Z" transform="translate(-2114.232 -3024.32)"/><path class="bu" d="M2018.571,3025.021a.765.765,0,0,1,.075-.36l.005-.015c-.067-.02-.153-.048-.266-.086a12.782,12.782,0,0,1-2.061-.9.377.377,0,0,0-.575.234.434.434,0,0,0,.3.532c.667.222.32.16.538.23a9.106,9.106,0,0,0,1.982.391C2018.571,3025.04,2018.571,3025.031,2018.571,3025.021Z" transform="translate(-2013.31 -3019.949)"/><path class="bv" d="M2210.09,2726.307a.511.511,0,0,0,.521.378.45.45,0,0,0,.479-.379l-.288-.061-.024-.32-.432.032-.008.3Z" transform="translate(-2206.276 -2724.401)"/><path class="bw" d="M2153.777,2514.222s-.177-.182-.044-.326a.275.275,0,0,1,0-.333.489.489,0,0,1,.757-.348.525.525,0,0,1,.722.3.247.247,0,0,1,.157.277s.209.778-.56.667Z" transform="translate(-2150.264 -2513.137)"/><path class="bx" d="M2157.788,2583.073s-.513.954.121,1.2a.686.686,0,0,0,.888-.426s.235-.315.117-.52A1.375,1.375,0,0,0,2157.788,2583.073Z" transform="translate(-2154.154 -2582.525)"/><path class="by" d="M2149.465,2636.1s.026-.119-.08-.127.031.284.031.284Z" transform="translate(-2145.966 -2635.098)"/><path class="bz" d="M2170.43,2558.4s-.643-.118-.637-.489a.138.138,0,0,1-.155-.1s-.269.312-.373.131c0,0-.007-.48.384-.373a3.122,3.122,0,0,1,.862.315A.294.294,0,0,1,2170.43,2558.4Z" transform="translate(-2165.743 -2557.24)"/><path class="ca" d="M2316.178,2661.053l.072-.316s.2-.124.193.044A.3.3,0,0,1,2316.178,2661.053Z" transform="translate(-2311.604 -2659.636)"/><path class="cb" d="M2323.655,2910.139s.332,1.34-.688,1.724a.7.7,0,0,1-.317-.117,1.634,1.634,0,0,0,.63-1.379A2.779,2.779,0,0,1,2323.655,2910.139Z" transform="translate(-2318.03 -2907.297)"/><path class="cc" d="M2262.388,3097.78s-.318-.067-.452-.083-.313-.049-.232-.241.2-.16.349-.076C2262.123,3097.417,2262.488,3097.663,2262.388,3097.78Z" transform="translate(-2257.5 -3093.132)"/><g transform="translate(0.842 2.727)"><path class="d" d="M1794.9,2895.1l.75.026a.087.087,0,0,0,.09-.091l-.035-.74a.087.087,0,0,0-.087-.083h-.715a.087.087,0,0,0-.087.087v.714A.087.087,0,0,0,1794.9,2895.1Z" transform="translate(-1794.815 -2894.21)"/></g><path class="cd" d="M1834.521,2857.989c.014-.068.06-.3.182-.352a.454.454,0,0,1,.461.135l.042.189a.077.077,0,0,0-.031-.028c-.032.125-.134.245-.186.224-.083-.033-.067-.033.017-.167h0a.057.057,0,0,0-.052-.086c-.109.007-.216.038-.237.085C1834.674,2858.083,1834.506,2858.056,1834.521,2857.989Z" transform="translate(-1833.393 -2855.148)"/><g transform="translate(1.057 4.181)"><path class="d" d="M1824.973,3098.21l.82.029a.1.1,0,0,0,.1-.1l-.039-.809a.1.1,0,0,0-.095-.091h-.781a.1.1,0,0,0-.095.1v.78A.1.1,0,0,0,1824.973,3098.21Z" transform="translate(-1824.882 -3097.24)"/></g><g transform="translate(0 4.177)"><path class="ar" d="M1677.259,3097.683l.82.02a.1.1,0,0,0,.1-.1l-.047-.808a.1.1,0,0,0-.1-.09l-.781.008a.1.1,0,0,0-.094.1l.008.78A.1.1,0,0,0,1677.259,3097.683Z" transform="translate(-1677.158 -3096.705)"/></g></g></g></svg>