<svg xmlns="http://www.w3.org/2000/svg" width="69.255" height="78.7" viewBox="0 0 69.255 78.7"><defs><style>.a{fill:#f8bf08;stroke:#fff;stroke-width:0.7px;}</style></defs><g transform="translate(0.35 0.35)"><g transform="translate(9.141 31.992)"><path class="a" d="M97.855,210A6.863,6.863,0,0,0,91,216.855v18.586a6.855,6.855,0,1,0,13.711,0V216.855A6.863,6.863,0,0,0,97.855,210Z" transform="translate(-91 -210)"/></g><g transform="translate(0 36.923)"><path class="a" d="M35.57,244.291a11.339,11.339,0,0,1,.195-1.925,6.842,6.842,0,0,0-4.765,6.5v9.445a6.842,6.842,0,0,0,4.765,6.5,11.342,11.342,0,0,1-.195-1.925Z" transform="translate(-31 -242.366)"/></g><g transform="translate(27.422 31.992)"><path class="a" d="M236.137,210a6.863,6.863,0,0,0-6.856,6.855v18.586a6.863,6.863,0,0,0,6.856,6.855,6.76,6.76,0,0,0,1.964-.321,6.841,6.841,0,0,1-6.534,4.891H224.29a6.856,6.856,0,1,0,0,4.57h7.277a11.439,11.439,0,0,0,11.426-11.426V216.855A6.863,6.863,0,0,0,236.137,210Z" transform="translate(-211 -210)"/></g><g transform="translate(63.79 36.923)"><path class="a" d="M449.722,242.366a11.317,11.317,0,0,1,.195,1.925v18.586a11.32,11.32,0,0,1-.195,1.925,6.842,6.842,0,0,0,4.765-6.5v-9.445A6.842,6.842,0,0,0,449.722,242.366Z" transform="translate(-449.722 -242.366)"/></g><path class="a" d="M65.277,0A34.315,34.315,0,0,0,31,34.277v.058a11.315,11.315,0,0,1,4.675-2.123,29.672,29.672,0,0,1,59.2,0,11.319,11.319,0,0,1,4.675,2.123v-.058A34.315,34.315,0,0,0,65.277,0Z" transform="translate(-31)"/></g></svg>