<svg xmlns="http://www.w3.org/2000/svg" width="24.274" height="27.522" viewBox="0 0 24.274 27.522"><defs><style>.a{fill:#fff;stroke:#fff;stroke-width:0.7px;}</style></defs><g transform="translate(-30.65 0.35)"><g transform="translate(34.143 11.001)"><path class="a" d="M93.357,210A2.36,2.36,0,0,0,91,212.357v6.391a2.357,2.357,0,0,0,4.715,0v-6.391A2.36,2.36,0,0,0,93.357,210Z" transform="translate(-91 -210)"/></g><g transform="translate(31 12.697)"><path class="a" d="M32.572,243.028a3.9,3.9,0,0,1,.067-.662A2.353,2.353,0,0,0,31,244.6v3.248a2.353,2.353,0,0,0,1.639,2.233,3.9,3.9,0,0,1-.067-.662Z" transform="translate(-31 -242.366)"/></g><g transform="translate(40.43 11.001)"><path class="a" d="M219.644,210a2.36,2.36,0,0,0-2.357,2.357v6.391a2.36,2.36,0,0,0,2.357,2.357,2.326,2.326,0,0,0,.675-.11,2.353,2.353,0,0,1-2.247,1.682h-2.5a2.357,2.357,0,1,0,0,1.572h2.5A3.934,3.934,0,0,0,222,220.32v-7.963A2.36,2.36,0,0,0,219.644,210Z" transform="translate(-211 -210)"/></g><g transform="translate(52.936 12.697)"><path class="a" d="M449.722,242.366a3.9,3.9,0,0,1,.067.662v6.391a3.9,3.9,0,0,1-.067.662,2.353,2.353,0,0,0,1.639-2.233V244.6A2.353,2.353,0,0,0,449.722,242.366Z" transform="translate(-449.722 -242.366)"/></g><g transform="translate(31)"><path class="a" d="M42.787,0A11.8,11.8,0,0,0,31,11.787v.02a3.891,3.891,0,0,1,1.608-.73,10.2,10.2,0,0,1,20.359,0,3.892,3.892,0,0,1,1.608.73v-.02A11.8,11.8,0,0,0,42.787,0Z" transform="translate(-31)"/></g></g></svg>