<svg xmlns="http://www.w3.org/2000/svg" width="37.401" height="26.311" viewBox="0 0 37.401 26.311"><g transform="translate(0)"><path d="M31.142,2.893a3.988,3.988,0,0,0-7.67,0H0V5.085H23.472a3.988,3.988,0,0,0,7.67,0H37.4V2.893ZM27.307,5.787a1.8,1.8,0,1,1,1.8-1.8A1.8,1.8,0,0,1,27.307,5.787Zm0,0" transform="translate(0)"/><path d="M7.024,125.48a4,4,0,0,0-3.835,2.893H0v2.191H3.189a3.988,3.988,0,0,0,7.67,0H37.4v-2.191H10.859a4,4,0,0,0-3.835-2.893Zm0,5.787a1.8,1.8,0,1,1,1.8-1.8A1.8,1.8,0,0,1,7.024,131.267Zm0,0" transform="translate(0 -116.314)"/><path d="M19.315,250.965a4,4,0,0,0-3.835,2.893H0v2.191H15.48a3.988,3.988,0,0,0,7.67,0H37.4v-2.191H23.149a4,4,0,0,0-3.835-2.893Zm0,5.787a1.8,1.8,0,1,1,1.8-1.8A1.8,1.8,0,0,1,19.315,256.752Zm0,0" transform="translate(0 -232.633)"/></g></svg>