<svg xmlns="http://www.w3.org/2000/svg" width="42.574" height="38.317" viewBox="0 0 42.574 38.317"><defs><style>.a{fill:#707070;}</style></defs><path class="a" d="M33.931,20.03H31.8a2.129,2.129,0,0,0,0,4.257h2.129a2.129,2.129,0,0,0,0-4.257Zm0,8.515H31.8a2.129,2.129,0,1,0,0,4.257h2.129a2.129,2.129,0,0,0,0-4.257ZM21.158,15.772H33.931a2.129,2.129,0,0,0,0-4.257H21.158a2.129,2.129,0,0,0,0,4.257ZM42.445,3h-29.8a2.129,2.129,0,0,0-2.129,2.129v6.386H4.129A2.129,2.129,0,0,0,2,13.644V34.931a6.386,6.386,0,0,0,6.386,6.386H36.059A8.515,8.515,0,0,0,44.574,32.8V5.129A2.129,2.129,0,0,0,42.445,3ZM10.515,34.931a2.129,2.129,0,1,1-4.257,0V15.772h4.257Zm29.8-2.129a4.257,4.257,0,0,1-4.257,4.257H14.389a6.386,6.386,0,0,0,.383-2.129V7.257H40.317ZM21.158,24.287h2.129a2.129,2.129,0,1,0,0-4.257H21.158a2.129,2.129,0,0,0,0,4.257Zm0,8.515h2.129a2.129,2.129,0,1,0,0-4.257H21.158a2.129,2.129,0,0,0,0,4.257Z" transform="translate(-2 -3)"/></svg>