<svg xmlns="http://www.w3.org/2000/svg" width="22.574" height="20.317" viewBox="0 0 22.574 20.317"><defs><style>.a{fill:#fff;}</style></defs><path class="a" d="M18.931,12.03H17.8a1.129,1.129,0,1,0,0,2.257h1.129a1.129,1.129,0,0,0,0-2.257Zm0,4.515H17.8a1.129,1.129,0,1,0,0,2.257h1.129a1.129,1.129,0,0,0,0-2.257ZM12.158,9.772h6.772a1.129,1.129,0,0,0,0-2.257H12.158a1.129,1.129,0,1,0,0,2.257ZM23.446,3H7.644A1.129,1.129,0,0,0,6.515,4.129V7.515H3.129A1.129,1.129,0,0,0,2,8.644V19.931a3.386,3.386,0,0,0,3.386,3.386H20.059A4.515,4.515,0,0,0,24.574,18.8V4.129A1.129,1.129,0,0,0,23.446,3ZM6.515,19.931a1.129,1.129,0,1,1-2.257,0V9.772H6.515Zm15.8-1.129a2.257,2.257,0,0,1-2.257,2.257H8.569a3.386,3.386,0,0,0,.2-1.129V5.257H22.317ZM12.158,14.287h1.129a1.129,1.129,0,1,0,0-2.257H12.158a1.129,1.129,0,1,0,0,2.257Zm0,4.515h1.129a1.129,1.129,0,1,0,0-2.257H12.158a1.129,1.129,0,1,0,0,2.257Z" transform="translate(-2 -3)"/></svg>