<svg xmlns="http://www.w3.org/2000/svg" width="34.992" height="30.513" viewBox="0 0 34.992 30.513"><defs><style>.a{fill:#2eb934;}</style></defs><path class="a" d="M.035,11.409a1.1,1.1,0,0,0,.824,1.374,1.105,1.105,0,0,0,1.375-.825A12.881,12.881,0,0,1,14.6,2.2a12.724,12.724,0,0,1,11.7,7.848L22.163,8.521a1.028,1.028,0,0,0-1.375.689,1.027,1.027,0,0,0,.688,1.374l6.184,2.335a1.189,1.189,0,0,0,1.163-.251,1.125,1.125,0,0,0,.329-.522L32.2,6.322a1.246,1.246,0,0,0-.413-1.51,1.833,1.833,0,0,0-.687-.138,1.155,1.155,0,0,0-.961.549L28.183,8.932A15.313,15.313,0,0,0,14.466,0,14.833,14.833,0,0,0,.035,11.409Z" transform="translate(32.307 30.513) rotate(180)"/><path class="a" d="M29.383.722A12.782,12.782,0,0,1,17.151,9.931,12.735,12.735,0,0,1,5.674,2.67L9.866,3.884a1.1,1.1,0,0,0,1.374-.825,1.3,1.3,0,0,0-.825-1.374L4.231.035H3.682a1.071,1.071,0,0,0-.858,1.037L.108,6.633A1.155,1.155,0,0,0,.658,8.145a1.156,1.156,0,0,0,1.512-.551L3.881,3.983a14.8,14.8,0,0,0,13.27,8.146A14.843,14.843,0,0,0,31.445,1.409,1.134,1.134,0,0,0,30.757.035,1.209,1.209,0,0,0,30.466,0,1.08,1.08,0,0,0,29.383.722Z" transform="translate(34.992 12.13) rotate(180)"/></svg>