<svg xmlns="http://www.w3.org/2000/svg" width="86.558" height="78" viewBox="0 0 86.558 78"><defs><style>.a{fill:#2a2929;}</style></defs><g transform="translate(0 -19.132)"><circle class="a" cx="3.437" cy="3.437" r="3.437" transform="translate(21.792 63.562)"/><circle class="a" cx="3.437" cy="3.437" r="3.437" transform="translate(57.892 63.562)"/><path class="a" d="M86.558,65.541a10.151,10.151,0,0,0-8.347-9.975v-1.5a34.932,34.932,0,1,0-69.864,0v1.5a10.134,10.134,0,0,0,.122,19.972c.675,7.7,4.2,13.381,10.5,16.919,5.6,3.146,13.556,4.675,24.311,4.675S61.986,95.6,67.59,92.457c6.3-3.538,9.823-9.222,10.5-16.919A10.151,10.151,0,0,0,86.558,65.541Zm-82.979,0a6.568,6.568,0,0,1,4.769-6.308V71.849A6.568,6.568,0,0,1,3.578,65.541Zm71.054,7.181c0,7.858-2.876,13.292-8.794,16.614-5.055,2.838-12.434,4.217-22.56,4.217h0c-10.125,0-17.5-1.379-22.56-4.217-5.917-3.322-8.794-8.757-8.794-16.614V54.064A31.409,31.409,0,0,1,34.271,24.031c9.836.124,15.075,7.225,15.075,12.366A7.15,7.15,0,0,1,42.2,43.539a5.362,5.362,0,0,1-5.356-5.356,3.931,3.931,0,0,1,3.927-3.927,1.789,1.789,0,1,0,0-3.578,7.513,7.513,0,0,0-7.5,7.5A8.944,8.944,0,0,0,42.2,47.117,10.732,10.732,0,0,0,52.924,36.4,15.324,15.324,0,0,0,47.933,25.71a18.2,18.2,0,0,0-4.223-2.994A31.388,31.388,0,0,1,74.632,54.064Zm3.578-.873V59.233a6.556,6.556,0,0,1,0,12.616Z" transform="translate(0 0)"/><path class="a" d="M149.446,280.57a1.789,1.789,0,1,0,2.53,2.53,9.8,9.8,0,0,1,13.839,0,1.789,1.789,0,0,0,2.53-2.53A13.379,13.379,0,0,0,149.446,280.57Z" transform="translate(-115.617 -199.936)"/><path class="a" d="M88.067,170.675a1.789,1.789,0,1,0-3.578,0,3.407,3.407,0,0,1-3.4,3.4,1.789,1.789,0,1,0,0,3.578A6.99,6.99,0,0,0,88.067,170.675Z" transform="translate(-61.562 -116.263)"/><path class="a" d="M272.1,170.675a1.789,1.789,0,1,0-3.578,0,6.989,6.989,0,0,0,6.982,6.982,1.789,1.789,0,1,0,0-3.578A3.407,3.407,0,0,1,272.1,170.675Z" transform="translate(-208.473 -116.263)"/></g></svg>