<svg xmlns="http://www.w3.org/2000/svg" width="77.93" height="78" viewBox="0 0 77.93 78"><defs><style>.a{fill:#2eb934;}</style></defs><g transform="translate(-0.228)"><g transform="translate(0.228 0)"><path class="a" d="M241.527,153.419a1.523,1.523,0,0,0-2.155-2.154.739.739,0,0,1-1.045,0,1.523,1.523,0,0,0-2.155,2.154,3.786,3.786,0,0,0,5.354,0Z" transform="translate(-199.85 -127.842)"/><path class="a" d="M128.241,452h-14.08a1.524,1.524,0,0,0-1.077.446l-6.094,6.094a1.523,1.523,0,0,0,2.154,2.154l5.648-5.648h13.449a1.523,1.523,0,0,0,0-3.047Z" transform="translate(-90.347 -383.141)"/><path class="a" d="M78.134,47.344a5.839,5.839,0,0,0-10.117-3.405L62.045,50.45V49.3A14.387,14.387,0,0,0,50.489,35.218l-3.18-.632a4.3,4.3,0,0,1-2.6-1.635,15.074,15.074,0,0,0,8.546-8.732,9.871,9.871,0,0,0,7.813,3.832A10.043,10.043,0,0,0,62.1,28a1.523,1.523,0,0,0,1.315-1.91l-.282-1.05,1.051.281A1.523,1.523,0,0,0,66.093,24a9.9,9.9,0,0,0-12-10.692,14.993,14.993,0,0,0-29.8,0A9.9,9.9,0,0,0,12.294,24a1.523,1.523,0,0,0,1.91,1.315l1.05-.281-.282,1.05A1.523,1.523,0,0,0,16.288,28a10.044,10.044,0,0,0,1.034.053,9.871,9.871,0,0,0,7.812-3.832,15.075,15.075,0,0,0,8.546,8.732,4.3,4.3,0,0,1-2.6,1.635l-3.18.632A14.386,14.386,0,0,0,16.344,49.211a19.863,19.863,0,0,0-5.435,3.863L.674,63.308a1.523,1.523,0,1,0,2.154,2.154L13.063,55.229A16.683,16.683,0,0,1,24.937,50.31a11.225,11.225,0,0,1,7.99,3.31A1.524,1.524,0,0,0,34,54.066h9.99a2.682,2.682,0,1,1,0,5.363H32.414a1.523,1.523,0,0,0,0,3.047H44.3A24.723,24.723,0,0,0,62.48,54.483L70.262,46a2.788,2.788,0,0,1,3.714-.361,2.792,2.792,0,0,1,.386,4.152L64.493,60.373a26.623,26.623,0,0,1-13.079,7.7,1.523,1.523,0,1,0,.735,2.957A29.662,29.662,0,0,0,66.722,62.45L76.59,51.866a5.844,5.844,0,0,0,1.543-4.523ZM54.455,16.36a6.859,6.859,0,0,1,8.552,5.49l-1.634-.438a1.523,1.523,0,0,0-1.866,1.866l.438,1.634a6.859,6.859,0,0,1-5.49-8.552Zm-3.361-2.382a16.348,16.348,0,0,1-9.818-4.5A18.02,18.02,0,0,0,43.911,4.02a11.97,11.97,0,0,1,7.183,9.957ZM39.193,3.047a11.988,11.988,0,0,1,1.787.134A15.09,15.09,0,0,1,27.289,14.025a11.961,11.961,0,0,1,11.9-10.978ZM22.16,23a6.825,6.825,0,0,1-3.718,1.915l.438-1.634a1.523,1.523,0,0,0-1.866-1.866l-1.634.438a6.859,6.859,0,0,1,8.552-5.49A6.874,6.874,0,0,1,22.16,23Zm5.086-3.989V17.079A18.133,18.133,0,0,0,39.3,11.8,19.406,19.406,0,0,0,51.14,17.04v1.968a11.947,11.947,0,1,1-23.894,0ZM39.193,34a15.03,15.03,0,0,0,2.455-.2,7.332,7.332,0,0,0,1.834,2.246,5.579,5.579,0,0,1-8.579,0A7.332,7.332,0,0,0,36.739,33.8a15.006,15.006,0,0,0,2.455.2ZM44,51.019H34.616a14.243,14.243,0,0,0-9.678-3.756,19.927,19.927,0,0,0-5.474.762,11.336,11.336,0,0,1,9.029-9.819l3.18-.632c.162-.032.322-.07.48-.113a8.63,8.63,0,0,0,14.083,0c.158.043.318.08.48.113l3.18.632A11.332,11.332,0,0,1,59,49.3v4.37a21.7,21.7,0,0,1-9.669,5.169A5.725,5.725,0,0,0,44,51.019Z" transform="translate(-0.228 0)"/><path class="a" d="M285.491,452a1.524,1.524,0,1,0,1.077.446A1.535,1.535,0,0,0,285.491,452Z" transform="translate(-240.742 -383.141)"/></g></g></svg>