<svg id="SvgjsSvg1026" width="288" height="288" xmlns="http://www.w3.org/2000/svg" version="1.1" xmlns:xlink="http://www.w3.org/1999/xlink" xmlns:svgjs="http://svgjs.com/svgjs"><defs id="SvgjsDefs1027"></defs><g id="SvgjsG1028"><svg xmlns="http://www.w3.org/2000/svg" viewBox="0 0 32 32" width="288" height="288"><g data-name="Layer 19" fill="#ffffff" class="color000 svgShape"><path d="M16.88,22.67a2.8,2.8,0,0,1-.64-.08L9.76,21A1,1,0,0,1,10.24,19l6.48,1.62a.7.7,0,0,0,.83-.45.69.69,0,0,0-.4-.86L9.05,16.1l-5.6,2.79a1,1,0,0,1-.9-1.78l6-3a1,1,0,0,1,.82,0l8.52,3.41a2.69,2.69,0,0,1-1,5.19Z" fill="#ffffff" class="color000 svgShape"></path><path d="M16 28h-.15l-13-2a1 1 0 1 1 .3-2L15.79 26l11.65-7.17a3.06 3.06 0 0 0-3.22-.28l-2.77 1.38a1 1 0 0 1-.9-1.78l2.78-1.39a5.08 5.08 0 0 1 6.5 1.73 1 1 0 0 1 .15.76 1 1 0 0 1-.46.64l-13 8A1 1 0 0 1 16 28zM20.15 16a4.85 4.85 0 0 1-2.61-8.93 1 1 0 0 1 1.08 1.69A2.84 2.84 0 0 0 20.15 14a2.85 2.85 0 0 0 .9-5.55 1 1 0 0 1-.61-.58 1 1 0 0 1 0-.84L21 6.15a2.28 2.28 0 0 1-1.81-.1.5.5 0 0 0-.59.1 1 1 0 0 1-1.41 0 1 1 0 0 1 0-1.42A2.53 2.53 0 0 1 20 4.26a.24.24 0 0 0 .23 0 2.53 2.53 0 0 1 2.9.47 1 1 0 0 1 .17 1.18l-.6 1.14a4.85 4.85 0 0 1-2.59 9z" fill="#ffffff" class="color000 svgShape"></path></g></svg></g></svg>