<svg xmlns="http://www.w3.org/2000/svg" width="605.969" height="421.605" viewBox="0 0 605.969 421.605"><defs><style>.a{fill:#e6e6e6;}.b{fill:#2f2e41;}.c{fill:#3f3d56;}.d{fill:#fff;}.e{fill:#F17300;}.f{fill:#ffb8b8;}</style></defs><ellipse class="a" cx="120.735" cy="9.17" rx="120.735" ry="9.17" transform="translate(0 403.265)"/><path class="b" d="M324.272,276.715c21.012-8.937,47.182-3.275,72.74.655.238-4.759,3.121-10.551.1-13.871-3.669-4.034-3.331-8.272-1.123-12.535,5.645-10.9-2.443-22.5-10.61-32.144a18.087,18.087,0,0,0-15.1-6.336l-15.128,1.081a18.117,18.117,0,0,0-16.087,12.949h0c-3.612,4.913-5.546,9.812-4.328,14.686-5.411,3.7-6.32,8.161-3.888,13.193,2.062,3.168,2.04,6.252-.094,9.25a42.71,42.71,0,0,0-6.35,12.613Z" transform="translate(-231.984 -183.168)"/><path class="b" d="M841.1,642.489H412.859A14.359,14.359,0,0,1,398.5,628.13h0q232.857-27.062,456.961,0h0A14.359,14.359,0,0,1,841.1,642.489Z" transform="translate(-249.491 -278.019)"/><path class="c" d="M855.461,539.3,398.5,538.453l52.96-89.112.253-.422V252.529a18.151,18.151,0,0,1,18.153-18.152H781.561a18.151,18.151,0,0,1,18.152,18.153V450.271Z" transform="translate(-249.491 -188.343)"/><path class="d" d="M489.525,250.957a5.919,5.919,0,0,0-5.913,5.913V435.937a5.919,5.919,0,0,0,5.913,5.913H804.583a5.92,5.92,0,0,0,5.913-5.913V256.869a5.92,5.92,0,0,0-5.913-5.913Z" transform="translate(-269.565 -192.253)"/><path class="b" d="M487.259,531.718a2.541,2.541,0,0,0-2.3,1.475l-16.319,35.476a2.534,2.534,0,0,0,2.3,3.593H814.113a2.534,2.534,0,0,0,2.266-3.667l-17.738-35.476a2.521,2.521,0,0,0-2.266-1.4Z" transform="translate(-265.979 -258.471)"/><circle class="d" cx="3.801" cy="3.801" r="3.801" transform="translate(372.421 48.146)"/><path class="b" d="M649.655,593.619a2.538,2.538,0,0,0-2.447,1.875l-4.093,15.2a2.534,2.534,0,0,0,2.447,3.193h77.847a2.533,2.533,0,0,0,2.394-3.363l-5.263-15.2a2.535,2.535,0,0,0-2.395-1.7Z" transform="translate(-307.163 -273.07)"/><path class="b" d="M612.559,337.135v3.378H264.306l.262-.422v-2.956Z" transform="translate(-62.337 -79.514)"/><circle class="e" cx="59.126" cy="59.126" r="59.126" transform="translate(481.383 0)"/><path class="d" d="M926.727,274.013h-48.99a3.382,3.382,0,0,1-3.379-3.379V241.071a3.382,3.382,0,0,1,3.379-3.379h48.99a3.382,3.382,0,0,1,3.379,3.379v29.563a3.382,3.382,0,0,1-3.379,3.379Zm-48.99-32.942v29.563h48.993l0-29.563Z" transform="translate(-361.723 -189.125)"/><path class="d" d="M921.346,232.729H890.938V219.214c0-9.789,6.394-16.893,15.2-16.893s15.2,7.1,15.2,16.893Zm-27.029-3.379h23.65V219.214c0-7.957-4.863-13.515-11.825-13.515s-11.825,5.557-11.825,13.515Z" transform="translate(-365.634 -180.782)"/><circle class="d" cx="3.379" cy="3.379" r="3.379" transform="translate(537.13 62.505)"/><path class="a" d="M780.276,399.859H536.788a4.514,4.514,0,0,1-4.509-4.509v-60.4a4.514,4.514,0,0,1,4.509-4.509H780.276a4.514,4.514,0,0,1,4.509,4.509v60.4A4.514,4.514,0,0,1,780.276,399.859ZM536.788,332.245a2.708,2.708,0,0,0-2.705,2.705v60.4a2.708,2.708,0,0,0,2.705,2.705H780.276a2.708,2.708,0,0,0,2.705-2.705v-60.4a2.708,2.708,0,0,0-2.705-2.705Z" transform="translate(-281.043 -211)"/><circle class="a" cx="18.367" cy="18.367" r="18.367" transform="translate(275.211 133.465)"/><path class="a" d="M642.258,356.8a3.061,3.061,0,1,0,0,6.122H786.574a3.061,3.061,0,1,0,0-6.122Z" transform="translate(-306.26 -217.217)"/><path class="a" d="M642.258,380.842a3.061,3.061,0,1,0,0,6.122h62.1a3.061,3.061,0,1,0,0-6.122Z" transform="translate(-306.26 -222.887)"/><path class="f" d="M452.954,374.362l-45.011,23.93-.57-19.941c14.691-2.453,28.668-6.723,41.592-13.674l4.708-11.63a7.884,7.884,0,0,1,13.4-2.046h0a7.884,7.884,0,0,1-.694,10.751Z" transform="translate(-251.584 -215.169)"/><path class="b" d="M323,553.953h0a8.844,8.844,0,0,1,1.123-7.155l9.888-15.174a17.279,17.279,0,0,1,22.416-5.914h0c-4.155,7.073-3.576,13.278,1.435,18.671a89.886,89.886,0,0,0-21.347,14.553A8.844,8.844,0,0,1,323,553.953Z" transform="translate(-231.611 -256.598)"/><path class="b" d="M444.1,516.786h0a16.966,16.966,0,0,1-14.42,8.237l-65.686.5L361.146,509l29.057-8.546-24.5-18.8,26.778-31.337,48.638,45.333A16.966,16.966,0,0,1,444.1,516.786Z" transform="translate(-240.681 -239.272)"/><path class="b" d="M342.408,615.717H327.024C313.212,521.041,299.153,426.1,340.7,390.664l49,7.977-6.267,41.592-27.348,31.336Z" transform="translate(-229.35 -225.203)"/><path class="b" d="M359.363,704.845h0a8.844,8.844,0,0,1-7.155-1.122l-16.7-2.245a17.279,17.279,0,0,1-5.915-22.416h0c7.074,4.155,13.279,3.575,18.671-1.436,3.81,7.693,10.087,7.224,16.083,13.7a8.844,8.844,0,0,1-4.98,13.515Z" transform="translate(-232.782 -292.884)"/><path class="f" d="M390.379,295.768l-28.488-6.837c4.731-9.685,5.121-20.461,2.849-31.906l19.372-.57C384.719,270.687,386.555,283.984,390.379,295.768Z" transform="translate(-240.857 -193.55)"/><path class="e" d="M392.955,391.879c-20.738,14.131-35.391.483-46.573-20.574,1.554-12.885-.962-28.3-5.622-45.059a30.671,30.671,0,0,1,18.726-36.986h0l24.5,10.256c20.8,16.957,24.9,35.324,17.093,54.7Z" transform="translate(-235.603 -201.287)"/><path class="f" d="M315.542,319.332,292.752,331.3l40.453,23.93,5.629,13.884a7.364,7.364,0,0,1-4.424,9.728h0a7.364,7.364,0,0,1-9.752-6.529l-.569-9.676-51.415-16.967a12.023,12.023,0,0,1-7.544-7.345h0a12.022,12.022,0,0,1,4.51-13.986l41.344-28.364Z" transform="translate(-217.868 -202.87)"/><path class="e" d="M351.65,319.754c-9.5-4.165-18.148.359-29.057,3.988l-1.709-30.2c10.833-5.774,21.161-7.33,30.767-2.849Z" transform="translate(-231.185 -201.013)"/><circle class="f" cx="18.188" cy="18.188" r="18.188" transform="translate(113.646 41.486)"/><path class="b" d="M392,244.187c-18.008,1.764-31.73-1.181-40.5-9.567v-6.753h38.972Z" transform="translate(-238.406 -186.807)"/></svg>