<svg xmlns="http://www.w3.org/2000/svg" xmlns:xlink="http://www.w3.org/1999/xlink" width="153.596" height="60.938" viewBox="0 0 153.596 60.938">
  <defs>
    <filter id="Path_7" x="47.253" y="0.838" width="38.119" height="59.821" filterUnits="userSpaceOnUse">
      <feOffset dy="3" input="SourceAlpha"/>
      <feGaussianBlur stdDeviation="3" result="blur"/>
      <feFlood flood-opacity="0.161"/>
      <feComposite operator="in" in2="blur"/>
      <feComposite in="SourceGraphic"/>
    </filter>
    <filter id="Path_8" x="0" y="0.559" width="69.696" height="59.822" filterUnits="userSpaceOnUse">
      <feOffset dy="3" input="SourceAlpha"/>
      <feGaussianBlur stdDeviation="3" result="blur-2"/>
      <feFlood flood-opacity="0.161"/>
      <feComposite operator="in" in2="blur-2"/>
      <feComposite in="SourceGraphic"/>
    </filter>
    <filter id="Path_9" x="96.475" y="0.838" width="57.121" height="59.821" filterUnits="userSpaceOnUse">
      <feOffset dy="3" input="SourceAlpha"/>
      <feGaussianBlur stdDeviation="3" result="blur-3"/>
      <feFlood flood-opacity="0.161"/>
      <feComposite operator="in" in2="blur-3"/>
      <feComposite in="SourceGraphic"/>
    </filter>
    <filter id="Path_10" x="65.992" y="0" width="51.532" height="60.938" filterUnits="userSpaceOnUse">
      <feOffset dy="3" input="SourceAlpha"/>
      <feGaussianBlur stdDeviation="3" result="blur-4"/>
      <feFlood flood-opacity="0.161"/>
      <feComposite operator="in" in2="blur-4"/>
      <feComposite in="SourceGraphic"/>
    </filter>
  </defs>
  <g id="visa" transform="translate(9 6)">
    <g transform="matrix(1, 0, 0, 1, -9, -6)" filter="url(#Path_7)">
      <path id="Path_7-2" data-name="Path 7" d="M-791.879,845.3l-9.221,41.821h11.177l8.942-41.821Z" transform="translate(857.35 -838.46)" fill="#1b1d74"/>
    </g>
    <g transform="matrix(1, 0, 0, 1, -9, -6)" filter="url(#Path_8)">
      <path id="Path_8-2" data-name="Path 8" d="M-777.762,845.475l-11.457,28.339-4.75-24.212a5.012,5.012,0,0,0-5.03-4.127h-18.722l-.279,1.1a50.262,50.262,0,0,1,10.9,3.577c1.676.825,1.956,1.65,2.515,3.577l8.663,33.292h11.736L-766.3,845.2h-11.457Z" transform="translate(827 -838.64)" fill="#1b1d74"/>
    </g>
    <g transform="matrix(1, 0, 0, 1, -9, -6)" filter="url(#Path_9)">
      <path id="Path_9-2" data-name="Path 9" d="M-752.762,845.3h-9.5a4.9,4.9,0,0,0-4.751,3.027L-783.5,887.121h11.457l2.236-6.328h13.972l1.4,6.328h10.06Zm-13.413,26.963,5.868-15.683,3.353,15.683Z" transform="translate(888.97 -838.46)" fill="#1b1d74"/>
    </g>
    <g transform="matrix(1, 0, 0, 1, -9, -6)" filter="url(#Path_10)">
      <path id="Path_10-2" data-name="Path 10" d="M-778.472,857.386c0-1.376,1.4-3.028,4.751-3.578a20.993,20.993,0,0,1,10.9,1.927l1.956-8.808A32.8,32.8,0,0,0-771.207,845c-10.9,0-18.443,5.781-18.443,13.762,0,6.056,5.589,9.359,9.5,11.286,4.191,1.927,5.589,3.3,5.589,5.23,0,2.753-3.353,4.129-6.707,4.129a21.1,21.1,0,0,1-11.178-2.753l-1.956,9.084a33.719,33.719,0,0,0,12.3,2.2c11.457,0,19-5.5,19-14.313C-763.1,863.166-778.752,862.34-778.472,857.386Z" transform="translate(869.39 -839)" fill="#1b1d74"/>
    </g>
  </g>
</svg>