<?xml version="1.0" standalone="no"?>
<!DOCTYPE svg PUBLIC "-//W3C//DTD SVG 1.1//EN" "http://www.w3.org/Graphics/SVG/1.1/DTD/svg11.dtd" >
<svg>
<metadata>
Created by FontForge 20120731 at Mon Sep 16 18:51:03 2019
 By www
Copyright (c) 2012 Veronika Burian, Jose' Scaglione. All rights reserved.
</metadata>
<defs>
<font id="AdelleSansARA-Semibold" horiz-adv-x="570" >
  <font-face 
    font-family="Adelle Sans ARA Semibold"
    font-weight="600"
    font-stretch="normal"
    units-per-em="1000"
    panose-1="0 0 7 0 0 0 0 0 0 0"
    ascent="755"
    descent="-245"
    x-height="517"
    cap-height="724"
    bbox="-433 -452 1196 960"
    underline-thickness="50"
    underline-position="-50"
    unicode-range="U+000D-FEFC"
  />
<missing-glyph horiz-adv-x="500" 
 />
    <glyph glyph-name="fi" unicode="fi" horiz-adv-x="591" 
d="M407 0v432h-206v-432h-115v432h-74v85h74v74q0 88 42 131t120 43q47 0 87 -14l-4 -86q-32 10 -60 10q-34 0 -52 -19t-18 -65v-74h321v-517h-115zM520 628q-20 -20 -55 -20t-55 20t-20 56t20 55.5t55 19.5t55 -19.5t20 -55.5t-20 -56z" />
    <glyph glyph-name="fl" unicode="fl" horiz-adv-x="591" 
d="M274 676q-36 0 -54.5 -19.5t-18.5 -65.5v-74h133v-85h-133v-432h-115v432h-74v85h74v74q0 88 42 131t120 43q30 0 57 -5.5t42 -12.5l-5 -83q-36 12 -68 12zM407 0v755h115v-755h-115z" />
    <glyph glyph-name="uniFC32" unicode="&#xfed3;&#xfef2;" horiz-adv-x="640" arabic-form="isolated" 
d="M428 667l-79 80l79 80l80 -80zM572 62q21 -32 21 -67q0 -47 -43 -92.5t-112 -74t-141 -28.5q-78 0 -137 28t-91.5 80.5t-32.5 122.5q0 58 21 119t60 112l71 -40q-43 -77 -43 -148q0 -64 43.5 -101.5t118.5 -37.5q46 0 90 12t71.5 31t27.5 38q0 17 -41 39t-107 42l14 102
q63 0 93.5 3.5t42 13.5t11.5 31v60q-40 -27 -94 -27q-65 0 -103 39t-38 103q0 52 20.5 96.5t55.5 70.5t78 26q170 0 170 -340q0 -70 -17.5 -104.5t-63.5 -49.5q34 -27 55 -59zM374 393.5q17 -13.5 49 -13.5q48 0 80 19q-16 107 -81 107q-27 0 -46 -22t-19 -52
q0 -25 17 -38.5zM370 -254l80 -80l-80 -79l-66 66l-67 -66l-80 79l80 80l67 -67z" />
    <glyph glyph-name="uniFDF2" unicode="&#x627;&#xfedf;&#xfee0;&#xfeea;" horiz-adv-x="1137" arabic-form="isolated" 
d="M738 599h111l-5 -424q-1 -90 -48.5 -132.5t-115.5 -42.5q-36 0 -66.5 14t-47.5 41q-18 -26 -49.5 -40.5t-71.5 -14.5q-58 0 -98.5 29.5t-50.5 83.5q-40 -26 -97 -26q-76 0 -123.5 38.5t-47.5 99.5q0 70 69 133t188 100l-1 63h106l-5 -319q-1 -34 16.5 -50.5t48.5 -16.5
q32 0 47.5 12t15.5 32l-4 420h110l-5 -423q4 -18 20.5 -29.5t45.5 -11.5q31 0 46.5 10.5t15.5 34.5zM1078 599l-7 -599h-97l-7 599h111zM149.5 216q22.5 -11 61.5 -11q45 0 77 16l-2 131q-62 -13 -110.5 -43t-48.5 -61q0 -21 22.5 -32z" />
    <glyph glyph-name="uniFEF5" unicode="&#xfedf;&#xfe82;" horiz-adv-x="491" arabic-form="isolated" 
d="M432 675l-5 -500q-1 -96 -68 -139.5t-180 -43.5q-67 0 -126 9l-13 137q71 -10 129 -11l-101 367l104 26l91 -389q64 8 64 34l-6 510h111zM242 643q-12 -34 -32.5 -52t-47.5 -18q-19 0 -51 13q-34 14 -50 14q-13 0 -24 -8t-22 -26l-32 21q11 34 31.5 52t47.5 18
q19 0 51 -13q36 -15 50 -15q13 0 23.5 8.5t22.5 26.5z" />
    <glyph glyph-name="uniFEF6" unicode="&#xfee0;&#xfe82;" horiz-adv-x="536" arabic-form="final" 
d="M552 125v-115l-16 -10q-53 0 -94 16t-63 47q-28 -35 -79.5 -53t-120.5 -18q-29 0 -66.5 2.5t-59.5 6.5l-13 137q47 -7 129 -11l-101 367l104 26l91 -389q64 8 64 34l-6 510h111l-5 -505q2 -15 28.5 -25t80.5 -10zM241 643q-12 -34 -32.5 -52t-47.5 -18q-19 0 -51 13
q-34 14 -50 14q-13 0 -24 -8t-22 -26l-32 21q11 34 31.5 52t47.5 18q19 0 51 -13q36 -15 50 -15q13 0 23.5 8.5t22.5 26.5z" />
    <glyph glyph-name="uniFEF7" unicode="&#xfedf;&#xfe84;" horiz-adv-x="491" arabic-form="isolated" 
d="M432 675l-5 -500q-1 -96 -68 -139.5t-180 -43.5q-67 0 -126 9l-13 137q71 -10 129 -11l-101 367l104 26l91 -389q64 8 64 34l-6 510h111zM193 586l-167 -31l-9 45l42 10q-31 20 -31 60q0 33 22.5 56.5t53.5 23.5q22 0 40 -13t28 -38l-28 -18q-14 16 -35 16q-17 0 -27 -7
t-10 -21q0 -37 73 -40l39 9z" />
    <glyph glyph-name="uniFEF8" unicode="&#xfee0;&#xfe84;" horiz-adv-x="536" arabic-form="final" 
d="M552 125v-115l-16 -10q-53 0 -94 16t-63 47q-28 -35 -79.5 -53t-120.5 -18q-29 0 -66.5 2.5t-59.5 6.5l-13 137q47 -7 129 -11l-101 367l104 26l91 -389q64 8 64 34l-6 510h111l-5 -505q2 -15 28.5 -25t80.5 -10zM192 586l-167 -31l-9 45l42 10q-31 20 -31 60
q0 33 22.5 56.5t53.5 23.5q22 0 40 -13t28 -38l-28 -18q-14 16 -35 16q-17 0 -27 -7t-10 -21q0 -37 73 -40l39 9z" />
    <glyph glyph-name="uniFEF9" unicode="&#xfedf;&#xfe88;" horiz-adv-x="491" arabic-form="isolated" 
d="M432 675l-5 -500q-1 -96 -68 -139.5t-180 -43.5q-67 0 -126 9l-13 137q71 -10 129 -11l-101 367l104 26l91 -389q64 8 64 34l-6 510h111zM345 -212l-167 -31l-9 45l42 10q-31 20 -31 60q0 33 22.5 56.5t53.5 23.5q22 0 40 -13t28 -38l-28 -18q-14 16 -35 16q-17 0 -27 -7
t-10 -21q0 -37 73 -40l39 9z" />
    <glyph glyph-name="uniFEFA" unicode="&#xfee0;&#xfe88;" horiz-adv-x="536" arabic-form="final" 
d="M552 125v-115l-16 -10q-53 0 -94 16t-63 47q-28 -35 -79.5 -53t-120.5 -18q-29 0 -66.5 2.5t-59.5 6.5l-13 137q47 -7 129 -11l-101 367l104 26l91 -389q64 8 64 34l-6 510h111l-5 -505q2 -15 28.5 -25t80.5 -10zM345 -212l-167 -31l-9 45l42 10q-31 20 -31 60
q0 33 22.5 56.5t53.5 23.5q22 0 40 -13t28 -38l-28 -18q-14 16 -35 16q-17 0 -27 -7t-10 -21q0 -37 73 -40l39 9z" />
    <glyph glyph-name="uniFEFB" unicode="&#xfedf;&#xfe8e;" horiz-adv-x="491" arabic-form="isolated" 
d="M432 675l-5 -500q-1 -96 -68 -139.5t-180 -43.5q-67 0 -126 9l-13 137q71 -10 129 -11l-101 367l104 26l91 -389q64 8 64 34l-6 510h111z" />
    <glyph glyph-name="uniFEFC" unicode="&#xfee0;&#xfe8e;" horiz-adv-x="536" arabic-form="final" 
d="M552 125v-115l-16 -10q-53 0 -94 16t-63 47q-28 -35 -79.5 -53t-120.5 -18q-29 0 -66.5 2.5t-59.5 6.5l-13 137q47 -7 129 -11l-101 367l104 26l91 -389q64 8 64 34l-6 510h111l-5 -505q2 -15 28.5 -25t80.5 -10z" />
    <glyph glyph-name="f_f" unicode="ff" horiz-adv-x="663" 
d="M305 759.5q-27 5.5 -57 5.5q-78 0 -120 -43t-42 -131v-74h-74v-85h74v-432h115v432h205v-432h115v432h141v85h-141v71q0 51 20.5 70t59.5 19q34 0 71 -13l5 83q-15 7 -42.5 12.5t-59.5 5.5q-81 0 -125 -43.5t-44 -130.5v-74h-205v74q0 46 18.5 65.5t54.5 19.5
q32 0 68 -12l5 83q-15 7 -42 12.5z" />
    <glyph glyph-name="f_k" unicode="fk" horiz-adv-x="879" 
d="M274 676q-36 0 -54.5 -19.5t-18.5 -65.5v-74h133v-85h-133v-432h-115v432h-74v85h74v74q0 88 42 131t120 43q30 0 57 -5.5t42 -12.5l-5 -83q-36 12 -68 12zM723 517h129l-176 -186l189 -331h-127l-149 255l-67 -67v-188h-115v755h115v-447z" />
    <glyph glyph-name="f_b" unicode="fb" horiz-adv-x="920" 
d="M274 676q-36 0 -54.5 -19.5t-18.5 -65.5v-74h133v-85h-133v-432h-115v432h-74v85h74v74q0 88 42 131t120 43q30 0 57 -5.5t42 -12.5l-5 -83q-36 12 -68 12zM406 755h113v-288q67 61 167 61q86 0 137.5 -61.5t51.5 -195.5q0 -144 -59.5 -213.5t-156.5 -69.5q-85 0 -146 56
l-2 -1l-7 -43h-98v755zM637 84q62 0 90.5 47t28.5 138q0 83 -26 124t-85 41q-33 0 -67.5 -16.5t-56.5 -38.5v-251q58 -44 116 -44z" />
    <glyph glyph-name="f_h" unicode="fh" horiz-adv-x="918" 
d="M274 676q-36 0 -54.5 -19.5t-18.5 -65.5v-74h133v-85h-133v-432h-115v432h-74v85h74v74q0 88 42 131t120 43q30 0 57 -5.5t42 -12.5l-5 -83q-36 12 -68 12zM738 0v333q0 50 -20 74.5t-65 24.5q-35 0 -72 -17t-59 -38v-377h-115v755h114v-289q78 62 173 62
q82 0 120.5 -43.5t38.5 -132.5v-352h-115z" />
    <glyph glyph-name="f_t" unicode="ft" horiz-adv-x="707" 
d="M637 90q-25 -7 -46 -7q-41 0 -55 18.5t-14 59.5v271h140v85h-140v167l-115 -16v-151h-206v74q0 46 18.5 65.5t54.5 19.5q32 0 68 -12l5 83q-15 7 -42 12.5t-57 5.5q-78 0 -120 -43t-42 -131v-74h-74v-85h74v-432h115v432h206v-288q0 -81 38 -118.5t115 -37.5
q39 0 77.5 11t59.5 25l-18 83q-17 -10 -42 -17z" />
    <glyph glyph-name="f_j" unicode="fj" horiz-adv-x="588" 
d="M297.5 -216q-31.5 7 -45.5 16l10 89q43 -17 78 -17q67 0 67 80v480h-206v-432h-115v432h-74v85h74v74q0 88 42 131t120 43q27 0 51.5 -4.5t39.5 -10.5l-4 -86q-35 11 -64 11q-34 0 -52 -19t-18 -65v-74h321v-573q0 -86 -42.5 -126.5t-120.5 -40.5q-30 0 -61.5 7z
M521 633.5q-20 -19.5 -56 -19.5q-35 0 -54.5 19.5t-19.5 56.5q0 36 19.5 55.5t54.5 19.5q36 0 56 -19.5t20 -55.5q0 -37 -20 -56.5z" />
    <glyph glyph-name="f_f_j" unicode="ffj" horiz-adv-x="909" 
d="M617.5 -216q-31.5 7 -45.5 16l10 89q43 -17 78 -17q67 0 67 80v480h-206v-432h-115v432h-205v-432h-115v432h-74v85h74v74q0 88 42 131t120 43q30 0 57 -5.5t42 -12.5l-5 -83q-36 12 -68 12q-36 0 -54.5 -19.5t-18.5 -65.5v-74h205v74q0 88 42 131t120 43q27 0 51.5 -4.5
t39.5 -10.5l-4 -86q-35 11 -64 11q-34 0 -52 -19t-18 -65v-74h321v-573q0 -86 -42.5 -126.5t-120.5 -40.5q-30 0 -61.5 7zM841 633.5q-20 -19.5 -56 -19.5q-35 0 -54.5 19.5t-19.5 56.5q0 36 19.5 55.5t54.5 19.5q36 0 56 -19.5t20 -55.5q0 -37 -20 -56.5z" />
    <glyph glyph-name="f_f_i" unicode="ffi" horiz-adv-x="912" 
d="M728 0v432h-206v-432h-115v432h-206v-432h-115v432h-74v85h74v74q0 88 42 131t120 43q30 0 57 -5.5t42 -12.5l-5 -83q-36 12 -68 12q-36 0 -54.5 -19.5t-18.5 -65.5v-74h206v74q0 88 42 131t120 43q47 0 87 -14l-4 -86q-32 10 -60 10q-34 0 -52 -19t-18 -65v-74h321v-517
h-115zM841 628q-20 -20 -55 -20t-55 20t-20 56t20 55.5t55 19.5t55 -19.5t20 -55.5t-20 -56z" />
    <glyph glyph-name="f_f_l" unicode="ffl" horiz-adv-x="912" 
d="M595 676q-36 0 -54.5 -19.5t-18.5 -65.5v-74h133v-85h-133v-432h-115v432h-206v-432h-115v432h-74v85h74v74q0 88 42 131t120 43q30 0 57 -5.5t42 -12.5l-5 -83q-36 12 -68 12q-36 0 -54.5 -19.5t-18.5 -65.5v-74h206v74q0 88 42 131t120 43q30 0 57 -5.5t42 -12.5
l-5 -83q-36 12 -68 12zM728 0v755h115v-755h-115z" />
    <glyph glyph-name="f_f_k" unicode="ffk" horiz-adv-x="1200" 
d="M595 676q-36 0 -54.5 -19.5t-18.5 -65.5v-74h133v-85h-133v-432h-115v432h-206v-432h-115v432h-74v85h74v74q0 88 42 131t120 43q30 0 57 -5.5t42 -12.5l-5 -83q-36 12 -68 12q-36 0 -54.5 -19.5t-18.5 -65.5v-74h206v74q0 88 42 131t120 43q30 0 57 -5.5t42 -12.5
l-5 -83q-36 12 -68 12zM1044 517h129l-176 -186l189 -331h-127l-149 255l-67 -67v-188h-115v755h115v-447z" />
    <glyph glyph-name="f_f_b" unicode="ffb" horiz-adv-x="1242" 
d="M595 676q-36 0 -54.5 -19.5t-18.5 -65.5v-74h133v-85h-133v-432h-115v432h-206v-432h-115v432h-74v85h74v74q0 88 42 131t120 43q30 0 57 -5.5t42 -12.5l-5 -83q-36 12 -68 12q-36 0 -54.5 -19.5t-18.5 -65.5v-74h206v74q0 88 42 131t120 43q30 0 57 -5.5t42 -12.5
l-5 -83q-36 12 -68 12zM727 755h113v-288q67 61 167 61q86 0 137.5 -61.5t51.5 -195.5q0 -144 -59.5 -213.5t-156.5 -69.5q-85 0 -146 56l-2 -1l-7 -43h-98v755zM958 84q62 0 90.5 47t28.5 138q0 83 -26 124t-85 41q-33 0 -67.5 -16.5t-56.5 -38.5v-251q58 -44 116 -44z" />
    <glyph glyph-name="f_f_h" unicode="ffh" horiz-adv-x="1239" 
d="M595 676q-36 0 -54.5 -19.5t-18.5 -65.5v-74h133v-85h-133v-432h-115v432h-206v-432h-115v432h-74v85h74v74q0 88 42 131t120 43q30 0 57 -5.5t42 -12.5l-5 -83q-36 12 -68 12q-36 0 -54.5 -19.5t-18.5 -65.5v-74h206v74q0 88 42 131t120 43q30 0 57 -5.5t42 -12.5
l-5 -83q-36 12 -68 12zM1059 0v333q0 50 -20 74.5t-65 24.5q-35 0 -72 -17t-59 -38v-377h-115v755h114v-289q78 62 173 62q82 0 120.5 -43.5t38.5 -132.5v-352h-115z" />
    <glyph glyph-name="f_f_t" unicode="fft" horiz-adv-x="1027" 
d="M626 759.5q-27 5.5 -57 5.5q-78 0 -120 -43t-42 -131v-74h-206v74q0 46 18.5 65.5t54.5 19.5q32 0 68 -12l5 83q-15 7 -42 12.5t-57 5.5q-78 0 -120 -43t-42 -131v-74h-74v-85h74v-432h115v432h206v-432h115v432h206v-288q0 -81 38 -118.5t115 -37.5q39 0 77.5 11
t59.5 25l-18 83q-17 -10 -42 -17t-46 -7q-41 0 -55 18.5t-14 59.5v271h140v85h-140v167l-115 -16v-151h-206v74q0 46 18.5 65.5t54.5 19.5q32 0 68 -12l5 83q-15 7 -42 12.5z" />
    <glyph glyph-name="f_iacute" unicode="f&#xed;" horiz-adv-x="591" 
d="M407 0v432h-206v-432h-115v432h-74v85h74v74q0 88 42 131t120 43q27 0 51.5 -4.5t39.5 -10.5l-4 -86q-35 11 -64 11q-34 0 -52 -19t-18 -65v-74h321v-517h-115zM407 582l88 164h130l-138 -174z" />
    <glyph glyph-name="t_t" unicode="tt" horiz-adv-x="713" 
d="M644 -1q-38 -11 -77 -11q-77 0 -115.5 38.5t-38.5 120.5v285h-206v-271q0 -42 13.5 -60.5t53.5 -18.5q18 0 39 6t39 15l20 -83q-22 -13 -56.5 -22.5t-69.5 -9.5q-78 0 -116 37.5t-38 118.5v288h-79v85h79v151l115 16v-167h206v151l115 16v-167h140v-85h-140v-271
q0 -41 14.5 -59.5t54.5 -18.5q22 0 46.5 7t41.5 17l19 -83q-22 -14 -60 -25z" />
    <glyph glyph-name="uni06440671" unicode="&#xfedf;&#xfb51;" horiz-adv-x="491" 
d="M432 675l-5 -500q-1 -96 -68 -139.5t-180 -43.5q-67 0 -126 9l-13 137q71 -10 129 -11l-101 367l104 26l91 -389q64 8 64 34l-6 510h111zM211 710.5q20 -24.5 20 -59.5q0 -42 -28 -61.5t-87 -19.5q-62 0 -103 6l-5 54q24 -4 48 -5q50 110 107 110q28 0 48 -24.5z
M172.5 629q17.5 7 17.5 23q0 13 -8 21t-21 8q-32 0 -63 -59h21q36 0 53.5 7z" />
    <glyph glyph-name="uni06440671.fina" unicode="&#xfee0;&#xfb51;" horiz-adv-x="536" 
d="M552 125v-115l-16 -10q-53 0 -94 16t-63 47q-28 -35 -79.5 -53t-120.5 -18q-29 0 -66.5 2.5t-59.5 6.5l-13 137q47 -7 129 -11l-101 367l104 26l91 -389q64 8 64 34l-6 510h111l-5 -505q2 -15 28.5 -25t80.5 -10zM210 710.5q20 -24.5 20 -59.5q0 -42 -28 -61.5t-87 -19.5
q-62 0 -103 6l-5 54q24 -4 48 -5q50 110 107 110q28 0 48 -24.5zM171.5 629q17.5 7 17.5 23q0 13 -8 21t-21 8q-32 0 -63 -59h21q36 0 53.5 7z" />
    <glyph glyph-name="uni066E.init" unicode="&#x66e;" horiz-adv-x="279" 
d="M-16 10v115l16 10q61 0 100 14t39 35q0 33 -16 84.5t-43 103.5l99 51q25 -48 41.5 -113.5t16.5 -115.5q0 -194 -237 -194z" />
    <glyph glyph-name="uni066E.medi" unicode="&#x66e;" horiz-adv-x="331" 
d="M347 125v-115l-16 -10q-58 0 -96.5 17t-61.5 51q-22 -32 -66.5 -50t-106.5 -18l-16 10v115l16 10q58 0 85.5 14.5t34.5 43.5q12 56 19 123l93 -11q-13 -100 -13 -117q0 -27 27 -40t85 -13z" />
    <glyph glyph-name="uni066E.fina" unicode="&#x66e;" horiz-adv-x="858" 
d="M874 125v-115l-16 -10q-112 0 -158 67q-27 -42 -97.5 -58.5t-213.5 -16.5q-124 0 -200.5 20t-112.5 62.5t-36 112.5q0 43 14.5 97.5t38.5 101.5l76 -22q-21 -66 -21 -118q0 -44 23.5 -69t76.5 -36t146 -11q108 0 157.5 5t69.5 19t26 45q2 10 16 94l3 23l92 -11
q-1 -15 -5 -38q-8 -74 -8 -79q0 -27 27.5 -40t85.5 -13z" />
    <glyph glyph-name="uni066F.fina" unicode="&#x66f;" horiz-adv-x="646" 
d="M662 125v-115l-16 -10h-46q-13 -104 -82.5 -152t-204.5 -48q-84 0 -146.5 28t-96.5 80.5t-34 122.5q0 59 21 119.5t60 111.5l70 -38q-42 -78 -42 -150q0 -65 45 -102t126 -37q85 0 142 17.5t57 45.5v27h-67q-88 0 -136 45t-48 128q0 52 21.5 97t58.5 71.5t82 26.5
q74 0 119 -68t56 -190h45zM375 151.5q29 -16.5 90 -16.5h47q-7 77 -29.5 113t-61.5 36q-36 0 -55.5 -23t-19.5 -59q0 -34 29 -50.5z" />
    <glyph glyph-name="uni06A1.init" unicode="&#x6a1;" horiz-adv-x="402" 
d="M360 193q0 -86 -29.5 -126t-103 -53.5t-227.5 -13.5l-16 10v115l16 10q119 0 173.5 3t74.5 11t20 26v51q-41 -28 -95 -28q-66 0 -105 39.5t-39 105.5q0 53 20.5 98t56.5 71.5t80 26.5q174 0 174 -346zM181 301q23 0 44.5 5t36.5 14q-16 108 -81 108q-28 0 -47.5 -22
t-19.5 -53q0 -52 67 -52z" />
    <glyph glyph-name="uni06A1.medi" unicode="&#x6a1;" horiz-adv-x="445" 
d="M461 125v-115l-16 -10q-60 0 -117.5 10.5t-104.5 28.5q-103 -39 -223 -39l-16 10v115l16 10q31 0 81 2q-25 38 -25 90q0 57 22.5 104.5t60.5 75t83 27.5q46 0 84 -27.5t60.5 -75t22.5 -104.5q0 -52 -25 -90q50 -2 81 -2zM222 157q77 23 77 76q0 34 -22 58t-55 24
q-32 0 -54 -24t-22 -57q0 -54 76 -77z" />
    <glyph glyph-name="uni06A1.fina" unicode="&#x6a1;" horiz-adv-x="814" 
d="M830 125v-114l-16 -10q-60 0 -117 10t-103 28q-101 -47 -221 -47q-176 0 -254.5 46.5t-78.5 148.5q0 45 14.5 99t38.5 100l76 -22q-21 -71 -21 -120q0 -43 22 -68t70.5 -35.5t132.5 -10.5q32 0 82 2q-29 41 -29 96q0 56 22 103.5t60 75.5t84 28t84 -28t60 -75.5
t22 -103.5q0 -53 -25 -91q48 -2 81 -2zM596 155q72 25 72 74q0 34 -22 58t-54 24t-54 -24t-22 -58q0 -51 80 -74z" />
    <glyph glyph-name="uniFB51" unicode="&#x671;" horiz-adv-x="255" arabic-form="final" 
d="M115.5 38q-49.5 38 -50.5 108l-6 529h111l-5 -473q0 -39 20.5 -53t69.5 -14l16 -10v-115l-16 -10q-90 0 -139.5 38zM214 870.5q20 -24.5 20 -59.5q0 -42 -28 -61.5t-87 -19.5q-62 0 -103 6l-5 54q24 -4 48 -5q50 110 107 110q28 0 48 -24.5zM175.5 789q17.5 7 17.5 23
q0 13 -8 21t-21 8q-32 0 -63 -59h21q36 0 53.5 7z" />
    <glyph glyph-name="uniFB57" unicode="&#x67e;" horiz-adv-x="858" arabic-form="final" 
d="M874 125v-115l-16 -10q-112 0 -158 67q-27 -42 -97.5 -58.5t-213.5 -16.5q-124 0 -200.5 20t-112.5 62.5t-36 112.5q0 43 14.5 97.5t38.5 101.5l76 -22q-21 -66 -21 -118q0 -44 23.5 -69t76.5 -36t146 -11q108 0 157.5 5t69.5 19t26 45q2 10 16 94l3 23l92 -11
q-1 -15 -5 -38q-8 -74 -8 -79q0 -27 27.5 -40t85.5 -13zM322 -222l-79 80l79 80l67 -67l67 67l79 -80l-79 -80l-67 67zM388 -215l79 -80l-79 -80l-80 80z" />
    <glyph glyph-name="uniFB58" unicode="&#x67e;" horiz-adv-x="279" arabic-form="initial" 
d="M-16 10v115l16 10q61 0 100 14t39 35q0 33 -16 84.5t-43 103.5l99 51q25 -48 41.5 -113.5t16.5 -115.5q0 -194 -237 -194zM57 -218l-79 80l79 80l67 -67l67 67l79 -80l-79 -80l-67 67zM123 -211l79 -80l-79 -80l-80 80z" />
    <glyph glyph-name="uniFB59" unicode="&#x67e;" horiz-adv-x="331" arabic-form="medial" 
d="M347 125v-115l-16 -10q-58 0 -96.5 17t-61.5 51q-22 -32 -66.5 -50t-106.5 -18l-16 10v115l16 10q58 0 85.5 14.5t34.5 43.5q12 56 19 123l93 -11q-13 -100 -13 -117q0 -27 27 -40t85 -13zM99 -218l-79 80l79 80l67 -67l67 67l79 -80l-79 -80l-67 67zM165 -211l79 -80
l-79 -80l-80 80z" />
    <glyph glyph-name="uniFB6B" unicode="&#x6a4;" horiz-adv-x="814" arabic-form="final" 
d="M830 125v-114l-16 -10q-60 0 -117 10t-103 28q-101 -47 -221 -47q-176 0 -254.5 46.5t-78.5 148.5q0 45 14.5 99t38.5 100l76 -22q-21 -71 -21 -120q0 -43 22 -68t70.5 -35.5t132.5 -10.5q32 0 82 2q-29 41 -29 96q0 56 22 103.5t60 75.5t84 28t84 -28t60 -75.5
t22 -103.5q0 -53 -25 -91q48 -2 81 -2zM596 155q72 25 72 74q0 34 -22 58t-54 24t-54 -24t-22 -58q0 -51 80 -74zM591 639l-80 80l80 80l79 -80zM655 483l-63 64l-63 -64l-80 81l80 80l63 -63l63 63l80 -80z" />
    <glyph glyph-name="uniFB6C" unicode="&#x6a4;" horiz-adv-x="405" arabic-form="initial" 
d="M360 193q0 -86 -29.5 -126t-103 -53.5t-227.5 -13.5l-16 10v115l16 10q119 0 173.5 3t74.5 11t20 26v51q-41 -28 -95 -28q-66 0 -105 39.5t-39 105.5q0 53 20.5 98t56.5 71.5t80 26.5q174 0 174 -346zM181 301q23 0 44.5 5t36.5 14q-16 108 -81 108q-28 0 -47.5 -22
t-19.5 -53q0 -52 67 -52zM185 743l-80 80l80 80l79 -80zM249 587l-63 64l-63 -64l-80 81l80 80l63 -63l63 63l80 -80z" />
    <glyph glyph-name="uniFB6D" unicode="&#x6a4;" horiz-adv-x="445" arabic-form="medial" 
d="M461 125v-115l-16 -10q-60 0 -117.5 10.5t-104.5 28.5q-103 -39 -223 -39l-16 10v115l16 10q31 0 81 2q-25 38 -25 90q0 57 22.5 104.5t60.5 75t83 27.5q46 0 84 -27.5t60.5 -75t22.5 -104.5q0 -52 -25 -90q50 -2 81 -2zM222 157q77 23 77 76q0 34 -22 58t-55 24
q-32 0 -54 -24t-22 -57q0 -54 76 -77zM221 634l-80 80l80 80l79 -80zM285 478l-63 64l-63 -64l-80 81l80 80l63 -63l63 63l80 -80z" />
    <glyph glyph-name="uniFB7B" unicode="&#x686;" horiz-adv-x="619" arabic-form="final" 
d="M635 125v-115l-16 -10q-93 0 -149 41.5t-78 128.5q-102 -36 -162.5 -88.5t-60.5 -116.5q0 -59 50 -94t134 -35q112 0 190 52l47 -81q-48 -52 -114 -79.5t-143 -27.5q-82 0 -144.5 30t-97 84t-34.5 125q0 102 77.5 183.5t212.5 129.5l-42 9q-83 19 -109 19q-21 0 -36 -10
t-26 -34l-77 35q39 129 136 129q23 0 52 -6.5t103 -24.5l23 -6q64 -16 97.5 -22.5t57.5 -6.5h20v-104l-24 -8q-40 -12 -61 -21q16 -34 54.5 -50t103.5 -16zM305 -27l-53 53l53 53l38 -38l37 38l53 -53l-53 -53l-37 38zM342 -24l52 -51l-52 -51l-51 51z" />
    <glyph glyph-name="uniFB7C" unicode="&#x686;" horiz-adv-x="564" arabic-form="initial" 
d="M513 317v-124q-38 -10 -69 -24.5t-84 -44.5l-28 -15q-103 -57 -176 -83t-156 -26l-16 10v115l16 10q66 0 127 14t132 46q63 25 95 34q-14 5 -42 17q-98 38 -141 38q-19 0 -33.5 -10.5t-27.5 -31.5l-76 32q18 64 54 97t82 33q30 0 68 -10t109 -37q51 -19 84.5 -29.5
t54.5 -10.5h27zM224 -159l-79 80l79 80l67 -67l67 67l79 -80l-79 -80l-67 67zM290 -152l79 -80l-79 -80l-80 80z" />
    <glyph glyph-name="uniFB7D" unicode="&#x686;" horiz-adv-x="574" arabic-form="medial" 
d="M590 125v-115l-16 -10q-161 0 -201 132l-55 -30q-98 -53 -168.5 -77.5t-149.5 -24.5l-16 10v115l16 10q65 0 122 14t127 45q53 22 99 35q-17 5 -34 12q-61 24 -91 33.5t-52 9.5q-19 0 -33.5 -10.5t-27.5 -31.5l-76 32q18 64 54 97t82 33q29 0 65.5 -10.5t111.5 -39.5
q52 -20 83 -28.5t55 -8.5h28v-105q-34 -9 -84 -32q15 -21 51.5 -33t93.5 -12zM227 -159l-79 80l79 80l67 -67l67 67l79 -80l-79 -80l-67 67zM293 -152l79 -80l-79 -80l-80 80z" />
    <glyph glyph-name="uniFB8B" unicode="&#x698;" horiz-adv-x="454" arabic-form="final" 
d="M470 125v-115l-16 -10q-72 0 -116 27q-15 -62 -52 -114t-88 -82.5t-105 -30.5q-39 0 -76 17.5t-65 49.5l38 88q43 -20 83 -20q45 0 85 24.5t65.5 66.5t28.5 93q-12 50 -51 143l104 42q22 -65 40 -109q15 -36 37 -48t72 -12zM242 499l-80 80l80 80l79 -80zM306 343l-63 64
l-63 -64l-80 81l80 80l63 -63l63 63l80 -80z" />
    <glyph glyph-name="uniFB8F" unicode="&#x6a9;" horiz-adv-x="749" arabic-form="final" 
d="M765 125v-115l-16 -10q-64 0 -107.5 14t-77.5 47q-76 -66 -246 -66q-278 0 -278 193q0 44 14.5 98t38.5 102l76 -22q-22 -78 -22 -124q0 -55 43.5 -83.5t127.5 -28.5q108 0 180 30l-130 229l16 101q191 105 346 167l20 -112q-157 -65 -275 -124l120 -213q23 -43 55 -58
t99 -15z" />
    <glyph glyph-name="uniFB90" unicode="&#x6a9;" horiz-adv-x="430" arabic-form="initial" 
d="M280 292.5q42 -68.5 42 -134.5q0 -78 -82.5 -118t-239.5 -40l-16 10v115l16 10q51 0 101 6t82 15.5t32 19.5q0 36 -53 99t-126 114l16 101q184 102 345 167l21 -112q-125 -49 -260 -117q80 -67 122 -135.5z" />
    <glyph glyph-name="uniFB91" unicode="&#x6a9;" horiz-adv-x="413" arabic-form="medial" 
d="M429 125v-115l-16 -10q-64 0 -107.5 14t-77.5 47q-66 -61 -228 -61l-16 10v115l16 10q105 0 163 21l-131 233l16 101q185 103 345 167l21 -112q-125 -50 -275 -124l118 -211q17 -31 36 -47t46.5 -22t73.5 -6z" />
    <glyph glyph-name="uniFB93" unicode="&#x6af;" horiz-adv-x="749" arabic-form="final" 
d="M765 125v-115l-16 -10q-64 0 -107.5 14t-77.5 47q-76 -66 -246 -66q-278 0 -278 193q0 44 14.5 98t38.5 102l76 -22q-22 -78 -22 -124q0 -55 43.5 -83.5t127.5 -28.5q108 0 180 30l-130 229l16 101q191 105 346 167l20 -112q-157 -65 -275 -124l120 -213q23 -43 55 -58
t99 -15zM402 632q76 35 246 111l10 -50q-82 -36 -246 -112z" />
    <glyph glyph-name="uniFB94" unicode="&#x6af;" horiz-adv-x="430" arabic-form="initial" 
d="M280 292.5q42 -68.5 42 -134.5q0 -78 -82.5 -118t-239.5 -40l-16 10v115l16 10q51 0 101 6t82 15.5t32 19.5q0 36 -53 99t-126 114l16 101q184 102 345 167l21 -112q-125 -49 -260 -117q80 -67 122 -135.5zM65 632q76 35 246 111l10 -50q-82 -36 -246 -112z" />
    <glyph glyph-name="uniFB95" unicode="&#x6af;" horiz-adv-x="413" arabic-form="medial" 
d="M429 125v-115l-16 -10q-64 0 -107.5 14t-77.5 47q-66 -61 -228 -61l-16 10v115l16 10q105 0 163 21l-131 233l16 101q185 103 345 167l21 -112q-125 -50 -275 -124l118 -211q17 -31 36 -47t46.5 -22t73.5 -6zM61 632q76 35 246 111l10 -50q-82 -36 -246 -112z" />
    <glyph glyph-name="uniFB9F" unicode="&#x6ba;" horiz-adv-x="640" arabic-form="final" 
d="M656 125v-115l-16 -10q-45 0 -77 13q-7 -62 -40 -110.5t-90 -75.5t-132 -27q-79 0 -139 28.5t-93 80.5t-33 122q0 59 21 119.5t60 111.5l71 -40q-43 -77 -43 -148q0 -63 42.5 -99.5t116.5 -36.5q73 0 117 27.5t44 71.5q0 36 -19 96t-50 123l100 46q30 -59 51 -140
q16 -27 93 -27z" />
    <glyph glyph-name="uniFBFD" unicode="&#x6cc;" horiz-adv-x="661" arabic-form="final" 
d="M677 125v-115l-16 -10q-39 0 -72 15q3 -15 3 -28q0 -42 -43 -85.5t-111.5 -72.5t-140.5 -29q-78 0 -137 28t-91.5 80.5t-32.5 122.5q0 58 21 119t60 112l71 -40q-43 -77 -43 -148q0 -64 43.5 -101.5t118.5 -37.5q47 0 90.5 12.5t71 31.5t27.5 39q0 14 -26 33t-77 48
l61 106l21 -10q63 -30 104.5 -45t81.5 -15z" />
    <glyph glyph-name="uniFBFE" unicode="&#x6cc;" horiz-adv-x="279" arabic-form="initial" 
d="M-16 10v115l16 10q61 0 100 14t39 35q0 33 -16 84.5t-43 103.5l99 51q25 -48 41.5 -113.5t16.5 -115.5q0 -194 -237 -194zM191 -218l-67 67l-67 -67l-79 80l79 80l67 -67l67 67l79 -80z" />
    <glyph glyph-name="uniFBFF" unicode="&#x6cc;" horiz-adv-x="331" arabic-form="medial" 
d="M347 125v-115l-16 -10q-58 0 -96.5 17t-61.5 51q-22 -32 -66.5 -50t-106.5 -18l-16 10v115l16 10q58 0 85.5 14.5t34.5 43.5q12 56 19 123l93 -11q-13 -100 -13 -117q0 -27 27 -40t85 -13zM233 -218l-67 67l-67 -67l-79 80l79 80l67 -67l67 67l79 -80z" />
    <glyph glyph-name="uniFE82" unicode="&#x622;" horiz-adv-x="255" arabic-form="final" 
d="M115.5 38q-49.5 38 -50.5 108l-6 529h111l-5 -473q0 -39 20.5 -53t69.5 -14l16 -10v-115l-16 -10q-90 0 -139.5 38zM245 803q-12 -34 -32.5 -52t-47.5 -18q-19 0 -51 13q-34 14 -50 14q-13 0 -24 -8t-22 -26l-32 21q11 34 31.5 52t47.5 18q19 0 51 -13q36 -15 50 -15
q13 0 23.5 8.5t22.5 26.5z" />
    <glyph glyph-name="uniFE84" unicode="&#x623;" horiz-adv-x="255" arabic-form="final" 
d="M115.5 38q-49.5 38 -50.5 108l-6 529h111l-5 -473q0 -39 20.5 -53t69.5 -14l16 -10v-115l-16 -10q-90 0 -139.5 38zM196 746l-167 -31l-9 45l42 10q-31 20 -31 60q0 33 22.5 56.5t53.5 23.5q22 0 40 -13t28 -38l-28 -18q-14 16 -35 16q-17 0 -27 -7t-10 -21q0 -37 73 -40
l39 9z" />
    <glyph glyph-name="uniFE86" unicode="&#x624;" horiz-adv-x="429" arabic-form="final" 
d="M445 125v-115l-16 -10h-57q-21 -91 -77 -145.5t-140 -54.5q-42 0 -83.5 19.5t-58.5 47.5l34 77q50 -21 93 -21q54 0 91.5 22t53.5 64h-39q-100 0 -151.5 48t-51.5 132q0 59 21 106t59.5 74t88.5 27q81 0 125 -69t48 -193l44 1zM252 131l47 1q-6 74 -29.5 109t-65.5 35
q-36 0 -55.5 -22.5t-19.5 -51.5q0 -72 123 -71zM289 473l-167 -31l-9 45l42 10q-31 20 -31 60q0 33 22.5 56.5t53.5 23.5q22 0 40 -13t28 -38l-28 -18q-14 16 -35 16q-17 0 -27 -7t-10 -21q0 -37 73 -40l39 9z" />
    <glyph glyph-name="uniFE88" unicode="&#x625;" horiz-adv-x="255" arabic-form="final" 
d="M115.5 38q-49.5 38 -50.5 108l-6 529h111l-5 -473q0 -39 20.5 -53t69.5 -14l16 -10v-115l-16 -10q-90 0 -139.5 38zM216 -206l-167 -31l-9 45l42 10q-31 20 -31 60q0 33 22.5 56.5t53.5 23.5q22 0 40 -13t28 -38l-28 -18q-14 16 -35 16q-17 0 -27 -7t-10 -21
q0 -37 73 -40l39 9z" />
    <glyph glyph-name="uniFE8A" unicode="&#x626;" horiz-adv-x="661" arabic-form="final" 
d="M677 125v-115l-16 -10q-39 0 -72 15q3 -15 3 -28q0 -42 -43 -85.5t-111.5 -72.5t-140.5 -29q-78 0 -137 28t-91.5 80.5t-32.5 122.5q0 58 21 119t60 112l71 -40q-43 -77 -43 -148q0 -64 43.5 -101.5t118.5 -37.5q47 0 90.5 12.5t71 31.5t27.5 39q0 14 -26 33t-77 48
l61 106l21 -10q63 -30 104.5 -45t81.5 -15zM243 333l-167 -31l-9 45l42 10q-31 20 -31 60q0 33 22.5 56.5t53.5 23.5q22 0 40 -13t28 -38l-28 -18q-14 16 -35 16q-17 0 -27 -7t-10 -21q0 -37 73 -40l39 9z" />
    <glyph glyph-name="uniFE8B" unicode="&#x626;" horiz-adv-x="279" arabic-form="initial" 
d="M-16 10v115l16 10q61 0 100 14t39 35q0 33 -16 84.5t-43 103.5l99 51q25 -48 41.5 -113.5t16.5 -115.5q0 -194 -237 -194zM214 520l-167 -31l-9 45l42 10q-31 20 -31 60q0 33 22.5 56.5t53.5 23.5q22 0 40 -13t28 -38l-28 -18q-14 16 -35 16q-17 0 -27 -7t-10 -21
q0 -37 73 -40l39 9z" />
    <glyph glyph-name="uniFE8C" unicode="&#x626;" horiz-adv-x="331" arabic-form="medial" 
d="M347 125v-115l-16 -10q-58 0 -96.5 17t-61.5 51q-22 -32 -66.5 -50t-106.5 -18l-16 10v115l16 10q58 0 85.5 14.5t34.5 43.5q12 56 19 123l93 -11q-13 -100 -13 -117q0 -27 27 -40t85 -13zM274 405l-167 -31l-9 45l42 10q-31 20 -31 60q0 33 22.5 56.5t53.5 23.5
q22 0 40 -13t28 -38l-28 -18q-14 16 -35 16q-17 0 -27 -7t-10 -21q0 -37 73 -40l39 9z" />
    <glyph glyph-name="uniFE8E" unicode="&#x627;" horiz-adv-x="255" arabic-form="final" 
d="M115.5 38q-49.5 38 -50.5 108l-6 529h111l-5 -473q0 -39 20.5 -53t69.5 -14l16 -10v-115l-16 -10q-90 0 -139.5 38z" />
    <glyph glyph-name="uniFE90" unicode="&#x628;" horiz-adv-x="858" arabic-form="final" 
d="M874 125v-115l-16 -10q-112 0 -158 67q-27 -42 -97.5 -58.5t-213.5 -16.5q-124 0 -200.5 20t-112.5 62.5t-36 112.5q0 43 14.5 97.5t38.5 101.5l76 -22q-21 -66 -21 -118q0 -44 23.5 -69t76.5 -36t146 -11q108 0 157.5 5t69.5 19t26 45q2 10 16 94l3 23l92 -11
q-1 -15 -5 -38q-8 -74 -8 -79q0 -27 27.5 -40t85.5 -13zM309 -148l80 80l80 -80l-80 -80z" />
    <glyph glyph-name="uniFE91" unicode="&#x628;" horiz-adv-x="279" arabic-form="initial" 
d="M-16 10v115l16 10q61 0 100 14t39 35q0 33 -16 84.5t-43 103.5l99 51q25 -48 41.5 -113.5t16.5 -115.5q0 -194 -237 -194zM44 -144l80 80l80 -80l-80 -80z" />
    <glyph glyph-name="uniFE92" unicode="&#x628;" horiz-adv-x="331" arabic-form="medial" 
d="M347 125v-115l-16 -10q-58 0 -96.5 17t-61.5 51q-22 -32 -66.5 -50t-106.5 -18l-16 10v115l16 10q58 0 85.5 14.5t34.5 43.5q12 56 19 123l93 -11q-13 -100 -13 -117q0 -27 27 -40t85 -13zM86 -144l80 80l80 -80l-80 -80z" />
    <glyph glyph-name="uniFE94" unicode="&#x629;" horiz-adv-x="461" arabic-form="final" 
d="M477 125v-115l-16 -10q-71 0 -116 29.5t-52 81.5q-39 -24 -94 -24q-77 0 -124 38.5t-47 99.5q0 73 69 134.5t188 98.5l-1 63h106l-5 -319q-1 -35 17.5 -51t58.5 -16zM148.5 216q21.5 -11 62.5 -11q43 0 77 17l-2 131q-63 -13 -111 -43.5t-48 -61.5q0 -21 21.5 -32z
M285 558l-63 63l-63 -63l-80 80l80 79l63 -62l63 62l80 -79z" />
    <glyph glyph-name="uniFE96" unicode="&#x62a;" horiz-adv-x="858" arabic-form="final" 
d="M874 125v-115l-16 -10q-112 0 -158 67q-27 -42 -97.5 -58.5t-213.5 -16.5q-124 0 -200.5 20t-112.5 62.5t-36 112.5q0 43 14.5 97.5t38.5 101.5l76 -22q-21 -66 -21 -118q0 -44 23.5 -69t76.5 -36t146 -11q108 0 157.5 5t69.5 19t26 45q2 10 16 94l3 23l92 -11
q-1 -15 -5 -38q-8 -74 -8 -79q0 -27 27.5 -40t85.5 -13zM479 413l-63 63l-63 -63l-80 80l80 79l63 -62l63 62l80 -79z" />
    <glyph glyph-name="uniFE97" unicode="&#x62a;" horiz-adv-x="279" arabic-form="initial" 
d="M-16 10v115l16 10q61 0 100 14t39 35q0 33 -16 84.5t-43 103.5l99 51q25 -48 41.5 -113.5t16.5 -115.5q0 -194 -237 -194zM196 496l-63 63l-63 -63l-80 80l80 79l63 -62l63 62l80 -79z" />
    <glyph glyph-name="uniFE98" unicode="&#x62a;" horiz-adv-x="331" arabic-form="medial" 
d="M347 125v-115l-16 -10q-58 0 -96.5 17t-61.5 51q-22 -32 -66.5 -50t-106.5 -18l-16 10v115l16 10q58 0 85.5 14.5t34.5 43.5q12 56 19 123l93 -11q-13 -100 -13 -117q0 -27 27 -40t85 -13zM256 381l-63 63l-63 -63l-80 80l80 79l63 -62l63 62l80 -79z" />
    <glyph glyph-name="uniFE9A" unicode="&#x62b;" horiz-adv-x="858" arabic-form="final" 
d="M874 125v-115l-16 -10q-112 0 -158 67q-27 -42 -97.5 -58.5t-213.5 -16.5q-124 0 -200.5 20t-112.5 62.5t-36 112.5q0 43 14.5 97.5t38.5 101.5l76 -22q-21 -66 -21 -118q0 -44 23.5 -69t76.5 -36t146 -11q108 0 157.5 5t69.5 19t26 45q2 10 16 94l3 23l92 -11
q-1 -15 -5 -38q-8 -74 -8 -79q0 -27 27.5 -40t85.5 -13zM415 564l-80 80l80 80l79 -80zM479 408l-63 64l-63 -64l-80 81l80 80l63 -63l63 63l80 -80z" />
    <glyph glyph-name="uniFE9B" unicode="&#x62b;" horiz-adv-x="279" arabic-form="initial" 
d="M-16 10v115l16 10q61 0 100 14t39 35q0 33 -16 84.5t-43 103.5l99 51q25 -48 41.5 -113.5t16.5 -115.5q0 -194 -237 -194zM132 647l-80 80l80 80l79 -80zM196 491l-63 64l-63 -64l-80 81l80 80l63 -63l63 63l80 -80z" />
    <glyph glyph-name="uniFE9C" unicode="&#x62b;" horiz-adv-x="331" arabic-form="medial" 
d="M347 125v-115l-16 -10q-58 0 -96.5 17t-61.5 51q-22 -32 -66.5 -50t-106.5 -18l-16 10v115l16 10q58 0 85.5 14.5t34.5 43.5q12 56 19 123l93 -11q-13 -100 -13 -117q0 -27 27 -40t85 -13zM192 532l-80 80l80 80l79 -80zM256 376l-63 64l-63 -64l-80 81l80 80l63 -63
l63 63l80 -80z" />
    <glyph glyph-name="uniFE9E" unicode="&#x62c;" horiz-adv-x="619" arabic-form="final" 
d="M635 125v-115l-16 -10q-93 0 -149 41.5t-78 128.5q-102 -36 -162.5 -88.5t-60.5 -116.5q0 -59 50 -94t134 -35q112 0 190 52l47 -81q-48 -52 -114 -79.5t-143 -27.5q-82 0 -144.5 30t-97 84t-34.5 125q0 102 77.5 183.5t212.5 129.5l-42 9q-83 19 -109 19q-21 0 -36 -10
t-26 -34l-77 35q39 129 136 129q23 0 52 -6.5t103 -24.5l23 -6q64 -16 97.5 -22.5t57.5 -6.5h20v-104l-24 -8q-40 -12 -61 -21q16 -34 54.5 -50t103.5 -16zM263 -9l80 80l80 -80l-80 -80z" />
    <glyph glyph-name="uniFE9F" unicode="&#x62c;" horiz-adv-x="564" arabic-form="initial" 
d="M513 317v-124q-38 -10 -69 -24.5t-84 -44.5l-28 -15q-103 -57 -176 -83t-156 -26l-16 10v115l16 10q66 0 127 14t132 46q63 25 95 34q-14 5 -42 17q-98 38 -141 38q-19 0 -33.5 -10.5t-27.5 -31.5l-76 32q18 64 54 97t82 33q30 0 68 -10t109 -37q51 -19 84.5 -29.5
t54.5 -10.5h27zM211 -85l80 80l80 -80l-80 -80z" />
    <glyph glyph-name="uniFEA0" unicode="&#x62c;" horiz-adv-x="574" arabic-form="medial" 
d="M590 125v-115l-16 -10q-161 0 -201 132l-55 -30q-98 -53 -168.5 -77.5t-149.5 -24.5l-16 10v115l16 10q65 0 122 14t127 45q53 22 99 35q-17 5 -34 12q-61 24 -91 33.5t-52 9.5q-19 0 -33.5 -10.5t-27.5 -31.5l-76 32q18 64 54 97t82 33q29 0 65.5 -10.5t111.5 -39.5
q52 -20 83 -28.5t55 -8.5h28v-105q-34 -9 -84 -32q15 -21 51.5 -33t93.5 -12zM214 -85l80 80l80 -80l-80 -80z" />
    <glyph glyph-name="uniFEA2" unicode="&#x62d;" horiz-adv-x="619" arabic-form="final" 
d="M635 125v-115l-16 -10q-93 0 -149 41.5t-78 128.5q-102 -36 -162.5 -88.5t-60.5 -116.5q0 -59 50 -94t134 -35q112 0 190 52l47 -81q-48 -52 -114 -79.5t-143 -27.5q-82 0 -144.5 30t-97 84t-34.5 125q0 102 77.5 183.5t212.5 129.5l-42 9q-83 19 -109 19q-21 0 -36 -10
t-26 -34l-77 35q39 129 136 129q23 0 52 -6.5t103 -24.5l23 -6q64 -16 97.5 -22.5t57.5 -6.5h20v-104l-24 -8q-40 -12 -61 -21q16 -34 54.5 -50t103.5 -16z" />
    <glyph glyph-name="uniFEA3" unicode="&#x62d;" horiz-adv-x="564" arabic-form="initial" 
d="M513 317v-124q-38 -10 -69 -24.5t-84 -44.5l-28 -15q-103 -57 -176 -83t-156 -26l-16 10v115l16 10q66 0 127 14t132 46q63 25 95 34q-14 5 -42 17q-98 38 -141 38q-19 0 -33.5 -10.5t-27.5 -31.5l-76 32q18 64 54 97t82 33q30 0 68 -10t109 -37q51 -19 84.5 -29.5
t54.5 -10.5h27z" />
    <glyph glyph-name="uniFEA4" unicode="&#x62d;" horiz-adv-x="574" arabic-form="medial" 
d="M590 125v-115l-16 -10q-161 0 -201 132l-55 -30q-98 -53 -168.5 -77.5t-149.5 -24.5l-16 10v115l16 10q65 0 122 14t127 45q53 22 99 35q-17 5 -34 12q-61 24 -91 33.5t-52 9.5q-19 0 -33.5 -10.5t-27.5 -31.5l-76 32q18 64 54 97t82 33q29 0 65.5 -10.5t111.5 -39.5
q52 -20 83 -28.5t55 -8.5h28v-105q-34 -9 -84 -32q15 -21 51.5 -33t93.5 -12z" />
    <glyph glyph-name="uniFEA6" unicode="&#x62e;" horiz-adv-x="619" arabic-form="final" 
d="M635 125v-115l-16 -10q-93 0 -149 41.5t-78 128.5q-102 -36 -162.5 -88.5t-60.5 -116.5q0 -59 50 -94t134 -35q112 0 190 52l47 -81q-48 -52 -114 -79.5t-143 -27.5q-82 0 -144.5 30t-97 84t-34.5 125q0 102 77.5 183.5t212.5 129.5l-42 9q-83 19 -109 19q-21 0 -36 -10
t-26 -34l-77 35q39 129 136 129q23 0 52 -6.5t103 -24.5l23 -6q64 -16 97.5 -22.5t57.5 -6.5h20v-104l-24 -8q-40 -12 -61 -21q16 -34 54.5 -50t103.5 -16zM244 524l80 79l80 -79l-80 -80z" />
    <glyph glyph-name="uniFEA7" unicode="&#x62e;" horiz-adv-x="564" arabic-form="initial" 
d="M513 317v-124q-38 -10 -69 -24.5t-84 -44.5l-28 -15q-103 -57 -176 -83t-156 -26l-16 10v115l16 10q66 0 127 14t132 46q63 25 95 34q-14 5 -42 17q-98 38 -141 38q-19 0 -33.5 -10.5t-27.5 -31.5l-76 32q18 64 54 97t82 33q30 0 68 -10t109 -37q51 -19 84.5 -29.5
t54.5 -10.5h27zM193 533l80 79l80 -79l-80 -80z" />
    <glyph glyph-name="uniFEA8" unicode="&#x62e;" horiz-adv-x="574" arabic-form="medial" 
d="M590 125v-115l-16 -10q-161 0 -201 132l-55 -30q-98 -53 -168.5 -77.5t-149.5 -24.5l-16 10v115l16 10q65 0 122 14t127 45q53 22 99 35q-17 5 -34 12q-61 24 -91 33.5t-52 9.5q-19 0 -33.5 -10.5t-27.5 -31.5l-76 32q18 64 54 97t82 33q29 0 65.5 -10.5t111.5 -39.5
q52 -20 83 -28.5t55 -8.5h28v-105q-34 -9 -84 -32q15 -21 51.5 -33t93.5 -12zM239 533l80 79l80 -79l-80 -80z" />
    <glyph glyph-name="uniFEAA" unicode="&#x62f;" horiz-adv-x="493" arabic-form="final" 
d="M509 125v-115l-16 -10q-43 0 -73 10t-55 35q-50 -53 -191 -53q-29 0 -64 2t-57 6l-13 133q53 -10 121 -10q92 0 139 20q-24 47 -48.5 105.5t-58.5 149.5l106 47q56 -160 101 -260q13 -30 31.5 -40t61.5 -10z" />
    <glyph glyph-name="uniFEAC" unicode="&#x630;" horiz-adv-x="493" arabic-form="final" 
d="M509 125v-115l-16 -10q-43 0 -73 10t-55 35q-50 -53 -191 -53q-29 0 -64 2t-57 6l-13 133q53 -10 121 -10q92 0 139 20q-24 47 -48.5 105.5t-58.5 149.5l106 47q56 -160 101 -260q13 -30 31.5 -40t61.5 -10zM171 574l80 79l80 -79l-80 -80z" />
    <glyph glyph-name="uniFEAE" unicode="&#x631;" horiz-adv-x="454" arabic-form="final" 
d="M470 125v-115l-16 -10q-72 0 -116 27q-15 -62 -52 -114t-88 -82.5t-105 -30.5q-39 0 -76 17.5t-65 49.5l38 88q43 -20 83 -20q45 0 85 24.5t65.5 66.5t28.5 93q-12 50 -51 143l104 42q22 -65 40 -109q15 -36 37 -48t72 -12z" />
    <glyph glyph-name="uniFEB0" unicode="&#x632;" horiz-adv-x="454" arabic-form="final" 
d="M470 125v-115l-16 -10q-72 0 -116 27q-15 -62 -52 -114t-88 -82.5t-105 -30.5q-39 0 -76 17.5t-65 49.5l38 88q43 -20 83 -20q45 0 85 24.5t65.5 66.5t28.5 93q-12 50 -51 143l104 42q22 -65 40 -109q15 -36 37 -48t72 -12zM163 428l80 79l80 -79l-80 -80z" />
    <glyph glyph-name="uniFEB2" unicode="&#x633;" horiz-adv-x="1093" arabic-form="final" 
d="M1109 125v-115l-16 -10q-87 0 -133 48q-43 -48 -111 -48q-34 0 -64 14.5t-49 37.5q-19 -23 -47.5 -37.5t-61.5 -14.5q-37 0 -64 15q-6 -63 -39 -111.5t-90 -76t-133 -27.5q-79 0 -139 28.5t-93 80.5t-33 122q0 59 21 119.5t60 111.5l71 -40q-43 -77 -43 -148
q0 -63 42.5 -99.5t116.5 -36.5q73 0 117 27.5t44 71.5q0 36 -19 96t-50 123l100 46q33 -66 51 -141q22 -36 68 -36q29 0 47 14.5t25 46.5q5 22 11 56t10 68l88 -11q-2 -13 -3.5 -29t-4.5 -34q-2 -19 -4 -34t-2 -23q0 -24 19.5 -39t48.5 -15q58 0 70 57q4 17 9.5 60.5
t9.5 85.5l91 -9q-6 -95 -20 -158q24 -24 83 -26z" />
    <glyph glyph-name="uniFEB3" unicode="&#x633;" horiz-adv-x="721" arabic-form="initial" 
d="M661 309.5q18 -67.5 18 -119.5q0 -86 -50 -138t-133 -52q-32 0 -63.5 13.5t-52.5 35.5q-20 -22 -52.5 -35.5t-65.5 -13.5q-38 0 -67.5 14.5t-48.5 41.5q-23 -29 -57.5 -42t-88.5 -14l-16 10v115l16 10q40 1 61 9.5t35 36.5t27 90l85 -15q-10 -60 -19 -97q26 -34 69 -34
q33 0 51.5 14.5t25.5 44.5q10 42 20 126l89 -11q-13 -102 -13 -120q0 -23 20.5 -38.5t51.5 -15.5q33 0 56 15.5t23 37.5q0 34 -19.5 91.5t-47.5 104.5l102 49q26 -46 44 -113.5z" />
    <glyph glyph-name="uniFEB4" unicode="&#x633;" horiz-adv-x="745" arabic-form="medial" 
d="M761 125v-115l-16 -10q-40 0 -74 12t-58 36q-45 -48 -118 -48q-33 0 -63 13.5t-51 36.5q-20 -23 -50.5 -36.5t-62.5 -13.5q-40 0 -70 16t-48 47q-22 -33 -57.5 -47.5t-92.5 -15.5l-16 10v115l16 10q40 1 61 10.5t35 37.5t27 88l85 -15q-12 -70 -18 -91q23 -40 72 -40
q31 0 49 14.5t26 44.5q9 40 21 126l88 -11q1 13 -7 -57q-7 -56 -7 -63q0 -24 20.5 -39t50.5 -15q27 0 45.5 15t24.5 42q4 24 9 66t8 80l90 -7q-6 -96 -18 -162q12 -11 34 -17.5t49 -6.5z" />
    <glyph glyph-name="uniFEB6" unicode="&#x634;" horiz-adv-x="1093" arabic-form="final" 
d="M1109 125v-115l-16 -10q-87 0 -133 48q-43 -48 -111 -48q-34 0 -64 14.5t-49 37.5q-19 -23 -47.5 -37.5t-61.5 -14.5q-37 0 -64 15q-6 -63 -39 -111.5t-90 -76t-133 -27.5q-79 0 -139 28.5t-93 80.5t-33 122q0 59 21 119.5t60 111.5l71 -40q-43 -77 -43 -148
q0 -63 42.5 -99.5t116.5 -36.5q73 0 117 27.5t44 71.5q0 36 -19 96t-50 123l100 46q33 -66 51 -141q22 -36 68 -36q29 0 47 14.5t25 46.5q5 22 11 56t10 68l88 -11q-2 -13 -3.5 -29t-4.5 -34q-2 -19 -4 -34t-2 -23q0 -24 19.5 -39t48.5 -15q58 0 70 57q4 17 9.5 60.5
t9.5 85.5l91 -9q-6 -95 -20 -158q24 -24 83 -26zM751 540l-80 80l80 80l79 -80zM815 384l-63 64l-63 -64l-80 81l80 80l63 -63l63 63l80 -80z" />
    <glyph glyph-name="uniFEB7" unicode="&#x634;" horiz-adv-x="720" arabic-form="initial" 
d="M661 309.5q18 -67.5 18 -119.5q0 -86 -50 -138t-133 -52q-32 0 -63.5 13.5t-52.5 35.5q-20 -22 -52.5 -35.5t-65.5 -13.5q-38 0 -67.5 14.5t-48.5 41.5q-23 -29 -57.5 -42t-88.5 -14l-16 10v115l16 10q40 1 61 9.5t35 36.5t27 90l85 -15q-10 -60 -19 -97q26 -34 69 -34
q33 0 51.5 14.5t25.5 44.5q10 42 20 126l89 -11q-13 -102 -13 -120q0 -23 20.5 -38.5t51.5 -15.5q33 0 56 15.5t23 37.5q0 34 -19.5 91.5t-47.5 104.5l102 49q26 -46 44 -113.5zM371 552l-80 80l80 80l79 -80zM435 396l-63 64l-63 -64l-80 81l80 80l63 -63l63 63l80 -80z
" />
    <glyph glyph-name="uniFEB8" unicode="&#x634;" horiz-adv-x="745" arabic-form="medial" 
d="M761 125v-115l-16 -10q-40 0 -74 12t-58 36q-45 -48 -118 -48q-33 0 -63 13.5t-51 36.5q-20 -23 -50.5 -36.5t-62.5 -13.5q-40 0 -70 16t-48 47q-22 -33 -57.5 -47.5t-92.5 -15.5l-16 10v115l16 10q40 1 61 10.5t35 37.5t27 88l85 -15q-12 -70 -18 -91q23 -40 72 -40
q31 0 49 14.5t26 44.5q9 40 21 126l88 -11q1 13 -7 -57q-7 -56 -7 -63q0 -24 20.5 -39t50.5 -15q27 0 45.5 15t24.5 42q4 24 9 66t8 80l90 -7q-6 -96 -18 -162q12 -11 34 -17.5t49 -6.5zM400 540l-80 80l80 80l79 -80zM464 384l-63 64l-63 -64l-80 81l80 80l63 -63l63 63
l80 -80z" />
    <glyph glyph-name="uniFEBA" unicode="&#x635;" horiz-adv-x="1134" arabic-form="final" 
d="M1150 125v-115l-16 -10q-39 0 -71.5 12t-54.5 35q-81 -55 -233 -55q-132 0 -211 58v-8q0 -70 -31.5 -125t-91 -86t-140.5 -31q-79 0 -139 28.5t-93 80.5t-33 122q0 59 21 119.5t60 111.5l71 -40q-43 -77 -43 -148q0 -63 42.5 -99.5t116.5 -36.5q73 0 117 27.5t44 71.5
q0 36 -19 96t-50 123l100 46q30 -57 59 -91.5t71 -54.5q61 127 133 196t145 69q51 0 93 -28.5t66 -78.5t24 -110q0 -33 -9 -62q25 -8 56 -7zM939 148q50 21 50 60q0 33 -25.5 60.5t-62.5 27.5q-46 0 -93.5 -43t-89.5 -122q31 -4 78 -4q93 0 143 21z" />
    <glyph glyph-name="uniFEBB" unicode="&#x635;" horiz-adv-x="771" arabic-form="initial" 
d="M638 392q42 -29 66.5 -78.5t24.5 -109.5q0 -103 -80 -157.5t-233 -54.5q-93 0 -165 16.5t-108 46.5q-22 -29 -56 -42t-87 -13l-16 10v115l16 10q39 0 59.5 11t33.5 38.5t28 86.5l88 -23q-15 -67 -20 -86q29 -15 70 -24q61 136 136 209.5t151 73.5q50 0 92 -29zM581 144.5
q50 21.5 50 66.5q0 34 -26 59.5t-62 25.5q-46 0 -94.5 -44t-91.5 -127q48 -2 70 -2q104 0 154 21.5z" />
    <glyph glyph-name="uniFEBC" unicode="&#x635;" horiz-adv-x="775" arabic-form="medial" 
d="M791 125v-115l-16 -10q-81 0 -125 47q-81 -55 -234 -55q-93 0 -165 16.5t-108 46.5q-22 -29 -56 -42t-87 -13l-16 10v115l16 10q39 0 59.5 11t33.5 38.5t28 86.5l88 -23q-15 -67 -20 -86q29 -15 70 -24q61 136 136 209.5t151 73.5q50 0 92 -29t66.5 -78.5t24.5 -109.5
q0 -31 -8 -60q21 -9 54 -9zM581 144.5q50 21.5 50 66.5q0 34 -26 59.5t-62 25.5q-46 0 -94.5 -44t-91.5 -127q48 -2 70 -2q104 0 154 21.5z" />
    <glyph glyph-name="uniFEBE" unicode="&#x636;" horiz-adv-x="1134" arabic-form="final" 
d="M1150 125v-115l-16 -10q-39 0 -71.5 12t-54.5 35q-81 -55 -233 -55q-132 0 -211 58v-8q0 -70 -31.5 -125t-91 -86t-140.5 -31q-79 0 -139 28.5t-93 80.5t-33 122q0 59 21 119.5t60 111.5l71 -40q-43 -77 -43 -148q0 -63 42.5 -99.5t116.5 -36.5q73 0 117 27.5t44 71.5
q0 36 -19 96t-50 123l100 46q30 -57 59 -91.5t71 -54.5q61 127 133 196t145 69q51 0 93 -28.5t66 -78.5t24 -110q0 -33 -9 -62q25 -8 56 -7zM939 148q50 21 50 60q0 33 -25.5 60.5t-62.5 27.5q-46 0 -93.5 -43t-89.5 -122q31 -4 78 -4q93 0 143 21zM804 559l80 79l80 -79
l-80 -80z" />
    <glyph glyph-name="uniFEBF" unicode="&#x636;" horiz-adv-x="770" arabic-form="initial" 
d="M638 392q42 -29 66.5 -78.5t24.5 -109.5q0 -103 -80 -157.5t-233 -54.5q-93 0 -165 16.5t-108 46.5q-22 -29 -56 -42t-87 -13l-16 10v115l16 10q39 0 59.5 11t33.5 38.5t28 86.5l88 -23q-15 -67 -20 -86q29 -15 70 -24q61 136 136 209.5t151 73.5q50 0 92 -29zM581 144.5
q50 21.5 50 66.5q0 34 -26 59.5t-62 25.5q-46 0 -94.5 -44t-91.5 -127q48 -2 70 -2q104 0 154 21.5zM446 559l80 79l80 -79l-80 -80z" />
    <glyph glyph-name="uniFEC0" unicode="&#x636;" horiz-adv-x="775" arabic-form="medial" 
d="M791 125v-115l-16 -10q-81 0 -125 47q-81 -55 -234 -55q-93 0 -165 16.5t-108 46.5q-22 -29 -56 -42t-87 -13l-16 10v115l16 10q39 0 59.5 11t33.5 38.5t28 86.5l88 -23q-15 -67 -20 -86q29 -15 70 -24q61 136 136 209.5t151 73.5q50 0 92 -29t66.5 -78.5t24.5 -109.5
q0 -31 -8 -60q21 -9 54 -9zM581 144.5q50 21.5 50 66.5q0 34 -26 59.5t-62 25.5q-46 0 -94.5 -44t-91.5 -127q48 -2 70 -2q104 0 154 21.5zM446 559l80 79l80 -79l-80 -80z" />
    <glyph glyph-name="uniFEC2" unicode="&#x637;" horiz-adv-x="667" arabic-form="final" 
d="M683 125v-115l-16 -10q-42 0 -76.5 12.5t-57.5 36.5q-82 -56 -233 -56q-69 0 -139 1t-108 6l-13 139q48 -6 108 -6l-17 542h111l-9 -407q45 73 98 113t104 40q50 0 91 -28.5t64.5 -78.5t23.5 -110q0 -32 -9 -59q23 -10 62 -10zM516 214q0 33 -24.5 57.5t-59.5 24.5
q-46 0 -93 -42.5t-90 -122.5q20 -1 61 -1q206 0 206 84z" />
    <glyph glyph-name="uniFEC3" unicode="&#x637;" horiz-adv-x="562" arabic-form="initial" 
d="M431 392q41 -29 65 -78.5t24 -109.5q0 -98 -83 -151t-237 -53h-200l-16 10v115l16 10l53 -1l-16 541h111l-9 -407q46 74 98 113.5t103 39.5q50 0 91 -29zM422 214q0 32 -23.5 57t-60.5 25q-46 0 -92.5 -41.5t-89.5 -119.5h59q207 0 207 79z" />
    <glyph glyph-name="uniFEC4" unicode="&#x637;" horiz-adv-x="576" arabic-form="medial" 
d="M592 125v-115l-16 -10q-41 0 -74.5 13.5t-55.5 38.5q-83 -52 -235 -52h-211l-16 10v115l16 10l65 -1l-17 541h111l-9 -407q46 74 98.5 113.5t103.5 39.5q49 0 90 -29t65 -78.5t24 -109.5q0 -35 -10 -61q22 -8 55 -8zM433 214q0 33 -24.5 57.5t-59.5 24.5
q-46 0 -92.5 -41.5t-89.5 -119.5h60q206 0 206 79z" />
    <glyph glyph-name="uniFEC6" unicode="&#x638;" horiz-adv-x="661" arabic-form="final" 
d="M683 125v-115l-16 -10q-42 0 -76.5 12.5t-57.5 36.5q-82 -56 -233 -56q-69 0 -139 1t-108 6l-13 139q48 -6 108 -6l-17 542h111l-9 -407q45 73 98 113t104 40q50 0 91 -28.5t64.5 -78.5t23.5 -110q0 -32 -9 -59q23 -10 62 -10zM516 214q0 33 -24.5 57.5t-59.5 24.5
q-46 0 -93 -42.5t-90 -122.5q20 -1 61 -1q206 0 206 84zM343 554l80 79l80 -79l-80 -80z" />
    <glyph glyph-name="uniFEC7" unicode="&#x638;" horiz-adv-x="562" arabic-form="initial" 
d="M431 392q41 -29 65 -78.5t24 -109.5q0 -98 -83 -151t-237 -53h-200l-16 10v115l16 10l53 -1l-16 541h111l-9 -407q46 74 98 113.5t103 39.5q50 0 91 -29zM422 214q0 32 -23.5 57t-60.5 25q-46 0 -92.5 -41.5t-89.5 -119.5h59q207 0 207 79zM265 554l80 79l80 -79l-80 -80
z" />
    <glyph glyph-name="uniFEC8" unicode="&#x638;" horiz-adv-x="576" arabic-form="medial" 
d="M592 125v-115l-16 -10q-41 0 -74.5 13.5t-55.5 38.5q-83 -52 -235 -52h-211l-16 10v115l16 10l65 -1l-17 541h111l-9 -407q46 74 98.5 113.5t103.5 39.5q49 0 90 -29t65 -78.5t24 -109.5q0 -35 -10 -61q22 -8 55 -8zM433 214q0 33 -24.5 57.5t-59.5 24.5
q-46 0 -92.5 -41.5t-89.5 -119.5h60q206 0 206 79zM277 554l80 79l80 -79l-80 -80z" />
    <glyph glyph-name="uniFECA" unicode="&#x639;" horiz-adv-x="526" arabic-form="final" 
d="M542 125v-115l-16 -10q-82 0 -139.5 13t-113.5 46q-68 -28 -103.5 -65.5t-35.5 -71.5q0 -43 42.5 -65t110.5 -22q50 0 98 13t84 39l49 -72q-43 -55 -105.5 -85t-139.5 -30q-74 0 -131 24.5t-88.5 69.5t-31.5 103q0 68 41.5 126t136.5 111q-61 70 -127 120l17 98
q38 29 88.5 44.5t103.5 15.5q88 0 141 -33.5t53 -90.5q0 -35 -21.5 -69.5t-69.5 -75.5q56 -8 141 -8zM350 293.5q-28 10.5 -68 10.5q-62 0 -101 -26q45 -32 109 -102q30 19 59 49t29 43q0 15 -28 25.5z" />
    <glyph glyph-name="uniFECB" unicode="&#x639;" horiz-adv-x="459" arabic-form="initial" 
d="M424 65q-88 -29 -199.5 -46.5t-224.5 -18.5l-16 10v115l16 10q48 0 95 3q-36 45 -36 108q0 50 24 92t65 66.5t89 24.5q54 0 93 -32.5t58 -92.5l-74 -35q-10 18 -29.5 29t-43.5 11q-38 0 -63 -19.5t-25 -49.5q0 -33 29.5 -54.5t86.5 -28.5q45 8 133 26z" />
    <glyph glyph-name="uniFECC" unicode="&#x639;" horiz-adv-x="508" arabic-form="medial" 
d="M524 125v-115l-16 -10q-81 0 -137.5 14.5t-111.5 49.5q-47 -31 -113 -47.5t-146 -16.5l-16 10v115l16 10q101 0 170 13q-56 63 -115 106l17 98q38 29 88.5 44.5t103.5 15.5q88 0 141.5 -33.5t53.5 -90.5q0 -66 -91 -145q51 -8 140 -8zM331.5 293.5q-28.5 10.5 -67.5 10.5
q-58 0 -101 -26q37 -27 108 -102q28 17 56 47.5t33 44.5q0 15 -28.5 25.5z" />
    <glyph glyph-name="uniFECE" unicode="&#x63a;" horiz-adv-x="526" arabic-form="final" 
d="M542 125v-115l-16 -10q-82 0 -139.5 13t-113.5 46q-68 -28 -103.5 -65.5t-35.5 -71.5q0 -43 42.5 -65t110.5 -22q50 0 98 13t84 39l49 -72q-43 -55 -105.5 -85t-139.5 -30q-74 0 -131 24.5t-88.5 69.5t-31.5 103q0 68 41.5 126t136.5 111q-61 70 -127 120l17 98
q38 29 88.5 44.5t103.5 15.5q88 0 141 -33.5t53 -90.5q0 -35 -21.5 -69.5t-69.5 -75.5q56 -8 141 -8zM350 293.5q-28 10.5 -68 10.5q-62 0 -101 -26q45 -32 109 -102q30 19 59 49t29 43q0 15 -28 25.5zM205 545l80 79l80 -79l-80 -80z" />
    <glyph glyph-name="uniFECF" unicode="&#x63a;" horiz-adv-x="459" arabic-form="initial" 
d="M424 65q-88 -29 -199.5 -46.5t-224.5 -18.5l-16 10v115l16 10q48 0 95 3q-36 45 -36 108q0 50 24 92t65 66.5t89 24.5q54 0 93 -32.5t58 -92.5l-74 -35q-10 18 -29.5 29t-43.5 11q-38 0 -63 -19.5t-25 -49.5q0 -33 29.5 -54.5t86.5 -28.5q45 8 133 26zM156 558l80 79
l80 -79l-80 -80z" />
    <glyph glyph-name="uniFED0" unicode="&#x63a;" horiz-adv-x="508" arabic-form="medial" 
d="M524 125v-115l-16 -10q-81 0 -137.5 14.5t-111.5 49.5q-47 -31 -113 -47.5t-146 -16.5l-16 10v115l16 10q101 0 170 13q-56 63 -115 106l17 98q38 29 88.5 44.5t103.5 15.5q88 0 141.5 -33.5t53.5 -90.5q0 -66 -91 -145q51 -8 140 -8zM331.5 293.5q-28.5 10.5 -67.5 10.5
q-58 0 -101 -26q37 -27 108 -102q28 17 56 47.5t33 44.5q0 15 -28.5 25.5zM184 545l80 79l80 -79l-80 -80z" />
    <glyph glyph-name="uniFED2" unicode="&#x641;" horiz-adv-x="814" arabic-form="final" 
d="M830 125v-114l-16 -10q-60 0 -117 10t-103 28q-101 -47 -221 -47q-176 0 -254.5 46.5t-78.5 148.5q0 45 14.5 99t38.5 100l76 -22q-21 -71 -21 -120q0 -43 22 -68t70.5 -35.5t132.5 -10.5q32 0 82 2q-29 41 -29 96q0 56 22 103.5t60 75.5t84 28t84 -28t60 -75.5
t22 -103.5q0 -53 -25 -91q48 -2 81 -2zM596 155q72 25 72 74q0 34 -22 58t-54 24t-54 -24t-22 -58q0 -51 80 -74zM512 568l80 79l80 -79l-80 -80z" />
    <glyph glyph-name="uniFED3" unicode="&#x641;" horiz-adv-x="405" arabic-form="initial" 
d="M360 193q0 -86 -29.5 -126t-103 -53.5t-227.5 -13.5l-16 10v115l16 10q119 0 173.5 3t74.5 11t20 26v51q-41 -28 -95 -28q-66 0 -105 39.5t-39 105.5q0 53 20.5 98t56.5 71.5t80 26.5q174 0 174 -346zM181 301q23 0 44.5 5t36.5 14q-16 108 -81 108q-28 0 -47.5 -22
t-19.5 -53q0 -52 67 -52zM106 672l80 79l80 -79l-80 -80z" />
    <glyph glyph-name="uniFED4" unicode="&#x641;" horiz-adv-x="445" arabic-form="medial" 
d="M461 125v-115l-16 -10q-60 0 -117.5 10.5t-104.5 28.5q-103 -39 -223 -39l-16 10v115l16 10q31 0 81 2q-25 38 -25 90q0 57 22.5 104.5t60.5 75t83 27.5q46 0 84 -27.5t60.5 -75t22.5 -104.5q0 -52 -25 -90q50 -2 81 -2zM222 157q77 23 77 76q0 34 -22 58t-55 24
q-32 0 -54 -24t-22 -57q0 -54 76 -77zM142 563l80 79l80 -79l-80 -80z" />
    <glyph glyph-name="uniFED6" unicode="&#x642;" horiz-adv-x="646" arabic-form="final" 
d="M662 125v-115l-16 -10h-46q-13 -104 -82.5 -152t-204.5 -48q-84 0 -146.5 28t-96.5 80.5t-34 122.5q0 59 21 119.5t60 111.5l70 -38q-42 -78 -42 -150q0 -65 45 -102t126 -37q85 0 142 17.5t57 45.5v27h-67q-88 0 -136 45t-48 128q0 52 21.5 97t58.5 71.5t82 26.5
q74 0 119 -68t56 -190h45zM375 151.5q29 -16.5 90 -16.5h47q-7 77 -29.5 113t-61.5 36q-36 0 -55.5 -23t-19.5 -59q0 -34 29 -50.5zM489 446l-63 63l-63 -63l-80 80l80 79l63 -62l63 62l80 -79z" />
    <glyph glyph-name="uniFED7" unicode="&#x642;" horiz-adv-x="402" arabic-form="initial" 
d="M360 193q0 -86 -29.5 -126t-103 -53.5t-227.5 -13.5l-16 10v115l16 10q119 0 173.5 3t74.5 11t20 26v51q-41 -28 -95 -28q-66 0 -105 39.5t-39 105.5q0 53 20.5 98t56.5 71.5t80 26.5q174 0 174 -346zM181 301q23 0 44.5 5t36.5 14q-16 108 -81 108q-28 0 -47.5 -22
t-19.5 -53q0 -52 67 -52zM249 592l-63 63l-63 -63l-80 80l80 79l63 -62l63 62l80 -79z" />
    <glyph glyph-name="uniFED8" unicode="&#x642;" horiz-adv-x="445" arabic-form="medial" 
d="M461 125v-115l-16 -10q-60 0 -117.5 10.5t-104.5 28.5q-103 -39 -223 -39l-16 10v115l16 10q31 0 81 2q-25 38 -25 90q0 57 22.5 104.5t60.5 75t83 27.5q46 0 84 -27.5t60.5 -75t22.5 -104.5q0 -52 -25 -90q50 -2 81 -2zM222 157q77 23 77 76q0 34 -22 58t-55 24
q-32 0 -54 -24t-22 -57q0 -54 76 -77zM285 483l-63 63l-63 -63l-80 80l80 79l63 -62l63 62l80 -79z" />
    <glyph glyph-name="uniFEDA" unicode="&#x643;" horiz-adv-x="753" arabic-form="final" 
d="M769 125v-115l-16 -10q-111 0 -153 63q-37 -35 -103 -53t-156 -18q-153 0 -226.5 47.5t-73.5 147.5q0 46 16.5 100.5t43.5 98.5l75 -29q-13 -30 -20.5 -62t-7.5 -55q0 -59 47 -85.5t146 -26.5q65 0 111.5 7.5t70 19t23.5 24.5l-6 496h111l-5 -498q17 -23 40.5 -32.5
t66.5 -9.5zM340 363q28 7 28 14q0 2 -5 5t-17 8l-13 5q-18 8 -26 20t-8 30q0 31 36.5 54.5t93.5 26.5l2 -57q-29 -2 -48.5 -8.5t-19.5 -13.5q0 -5 25 -17l14 -7q36 -14 36 -41q0 -32 -43.5 -57t-109.5 -29l-14 56q41 4 69 11z" />
    <glyph glyph-name="uniFEDB" unicode="&#x643;" horiz-adv-x="430" arabic-form="initial" 
d="M280 292.5q42 -68.5 42 -134.5q0 -78 -82.5 -118t-239.5 -40l-16 10v115l16 10q51 0 101 6t82 15.5t32 19.5q0 36 -53 99t-126 114l16 101q184 102 345 167l21 -112q-125 -49 -260 -117q80 -67 122 -135.5z" />
    <glyph glyph-name="uniFEDC" unicode="&#x643;" horiz-adv-x="413" arabic-form="medial" 
d="M429 125v-115l-16 -10q-64 0 -107.5 14t-77.5 47q-66 -61 -228 -61l-16 10v115l16 10q105 0 163 21l-131 233l16 101q185 103 345 167l21 -112q-125 -50 -275 -124l118 -211q17 -31 36 -47t46.5 -22t73.5 -6z" />
    <glyph glyph-name="uniFEDE" unicode="&#x644;" horiz-adv-x="665" arabic-form="final" 
d="M681 125v-115l-16 -10q-68 0 -106 27q-1 -65 -34 -117t-91 -81t-133 -29q-79 0 -139 28.5t-93 81t-33 121.5q0 59 21 119.5t60 111.5l71 -40q-43 -76 -43 -148q0 -63 42.5 -99.5t116.5 -36.5q71 0 115 27t44 71l-7 639h111l-5 -503q22 -37 103 -37z" />
    <glyph glyph-name="uniFEDF" unicode="&#x644;" horiz-adv-x="263" arabic-form="initial" 
d="M-16 10v115l16 10q45 0 71.5 11t26.5 34l-5 495h111l-5 -500q-1 -91 -56.5 -133t-142.5 -42z" />
    <glyph glyph-name="uniFEE0" unicode="&#x644;" horiz-adv-x="306" arabic-form="medial" 
d="M322 125v-115l-16 -10q-53 0 -92 16t-59 47q-22 -28 -64 -45.5t-92 -17.5l-15 10v115l15 10q51 0 76.5 12t25.5 32l-4 496h111l-5 -505q20 -35 103 -35z" />
    <glyph glyph-name="uniFEE2" unicode="&#x645;" horiz-adv-x="574" arabic-form="final" 
d="M590 125v-115l-16 -10q-39 0 -66.5 14t-48.5 45q-24 -34 -56.5 -51t-68.5 -17q-41 0 -83 21.5t-78 61.5l-15 -28q-10 -17 -13 -25.5t-3 -16.5l-3 -392h-97l-5 391q0 24 8.5 45.5t29.5 55.5l91 156q44 75 78.5 105.5t88.5 30.5q41 0 70.5 -18.5t52.5 -62.5t45 -122
q10 -34 25.5 -46t47.5 -12zM384.5 121.5q19.5 10.5 32.5 31.5l-5 15q-18 60 -35.5 82.5t-50.5 22.5q-25 0 -45.5 -17t-41.5 -58l-14 -26q24 -29 54.5 -45t61.5 -16q24 0 43.5 10.5z" />
    <glyph glyph-name="uniFEE3" unicode="&#x645;" horiz-adv-x="506" arabic-form="initial" 
d="M380.5 364q38.5 -32 61 -83t22.5 -107q0 -85 -43.5 -135t-117.5 -50q-45 0 -88.5 21t-80.5 64q-27 -38 -58.5 -56t-75.5 -18l-16 10v115l16 10q36 0 56.5 14.5t40.5 50.5l48 82q34 57 70 85.5t82 28.5q45 0 83.5 -32zM353.5 128q17.5 18 17.5 49q0 35 -21.5 65.5
t-52.5 30.5q-28 0 -48 -16.5t-39 -51.5l-20 -37q23 -28 53.5 -43t61.5 -15t48.5 18z" />
    <glyph glyph-name="uniFEE4" unicode="&#x645;" horiz-adv-x="542" arabic-form="medial" 
d="M558 125v-115l-16 -10q-39 0 -66.5 13.5t-48.5 44.5q-24 -34 -56.5 -50.5t-69.5 -16.5q-42 0 -85 22t-79 63q-32 -43 -63 -59.5t-74 -16.5l-16 10v115l16 10q30 0 48.5 10.5t35.5 35t48 80.5q39 69 77.5 102t91.5 33q41 0 70 -18.5t52.5 -62.5t45.5 -122
q10 -35 25.5 -46.5t47.5 -11.5zM352.5 121.5q20.5 10.5 32.5 31.5q-4 10 -5 15q-18 59 -36 82t-51 23q-25 0 -46.5 -19t-44.5 -65l-9 -18q24 -29 54 -44.5t61 -15.5q24 0 44.5 10.5z" />
    <glyph glyph-name="uniFEE6" unicode="&#x646;" horiz-adv-x="640" arabic-form="final" 
d="M656 125v-115l-16 -10q-45 0 -77 13q-7 -62 -40 -110.5t-90 -75.5t-132 -27q-79 0 -139 28.5t-93 80.5t-33 122q0 59 21 119.5t60 111.5l71 -40q-43 -77 -43 -148q0 -63 42.5 -99.5t116.5 -36.5q73 0 117 27.5t44 71.5q0 36 -19 96t-50 123l100 46q30 -59 51 -140
q16 -27 93 -27zM218 393l80 79l80 -79l-80 -80z" />
    <glyph glyph-name="uniFEE7" unicode="&#x646;" horiz-adv-x="279" arabic-form="initial" 
d="M-16 10v115l16 10q61 0 100 14t39 35q0 33 -16 84.5t-43 103.5l99 51q25 -48 41.5 -113.5t16.5 -115.5q0 -194 -237 -194zM53 576l80 79l80 -79l-80 -80z" />
    <glyph glyph-name="uniFEE8" unicode="&#x646;" horiz-adv-x="331" arabic-form="medial" 
d="M347 125v-115l-16 -10q-58 0 -96.5 17t-61.5 51q-22 -32 -66.5 -50t-106.5 -18l-16 10v115l16 10q58 0 85.5 14.5t34.5 43.5q12 56 19 123l93 -11q-13 -100 -13 -117q0 -27 27 -40t85 -13zM113 461l80 79l80 -79l-80 -80z" />
    <glyph glyph-name="uniFEEA" unicode="&#x647;" horiz-adv-x="461" arabic-form="final" 
d="M477 125v-115l-16 -10q-71 0 -116 29.5t-52 81.5q-39 -24 -94 -24q-77 0 -124 38.5t-47 99.5q0 73 69 134.5t188 98.5l-1 63h106l-5 -319q-1 -35 17.5 -51t58.5 -16zM148.5 216q21.5 -11 62.5 -11q43 0 77 17l-2 131q-63 -13 -111 -43.5t-48 -61.5q0 -21 21.5 -32z" />
    <glyph glyph-name="uniFEEB" unicode="&#x647;" horiz-adv-x="576" arabic-form="initial" 
d="M534 179q0 -86 -52 -132.5t-148 -46.5q-34 0 -73 9t-76 27q-45 -17 -95.5 -26.5t-89.5 -9.5l-16 10v115l16 10q41 0 60 1q-21 38 -21 82q0 48 21.5 89t56.5 65t74 24l56 113q287 -130 287 -330zM435 193q0 85 -142 159q24 -25 37.5 -60t13.5 -74q0 -47 -22 -85h12
q101 0 101 60zM138 185q19 -18 52 -30q74 23 74 70q0 29 -19.5 49t-53.5 20t-53 -19.5t-19 -49.5q0 -22 19 -40z" />
    <glyph glyph-name="uniFEEC" unicode="&#x647;" horiz-adv-x="437" arabic-form="medial" 
d="M453 125v-115l-16 -10h-46q18 -32 18 -73q0 -60 -42.5 -99.5t-105.5 -39.5q-84 0 -141.5 58.5t-69.5 154.5q-16 -1 -50 -1l-16 10v115l16 10h54q13 76 43.5 141.5t70.5 105t81 39.5q35 0 66.5 -27t50.5 -72.5t19 -97.5q0 -51 -19 -89h71zM185.5 253q-31.5 -45 -44.5 -114
q86 6 125.5 23t39.5 47q0 34 -17 61.5t-40 27.5q-32 0 -63.5 -45zM309.5 -78q18.5 14 18.5 39q0 24 -18 45t-49 35q-52 -22 -121 -32q12 -47 44 -74t75 -27q32 0 50.5 14z" />
    <glyph glyph-name="uniFEEE" unicode="&#x648;" horiz-adv-x="429" arabic-form="final" 
d="M445 125v-115l-16 -10h-57q-21 -91 -77 -145.5t-140 -54.5q-42 0 -83.5 19.5t-58.5 47.5l34 77q50 -21 93 -21q54 0 91.5 22t53.5 64h-39q-100 0 -151.5 48t-51.5 132q0 59 21 106t59.5 74t88.5 27q81 0 125 -69t48 -193l44 1zM252 131l47 1q-6 74 -29.5 109t-65.5 35
q-36 0 -55.5 -22.5t-19.5 -51.5q0 -72 123 -71z" />
    <glyph glyph-name="uniFEF0" unicode="&#x649;" horiz-adv-x="661" arabic-form="final" 
d="M677 125v-115l-16 -10q-39 0 -72 15q3 -15 3 -28q0 -42 -43 -85.5t-111.5 -72.5t-140.5 -29q-78 0 -137 28t-91.5 80.5t-32.5 122.5q0 58 21 119t60 112l71 -40q-43 -77 -43 -148q0 -64 43.5 -101.5t118.5 -37.5q47 0 90.5 12.5t71 31.5t27.5 39q0 14 -26 33t-77 48
l61 106l21 -10q63 -30 104.5 -45t81.5 -15z" />
    <glyph glyph-name="uniFEF2" unicode="&#x64a;" horiz-adv-x="661" arabic-form="final" 
d="M677 125v-115l-16 -10q-39 0 -72 15q3 -15 3 -28q0 -42 -43 -85.5t-111.5 -72.5t-140.5 -29q-78 0 -137 28t-91.5 80.5t-32.5 122.5q0 58 21 119t60 112l71 -40q-43 -77 -43 -148q0 -64 43.5 -101.5t118.5 -37.5q47 0 90.5 12.5t71 31.5t27.5 39q0 14 -26 33t-77 48
l61 106l21 -10q63 -30 104.5 -45t81.5 -15zM371 -412l-67 67l-67 -67l-79 80l79 80l67 -67l67 67l79 -80z" />
    <glyph glyph-name="uniFEF3" unicode="&#x64a;" horiz-adv-x="279" arabic-form="initial" 
d="M-16 10v115l16 10q61 0 100 14t39 35q0 33 -16 84.5t-43 103.5l99 51q25 -48 41.5 -113.5t16.5 -115.5q0 -194 -237 -194zM191 -218l-67 67l-67 -67l-79 80l79 80l67 -67l67 67l79 -80z" />
    <glyph glyph-name="uniFEF4" unicode="&#x64a;" horiz-adv-x="331" arabic-form="medial" 
d="M347 125v-115l-16 -10q-58 0 -96.5 17t-61.5 51q-22 -32 -66.5 -50t-106.5 -18l-16 10v115l16 10q58 0 85.5 14.5t34.5 43.5q12 56 19 123l93 -11q-13 -100 -13 -117q0 -27 27 -40t85 -13zM233 -218l-67 67l-67 -67l-79 80l79 80l67 -67l67 67l79 -80z" />
    <glyph glyph-name=".notdef" horiz-adv-x="500" 
 />
    <glyph glyph-name=".null" horiz-adv-x="0" 
 />
    <glyph glyph-name="nonmarkingreturn" unicode="&#xd;" horiz-adv-x="500" 
 />
    <glyph glyph-name="space" unicode=" " horiz-adv-x="198" 
 />
    <glyph glyph-name="exclam" unicode="!" horiz-adv-x="276" 
d="M75 724h126l-17 -533h-91zM195 6q-19 -18 -56 -18q-76 0 -76 70q0 71 76 71q75 0 75 -71q0 -34 -19 -52z" />
    <glyph glyph-name="quotedbl" unicode="&#x22;" horiz-adv-x="392" 
d="M229 724h108v-259h-108v259zM55 724h108v-259h-108v259z" />
    <glyph glyph-name="numbersign" unicode="#" horiz-adv-x="607" 
d="M334 142h-108l-21 -142h-85l21 142h-109l18 83h104l21 131h-109l17 84h104l19 133h85l-20 -133h106l20 133h85l-20 -133h110l-16 -84h-106l-19 -131h108l-16 -83h-105l-21 -142h-85zM259 356l-20 -131h107l19 131h-106z" />
    <glyph glyph-name="dollar" unicode="$" horiz-adv-x="537" 
d="M361 576.5q-16 25.5 -49 34.5v-211q58 -15 98 -36t64.5 -60t24.5 -101q0 -86 -48.5 -137.5t-133.5 -63.5v-83h-89v83q-83 8 -138.5 53.5t-65.5 143.5l102 19q10 -61 33.5 -91t75.5 -36v216q-57 15 -96 35.5t-65 60t-26 104.5q0 81 51 133t130 66v86h88v-85
q74 -8 118.5 -53t53.5 -132l-105 -14q-7 43 -23 68.5zM178.5 463q17.5 -24 56.5 -40v189q-38 -9 -56 -32.5t-18 -56.5q0 -36 17.5 -60zM367.5 248.5q-19.5 22.5 -55.5 36.5v-190q35 9 55 32t20 61t-19.5 60.5z" />
    <glyph glyph-name="percent" unicode="%" horiz-adv-x="813" 
d="M60.5 424q-38.5 49 -38.5 127q0 87 43.5 137t127.5 50t123 -45.5t39 -128.5q0 -87 -43.5 -138t-126.5 -51q-86 0 -124.5 49zM564 724h103l-438 -739h-104zM245.5 474.5q16.5 28.5 16.5 85.5q0 52 -16 79t-55 27q-40 0 -57.5 -29.5t-17.5 -79.5q0 -54 16.5 -82.5
t56.5 -28.5t56.5 28.5zM487.5 37q-38.5 49 -38.5 127q0 87 43.5 137t127.5 50t123 -45.5t39 -128.5q0 -87 -43.5 -138t-126.5 -51q-86 0 -124.5 49zM672.5 87.5q16.5 28.5 16.5 85.5q0 52 -16 79t-55 27q-40 0 -57.5 -29.5t-17.5 -79.5q0 -54 16.5 -82.5t56.5 -28.5
t56.5 28.5z" />
    <glyph glyph-name="ampersand" unicode="&#x26;" horiz-adv-x="717" 
d="M474 462q-34 -46 -120 -83l-28 -11q60 -93 155 -195q39 59 42 176h102q0 -65 -17 -126t-54 -109q42 -31 83 -31q20 0 42 9l16 -86q-33 -16 -76 -16q-40 0 -74.5 13t-69.5 38q-33 -25 -81 -39t-109 -14q-72 0 -126 26t-82.5 71.5t-28.5 103.5q0 71 34.5 119t105.5 81
q-37 65 -37 135q0 51 25 91t70 62.5t101 22.5q67 0 114 -32.5t47 -107.5q0 -52 -34 -98zM291 434q5 2 14 6t14 6q47 21 68.5 47t21.5 61q0 28 -17.5 46t-50.5 18q-35 0 -56.5 -20.5t-21.5 -57.5q0 -47 28 -106zM404 99q-92 85 -177 219q-30 -19 -46 -46.5t-16 -70.5
q0 -53 36 -89.5t104 -36.5q59 0 99 24z" />
    <glyph glyph-name="quotesingle" unicode="'" horiz-adv-x="218" 
d="M55 724h108v-259h-108v259z" />
    <glyph glyph-name="parenleft" unicode="(" horiz-adv-x="335" 
d="M89.5 50.5q-40.5 106.5 -40.5 229.5q0 124 42.5 233.5t113.5 210.5h118q-75 -114 -114 -219t-39 -223q0 -123 37 -223t106 -212l-119 1q-64 96 -104.5 202.5z" />
    <glyph glyph-name="parenright" unicode=")" horiz-adv-x="335" 
d="M247.5 50.5q40.5 106.5 40.5 229.5q0 124 -42.5 233.5t-113.5 210.5h-118q75 -114 114 -219t39 -223q0 -123 -37 -223t-106 -212l119 1q64 96 104.5 202.5z" />
    <glyph glyph-name="asterisk" unicode="*" horiz-adv-x="466" 
d="M401 654l17 -55l-114 -57l76 -116l-44 -34l-102 96l-101 -99l-44 36l75 116l-116 57l17 55l121 -27l22 129h54l19 -131z" />
    <glyph glyph-name="plus" unicode="+" 
d="M235 274h-141v97h141v145h98v-145h142v-97h-142v-149h-98v149z" />
    <glyph glyph-name="comma" unicode="," horiz-adv-x="229" 
d="M194 116l-90 -248l-92 10l58 238h124z" />
    <glyph glyph-name="hyphen" unicode="-" horiz-adv-x="315" 
d="M20 345h271v-103h-271v103z" />
    <glyph glyph-name="period" unicode="." horiz-adv-x="244" 
d="M122 -12q-78 0 -78 75q0 76 78 76q38 0 58 -19.5t20 -56.5q0 -75 -78 -75z" />
    <glyph glyph-name="slash" unicode="/" horiz-adv-x="404" 
d="M289 755h104l-280 -847h-105z" />
    <glyph glyph-name="zero" unicode="0" horiz-adv-x="571" 
d="M133.5 33q-54.5 45 -75.5 126.5t-21 202.5q0 181 58 278t198 97q95 0 148 -45t73 -124.5t20 -195.5q0 -190 -55.5 -287t-195.5 -97q-95 0 -149.5 45zM365.5 112q27.5 32 37.5 93t10 161q0 97 -9 155t-35.5 89t-78.5 31t-81 -31.5t-40 -92t-11 -157.5q0 -96 10 -155.5
t38 -92t80 -32.5t79.5 32z" />
    <glyph glyph-name="one" unicode="1" horiz-adv-x="424" 
d="M198 579q-23 -13 -74.5 -22.5t-80.5 -9.5l-7 93q71 6 120 26t84 58h72v-724h-114v579z" />
    <glyph glyph-name="two" unicode="2" horiz-adv-x="531" 
d="M423 690.5q54 -46.5 54 -136.5q0 -52 -17.5 -97t-49.5 -89t-90 -110l-138 -158v-2h305v-98h-436v96l163 194q59 70 87 107.5t44 74.5t16 78q0 93 -101 93q-58 0 -83.5 -29t-34.5 -87l-102 18q13 97 75 144.5t156 47.5q98 0 152 -46.5z" />
    <glyph glyph-name="three" unicode="3" horiz-adv-x="546" 
d="M168.5 107.5q25.5 -25.5 84.5 -25.5q54 0 88.5 31t34.5 96q0 66 -35.5 95t-102.5 29h-67v91h46q70 0 109.5 33.5t39.5 91.5q0 95 -101 95q-54 0 -79 -23t-37 -74l-100 21q17 90 77.5 129.5t150.5 39.5q98 0 150.5 -46t52.5 -127q0 -71 -40.5 -114t-97.5 -60v-3
q152 -30 152 -183q0 -65 -30 -114t-85 -75.5t-127 -26.5q-92 0 -151 43t-70 134l104 20q8 -52 33.5 -77.5z" />
    <glyph glyph-name="four" unicode="4" 
d="M354 172h-330v83l300 469h142v-457h84v-95h-85v-172h-111v172zM355 616l-224 -349h224v349z" />
    <glyph glyph-name="five" unicode="5" horiz-adv-x="549" 
d="M456 724v-98h-274l-20 -214q59 48 141 48q85 0 140.5 -53t55.5 -168q0 -75 -31 -132t-88 -88t-132 -31q-87 0 -148.5 43.5t-74.5 133.5l103 21q8 -48 36 -76t86 -28q56 0 94 38.5t38 114.5q0 70 -32 100.5t-86 30.5q-64 0 -119 -53l-77 33l28 378h360z" />
    <glyph glyph-name="six" unicode="6" 
d="M384.5 623.5q-24.5 21.5 -65.5 21.5q-77 0 -114 -80t-39 -192q28 29 74 49.5t96 20.5q91 0 142 -55t51 -153q0 -119 -64.5 -183t-170.5 -64q-134 0 -186.5 94.5t-52.5 258.5q0 96 24 185t85.5 150t165.5 61q159 0 192 -160l-102 -29q-11 54 -35.5 75.5zM201 136
q25 -57 96 -57q54 0 84.5 38t30.5 109q0 63 -25.5 94t-79.5 31q-35 0 -71.5 -18.5t-63.5 -45.5q4 -94 29 -151z" />
    <glyph glyph-name="seven" unicode="7" horiz-adv-x="520" 
d="M376 626h-343v98h464v-87l-287 -637h-122z" />
    <glyph glyph-name="eight" unicode="8" horiz-adv-x="551" 
d="M485.5 308q36.5 -43 36.5 -118q0 -57 -31 -103t-88 -72.5t-133 -26.5q-120 0 -179.5 52.5t-59.5 134.5q0 69 37 117t108 80q-59 27 -89.5 71t-30.5 101q0 90 64.5 141.5t168.5 51.5q103 0 160 -45t57 -122q0 -61 -33 -105t-97 -80q73 -34 109.5 -77zM365.5 486.5
q26.5 34.5 26.5 75.5q0 43 -26.5 66.5t-80.5 23.5q-51 0 -81.5 -25t-30.5 -68q0 -46 31 -77.5t87 -55.5q48 26 74.5 60.5zM173.5 266.5q-28.5 -32.5 -28.5 -81.5t31 -78t97 -29q64 0 97 31.5t33 77.5q0 38 -21 64t-50.5 42t-75.5 33q-54 -27 -82.5 -59.5z" />
    <glyph glyph-name="nine" unicode="9" 
d="M182.5 103.5q28.5 -24.5 76.5 -24.5q76 0 112 74t38 191q-27 -28 -74 -47t-98 -19q-91 0 -141.5 56.5t-50.5 157.5q0 117 65 181t171 64q132 0 184.5 -94.5t52.5 -258.5q0 -396 -266 -396q-84 0 -140 39t-72 126l102 30q12 -55 40.5 -79.5zM371 589q-25 56 -96 56
q-53 0 -83.5 -37.5t-30.5 -109.5q0 -131 104 -131q37 0 72.5 18.5t63.5 47.5q-5 100 -30 156z" />
    <glyph glyph-name="colon" unicode=":" horiz-adv-x="244" 
d="M122 -12q-78 0 -78 75q0 76 78 76q38 0 58 -19.5t20 -56.5q0 -75 -78 -75zM122 353q-78 0 -78 75q0 76 78 76q38 0 58 -19.5t20 -56.5q0 -75 -78 -75z" />
    <glyph glyph-name="semicolon" unicode=";" horiz-adv-x="256" 
d="M195 116l-90 -248l-92 10l58 238h124zM146 353q-78 0 -78 75q0 76 78 76q38 0 58 -19.5t20 -56.5q0 -75 -78 -75z" />
    <glyph glyph-name="less" unicode="&#x3c;" 
d="M78 346l383 148v-100l-282 -103l282 -102v-100l-383 142v115z" />
    <glyph glyph-name="equal" unicode="=" 
d="M96 418h378v-99h-378v99zM96 244h378v-99h-378v99z" />
    <glyph glyph-name="greater" unicode="&#x3e;" 
d="M477 346l-383 148v-101l281 -102l-281 -101v-97l383 141v112z" />
    <glyph glyph-name="question" unicode="?" horiz-adv-x="524" 
d="M158 371q92 8 148.5 41.5t56.5 109.5q0 56 -29.5 81.5t-79.5 25.5q-51 0 -81.5 -25.5t-42.5 -84.5l-109 18q12 86 72 139.5t168 53.5q98 0 160.5 -48t62.5 -155q0 -184 -214 -229v-107h-112v180zM268.5 6q-19.5 -18 -56.5 -18q-76 0 -76 70q0 71 76 71t76 -71
q0 -34 -19.5 -52z" />
    <glyph glyph-name="at" unicode="@" horiz-adv-x="847" 
d="M563.5 -167q-60.5 -16 -135.5 -16q-110 0 -196.5 41.5t-137 124.5t-50.5 204q0 115 50 203.5t141 137.5t210 49q104 0 185 -38.5t127 -112t46 -176.5q0 -129 -49 -192.5t-133 -63.5q-41 0 -72.5 15.5t-43.5 39.5q-21 -27 -50.5 -42t-65.5 -15q-74 0 -110 51t-36 135
q0 63 20.5 112.5t59 78t89.5 28.5q54 0 89 -35l7 29h70v-257q0 -36 9 -53.5t40 -17.5q43 0 66 50t23 126q0 127 -69.5 193.5t-207.5 66.5q-99 0 -168 -42t-103.5 -112t-34.5 -154q0 -149 83 -222.5t222 -73.5q115 0 192 53l33 -68q-39 -31 -99.5 -47zM426 329
q-43 0 -69.5 -35t-26.5 -107q0 -125 78 -125q54 0 88 54v186q-31 27 -70 27z" />
    <glyph glyph-name="A" unicode="A" horiz-adv-x="696" 
d="M671 0h-128l-68 198h-263l-66 -198h-119l241 724h149zM341 616l-106 -320h213l-105 320h-2z" />
    <glyph glyph-name="B" unicode="B" horiz-adv-x="631" 
d="M87 724h266q120 0 169.5 -47.5t49.5 -129.5q0 -70 -40 -112t-104 -57v-3q87 -10 129 -55.5t42 -121.5q0 -198 -270 -198h-242v724zM455 530q0 60 -33.5 80t-105.5 20h-113v-214h86q166 0 166 114zM434 117q42 23 42 89q0 63 -40 89t-108 26h-125v-227h107q82 0 124 23z
" />
    <glyph glyph-name="C" unicode="C" horiz-adv-x="693" 
d="M123.5 84q-78.5 96 -78.5 268q0 118 40.5 205t117.5 133.5t184 46.5q121 0 194.5 -63t81.5 -190l-108 -10q-9 83 -49 122.5t-120 39.5q-105 0 -163 -68.5t-58 -207.5q0 -143 53.5 -208t157.5 -65q78 0 120.5 36t58.5 108l104 -20q-17 -114 -99 -168.5t-190 -54.5
q-168 0 -246.5 96z" />
    <glyph glyph-name="D" unicode="D" horiz-adv-x="726" 
d="M87 724h235q183 0 271 -91.5t88 -259.5q0 -173 -94 -273t-282 -100h-218v724zM498 164q63 69 63 198q0 100 -28 159t-82 83.5t-138 24.5h-109v-534h100q131 0 194 69z" />
    <glyph glyph-name="E" unicode="E" horiz-adv-x="578" 
d="M540 98v-98h-453v724h438v-98h-321v-214h301v-97h-301v-217h336z" />
    <glyph glyph-name="F" unicode="F" horiz-adv-x="550" 
d="M87 0v724h436v-98h-319v-226h295v-98h-295v-302h-117z" />
    <glyph glyph-name="G" unicode="G" horiz-adv-x="737" 
d="M486 17.5q-60 -29.5 -133 -29.5q-156 0 -232 98t-76 266q0 120 40.5 206.5t117.5 132.5t186 46q121 0 193.5 -59.5t81.5 -187.5l-109 -12q-8 79 -48.5 119.5t-120.5 40.5q-107 0 -163.5 -72t-56.5 -203q0 -148 54.5 -212.5t158.5 -64.5q56 0 95.5 21.5t59.5 57t20 76.5
v47h-169v88h282v-376h-86l-14 94q-21 -47 -81 -76.5z" />
    <glyph glyph-name="H" unicode="H" horiz-adv-x="730" 
d="M526 0v316h-322v-316h-117v724h117v-305h322v305h117v-724h-117z" />
    <glyph glyph-name="I" unicode="I" horiz-adv-x="291" 
d="M87 0v724h117v-724h-117z" />
    <glyph glyph-name="J" unicode="J" horiz-adv-x="511" 
d="M432 724v-534q0 -104 -55 -153t-156 -49q-94 0 -145 43.5t-55 139.5l113 18q5 -54 23 -79t67 -25q45 0 68 22t23 80v537h117z" />
    <glyph glyph-name="K" unicode="K" horiz-adv-x="655" 
d="M511 724h127l-276 -307l283 -417h-137l-228 327l-76 -82v-245h-117v724h117v-338z" />
    <glyph glyph-name="L" unicode="L" horiz-adv-x="558" 
d="M524 99v-99h-437v724h117v-625h320z" />
    <glyph glyph-name="M" unicode="M" horiz-adv-x="904" 
d="M708 0v602h-3l-199 -602h-114l-195 604h-2v-604h-108v724h176l189 -582h3l188 582h174v-724h-109z" />
    <glyph glyph-name="N" unicode="N" horiz-adv-x="745" 
d="M195 569v-569h-108v724h147l317 -566v566h107v-724h-138z" />
    <glyph glyph-name="O" unicode="O" horiz-adv-x="760" 
d="M127 89q-82 101 -82 271q0 109 39.5 194.5t117.5 134t188 48.5q109 0 182 -47.5t108 -129t35 -185.5q0 -181 -86.5 -284t-253.5 -103q-166 0 -248 101zM537 156.5q58 68.5 58 208.5q0 135 -55 202.5t-153 67.5q-101 0 -161 -69.5t-60 -203.5q0 -137 57 -205.5t157 -68.5
q99 0 157 68.5z" />
    <glyph glyph-name="P" unicode="P" horiz-adv-x="618" 
d="M87 0v724h252q129 0 185 -61.5t56 -158.5q0 -251 -280 -251h-97v-253h-116zM415 380q44 30 44 116q0 72 -39 102t-117 30h-100v-278h87q81 0 125 30z" />
    <glyph glyph-name="Q" unicode="Q" horiz-adv-x="760" 
d="M128 89q-83 101 -83 271q0 109 39.5 194.5t117.5 134t188 48.5q109 0 182 -47.5t108 -129t35 -185.5q0 -182 -91 -283l87 -92l-67 -62l-91 96q-69 -46 -178 -46q-164 0 -247 101zM487 108l-124 135l67 63l120 -132q47 74 47 191q0 134 -56 202t-154 68q-101 0 -161 -69.5
t-60 -203.5q0 -137 57.5 -208t156.5 -71q64 0 107 25z" />
    <glyph glyph-name="R" unicode="R" horiz-adv-x="639" 
d="M497 0l-156 291h-138v-291h-116v724h262q125 0 180.5 -56.5t55.5 -143.5q0 -78 -35.5 -128.5t-98.5 -74.5l173 -321h-127zM425 414.5q39 29.5 39 101.5q0 62 -37.5 87t-113.5 25h-110v-243h113q70 0 109 29.5z" />
    <glyph glyph-name="S" unicode="S" horiz-adv-x="599" 
d="M205 616q-33 -26 -33 -72q0 -37 21.5 -60.5t54 -37t88.5 -29.5q71 -21 115.5 -41.5t76 -61t31.5 -107.5q0 -111 -75.5 -165t-188.5 -54q-117 0 -188 49.5t-82 165.5l108 16q14 -66 49 -102t115 -36q62 0 103.5 25.5t41.5 84.5q0 38 -21.5 62t-54.5 37t-88 28
q-72 20 -116 39.5t-75.5 61t-31.5 111.5q0 64 33 111t90 71.5t129 24.5q228 0 246 -208l-108 -13q-9 60 -39 93t-100 33q-68 0 -101 -26z" />
    <glyph glyph-name="T" unicode="T" horiz-adv-x="571" 
d="M228 626h-217v98h549v-98h-215v-626h-117v626z" />
    <glyph glyph-name="U" unicode="U" horiz-adv-x="711" 
d="M477.5 126q36.5 40 36.5 136v462h117v-474q0 -132 -73 -197t-207 -65q-141 0 -206 65t-65 200v471h117v-459q0 -94 38 -136.5t122 -42.5t120.5 40z" />
    <glyph glyph-name="V" unicode="V" horiz-adv-x="637" 
d="M5 724h131l190 -611h3l184 611h119l-229 -724h-158z" />
    <glyph glyph-name="W" unicode="W" horiz-adv-x="919" 
d="M463 557h-2l-141 -557h-149l-158 724h123l115 -594h2l147 594h127l150 -599h2l109 599h117l-153 -724h-149z" />
    <glyph glyph-name="X" unicode="X" horiz-adv-x="635" 
d="M627 0h-134l-183 275l-175 -275h-127l236 366l-224 358h130l168 -270l170 270h122l-226 -355z" />
    <glyph glyph-name="Y" unicode="Y" horiz-adv-x="582" 
d="M238 0v277l-248 447h128l180 -336h2l174 336h118l-237 -445l1 -279h-118z" />
    <glyph glyph-name="Z" unicode="Z" horiz-adv-x="589" 
d="M553 98v-98h-522v84l369 542h-359v98h497v-87l-365 -539h380z" />
    <glyph glyph-name="bracketleft" unicode="[" horiz-adv-x="290" 
d="M61 724h191v-81h-81v-705h81v-81h-191v867z" />
    <glyph glyph-name="backslash" unicode="\" horiz-adv-x="406" 
d="M14 755h104l281 -847h-105z" />
    <glyph glyph-name="bracketright" unicode="]" horiz-adv-x="290" 
d="M229 724h-191v-81h81v-705h-81v-81h191v867z" />
    <glyph glyph-name="asciicircum" unicode="^" horiz-adv-x="616" 
d="M306 563l-145 -264h-109l197 365h117l200 -365h-112z" />
    <glyph glyph-name="underscore" unicode="_" horiz-adv-x="500" 
d="M0 -95h500v-86h-500v86z" />
    <glyph glyph-name="grave" unicode="`" horiz-adv-x="500" 
d="M252 746l88 -164l-80 -10l-138 174h130z" />
    <glyph glyph-name="a" unicode="a" horiz-adv-x="550" 
d="M472 78q6 -9 25 -9q12 0 31 6l4 -68q-15 -8 -37.5 -12.5t-43.5 -4.5q-39 0 -59.5 15t-27.5 46q-27 -29 -69 -46t-95 -17q-86 0 -119.5 43t-33.5 96q0 94 69 136t184 42q25 0 53 -2v39q0 52 -18 75.5t-72 23.5q-45 0 -65.5 -18.5t-29.5 -61.5l-101 18q12 74 62 111.5
t143 37.5q100 0 147 -42t47 -138v-239q0 -22 6 -31zM306 226q-60 0 -101 -16.5t-41 -66.5q0 -69 77 -69q33 0 63.5 14t49.5 34v102q-20 2 -48 2z" />
    <glyph glyph-name="b" unicode="b" horiz-adv-x="586" 
d="M72 755h113v-288q67 61 167 61q86 0 137.5 -61.5t51.5 -195.5q0 -144 -59.5 -213.5t-156.5 -69.5q-85 0 -146 56l-2 -1l-7 -43h-98v755zM303 84q62 0 90.5 47t28.5 138q0 83 -26 124t-85 41q-33 0 -67.5 -16.5t-56.5 -38.5v-251q58 -44 116 -44z" />
    <glyph glyph-name="c" unicode="c" horiz-adv-x="541" 
d="M102.5 59q-59.5 71 -59.5 193q0 133 67 204.5t189 71.5q87 0 142 -49.5t62 -139.5l-106 -15q-6 54 -30.5 83t-72.5 29q-131 0 -131 -171q0 -183 128 -183q49 0 77 25t37 78l100 -20q-12 -89 -72 -133t-148 -44q-123 0 -182.5 71z" />
    <glyph glyph-name="d" unicode="d" horiz-adv-x="583" 
d="M418 0l-8 52h-2q-67 -64 -163 -64q-94 0 -147 63.5t-53 198.5q0 143 62 210.5t156 67.5q87 0 139 -45v272h112v-755h-96zM349 422q-29 12 -62 12q-123 0 -123 -183q0 -85 28.5 -127.5t89.5 -42.5q32 0 63.5 15t53.5 38v260q-21 16 -50 28z" />
    <glyph glyph-name="e" unicode="e" horiz-adv-x="547" 
d="M100 63.5q-57 75.5 -57 194.5q0 90 32.5 150.5t88.5 90t126 29.5q108 0 160 -61.5t52 -167.5q0 -33 -3 -69h-335q4 -148 130 -148q47 0 72 21t34 63l98 -24q-15 -73 -71 -113.5t-140 -40.5q-130 0 -187 75.5zM359 406.5q-24 30.5 -76 30.5q-48 0 -80.5 -31t-36.5 -96h217
q0 66 -24 96.5z" />
    <glyph glyph-name="f" unicode="f" horiz-adv-x="342" 
d="M313.5 759.5q-27.5 5.5 -59.5 5.5q-80 0 -124 -43.5t-44 -130.5v-74h-74v-85h74v-432h115v432h141v85h-141v71q0 51 20.5 70t59.5 19q34 0 71 -13l4 83q-15 7 -42.5 12.5z" />
    <glyph glyph-name="g" unicode="g" horiz-adv-x="555" 
d="M416 487q14 32 36 50t50 18q23 0 41 -6v-77q-51 3 -96 -10q22 -23 34 -55t12 -64q0 -57 -29 -98.5t-79 -63.5t-113 -22q-53 0 -90 11q-11 -8 -18 -19t-7 -22q0 -15 11 -23.5t42 -10.5l152 -9q86 -6 129 -36.5t43 -98.5q0 -94 -75.5 -135.5t-192.5 -41.5q-132 0 -186 36
t-54 93q0 38 23.5 64.5t62.5 39.5v3q-61 21 -61 78q0 32 18.5 55.5t54.5 50.5q-35 20 -55.5 57t-20.5 86q0 56 27 99.5t77.5 67.5t118.5 24q97 0 145 -41zM356 414.5q-29 24.5 -82 24.5q-52 0 -83 -23.5t-31 -71.5q0 -97 113 -97q50 0 81 25.5t31 69.5q0 48 -29 72.5z
M399.5 -32q-16.5 14 -60.5 16l-163 9q-43 -30 -43 -70q0 -32 31 -47.5t103 -15.5q76 0 112.5 16.5t36.5 51.5q0 26 -16.5 40z" />
    <glyph glyph-name="h" unicode="h" horiz-adv-x="583" 
d="M402 0v333q0 50 -20 74.5t-65 24.5q-35 0 -72 -17t-59 -38v-377h-115v755h114v-289q78 62 173 62q82 0 120.5 -43.5t38.5 -132.5v-352h-115z" />
    <glyph glyph-name="i" unicode="i" horiz-adv-x="257" 
d="M186.5 623.5q-19.5 -19.5 -55.5 -19.5q-35 0 -55 20t-20 56t20 55.5t55 19.5q36 0 55.5 -19.5t19.5 -55.5q0 -37 -19.5 -56.5zM73 0v517h115v-517h-115z" />
    <glyph glyph-name="j" unicode="j" horiz-adv-x="255" 
d="M187 629q-20 -20 -55 -20q-36 0 -55.5 20t-19.5 56q0 37 19.5 56.5t55.5 19.5t55.5 -19.5t19.5 -56.5q0 -36 -20 -56zM-36 -216q-31 7 -46 16l10 88q42 -17 78 -17q67 0 67 80v566h115v-573q0 -86 -42.5 -126.5t-120.5 -40.5q-30 0 -61 7z" />
    <glyph glyph-name="k" unicode="k" horiz-adv-x="544" 
d="M388 517h129l-176 -186l189 -331h-126l-149 255l-68 -67v-188h-115v755h115v-447z" />
    <glyph glyph-name="l" unicode="l" horiz-adv-x="257" 
d="M73 0v755h115v-755h-115z" />
    <glyph glyph-name="m" unicode="m" horiz-adv-x="861" 
d="M71 0v517h99l4 -53q81 64 169 64q51 0 82.5 -16t47.5 -51q77 67 173 67q78 0 114 -43.5t36 -131.5v-353h-115v336q0 49 -15.5 72.5t-56.5 23.5q-29 0 -62.5 -15.5t-54.5 -34.5q1 -8 1 -27v-355h-115v336q0 49 -15 72.5t-56 23.5q-30 0 -65 -16.5t-56 -35.5v-380h-115z
" />
    <glyph glyph-name="n" unicode="n" horiz-adv-x="583" 
d="M402 0v333q0 50 -20 74.5t-65 24.5q-35 0 -72 -17t-59 -38v-377h-115v517h102l5 -54q37 30 82.5 47.5t96.5 17.5q83 0 121.5 -43.5t38.5 -132.5v-352h-115z" />
    <glyph glyph-name="o" unicode="o" horiz-adv-x="582" 
d="M100.5 59.5q-57.5 71.5 -57.5 196.5q0 127 65.5 199.5t191.5 72.5q123 0 181 -69.5t58 -190.5q0 -133 -61.5 -206.5t-190.5 -73.5t-186.5 71.5zM387 121q32 44 32 141q0 94 -30 133.5t-93 39.5q-133 0 -133 -175q0 -95 31.5 -139t98.5 -44q62 0 94 44z" />
    <glyph glyph-name="p" unicode="p" horiz-adv-x="585" 
d="M171 517l6 -55q71 66 173 66q88 0 139.5 -61.5t51.5 -195.5q0 -144 -60 -213.5t-154 -69.5q-82 0 -144 50v-250h-111v729h99zM238 96.5q31 -14.5 64 -14.5q63 0 91 48.5t28 138.5q0 88 -26.5 126.5t-82.5 38.5q-34 0 -68 -16.5t-58 -38.5v-251q21 -17 52 -31.5z" />
    <glyph glyph-name="q" unicode="q" horiz-adv-x="581" 
d="M404 -212v261q-33 -30 -72 -45.5t-89 -15.5q-93 0 -145.5 64t-52.5 199q0 97 30 159t79.5 90t108.5 28q44 0 81 -13.5t63 -39.5l9 42h98v-729h-110zM348 421q-30 13 -62 13q-122 0 -122 -181q0 -85 28 -128.5t90 -43.5q31 0 62.5 15t54.5 38v257q-21 17 -51 30z" />
    <glyph glyph-name="r" unicode="r" horiz-adv-x="376" 
d="M341 414q-43 0 -85 -15t-70 -40v-359h-115v517h97l9 -77q31 44 72 66t97 22l21 -1v-115q-18 2 -26 2z" />
    <glyph glyph-name="s" unicode="s" horiz-adv-x="493" 
d="M385 490q47 -38 63 -109l-100 -26q-10 44 -31 65.5t-67 21.5q-45 0 -67 -17t-22 -44q0 -33 27 -48.5t85 -25.5t95.5 -24t63 -45t25.5 -86q0 -79 -58 -121.5t-155 -42.5q-93 0 -146 37t-65 109l98 32q12 -44 36 -68t81 -24q45 0 71 15t26 47q0 25 -12.5 38.5t-33.5 20.5
t-62 15q-59 12 -95 25t-62.5 44.5t-26.5 88.5q0 77 56.5 118.5t142.5 41.5t133 -38z" />
    <glyph glyph-name="t" unicode="t" horiz-adv-x="392" 
d="M323 -1q-38 -11 -77 -11q-78 0 -116 37.5t-38 118.5v288h-79v85h79v151l115 16v-167h140v-85h-140v-272q0 -41 14.5 -59.5t54.5 -18.5q22 0 46.5 7t41.5 17l19 -82q-22 -14 -60 -25z" />
    <glyph glyph-name="u" unicode="u" horiz-adv-x="580" 
d="M185 517v-333q0 -51 18.5 -74.5t62.5 -23.5q35 0 71.5 17t58.5 37v377h115v-517h-100l-8 57q-35 -32 -80 -50t-97 -18q-80 0 -118 43.5t-38 131.5v353h115z" />
    <glyph glyph-name="v" unicode="v" horiz-adv-x="517" 
d="M2 517h125l135 -404h2l134 404h117l-189 -517h-133z" />
    <glyph glyph-name="w" unicode="w" horiz-adv-x="781" 
d="M2 517h116l113 -398h1l104 398h116l104 -396h1l110 396h112l-158 -517h-132l-97 379h-2l-93 -379h-137z" />
    <glyph glyph-name="x" unicode="x" horiz-adv-x="508" 
d="M496 0h-124l-125 185l-119 -185h-114l172 264l-173 253h125l117 -177l121 177h112l-171 -251z" />
    <glyph glyph-name="y" unicode="y" horiz-adv-x="502" 
d="M127 517l127 -388h1l127 388h118q-94 -260 -216 -583q-32 -86 -72 -121.5t-108 -35.5q-28 0 -57.5 6t-46.5 14l11 86q18 -7 40.5 -11.5t40.5 -4.5q28 0 48.5 16.5t35.5 54.5l21 54l-194 525h124z" />
    <glyph glyph-name="z" unicode="z" horiz-adv-x="462" 
d="M438 94v-94h-409v82l269 345h-265v90h393v-83l-267 -340h279z" />
    <glyph glyph-name="braceleft" unicode="{" horiz-adv-x="318" 
d="M224 -145q-145 0 -145 122q0 38 7 94q1 10 4 42.5t3 59.5q0 81 -70 81h-20v76h19q71 0 71 80q0 37 -8 113q-6 68 -6 92q0 122 144 122h63v-83h-31q-30 0 -42.5 -12.5t-12.5 -38.5q0 -36 7 -96q1 -10 4 -43.5t3 -60.5q0 -50 -19.5 -73t-58.5 -38q39 -15 58.5 -38.5
t19.5 -73.5q0 -27 -3 -59t-4 -41q-7 -52 -7 -87q0 -28 14 -42.5t49 -14.5h23v-81h-62z" />
    <glyph glyph-name="bar" unicode="|" horiz-adv-x="280" 
d="M88 755h104v-898h-104v898z" />
    <glyph glyph-name="braceright" unicode="}" horiz-adv-x="318" 
d="M94 737q145 0 145 -122q0 -38 -7 -94q-1 -10 -4 -42.5t-3 -59.5q0 -81 70 -81h20v-76h-19q-71 0 -71 -80q0 -37 8 -113q6 -68 6 -92q0 -122 -144 -122h-63v83h31q30 0 42.5 12.5t12.5 38.5q0 36 -7 96q-1 10 -4 43.5t-3 60.5q0 50 19.5 73t58.5 38q-39 15 -58.5 38.5
t-19.5 73.5q0 27 3 59t4 41q7 52 7 87q0 28 -14 42.5t-49 14.5h-23v81h62z" />
    <glyph glyph-name="asciitilde" unicode="~" horiz-adv-x="550" 
d="M209 425.5q33 -6.5 82 -18.5q75 -20 100 -20q19 0 27 10t8 38l67 -3q2 -18 2 -26q0 -49 -25 -77.5t-68 -28.5q-24 0 -53 6t-89 20q-78 19 -99 19q-18 0 -26.5 -11.5t-6.5 -40.5l-70 3q-1 9 -1 25q0 53 26 82t70 29q23 0 56 -6.5z" />
    <glyph glyph-name="uni00A0" unicode="&#xa0;" horiz-adv-x="198" 
 />
    <glyph glyph-name="exclamdown" unicode="&#xa1;" horiz-adv-x="276" 
d="M207 -209h-126l17 533h91zM87 509q19 18 56 18q76 0 76 -70q0 -71 -76 -71q-75 0 -75 71q0 34 19 52z" />
    <glyph glyph-name="cent" unicode="&#xa2;" horiz-adv-x="524" 
d="M328 603q68 -10 112 -54.5t49 -116.5l-103 -15q-5 40 -18.5 62.5t-39.5 30.5v-309q27 7 42.5 28.5t23.5 60.5l96 -18q-10 -70 -53.5 -112t-108.5 -52v-108h-84v108q-91 14 -141 79t-50 163q0 105 51.5 169.5t139.5 81.5v104h84v-102zM188 256.5q17 -39.5 56 -53.5v304
q-73 -26 -73 -145q0 -66 17 -105.5z" />
    <glyph glyph-name="sterling" unicode="&#xa3;" horiz-adv-x="574" 
d="M135 162.5q18 34.5 18 74.5q0 41 -21 81h-101v88h72q-19 36 -30.5 66t-11.5 68q0 58 29.5 102.5t83 69.5t123.5 25q98 0 153 -45t68 -143l-103 -16q-8 57 -33.5 85t-84.5 28q-56 0 -87.5 -25.5t-31.5 -77.5q0 -33 11 -62.5t33 -74.5h212v-88h-185q16 -40 16 -76
q0 -42 -16.5 -78.5t-51.5 -70.5h143q58 0 82.5 25t34.5 84l98 -18q-10 -94 -60 -139t-147 -45h-328v93h58q39 35 57 69.5z" />
    <glyph glyph-name="currency" unicode="&#xa4;" 
d="M402 90q-52 -35 -126 -35q-76 0 -130 36l-46 -46q-14 -15 -25.5 -26.5l-17.5 -17.5l-65 68l93 92q-28 52 -28 120q0 60 29 112l-91 90l69 70l87 -87q53 39 131 39q80 0 131 -36l83 83l65 -68l-87 -87q27 -49 27 -112q0 -70 -33 -124l92 -91l-69 -69zM368 183q31 38 31 98
q0 63 -30.5 98t-90.5 35q-57 0 -88 -36.5t-31 -96.5q0 -61 30 -98.5t91 -37.5q57 0 88 38z" />
    <glyph glyph-name="yen" unicode="&#xa5;" horiz-adv-x="548" 
d="M467 428v-84h-131v-83h131v-84h-131v-177h-115v177h-131v84h131v83h-131v84h91l-163 296h125l137 -262h2l132 262h117l-159 -296h95z" />
    <glyph glyph-name="brokenbar" unicode="&#xa6;" horiz-adv-x="280" 
d="M88 755h104v-341h-104v341zM88 245h104v-388h-104v388z" />
    <glyph glyph-name="section" unicode="&#xa7;" horiz-adv-x="556" 
d="M138 390q-60 49 -60 132q0 59 29.5 101t80 64t112.5 22q91 0 147.5 -45.5t63.5 -136.5l-106 -14q-5 55 -30 83t-78 28q-51 0 -79 -23.5t-28 -63.5q0 -34 19 -55t47 -32.5t78 -26.5q59 -17 96 -33.5t63 -49.5t26 -88q0 -42 -24.5 -80.5t-68.5 -67.5q61 -50 61 -131
q0 -59 -29.5 -101t-80.5 -64t-113 -22q-94 0 -149 47t-62 139l103 13q6 -54 32 -82t80 -28q50 0 77 23t27 63q0 33 -18.5 53t-46 31t-75.5 23q-61 16 -98 32.5t-63 50.5t-26 92q0 88 93 147zM171 219q17 -18 43 -28.5t72 -23.5q11 -3 27.5 -8t38.5 -13q54 35 54 86
q0 27 -16 44t-40 27t-69 23q-48 14 -72 23q-55 -37 -55 -83q0 -29 17 -47z" />
    <glyph glyph-name="dieresis" unicode="&#xa8;" horiz-adv-x="500" 
d="M194 623q-20 -19 -53 -19t-53.5 19t-20.5 52q0 31 20.5 50.5t53.5 19.5q32 0 52.5 -19.5t20.5 -50.5q0 -33 -20 -52zM414 623q-20 -19 -53 -19q-34 0 -54 19t-20 52q0 32 20 51t54 19q32 0 52.5 -19.5t20.5 -50.5q0 -33 -20 -52z" />
    <glyph glyph-name="copyright" unicode="&#xa9;" horiz-adv-x="784" 
d="M691 152q-43 -78 -121 -121t-179 -43q-110 0 -187 42.5t-116 117t-39 169.5q0 105 45.5 182.5t124 119t174.5 41.5q105 0 182 -40.5t118 -114.5t41 -173q0 -102 -43 -180zM592.5 125q72.5 73 72.5 201q0 86 -34.5 147t-96 92t-141.5 31q-78 0 -140 -33t-97.5 -96
t-35.5 -149q0 -125 72.5 -195.5t200.5 -70.5q127 0 199.5 73zM497.5 160.5q-45.5 -29.5 -100.5 -29.5q-92 0 -136 53t-44 142q0 87 48 140.5t134 53.5q63 0 104 -32t45 -98l-65 -8q-4 41 -24.5 60.5t-61.5 19.5q-48 0 -77.5 -33.5t-29.5 -104.5q0 -60 25.5 -97.5t79.5 -37.5
q44 0 65.5 20t30.5 61l61 -10q-9 -70 -54.5 -99.5z" />
    <glyph glyph-name="ordfeminine" unicode="&#xaa;" horiz-adv-x="385" 
d="M331 343q5 -6 16 -6q9 0 14 1l3 -53q-28 -12 -54 -12q-28 0 -46 12t-21 30q-40 -43 -107 -43q-58 0 -80.5 29t-22.5 65q0 112 169 112q23 0 34 -1v17q0 32 -11 47t-44 15q-28 0 -41 -11.5t-18 -37.5l-77 13q16 103 144 103q70 0 103.5 -27.5t33.5 -89.5v-142q0 -15 5 -21
zM207 422q-33 0 -56.5 -10.5t-23.5 -35.5q0 -38 43 -38q19 0 37 7.5t30 18.5v57q-8 1 -30 1z" />
    <glyph glyph-name="guillemotleft" unicode="&#xab;" horiz-adv-x="447" 
d="M49 258l89 150h98l-86 -147l83 -158h-97zM219 258l89 150h98l-86 -147l83 -158h-97z" />
    <glyph glyph-name="logicalnot" unicode="&#xac;" 
d="M379 276h-288v98h381v-192h-93v94z" />
    <glyph glyph-name="uni00AD" unicode="&#xad;" horiz-adv-x="311" 
d="M20 345h271v-103h-271v103z" />
    <glyph glyph-name="registered" unicode="&#xae;" horiz-adv-x="457" 
d="M393 378q-24 -43 -67 -66.5t-98 -23.5q-90 0 -139 50.5t-49 130.5q0 57 25 100.5t68 66.5t96 23q87 0 137.5 -49.5t50.5 -132.5q0 -56 -24 -99zM332.5 579q-39.5 37 -103.5 37q-62 0 -102.5 -39t-40.5 -106q0 -66 38.5 -103t104.5 -37t104.5 38t38.5 105q0 68 -39.5 105z
M274 383l-44 73h-22v-73h-42v190h69q69 0 69 -55q0 -34 -35 -50l51 -85h-46zM250 494q10 6 10 22q0 14 -8.5 19.5t-24.5 5.5h-19v-53h14q18 0 28 6z" />
    <glyph glyph-name="macron" unicode="&#xaf;" horiz-adv-x="500" 
d="M100 699h299v-83h-299v83z" />
    <glyph glyph-name="degree" unicode="&#xb0;" horiz-adv-x="291" 
d="M228.5 551.5q-31.5 -31.5 -82.5 -31.5q-52 0 -83.5 30.5t-31.5 81.5q0 54 32.5 85t82.5 31t82 -30t32 -83q0 -52 -31.5 -83.5zM184 594.5q14 15.5 14 40.5t-14.5 40t-37.5 15t-38 -15.5t-15 -42.5q0 -24 14 -38.5t39 -14.5q24 0 38 15.5z" />
    <glyph glyph-name="plusminus" unicode="&#xb1;" 
d="M235 274h-141v97h141v145h98v-145h142v-97h-142v-135h-98v135zM94 97h381v-97h-381v97z" />
    <glyph glyph-name="uni00B2" unicode="&#xb2;" horiz-adv-x="393" 
d="M306.5 774.5q36.5 -30.5 36.5 -85.5q0 -49 -27 -88.5t-96 -104.5l-54 -59v-3h184v-85h-302v84l100 107q54 57 73 85t19 58q0 45 -50 45q-28 0 -42.5 -16t-19.5 -48l-88 13q7 64 50.5 96t108.5 32q71 0 107.5 -30.5z" />
    <glyph glyph-name="uni00B3" unicode="&#xb3;" horiz-adv-x="384" 
d="M140 431.5q14 -13.5 44 -13.5q29 0 46.5 15.5t17.5 47.5q0 34 -18 48.5t-54 14.5h-47v70h30q40 0 61.5 18.5t21.5 49.5q0 47 -51 47q-28 0 -42 -12.5t-20 -40.5l-87 17q12 60 55 86t104 26q68 0 105 -28t37 -79q0 -43 -25 -69.5t-62 -38.5v-2q96 -20 96 -110
q0 -63 -46 -99.5t-120 -36.5q-62 0 -104.5 27.5t-50.5 88.5l90 16q5 -29 19 -42.5z" />
    <glyph glyph-name="acute" unicode="&#xb4;" horiz-adv-x="500" 
d="M160 582l88 164h130l-138 -174z" />
    <glyph glyph-name="uni00B5" unicode="&#xb5;" horiz-adv-x="609" 
d="M433 4q-22 14 -29 53q-36 -32 -70.5 -50t-83.5 -18q-40 0 -67 20v-221h-111v729h114v-336q0 -52 20 -73.5t57 -21.5q31 0 66 12.5t68 41.5v377h115v-408q0 -22 6.5 -31t24.5 -9q12 0 31 6l4 -68q-34 -17 -83 -17q-40 0 -62 14z" />
    <glyph glyph-name="paragraph" unicode="&#xb6;" horiz-adv-x="578" 
d="M406 -133v779h-75v-779h-89v380q-102 7 -157 67.5t-55 162.5q0 128 77 187.5t202 59.5h185l1 -857h-89z" />
    <glyph glyph-name="periodcentered" unicode="&#xb7;" horiz-adv-x="212" 
d="M161 254q-19 -18 -55 -18q-74 0 -74 70t74 70q36 0 55 -18t19 -52t-19 -52z" />
    <glyph glyph-name="cedilla" unicode="&#xb8;" horiz-adv-x="500" 
d="M203 -166q24 0 37 10.5t13 30.5q0 23 -16.5 32.5t-53.5 10.5l16 112l63 -8l-9 -60q81 -15 81 -89q0 -48 -33 -76.5t-85 -28.5q-44 0 -82 18l17 59q26 -11 52 -11z" />
    <glyph glyph-name="uni00B9" unicode="&#xb9;" horiz-adv-x="305" 
d="M135 681q-15 -7 -48 -12.5t-51 -5.5l-5 80q92 6 136 52h71v-448h-103v334z" />
    <glyph glyph-name="ordmasculine" unicode="&#xba;" horiz-adv-x="406" 
d="M71 319q-41 47 -41 128q0 83 45.5 129.5t133.5 46.5q85 0 125.5 -45t40.5 -124q0 -86 -43 -134t-133 -48q-87 0 -128 47zM259.5 370.5q19.5 24.5 19.5 79.5t-17.5 77.5t-55.5 22.5q-79 0 -79 -101q0 -53 17.5 -78t57.5 -25q38 0 57.5 24.5z" />
    <glyph glyph-name="guillemotright" unicode="&#xbb;" horiz-adv-x="447" 
d="M228 254l-87 -151h-98l84 151l-85 154h98zM398 254l-87 -151h-98l84 151l-85 154h98z" />
    <glyph glyph-name="onequarter" unicode="&#xbc;" horiz-adv-x="945" 
d="M574 724h105l-354 -736h-107zM158 613q-15 -7 -48 -12.5t-51 -5.5l-5 80q92 6 136 52h71v-448h-103v334zM738 98h-208v70l183 280h125v-271h52v-79h-52v-98h-100v98zM739 360l-120 -183h120v183z" />
    <glyph glyph-name="onehalf" unicode="&#xbd;" horiz-adv-x="945" 
d="M564 724h105l-354 -736h-107zM164 613q-15 -7 -48 -12.5t-51 -5.5l-5 80q92 6 136 52h71v-448h-103v334zM842.5 425.5q36.5 -30.5 36.5 -85.5q0 -49 -27 -88.5t-96 -104.5l-54 -59v-3h184v-85h-302v84l100 107q54 57 73 85t19 58q0 45 -50 45q-28 0 -42.5 -16t-19.5 -48
l-88 13q7 64 50.5 96t108.5 32q71 0 107.5 -30.5z" />
    <glyph glyph-name="threequarters" unicode="&#xbe;" horiz-adv-x="945" 
d="M608 724h105l-354 -736h-107zM756 98h-208v70l183 280h125v-271h52v-79h-52v-98h-100v98zM757 360l-120 -183h120v183zM154 363.5q14 -13.5 44 -13.5q29 0 46.5 15.5t17.5 47.5q0 34 -18 48.5t-54 14.5h-47v70h30q40 0 61.5 18.5t21.5 49.5q0 47 -51 47q-28 0 -42 -12.5
t-20 -40.5l-87 17q12 60 55 86t104 26q68 0 105 -28t37 -79q0 -43 -25 -69.5t-62 -38.5v-2q96 -20 96 -110q0 -63 -46 -99.5t-120 -36.5q-62 0 -104.5 27.5t-50.5 88.5l90 16q5 -29 19 -42.5z" />
    <glyph glyph-name="questiondown" unicode="&#xbf;" horiz-adv-x="502" 
d="M355 144q-92 -8 -148.5 -41.5t-56.5 -109.5q0 -56 29.5 -81.5t79.5 -25.5q51 0 81.5 25.5t42.5 84.5l109 -18q-12 -86 -72 -139.5t-168 -53.5q-98 0 -160.5 48t-62.5 155q0 184 214 229v107h112v-180zM244.5 509q19.5 18 56.5 18q76 0 76 -70q0 -71 -76 -71t-76 71
q0 34 19.5 52z" />
    <glyph glyph-name="Agrave" unicode="&#xc0;" horiz-adv-x="696" 
d="M671 0h-128l-68 198h-263l-66 -198h-119l241 724h149zM341 616l-106 -320h213l-105 320h-2zM422 778l-95 137h-131l142 -148z" />
    <glyph glyph-name="Aacute" unicode="&#xc1;" horiz-adv-x="696" 
d="M671 0h-128l-68 198h-263l-66 -198h-119l241 724h149zM341 616l-106 -320h213l-105 320h-2zM264 778l96 137h130l-142 -148z" />
    <glyph glyph-name="Acircumflex" unicode="&#xc2;" horiz-adv-x="696" 
d="M671 0h-128l-68 198h-263l-66 -198h-119l241 724h149zM341 616l-106 -320h213l-105 320h-2zM263 767l-82 9l112 133h103l110 -133l-83 -7l-79 76z" />
    <glyph glyph-name="Atilde" unicode="&#xc3;" horiz-adv-x="696" 
d="M671 0h-128l-68 198h-263l-66 -198h-119l241 724h149zM341 616l-106 -320h213l-105 320h-2zM311 908.5q20 -6.5 45 -18.5q20 -10 34 -15t28 -5q19 0 26.5 10t7.5 38l64 -3q2 -18 2 -26q0 -49 -24 -76t-65 -27q-24 0 -43.5 6.5t-47.5 19.5q-21 10 -35 14.5t-27 4.5
q-18 0 -26.5 -11t-6.5 -40l-66 3q-2 18 -2 26q0 50 26 78t67 28q23 0 43 -6.5z" />
    <glyph glyph-name="Adieresis" unicode="&#xc4;" horiz-adv-x="696" 
d="M671 0h-128l-68 198h-263l-66 -198h-119l241 724h149zM341 616l-106 -320h213l-105 320h-2zM287 796.5q-20 -18.5 -53 -18.5t-53.5 18.5t-20.5 51.5q0 32 20.5 51t53.5 19t53 -19t20 -51q0 -33 -20 -51.5zM507 796.5q-20 -18.5 -53 -18.5q-34 0 -54 18.5t-20 51.5
q0 32 20 51t54 19q33 0 53 -19t20 -51q0 -33 -20 -51.5z" />
    <glyph glyph-name="Aring" unicode="&#xc5;" horiz-adv-x="696" 
d="M420 714l251 -714h-128l-68 198h-263l-66 -198h-119l238 716q-36 28 -36 81q0 54 33 82.5t82 28.5q50 0 82.5 -27.5t32.5 -79.5q0 -57 -39 -87zM381.5 763q13.5 14 13.5 40q0 24 -13.5 37t-37.5 13q-23 0 -38 -14t-15 -39q0 -24 14 -37.5t38 -13.5q25 0 38.5 14zM341 616
l-106 -320h213l-105 320h-2z" />
    <glyph glyph-name="AE" unicode="&#xc6;" horiz-adv-x="1001" 
d="M956 98v-98h-453v305h-201l-159 -305h-120l378 724h540v-98h-320v-223h301v-96h-301v-209h335zM462 626l-121 -226h162v226h-41z" />
    <glyph glyph-name="Ccedilla" unicode="&#xc7;" horiz-adv-x="693" 
d="M343 -166q24 0 37 10.5t13 30.5q0 23 -16.5 32.5t-53.5 10.5l10 72q-149 10 -218.5 104.5t-69.5 257.5q0 118 40.5 205t117.5 133.5t184 46.5q121 0 194.5 -63t81.5 -190l-108 -10q-9 83 -49 122.5t-120 39.5q-105 0 -163 -68.5t-58 -207.5q0 -143 53.5 -208t157.5 -65
q78 0 120.5 36t58.5 108l104 -20q-17 -107 -90 -161t-172 -61l-4 -27q81 -15 81 -89q0 -48 -33 -76.5t-85 -28.5q-44 0 -82 18l17 59q26 -11 52 -11z" />
    <glyph glyph-name="Egrave" unicode="&#xc8;" horiz-adv-x="578" 
d="M540 98v-98h-453v724h438v-98h-321v-214h301v-97h-301v-217h336zM386 778l-95 137h-131l142 -148z" />
    <glyph glyph-name="Eacute" unicode="&#xc9;" horiz-adv-x="578" 
d="M540 98v-98h-453v724h438v-98h-321v-214h301v-97h-301v-217h336zM236 778l96 137h130l-142 -148z" />
    <glyph glyph-name="Ecircumflex" unicode="&#xca;" horiz-adv-x="578" 
d="M540 98v-98h-453v724h438v-98h-321v-214h301v-97h-301v-217h336zM227 767l-82 9l112 133h103l110 -133l-83 -7l-79 76z" />
    <glyph glyph-name="Edieresis" unicode="&#xcb;" horiz-adv-x="578" 
d="M540 98v-98h-453v724h438v-98h-321v-214h301v-97h-301v-217h336zM251 796.5q-20 -18.5 -53 -18.5t-53.5 18.5t-20.5 51.5q0 32 20.5 51t53.5 19t53 -19t20 -51q0 -33 -20 -51.5zM471 796.5q-20 -18.5 -53 -18.5q-34 0 -54 18.5t-20 51.5q0 32 20 51t54 19q33 0 53 -19
t20 -51q0 -33 -20 -51.5z" />
    <glyph glyph-name="Igrave" unicode="&#xcc;" horiz-adv-x="291" 
d="M87 0v724h117v-724h-117zM224 778l-95 137h-131l142 -148z" />
    <glyph glyph-name="Iacute" unicode="&#xcd;" horiz-adv-x="291" 
d="M87 0v724h117v-724h-117zM66 778l96 137h130l-142 -148z" />
    <glyph glyph-name="Icircumflex" unicode="&#xce;" horiz-adv-x="291" 
d="M87 0v724h117v-724h-117zM65 767l-82 9l112 133h103l110 -133l-83 -7l-79 76z" />
    <glyph glyph-name="Idieresis" unicode="&#xcf;" horiz-adv-x="291" 
d="M87 0v724h117v-724h-117zM89 796.5q-20 -18.5 -53 -18.5t-53.5 18.5t-20.5 51.5q0 32 20.5 51t53.5 19t53 -19t20 -51q0 -33 -20 -51.5zM309 796.5q-20 -18.5 -53 -18.5q-34 0 -54 18.5t-20 51.5q0 32 20 51t54 19q33 0 53 -19t20 -51q0 -33 -20 -51.5z" />
    <glyph glyph-name="Eth" unicode="&#xd0;" horiz-adv-x="726" 
d="M87 327h-73v91h73v306h235q183 0 271 -91.5t88 -259.5q0 -173 -94 -273t-282 -100h-218v327zM498 164q63 69 63 198q0 100 -28 159t-82 83.5t-138 24.5h-109v-211h196v-91h-196v-232h100q131 0 194 69z" />
    <glyph glyph-name="Ntilde" unicode="&#xd1;" horiz-adv-x="745" 
d="M195 569v-569h-108v724h147l317 -566v566h107v-724h-138zM349 908.5q20 -6.5 45 -18.5q20 -10 34 -15t28 -5q19 0 26.5 10t7.5 38l64 -3q2 -18 2 -26q0 -49 -24 -76t-65 -27q-24 0 -43.5 6.5t-47.5 19.5q-21 10 -35 14.5t-27 4.5q-18 0 -26.5 -11t-6.5 -40l-66 3
q-2 18 -2 26q0 50 26 78t67 28q23 0 43 -6.5z" />
    <glyph glyph-name="Ograve" unicode="&#xd2;" horiz-adv-x="760" 
d="M127 89q-82 101 -82 271q0 109 39.5 194.5t117.5 134t188 48.5q109 0 182 -47.5t108 -129t35 -185.5q0 -181 -86.5 -284t-253.5 -103q-166 0 -248 101zM537 156.5q58 68.5 58 208.5q0 135 -55 202.5t-153 67.5q-101 0 -161 -69.5t-60 -203.5q0 -137 57 -205.5t157 -68.5
q99 0 157 68.5zM476 778l-95 137h-131l142 -148z" />
    <glyph glyph-name="Oacute" unicode="&#xd3;" horiz-adv-x="760" 
d="M127 89q-82 101 -82 271q0 109 39.5 194.5t117.5 134t188 48.5q109 0 182 -47.5t108 -129t35 -185.5q0 -181 -86.5 -284t-253.5 -103q-166 0 -248 101zM537 156.5q58 68.5 58 208.5q0 135 -55 202.5t-153 67.5q-101 0 -161 -69.5t-60 -203.5q0 -137 57 -205.5t157 -68.5
q99 0 157 68.5zM300 778l96 137h130l-142 -148z" />
    <glyph glyph-name="Ocircumflex" unicode="&#xd4;" horiz-adv-x="760" 
d="M127 89q-82 101 -82 271q0 109 39.5 194.5t117.5 134t188 48.5q109 0 182 -47.5t108 -129t35 -185.5q0 -181 -86.5 -284t-253.5 -103q-166 0 -248 101zM537 156.5q58 68.5 58 208.5q0 135 -55 202.5t-153 67.5q-101 0 -161 -69.5t-60 -203.5q0 -137 57 -205.5t157 -68.5
q99 0 157 68.5zM308 767l-82 9l112 133h103l110 -133l-83 -7l-79 76z" />
    <glyph glyph-name="Otilde" unicode="&#xd5;" horiz-adv-x="760" 
d="M127 89q-82 101 -82 271q0 109 39.5 194.5t117.5 134t188 48.5q109 0 182 -47.5t108 -129t35 -185.5q0 -181 -86.5 -284t-253.5 -103q-166 0 -248 101zM537 156.5q58 68.5 58 208.5q0 135 -55 202.5t-153 67.5q-101 0 -161 -69.5t-60 -203.5q0 -137 57 -205.5t157 -68.5
q99 0 157 68.5zM356 908.5q20 -6.5 45 -18.5q20 -10 34 -15t28 -5q19 0 26.5 10t7.5 38l64 -3q2 -18 2 -26q0 -49 -24 -76t-65 -27q-24 0 -43.5 6.5t-47.5 19.5q-21 10 -35 14.5t-27 4.5q-18 0 -26.5 -11t-6.5 -40l-66 3q-2 18 -2 26q0 50 26 78t67 28q23 0 43 -6.5z" />
    <glyph glyph-name="Odieresis" unicode="&#xd6;" horiz-adv-x="760" 
d="M127 89q-82 101 -82 271q0 109 39.5 194.5t117.5 134t188 48.5q109 0 182 -47.5t108 -129t35 -185.5q0 -181 -86.5 -284t-253.5 -103q-166 0 -248 101zM537 156.5q58 68.5 58 208.5q0 135 -55 202.5t-153 67.5q-101 0 -161 -69.5t-60 -203.5q0 -137 57 -205.5t157 -68.5
q99 0 157 68.5zM332 796.5q-20 -18.5 -53 -18.5t-53.5 18.5t-20.5 51.5q0 32 20.5 51t53.5 19t53 -19t20 -51q0 -33 -20 -51.5zM552 796.5q-20 -18.5 -53 -18.5q-34 0 -54 18.5t-20 51.5q0 32 20 51t54 19q33 0 53 -19t20 -51q0 -33 -20 -51.5z" />
    <glyph glyph-name="multiply" unicode="&#xd7;" 
d="M182 147l-69 71l103 103l-103 103l69 71l102 -103l103 103l69 -71l-103 -103l103 -103l-69 -71l-103 103z" />
    <glyph glyph-name="Oslash" unicode="&#xd8;" horiz-adv-x="760" 
d="M285 -3l-28 -69h-113l45 107q-72 45 -108 129t-36 196q0 109 39.5 194.5t117.5 134t188 48.5q42 0 87 -10l28 67h112l-44 -106q71 -45 106.5 -127t35.5 -186q0 -181 -86.5 -284t-253.5 -103q-48 0 -90 9zM234 144l202 486q-25 5 -49 5q-101 0 -161 -69.5t-60 -203.5
q0 -148 68 -218zM537 156.5q58 68.5 58 208.5q0 146 -67 215l-202 -486q25 -6 54 -6q99 0 157 68.5z" />
    <glyph glyph-name="Ugrave" unicode="&#xd9;" horiz-adv-x="711" 
d="M477.5 126q36.5 40 36.5 136v462h117v-474q0 -132 -73 -197t-207 -65q-141 0 -206 65t-65 200v471h117v-459q0 -94 38 -136.5t122 -42.5t120.5 40zM435 778l-95 137h-131l142 -148z" />
    <glyph glyph-name="Uacute" unicode="&#xda;" horiz-adv-x="711" 
d="M477.5 126q36.5 40 36.5 136v462h117v-474q0 -132 -73 -197t-207 -65q-141 0 -206 65t-65 200v471h117v-459q0 -94 38 -136.5t122 -42.5t120.5 40zM287 778l96 137h130l-142 -148z" />
    <glyph glyph-name="Ucircumflex" unicode="&#xdb;" horiz-adv-x="711" 
d="M477.5 126q36.5 40 36.5 136v462h117v-474q0 -132 -73 -197t-207 -65q-141 0 -206 65t-65 200v471h117v-459q0 -94 38 -136.5t122 -42.5t120.5 40zM275 767l-82 9l112 133h103l110 -133l-83 -7l-79 76z" />
    <glyph glyph-name="Udieresis" unicode="&#xdc;" horiz-adv-x="711" 
d="M477.5 126q36.5 40 36.5 136v462h117v-474q0 -132 -73 -197t-207 -65q-141 0 -206 65t-65 200v471h117v-459q0 -94 38 -136.5t122 -42.5t120.5 40zM299 796.5q-20 -18.5 -53 -18.5t-53.5 18.5t-20.5 51.5q0 32 20.5 51t53.5 19t53 -19t20 -51q0 -33 -20 -51.5zM519 796.5
q-20 -18.5 -53 -18.5q-34 0 -54 18.5t-20 51.5q0 32 20 51t54 19q33 0 53 -19t20 -51q0 -33 -20 -51.5z" />
    <glyph glyph-name="Yacute" unicode="&#xdd;" horiz-adv-x="582" 
d="M238 0v277l-248 447h128l180 -336h2l174 336h118l-237 -445l1 -279h-118zM216 778l96 137h130l-142 -148z" />
    <glyph glyph-name="Thorn" unicode="&#xde;" horiz-adv-x="618" 
d="M87 0v724h118v-122h134q128 0 184.5 -60.5t56.5 -154.5q0 -246 -280 -246h-97v-141h-116zM415.5 267q43.5 29 43.5 112q0 68 -39 97.5t-117 29.5h-100v-268h87q82 0 125.5 29z" />
    <glyph glyph-name="germandbls" unicode="&#xdf;" horiz-adv-x="660" 
d="M71 528q0 126 67 182.5t183 56.5q112 0 172.5 -48t60.5 -137q0 -66 -32.5 -107t-81.5 -60v-4q81 -15 128 -61.5t47 -142.5t-55.5 -157t-158.5 -61q-147 0 -184 127l87 37q15 -35 36 -55.5t58 -20.5q99 0 99 132q0 147 -164 147h-39v83h16q67 0 97.5 35t30.5 88
q0 120 -121 120q-66 0 -98.5 -33t-32.5 -119v-530h-115v528z" />
    <glyph glyph-name="agrave" unicode="&#xe0;" horiz-adv-x="550" 
d="M472 78q6 -9 25 -9q12 0 31 6l4 -68q-15 -8 -37.5 -12.5t-43.5 -4.5q-39 0 -59.5 15t-27.5 46q-27 -29 -69 -46t-95 -17q-86 0 -119.5 43t-33.5 96q0 94 69 136t184 42q25 0 53 -2v39q0 52 -18 75.5t-72 23.5q-45 0 -65.5 -18.5t-29.5 -61.5l-101 18q12 74 62 111.5
t143 37.5q100 0 147 -42t47 -138v-239q0 -22 6 -31zM306 226q-60 0 -101 -16.5t-41 -66.5q0 -69 77 -69q33 0 63.5 14t49.5 34v102q-20 2 -48 2zM273 746l88 -164l-80 -10l-138 174h130z" />
    <glyph glyph-name="aacute" unicode="&#xe1;" horiz-adv-x="550" 
d="M472 78q6 -9 25 -9q12 0 31 6l4 -68q-15 -8 -37.5 -12.5t-43.5 -4.5q-39 0 -59.5 15t-27.5 46q-27 -29 -69 -46t-95 -17q-86 0 -119.5 43t-33.5 96q0 94 69 136t184 42q25 0 53 -2v39q0 52 -18 75.5t-72 23.5q-45 0 -65.5 -18.5t-29.5 -61.5l-101 18q12 74 62 111.5
t143 37.5q100 0 147 -42t47 -138v-239q0 -22 6 -31zM306 226q-60 0 -101 -16.5t-41 -66.5q0 -69 77 -69q33 0 63.5 14t49.5 34v102q-20 2 -48 2zM181 582l88 164h130l-138 -174z" />
    <glyph glyph-name="acircumflex" unicode="&#xe2;" horiz-adv-x="550" 
d="M472 78q6 -9 25 -9q12 0 31 6l4 -68q-15 -8 -37.5 -12.5t-43.5 -4.5q-39 0 -59.5 15t-27.5 46q-27 -29 -69 -46t-95 -17q-86 0 -119.5 43t-33.5 96q0 94 69 136t184 42q25 0 53 -2v39q0 52 -18 75.5t-72 23.5q-45 0 -65.5 -18.5t-29.5 -61.5l-101 18q12 74 62 111.5
t143 37.5q100 0 147 -42t47 -138v-239q0 -22 6 -31zM306 226q-60 0 -101 -16.5t-41 -66.5q0 -69 77 -69q33 0 63.5 14t49.5 34v102q-20 2 -48 2zM271 682l-83 -107l-82 7l109 165h111l109 -165l-81 -5z" />
    <glyph glyph-name="atilde" unicode="&#xe3;" horiz-adv-x="550" 
d="M472 78q6 -9 25 -9q12 0 31 6l4 -68q-15 -8 -37.5 -12.5t-43.5 -4.5q-39 0 -59.5 15t-27.5 46q-27 -29 -69 -46t-95 -17q-86 0 -119.5 43t-33.5 96q0 94 69 136t184 42q25 0 53 -2v39q0 52 -18 75.5t-72 23.5q-45 0 -65.5 -18.5t-29.5 -61.5l-101 18q12 74 62 111.5
t143 37.5q100 0 147 -42t47 -138v-239q0 -22 6 -31zM306 226q-60 0 -101 -16.5t-41 -66.5q0 -69 77 -69q33 0 63.5 14t49.5 34v102q-20 2 -48 2zM237 715.5q20 -6.5 45 -18.5q20 -10 34 -15t28 -5q19 0 26.5 10t7.5 39l64 -4q2 -18 2 -26q0 -49 -24 -76t-65 -27
q-24 0 -43.5 6.5t-47.5 19.5q-20 10 -34 15t-28 5q-18 0 -26.5 -11.5t-6.5 -40.5l-66 3q-1 8 -1 24q0 52 25.5 80t66.5 28q23 0 43 -6.5z" />
    <glyph glyph-name="adieresis" unicode="&#xe4;" horiz-adv-x="550" 
d="M472 78q6 -9 25 -9q12 0 31 6l4 -68q-15 -8 -37.5 -12.5t-43.5 -4.5q-39 0 -59.5 15t-27.5 46q-27 -29 -69 -46t-95 -17q-86 0 -119.5 43t-33.5 96q0 94 69 136t184 42q25 0 53 -2v39q0 52 -18 75.5t-72 23.5q-45 0 -65.5 -18.5t-29.5 -61.5l-101 18q12 74 62 111.5
t143 37.5q100 0 147 -42t47 -138v-239q0 -22 6 -31zM306 226q-60 0 -101 -16.5t-41 -66.5q0 -69 77 -69q33 0 63.5 14t49.5 34v102q-20 2 -48 2zM215 623q-20 -19 -53 -19t-53.5 19t-20.5 52q0 31 20.5 50.5t53.5 19.5q32 0 52.5 -19.5t20.5 -50.5q0 -33 -20 -52zM435 623
q-20 -19 -53 -19q-34 0 -54 19t-20 52q0 32 20 51t54 19q32 0 52.5 -19.5t20.5 -50.5q0 -33 -20 -52z" />
    <glyph glyph-name="aring" unicode="&#xe5;" horiz-adv-x="550" 
d="M472 78q6 -9 25 -9q12 0 31 6l4 -68q-15 -8 -37.5 -12.5t-43.5 -4.5q-39 0 -59.5 15t-27.5 46q-27 -29 -69 -46t-95 -17q-86 0 -119.5 43t-33.5 96q0 94 69 136t184 42q25 0 53 -2v39q0 52 -18 75.5t-72 23.5q-45 0 -65.5 -18.5t-29.5 -61.5l-101 18q12 74 62 111.5
t143 37.5q100 0 147 -42t47 -138v-239q0 -22 6 -31zM306 226q-60 0 -101 -16.5t-41 -66.5q0 -69 77 -69q33 0 63.5 14t49.5 34v102q-20 2 -48 2zM350.5 599q-29.5 -27 -79.5 -27q-49 0 -79 26t-30 72q0 50 31.5 78t77.5 28q48 0 78.5 -26t30.5 -76q0 -48 -29.5 -75z
M304.5 638.5q12.5 12.5 12.5 35.5q0 22 -12 34t-34 12t-35 -12t-13 -35t12 -35t35 -12q22 0 34.5 12.5z" />
    <glyph glyph-name="ae" unicode="&#xe6;" horiz-adv-x="851" 
d="M403 66q-39 -40 -91.5 -59t-109.5 -19q-86 0 -120.5 43.5t-34.5 96.5q0 94 65 134.5t185 43.5q26 0 56 -2v34q0 53 -19 78t-72 25q-45 0 -67.5 -19t-29.5 -61l-98 18q22 149 198 149q65 0 101 -19t57 -61q31 39 77 59.5t103 20.5q102 0 152.5 -62.5t50.5 -168.5
q0 -39 -3 -68h-335q2 -82 35 -114t95 -32q47 0 72 20.5t35 62.5l99 -23q-16 -73 -72 -114t-141 -41q-129 0 -188 78zM663.5 406.5q-24.5 31.5 -76.5 31.5q-47 0 -81.5 -33t-35.5 -96h217q1 66 -23.5 97.5zM311.5 88q34.5 15 59.5 41q-15 40 -18 101q-6 0 -21 0.5t-27 -0.5
q-66 -1 -103.5 -20.5t-37.5 -66.5q0 -31 18 -50.5t60 -19.5q35 0 69.5 15z" />
    <glyph glyph-name="ccedilla" unicode="&#xe7;" horiz-adv-x="541" 
d="M256 -166q24 0 37 10.5t13 30.5q0 23 -16.5 32.5t-53.5 10.5l10 72q-103 11 -153 80.5t-50 181.5q0 133 67 204.5t189 71.5q87 0 142 -49.5t62 -139.5l-106 -15q-6 54 -30.5 83t-72.5 29q-131 0 -131 -171q0 -183 128 -183q49 0 77 25t37 78l100 -20q-11 -82 -63.5 -126
t-131.5 -50l-4 -27q81 -15 81 -89q0 -48 -33 -76.5t-85 -28.5q-44 0 -82 18l17 59q26 -11 52 -11z" />
    <glyph glyph-name="egrave" unicode="&#xe8;" horiz-adv-x="547" 
d="M100 63.5q-57 75.5 -57 194.5q0 90 32.5 150.5t88.5 90t126 29.5q108 0 160 -61.5t52 -167.5q0 -33 -3 -69h-335q4 -148 130 -148q47 0 72 21t34 63l98 -24q-15 -73 -71 -113.5t-140 -40.5q-130 0 -187 75.5zM359 406.5q-24 30.5 -76 30.5q-48 0 -80.5 -31t-36.5 -96h217
q0 66 -24 96.5zM286 746l88 -164l-80 -10l-138 174h130z" />
    <glyph glyph-name="eacute" unicode="&#xe9;" horiz-adv-x="547" 
d="M100 63.5q-57 75.5 -57 194.5q0 90 32.5 150.5t88.5 90t126 29.5q108 0 160 -61.5t52 -167.5q0 -33 -3 -69h-335q4 -148 130 -148q47 0 72 21t34 63l98 -24q-15 -73 -71 -113.5t-140 -40.5q-130 0 -187 75.5zM359 406.5q-24 30.5 -76 30.5q-48 0 -80.5 -31t-36.5 -96h217
q0 66 -24 96.5zM225 582l88 164h130l-138 -174z" />
    <glyph glyph-name="ecircumflex" unicode="&#xea;" horiz-adv-x="547" 
d="M100 63.5q-57 75.5 -57 194.5q0 90 32.5 150.5t88.5 90t126 29.5q108 0 160 -61.5t52 -167.5q0 -33 -3 -69h-335q4 -148 130 -148q47 0 72 21t34 63l98 -24q-15 -73 -71 -113.5t-140 -40.5q-130 0 -187 75.5zM359 406.5q-24 30.5 -76 30.5q-48 0 -80.5 -31t-36.5 -96h217
q0 66 -24 96.5zM285 682l-83 -107l-82 7l109 165h111l109 -165l-81 -5z" />
    <glyph glyph-name="edieresis" unicode="&#xeb;" horiz-adv-x="547" 
d="M100 63.5q-57 75.5 -57 194.5q0 90 32.5 150.5t88.5 90t126 29.5q108 0 160 -61.5t52 -167.5q0 -33 -3 -69h-335q4 -148 130 -148q47 0 72 21t34 63l98 -24q-15 -73 -71 -113.5t-140 -40.5q-130 0 -187 75.5zM359 406.5q-24 30.5 -76 30.5q-48 0 -80.5 -31t-36.5 -96h217
q0 66 -24 96.5zM229 623q-20 -19 -53 -19t-53.5 19t-20.5 52q0 31 20.5 50.5t53.5 19.5q32 0 52.5 -19.5t20.5 -50.5q0 -33 -20 -52zM449 623q-20 -19 -53 -19q-34 0 -54 19t-20 52q0 32 20 51t54 19q32 0 52.5 -19.5t20.5 -50.5q0 -33 -20 -52z" />
    <glyph glyph-name="igrave" unicode="&#xec;" horiz-adv-x="257" 
d="M73 0v517h115v-517h-115zM122 746l88 -164l-80 -10l-138 174h130z" />
    <glyph glyph-name="iacute" unicode="&#xed;" horiz-adv-x="257" 
d="M73 0v517h115v-517h-115zM55 582l88 164h130l-138 -174z" />
    <glyph glyph-name="icircumflex" unicode="&#xee;" horiz-adv-x="257" 
d="M73 0v517h115v-517h-115zM130 682l-83 -107l-82 7l109 165h111l109 -165l-81 -5z" />
    <glyph glyph-name="idieresis" unicode="&#xef;" horiz-adv-x="257" 
d="M73 0v517h115v-517h-115zM74 623q-20 -19 -53 -19t-53.5 19t-20.5 52q0 31 20.5 50.5t53.5 19.5q32 0 52.5 -19.5t20.5 -50.5q0 -33 -20 -52zM294 623q-20 -19 -53 -19q-34 0 -54 19t-20 52q0 32 20 51t54 19q32 0 52.5 -19.5t20.5 -50.5q0 -33 -20 -52z" />
    <glyph glyph-name="eth" unicode="&#xf0;" horiz-adv-x="581" 
d="M66.5 379q25.5 60 76 95t123.5 35q72 0 133 -35l4 3q-23 72 -72 119l-91 -51l-44 70l73 41q-25 13 -59.5 23t-66.5 15l39 78q102 -15 174 -64l98 59l50 -75l-77 -44q108 -120 108 -332q0 -146 -58.5 -237t-196.5 -91q-118 0 -178.5 69.5t-60.5 187.5q0 74 25.5 134z
M190 123q30 -46 95 -46q74 0 105 60t31 170q0 21 -4 65q-20 21 -54 34.5t-72 13.5q-64 0 -97.5 -42.5t-33.5 -128.5q0 -80 30 -126z" />
    <glyph glyph-name="ntilde" unicode="&#xf1;" horiz-adv-x="583" 
d="M402 0v333q0 50 -20 74.5t-65 24.5q-35 0 -72 -17t-59 -38v-377h-115v517h102l5 -54q37 30 82.5 47.5t96.5 17.5q83 0 121.5 -43.5t38.5 -132.5v-352h-115zM260 715.5q20 -6.5 45 -18.5q20 -10 34 -15t28 -5q19 0 26.5 10t7.5 39l64 -4q2 -18 2 -26q0 -49 -24 -76
t-65 -27q-24 0 -43.5 6.5t-47.5 19.5q-20 10 -34 15t-28 5q-18 0 -26.5 -11.5t-6.5 -40.5l-66 3q-1 8 -1 24q0 52 25.5 80t66.5 28q23 0 43 -6.5z" />
    <glyph glyph-name="ograve" unicode="&#xf2;" horiz-adv-x="582" 
d="M100.5 59.5q-57.5 71.5 -57.5 196.5q0 127 65.5 199.5t191.5 72.5q123 0 181 -69.5t58 -190.5q0 -133 -61.5 -206.5t-190.5 -73.5t-186.5 71.5zM387 121q32 44 32 141q0 94 -30 133.5t-93 39.5q-133 0 -133 -175q0 -95 31.5 -139t98.5 -44q62 0 94 44zM299 746l88 -164
l-80 -10l-138 174h130z" />
    <glyph glyph-name="oacute" unicode="&#xf3;" horiz-adv-x="582" 
d="M100.5 59.5q-57.5 71.5 -57.5 196.5q0 127 65.5 199.5t191.5 72.5q123 0 181 -69.5t58 -190.5q0 -133 -61.5 -206.5t-190.5 -73.5t-186.5 71.5zM387 121q32 44 32 141q0 94 -30 133.5t-93 39.5q-133 0 -133 -175q0 -95 31.5 -139t98.5 -44q62 0 94 44zM207 582l88 164
h130l-138 -174z" />
    <glyph glyph-name="ocircumflex" unicode="&#xf4;" horiz-adv-x="582" 
d="M100.5 59.5q-57.5 71.5 -57.5 196.5q0 127 65.5 199.5t191.5 72.5q123 0 181 -69.5t58 -190.5q0 -133 -61.5 -206.5t-190.5 -73.5t-186.5 71.5zM387 121q32 44 32 141q0 94 -30 133.5t-93 39.5q-133 0 -133 -175q0 -95 31.5 -139t98.5 -44q62 0 94 44zM297 682l-83 -107
l-82 7l109 165h111l109 -165l-81 -5z" />
    <glyph glyph-name="otilde" unicode="&#xf5;" horiz-adv-x="582" 
d="M100.5 59.5q-57.5 71.5 -57.5 196.5q0 127 65.5 199.5t191.5 72.5q123 0 181 -69.5t58 -190.5q0 -133 -61.5 -206.5t-190.5 -73.5t-186.5 71.5zM387 121q32 44 32 141q0 94 -30 133.5t-93 39.5q-133 0 -133 -175q0 -95 31.5 -139t98.5 -44q62 0 94 44zM263 715.5
q20 -6.5 45 -18.5q20 -10 34 -15t28 -5q19 0 26.5 10t7.5 39l64 -4q2 -18 2 -26q0 -49 -24 -76t-65 -27q-24 0 -43.5 6.5t-47.5 19.5q-20 10 -34 15t-28 5q-18 0 -26.5 -11.5t-6.5 -40.5l-66 3q-1 8 -1 24q0 52 25.5 80t66.5 28q23 0 43 -6.5z" />
    <glyph glyph-name="odieresis" unicode="&#xf6;" horiz-adv-x="582" 
d="M100.5 59.5q-57.5 71.5 -57.5 196.5q0 127 65.5 199.5t191.5 72.5q123 0 181 -69.5t58 -190.5q0 -133 -61.5 -206.5t-190.5 -73.5t-186.5 71.5zM387 121q32 44 32 141q0 94 -30 133.5t-93 39.5q-133 0 -133 -175q0 -95 31.5 -139t98.5 -44q62 0 94 44zM241 623
q-20 -19 -53 -19t-53.5 19t-20.5 52q0 31 20.5 50.5t53.5 19.5q32 0 52.5 -19.5t20.5 -50.5q0 -33 -20 -52zM461 623q-20 -19 -53 -19q-34 0 -54 19t-20 52q0 32 20 51t54 19q32 0 52.5 -19.5t20.5 -50.5q0 -33 -20 -52z" />
    <glyph glyph-name="divide" unicode="&#xf7;" 
d="M332 432q-18 -17 -52 -17t-52 17t-18 49q0 31 18 49t52 18t52 -18t18 -49q0 -32 -18 -49zM94 370h381v-98h-381v98zM332 112q-18 -17 -52 -17t-52 17t-18 49q0 31 18 49t52 18t52 -18t18 -49q0 -32 -18 -49z" />
    <glyph glyph-name="oslash" unicode="&#xf8;" horiz-adv-x="582" 
d="M222 -6l-29 -66h-106l45 102q-89 65 -89 226q0 127 65.5 199.5t191.5 72.5q30 0 51 -4l27 62h105l-42 -94q50 -31 74 -89t24 -135q0 -133 -61.5 -206.5t-190.5 -73.5q-35 0 -65 6zM182 143l129 291l-15 1q-133 0 -133 -175q0 -75 19 -117zM387 121q32 44 32 141
q0 84 -24 124l-135 -306q15 -3 33 -3q62 0 94 44z" />
    <glyph glyph-name="ugrave" unicode="&#xf9;" horiz-adv-x="580" 
d="M185 517v-333q0 -51 18.5 -74.5t62.5 -23.5q35 0 71.5 17t58.5 37v377h115v-517h-100l-8 57q-35 -32 -80 -50t-97 -18q-80 0 -118 43.5t-38 131.5v353h115zM281 746l88 -164l-80 -10l-138 174h130z" />
    <glyph glyph-name="uacute" unicode="&#xfa;" horiz-adv-x="580" 
d="M185 517v-333q0 -51 18.5 -74.5t62.5 -23.5q35 0 71.5 17t58.5 37v377h115v-517h-100l-8 57q-35 -32 -80 -50t-97 -18q-80 0 -118 43.5t-38 131.5v353h115zM212 582l88 164h130l-138 -174z" />
    <glyph glyph-name="ucircumflex" unicode="&#xfb;" horiz-adv-x="580" 
d="M185 517v-333q0 -51 18.5 -74.5t62.5 -23.5q35 0 71.5 17t58.5 37v377h115v-517h-100l-8 57q-35 -32 -80 -50t-97 -18q-80 0 -118 43.5t-38 131.5v353h115zM292 682l-83 -107l-82 7l109 165h111l109 -165l-81 -5z" />
    <glyph glyph-name="udieresis" unicode="&#xfc;" horiz-adv-x="580" 
d="M185 517v-333q0 -51 18.5 -74.5t62.5 -23.5q35 0 71.5 17t58.5 37v377h115v-517h-100l-8 57q-35 -32 -80 -50t-97 -18q-80 0 -118 43.5t-38 131.5v353h115zM236 623q-20 -19 -53 -19t-53.5 19t-20.5 52q0 31 20.5 50.5t53.5 19.5q32 0 52.5 -19.5t20.5 -50.5
q0 -33 -20 -52zM456 623q-20 -19 -53 -19q-34 0 -54 19t-20 52q0 32 20 51t54 19q32 0 52.5 -19.5t20.5 -50.5q0 -33 -20 -52z" />
    <glyph glyph-name="yacute" unicode="&#xfd;" horiz-adv-x="502" 
d="M127 517l127 -388h1l127 388h118q-94 -260 -216 -583q-32 -86 -72 -121.5t-108 -35.5q-28 0 -57.5 6t-46.5 14l11 86q18 -7 40.5 -11.5t40.5 -4.5q28 0 48.5 16.5t35.5 54.5l21 54l-194 525h124zM198 582l88 164h130l-138 -174z" />
    <glyph glyph-name="thorn" unicode="&#xfe;" horiz-adv-x="586" 
d="M185 755v-288q34 31 74 46t92 15q88 0 139.5 -61.5t51.5 -195.5q0 -144 -60 -213.5t-154 -69.5q-82 0 -144 50v-250h-112v967h113zM239 96.5q31 -14.5 64 -14.5q63 0 91 48.5t28 138.5q0 88 -26.5 126.5t-84.5 38.5q-33 0 -67.5 -16.5t-56.5 -38.5v-251q21 -17 52 -31.5z
" />
    <glyph glyph-name="ydieresis" unicode="&#xff;" horiz-adv-x="502" 
d="M127 517l127 -388h1l127 388h118q-94 -260 -216 -583q-32 -86 -72 -121.5t-108 -35.5q-28 0 -57.5 6t-46.5 14l11 86q18 -7 40.5 -11.5t40.5 -4.5q28 0 48.5 16.5t35.5 54.5l21 54l-194 525h124zM199 623q-20 -19 -53 -19t-53.5 19t-20.5 52q0 31 20.5 50.5t53.5 19.5
q32 0 52.5 -19.5t20.5 -50.5q0 -33 -20 -52zM419 623q-20 -19 -53 -19q-34 0 -54 19t-20 52q0 32 20 51t54 19q32 0 52.5 -19.5t20.5 -50.5q0 -33 -20 -52z" />
    <glyph glyph-name="Amacron" unicode="&#x100;" horiz-adv-x="696" 
d="M671 0h-128l-68 198h-263l-66 -198h-119l241 724h149zM341 616l-106 -320h213l-105 320h-2zM189 873h311v-83h-311v83z" />
    <glyph glyph-name="amacron" unicode="&#x101;" horiz-adv-x="550" 
d="M472 78q6 -9 25 -9q12 0 31 6l4 -68q-15 -8 -37.5 -12.5t-43.5 -4.5q-39 0 -59.5 15t-27.5 46q-27 -29 -69 -46t-95 -17q-86 0 -119.5 43t-33.5 96q0 94 69 136t184 42q25 0 53 -2v39q0 52 -18 75.5t-72 23.5q-45 0 -65.5 -18.5t-29.5 -61.5l-101 18q12 74 62 111.5
t143 37.5q100 0 147 -42t47 -138v-239q0 -22 6 -31zM306 226q-60 0 -101 -16.5t-41 -66.5q0 -69 77 -69q33 0 63.5 14t49.5 34v102q-20 2 -48 2zM121 699h299v-83h-299v83z" />
    <glyph glyph-name="Abreve" unicode="&#x102;" horiz-adv-x="696" 
d="M671 0h-128l-68 198h-263l-66 -198h-119l241 724h149zM341 616l-106 -320h213l-105 320h-2zM400.5 865.5q19.5 15.5 26.5 54.5l79 -6q-7 -70 -49.5 -104.5t-114.5 -34.5q-142 0 -152 137l80 8q7 -38 24.5 -54t51.5 -16q35 0 54.5 15.5z" />
    <glyph glyph-name="abreve" unicode="&#x103;" horiz-adv-x="550" 
d="M472 78q6 -9 25 -9q12 0 31 6l4 -68q-15 -8 -37.5 -12.5t-43.5 -4.5q-39 0 -59.5 15t-27.5 46q-27 -29 -69 -46t-95 -17q-86 0 -119.5 43t-33.5 96q0 94 69 136t184 42q25 0 53 -2v39q0 52 -18 75.5t-72 23.5q-45 0 -65.5 -18.5t-29.5 -61.5l-101 18q12 74 62 111.5
t143 37.5q100 0 147 -42t47 -138v-239q0 -22 6 -31zM306 226q-60 0 -101 -16.5t-41 -66.5q0 -69 77 -69q33 0 63.5 14t49.5 34v102q-20 2 -48 2zM389.5 610.5q-42.5 -39.5 -118.5 -39.5q-149 0 -155 155l80 9q4 -49 22.5 -69t56.5 -20q39 0 59 19.5t24 68.5l78 -6
q-4 -78 -46.5 -117.5z" />
    <glyph glyph-name="Aogonek" unicode="&#x104;" horiz-adv-x="696" 
d="M658.5 -209q-34.5 -23 -76.5 -23q-50 0 -78 24t-28 67q0 41 18.5 75t48.5 66l-68 198h-263l-66 -198h-119l241 724h149l254 -724q-55 -35 -79 -62.5t-24 -58.5q0 -37 35 -37q31 0 51 41l55 -27q-16 -42 -50.5 -65zM341 616l-106 -320h213l-105 320h-2z" />
    <glyph glyph-name="aogonek" unicode="&#x105;" horiz-adv-x="550" 
d="M502.5 -209q-34.5 -23 -76.5 -23q-50 0 -78 24t-28 67q0 42 25 74t68 62q-40 11 -49 56q-27 -29 -69 -46t-95 -17q-86 0 -119.5 43t-33.5 96q0 94 69 136t184 42q25 0 53 -2v39q0 52 -18 75.5t-72 23.5q-45 0 -65.5 -18.5t-29.5 -61.5l-101 18q12 74 62 111.5t143 37.5
q100 0 147 -42t47 -138v-239q0 -22 6 -31t25 -9q12 0 31 6l4 -68q-47 -20 -83.5 -58t-36.5 -70q0 -37 35 -37q31 0 51 41l55 -27q-16 -42 -50.5 -65zM306 226q-60 0 -101 -16.5t-41 -66.5q0 -69 77 -69q33 0 63.5 14t49.5 34v102q-20 2 -48 2z" />
    <glyph glyph-name="Cacute" unicode="&#x106;" horiz-adv-x="693" 
d="M123.5 84q-78.5 96 -78.5 268q0 118 40.5 205t117.5 133.5t184 46.5q121 0 194.5 -63t81.5 -190l-108 -10q-9 83 -49 122.5t-120 39.5q-105 0 -163 -68.5t-58 -207.5q0 -143 53.5 -208t157.5 -65q78 0 120.5 36t58.5 108l104 -20q-17 -114 -99 -168.5t-190 -54.5
q-168 0 -246.5 96zM298 778l96 137h130l-142 -148z" />
    <glyph glyph-name="cacute" unicode="&#x107;" horiz-adv-x="541" 
d="M102.5 59q-59.5 71 -59.5 193q0 133 67 204.5t189 71.5q87 0 142 -49.5t62 -139.5l-106 -15q-6 54 -30.5 83t-72.5 29q-131 0 -131 -171q0 -183 128 -183q49 0 77 25t37 78l100 -20q-12 -89 -72 -133t-148 -44q-123 0 -182.5 71zM205 582l88 164h130l-138 -174z" />
    <glyph glyph-name="Ccircumflex" unicode="&#x108;" horiz-adv-x="693" 
d="M123.5 84q-78.5 96 -78.5 268q0 118 40.5 205t117.5 133.5t184 46.5q121 0 194.5 -63t81.5 -190l-108 -10q-9 83 -49 122.5t-120 39.5q-105 0 -163 -68.5t-58 -207.5q0 -143 53.5 -208t157.5 -65q78 0 120.5 36t58.5 108l104 -20q-17 -114 -99 -168.5t-190 -54.5
q-168 0 -246.5 96zM297 767l-82 9l112 133h103l110 -133l-83 -7l-79 76z" />
    <glyph glyph-name="ccircumflex" unicode="&#x109;" horiz-adv-x="541" 
d="M102.5 59q-59.5 71 -59.5 193q0 133 67 204.5t189 71.5q87 0 142 -49.5t62 -139.5l-106 -15q-6 54 -30.5 83t-72.5 29q-131 0 -131 -171q0 -183 128 -183q49 0 77 25t37 78l100 -20q-12 -89 -72 -133t-148 -44q-123 0 -182.5 71zM295 682l-83 -107l-82 7l109 165h111
l109 -165l-81 -5z" />
    <glyph glyph-name="Cdotaccent" unicode="&#x10a;" horiz-adv-x="693" 
d="M123.5 84q-78.5 96 -78.5 268q0 118 40.5 205t117.5 133.5t184 46.5q121 0 194.5 -63t81.5 -190l-108 -10q-9 83 -49 122.5t-120 39.5q-105 0 -163 -68.5t-58 -207.5q0 -143 53.5 -208t157.5 -65q78 0 120.5 36t58.5 108l104 -20q-17 -114 -99 -168.5t-190 -54.5
q-168 0 -246.5 96zM432 798q-20 -20 -55 -20q-36 0 -55.5 20t-19.5 56t19.5 55.5t55.5 19.5q35 0 55 -19.5t20 -55.5t-20 -56z" />
    <glyph glyph-name="cdotaccent" unicode="&#x10b;" horiz-adv-x="541" 
d="M102.5 59q-59.5 71 -59.5 193q0 133 67 204.5t189 71.5q87 0 142 -49.5t62 -139.5l-106 -15q-6 54 -30.5 83t-72.5 29q-131 0 -131 -171q0 -183 128 -183q49 0 77 25t37 78l100 -20q-12 -89 -72 -133t-148 -44q-123 0 -182.5 71zM343.5 624q-19.5 -20 -55.5 -20
t-55.5 19.5t-19.5 56.5q0 36 19.5 55.5t55.5 19.5q35 0 55 -19.5t20 -55.5t-19.5 -56z" />
    <glyph glyph-name="Ccaron" unicode="&#x10c;" horiz-adv-x="693" 
d="M123.5 84q-78.5 96 -78.5 268q0 118 40.5 205t117.5 133.5t184 46.5q121 0 194.5 -63t81.5 -190l-108 -10q-9 83 -49 122.5t-120 39.5q-105 0 -163 -68.5t-58 -207.5q0 -143 53.5 -208t157.5 -65q78 0 120.5 36t58.5 108l104 -20q-17 -114 -99 -168.5t-190 -54.5
q-168 0 -246.5 96zM458 913l82 -9l-112 -133h-103l-110 133l83 7l79 -76z" />
    <glyph glyph-name="ccaron" unicode="&#x10d;" horiz-adv-x="541" 
d="M102.5 59q-59.5 71 -59.5 193q0 133 67 204.5t189 71.5q87 0 142 -49.5t62 -139.5l-106 -15q-6 54 -30.5 83t-72.5 29q-131 0 -131 -171q0 -183 128 -183q49 0 77 25t37 78l100 -20q-12 -89 -72 -133t-148 -44q-123 0 -182.5 71zM288 637l84 106l79 -7l-109 -164h-111
l-109 164l85 6z" />
    <glyph glyph-name="Dcaron" unicode="&#x10e;" horiz-adv-x="726" 
d="M87 724h235q183 0 271 -91.5t88 -259.5q0 -173 -94 -273t-282 -100h-218v724zM498 164q63 69 63 198q0 100 -28 159t-82 83.5t-138 24.5h-109v-534h100q131 0 194 69zM411 913l82 -9l-112 -133h-103l-110 133l83 7l79 -76z" />
    <glyph glyph-name="dcaron" unicode="&#x10f;" horiz-adv-x="642" 
d="M418 0l-8 52h-2q-67 -64 -163 -64q-94 0 -147 63.5t-53 198.5q0 143 62 210.5t156 67.5q87 0 139 -45v272h112v-755h-96zM349 422q-29 12 -62 12q-123 0 -123 -183q0 -85 28.5 -127.5t89.5 -42.5q32 0 63.5 15t53.5 38v260q-21 16 -50 28zM707 755l-63 -201l-82 9l33 192
h112z" />
    <glyph glyph-name="Dcroat" unicode="&#x110;" horiz-adv-x="726" 
d="M87 327h-73v91h73v306h235q183 0 271 -91.5t88 -259.5q0 -173 -94 -273t-282 -100h-218v327zM498 164q63 69 63 198q0 100 -28 159t-82 83.5t-138 24.5h-109v-211h196v-91h-196v-232h100q131 0 194 69z" />
    <glyph glyph-name="dcroat" unicode="&#x111;" horiz-adv-x="583" 
d="M514 0h-96l-8 52h-2q-67 -64 -163 -64q-94 0 -147 62t-53 194q0 93 30 154t79.5 89t108.5 28q87 0 139 -45v106h-184v83h184v96h112v-96h65v-83h-65v-576zM349 409q-29 12 -62 12q-64 0 -93.5 -48t-29.5 -128q0 -82 28.5 -123t89.5 -41q32 0 63.5 15t53.5 38v247
q-21 16 -50 28z" />
    <glyph glyph-name="Emacron" unicode="&#x112;" horiz-adv-x="578" 
d="M540 98v-98h-453v724h438v-98h-321v-214h301v-97h-301v-217h336zM153 873h311v-83h-311v83z" />
    <glyph glyph-name="emacron" unicode="&#x113;" horiz-adv-x="547" 
d="M100 63.5q-57 75.5 -57 194.5q0 90 32.5 150.5t88.5 90t126 29.5q108 0 160 -61.5t52 -167.5q0 -33 -3 -69h-335q4 -148 130 -148q47 0 72 21t34 63l98 -24q-15 -73 -71 -113.5t-140 -40.5q-130 0 -187 75.5zM359 406.5q-24 30.5 -76 30.5q-48 0 -80.5 -31t-36.5 -96h217
q0 66 -24 96.5zM135 699h299v-83h-299v83z" />
    <glyph glyph-name="Ebreve" unicode="&#x114;" horiz-adv-x="578" 
d="M540 98v-98h-453v724h438v-98h-321v-214h301v-97h-301v-217h336zM364.5 865.5q19.5 15.5 26.5 54.5l79 -6q-7 -70 -49.5 -104.5t-114.5 -34.5q-142 0 -152 137l80 8q7 -38 24.5 -54t51.5 -16q35 0 54.5 15.5z" />
    <glyph glyph-name="ebreve" unicode="&#x115;" horiz-adv-x="547" 
d="M100 63.5q-57 75.5 -57 194.5q0 90 32.5 150.5t88.5 90t126 29.5q108 0 160 -61.5t52 -167.5q0 -33 -3 -69h-335q4 -148 130 -148q47 0 72 21t34 63l98 -24q-15 -73 -71 -113.5t-140 -40.5q-130 0 -187 75.5zM359 406.5q-24 30.5 -76 30.5q-48 0 -80.5 -31t-36.5 -96h217
q0 66 -24 96.5zM404.5 610.5q-42.5 -39.5 -118.5 -39.5q-149 0 -155 155l80 9q4 -49 22.5 -69t56.5 -20q39 0 59 19.5t24 68.5l78 -6q-4 -78 -46.5 -117.5z" />
    <glyph glyph-name="Edotaccent" unicode="&#x116;" horiz-adv-x="578" 
d="M540 98v-98h-453v724h438v-98h-321v-214h301v-97h-301v-217h336zM362 798q-20 -20 -55 -20q-36 0 -55.5 20t-19.5 56t19.5 55.5t55.5 19.5q35 0 55 -19.5t20 -55.5t-20 -56z" />
    <glyph glyph-name="edotaccent" unicode="&#x117;" horiz-adv-x="547" 
d="M100 63.5q-57 75.5 -57 194.5q0 90 32.5 150.5t88.5 90t126 29.5q108 0 160 -61.5t52 -167.5q0 -33 -3 -69h-335q4 -148 130 -148q47 0 72 21t34 63l98 -24q-15 -73 -71 -113.5t-140 -40.5q-130 0 -187 75.5zM359 406.5q-24 30.5 -76 30.5q-48 0 -80.5 -31t-36.5 -96h217
q0 66 -24 96.5zM370.5 624q-19.5 -20 -55.5 -20t-55.5 19.5t-19.5 56.5q0 36 19.5 55.5t55.5 19.5q35 0 55 -19.5t20 -55.5t-19.5 -56z" />
    <glyph glyph-name="Eogonek" unicode="&#x118;" horiz-adv-x="578" 
d="M494.5 -209q-34.5 -23 -76.5 -23q-50 0 -78 24t-28 67q0 42 23.5 76t63.5 65h-312v724h438v-98h-321v-214h301v-97h-301v-217h336v-98h-55q-43 -40 -62 -66t-19 -55q0 -37 35 -37q31 0 51 41l55 -27q-16 -42 -50.5 -65z" />
    <glyph glyph-name="eogonek" unicode="&#x119;" horiz-adv-x="547" 
d="M388.5 -209q-34.5 -23 -76.5 -23q-50 0 -78 24t-28 67q0 68 72 129q-125 3 -180 78t-55 192q0 90 32.5 150.5t88.5 90t126 29.5q108 0 160 -61.5t52 -167.5q0 -33 -3 -69h-335q4 -148 130 -148q47 0 72 21t34 63l98 -24q-10 -47 -36 -80t-69 -60q-95 -60 -95 -123
q0 -37 35 -37q31 0 51 41l55 -27q-16 -42 -50.5 -65zM359 406.5q-24 30.5 -76 30.5q-48 0 -80.5 -31t-36.5 -96h217q0 66 -24 96.5z" />
    <glyph glyph-name="Ecaron" unicode="&#x11a;" horiz-adv-x="578" 
d="M540 98v-98h-453v724h438v-98h-321v-214h301v-97h-301v-217h336zM388 913l82 -9l-112 -133h-103l-110 133l83 7l79 -76z" />
    <glyph glyph-name="ecaron" unicode="&#x11b;" horiz-adv-x="547" 
d="M100 63.5q-57 75.5 -57 194.5q0 90 32.5 150.5t88.5 90t126 29.5q108 0 160 -61.5t52 -167.5q0 -33 -3 -69h-335q4 -148 130 -148q47 0 72 21t34 63l98 -24q-15 -73 -71 -113.5t-140 -40.5q-130 0 -187 75.5zM359 406.5q-24 30.5 -76 30.5q-48 0 -80.5 -31t-36.5 -96h217
q0 66 -24 96.5zM316 637l84 106l79 -7l-109 -164h-111l-109 164l85 6z" />
    <glyph glyph-name="Gcircumflex" unicode="&#x11c;" horiz-adv-x="737" 
d="M486 17.5q-60 -29.5 -133 -29.5q-156 0 -232 98t-76 266q0 120 40.5 206.5t117.5 132.5t186 46q121 0 193.5 -59.5t81.5 -187.5l-109 -12q-8 79 -48.5 119.5t-120.5 40.5q-107 0 -163.5 -72t-56.5 -203q0 -148 54.5 -212.5t158.5 -64.5q56 0 95.5 21.5t59.5 57t20 76.5
v47h-169v88h282v-376h-86l-14 94q-21 -47 -81 -76.5zM305 767l-82 9l112 133h103l110 -133l-83 -7l-79 76z" />
    <glyph glyph-name="gcircumflex" unicode="&#x11d;" horiz-adv-x="555" 
d="M416 487q14 32 36 50t50 18q23 0 41 -6v-77q-51 3 -96 -10q22 -23 34 -55t12 -64q0 -57 -29 -98.5t-79 -63.5t-113 -22q-53 0 -90 11q-11 -8 -18 -19t-7 -22q0 -15 11 -23.5t42 -10.5l152 -9q86 -6 129 -36.5t43 -98.5q0 -94 -75.5 -135.5t-192.5 -41.5q-132 0 -186 36
t-54 93q0 38 23.5 64.5t62.5 39.5v3q-61 21 -61 78q0 32 18.5 55.5t54.5 50.5q-35 20 -55.5 57t-20.5 86q0 56 27 99.5t77.5 67.5t118.5 24q97 0 145 -41zM356 414.5q-29 24.5 -82 24.5q-52 0 -83 -23.5t-31 -71.5q0 -97 113 -97q50 0 81 25.5t31 69.5q0 48 -29 72.5z
M399.5 -32q-16.5 14 -60.5 16l-163 9q-43 -30 -43 -70q0 -32 31 -47.5t103 -15.5q76 0 112.5 16.5t36.5 51.5q0 26 -16.5 40zM281 682l-83 -107l-82 7l109 165h111l109 -165l-81 -5z" />
    <glyph glyph-name="Gbreve" unicode="&#x11e;" horiz-adv-x="737" 
d="M486 17.5q-60 -29.5 -133 -29.5q-156 0 -232 98t-76 266q0 120 40.5 206.5t117.5 132.5t186 46q121 0 193.5 -59.5t81.5 -187.5l-109 -12q-8 79 -48.5 119.5t-120.5 40.5q-107 0 -163.5 -72t-56.5 -203q0 -148 54.5 -212.5t158.5 -64.5q56 0 95.5 21.5t59.5 57t20 76.5
v47h-169v88h282v-376h-86l-14 94q-21 -47 -81 -76.5zM442.5 865.5q19.5 15.5 26.5 54.5l79 -6q-7 -70 -49.5 -104.5t-114.5 -34.5q-142 0 -152 137l80 8q7 -38 24.5 -54t51.5 -16q35 0 54.5 15.5z" />
    <glyph glyph-name="gbreve" unicode="&#x11f;" horiz-adv-x="555" 
d="M416 487q14 32 36 50t50 18q23 0 41 -6v-77q-51 3 -96 -10q22 -23 34 -55t12 -64q0 -57 -29 -98.5t-79 -63.5t-113 -22q-53 0 -90 11q-11 -8 -18 -19t-7 -22q0 -15 11 -23.5t42 -10.5l152 -9q86 -6 129 -36.5t43 -98.5q0 -94 -75.5 -135.5t-192.5 -41.5q-132 0 -186 36
t-54 93q0 38 23.5 64.5t62.5 39.5v3q-61 21 -61 78q0 32 18.5 55.5t54.5 50.5q-35 20 -55.5 57t-20.5 86q0 56 27 99.5t77.5 67.5t118.5 24q97 0 145 -41zM356 414.5q-29 24.5 -82 24.5q-52 0 -83 -23.5t-31 -71.5q0 -97 113 -97q50 0 81 25.5t31 69.5q0 48 -29 72.5z
M399.5 -32q-16.5 14 -60.5 16l-163 9q-43 -30 -43 -70q0 -32 31 -47.5t103 -15.5q76 0 112.5 16.5t36.5 51.5q0 26 -16.5 40zM391.5 610.5q-42.5 -39.5 -118.5 -39.5q-149 0 -155 155l80 9q4 -49 22.5 -69t56.5 -20q39 0 59 19.5t24 68.5l78 -6q-4 -78 -46.5 -117.5z" />
    <glyph glyph-name="Gdotaccent" unicode="&#x120;" horiz-adv-x="737" 
d="M486 17.5q-60 -29.5 -133 -29.5q-156 0 -232 98t-76 266q0 120 40.5 206.5t117.5 132.5t186 46q121 0 193.5 -59.5t81.5 -187.5l-109 -12q-8 79 -48.5 119.5t-120.5 40.5q-107 0 -163.5 -72t-56.5 -203q0 -148 54.5 -212.5t158.5 -64.5q56 0 95.5 21.5t59.5 57t20 76.5
v47h-169v88h282v-376h-86l-14 94q-21 -47 -81 -76.5zM440 798q-20 -20 -55 -20q-36 0 -55.5 20t-19.5 56t19.5 55.5t55.5 19.5q35 0 55 -19.5t20 -55.5t-20 -56z" />
    <glyph glyph-name="gdotaccent" unicode="&#x121;" horiz-adv-x="555" 
d="M416 487q14 32 36 50t50 18q23 0 41 -6v-77q-51 3 -96 -10q22 -23 34 -55t12 -64q0 -57 -29 -98.5t-79 -63.5t-113 -22q-53 0 -90 11q-11 -8 -18 -19t-7 -22q0 -15 11 -23.5t42 -10.5l152 -9q86 -6 129 -36.5t43 -98.5q0 -94 -75.5 -135.5t-192.5 -41.5q-132 0 -186 36
t-54 93q0 38 23.5 64.5t62.5 39.5v3q-61 21 -61 78q0 32 18.5 55.5t54.5 50.5q-35 20 -55.5 57t-20.5 86q0 56 27 99.5t77.5 67.5t118.5 24q97 0 145 -41zM356 414.5q-29 24.5 -82 24.5q-52 0 -83 -23.5t-31 -71.5q0 -97 113 -97q50 0 81 25.5t31 69.5q0 48 -29 72.5z
M399.5 -32q-16.5 14 -60.5 16l-163 9q-43 -30 -43 -70q0 -32 31 -47.5t103 -15.5q76 0 112.5 16.5t36.5 51.5q0 26 -16.5 40zM328.5 624q-19.5 -20 -55.5 -20t-55.5 19.5t-19.5 56.5q0 36 19.5 55.5t55.5 19.5q35 0 55 -19.5t20 -55.5t-19.5 -56z" />
    <glyph glyph-name="Gcommaaccent" unicode="&#x122;" horiz-adv-x="737" 
d="M486 17.5q-60 -29.5 -133 -29.5q-156 0 -232 98t-76 266q0 120 40.5 206.5t117.5 132.5t186 46q121 0 193.5 -59.5t81.5 -187.5l-109 -12q-8 79 -48.5 119.5t-120.5 40.5q-107 0 -163.5 -72t-56.5 -203q0 -148 54.5 -212.5t158.5 -64.5q56 0 95.5 21.5t59.5 57t20 76.5
v47h-169v88h282v-376h-86l-14 94q-21 -47 -81 -76.5zM437 -68l-74 -187l-82 12l42 175h114z" />
    <glyph glyph-name="gcommaaccent" unicode="&#x123;" horiz-adv-x="555" 
d="M416 487q14 32 36 50t50 18q23 0 41 -6v-77q-51 3 -96 -10q22 -23 34 -55t12 -64q0 -57 -29 -98.5t-79 -63.5t-113 -22q-53 0 -90 11q-11 -8 -18 -19t-7 -22q0 -15 11 -23.5t42 -10.5l152 -9q86 -6 129 -36.5t43 -98.5q0 -94 -75.5 -135.5t-192.5 -41.5q-132 0 -186 36
t-54 93q0 38 23.5 64.5t62.5 39.5v3q-61 21 -61 78q0 32 18.5 55.5t54.5 50.5q-35 20 -55.5 57t-20.5 86q0 56 27 99.5t77.5 67.5t118.5 24q97 0 145 -41zM356 414.5q-29 24.5 -82 24.5q-52 0 -83 -23.5t-31 -71.5q0 -97 113 -97q50 0 81 25.5t31 69.5q0 48 -29 72.5z
M399.5 -32q-16.5 14 -60.5 16l-163 9q-43 -30 -43 -70q0 -32 31 -47.5t103 -15.5q76 0 112.5 16.5t36.5 51.5q0 26 -16.5 40zM204 570l74 186l82 -12l-42 -174h-114z" />
    <glyph glyph-name="Hcircumflex" unicode="&#x124;" horiz-adv-x="730" 
d="M526 0v316h-322v-316h-117v724h117v-305h322v305h117v-724h-117zM285 767l-82 9l112 133h103l110 -133l-83 -7l-79 76z" />
    <glyph glyph-name="hcircumflex" unicode="&#x125;" horiz-adv-x="583" 
d="M402 0v333q0 50 -20 74.5t-65 24.5q-35 0 -72 -17t-59 -38v-377h-115v755h114v-289q78 62 173 62q82 0 120.5 -43.5t38.5 -132.5v-352h-115zM50 789l-82 9l112 133h103l110 -133l-83 -7l-79 76z" />
    <glyph glyph-name="Hbar" unicode="&#x126;" horiz-adv-x="730" 
d="M716 610v-87h-73v-523h-117v316h-322v-316h-117v523h-73v87h73v114h117v-114h322v114h117v-114h73zM526 523h-322v-104h322v104z" />
    <glyph glyph-name="hbar" unicode="&#x127;" horiz-adv-x="583" 
d="M402 0v320q0 50 -20 74.5t-65 24.5q-35 0 -72 -17t-59 -38v-364h-115v576h-63v83h63v96h114v-96h184v-83h-184v-123q78 62 173 62q82 0 120.5 -43.5t38.5 -132.5v-339h-115z" />
    <glyph glyph-name="Itilde" unicode="&#x128;" horiz-adv-x="291" 
d="M87 0v724h117v-724h-117zM113 908.5q20 -6.5 45 -18.5q20 -10 34 -15t28 -5q19 0 26.5 10t7.5 38l64 -3q2 -18 2 -26q0 -49 -24 -76t-65 -27q-24 0 -43.5 6.5t-47.5 19.5q-21 10 -35 14.5t-27 4.5q-18 0 -26.5 -11t-6.5 -40l-66 3q-2 18 -2 26q0 50 26 78t67 28
q23 0 43 -6.5z" />
    <glyph glyph-name="itilde" unicode="&#x129;" horiz-adv-x="257" 
d="M73 0v517h115v-517h-115zM96 715.5q20 -6.5 45 -18.5q20 -10 34 -15t28 -5q19 0 26.5 10t7.5 39l64 -4q2 -18 2 -26q0 -49 -24 -76t-65 -27q-24 0 -43.5 6.5t-47.5 19.5q-20 10 -34 15t-28 5q-18 0 -26.5 -11.5t-6.5 -40.5l-66 3q-1 8 -1 24q0 52 25.5 80t66.5 28
q23 0 43 -6.5z" />
    <glyph glyph-name="Imacron" unicode="&#x12a;" horiz-adv-x="291" 
d="M87 0v724h117v-724h-117zM-9 873h311v-83h-311v83z" />
    <glyph glyph-name="imacron" unicode="&#x12b;" horiz-adv-x="257" 
d="M73 0v517h115v-517h-115zM-20 699h299v-83h-299v83z" />
    <glyph glyph-name="Ibreve" unicode="&#x12c;" horiz-adv-x="291" 
d="M87 0v724h117v-724h-117zM202.5 865.5q19.5 15.5 26.5 54.5l79 -6q-7 -70 -49.5 -104.5t-114.5 -34.5q-142 0 -152 137l80 8q7 -38 24.5 -54t51.5 -16q35 0 54.5 15.5z" />
    <glyph glyph-name="ibreve" unicode="&#x12d;" horiz-adv-x="257" 
d="M73 0v517h115v-517h-115zM248.5 610.5q-42.5 -39.5 -118.5 -39.5q-149 0 -155 155l80 9q4 -49 22.5 -69t56.5 -20q39 0 59 19.5t24 68.5l78 -6q-4 -78 -46.5 -117.5z" />
    <glyph glyph-name="Iogonek" unicode="&#x12e;" horiz-adv-x="291" 
d="M198.5 -209q-34.5 -23 -76.5 -23q-50 0 -78 24t-28 67q0 76 71 141v724h117v-724q-51 -36 -73.5 -63t-22.5 -58q0 -37 35 -37q31 0 51 41l55 -27q-16 -42 -50.5 -65z" />
    <glyph glyph-name="iogonek" unicode="&#x12f;" horiz-adv-x="257" 
d="M186.5 623.5q-19.5 -19.5 -55.5 -19.5q-35 0 -55 20t-20 56t20 55.5t55 19.5q36 0 55.5 -19.5t19.5 -55.5q0 -37 -19.5 -56.5zM183.5 -209q-34.5 -23 -76.5 -23q-50 0 -78 24t-28 67q0 41 19 73.5t53 67.5v517h115v-517q-50 -36 -72.5 -63t-22.5 -58q0 -37 35 -37
q31 0 51 41l55 -27q-16 -42 -50.5 -65z" />
    <glyph glyph-name="Idotaccent" unicode="&#x130;" horiz-adv-x="291" 
d="M87 0v724h117v-724h-117zM200 798q-20 -20 -55 -20q-36 0 -55.5 20t-19.5 56t19.5 55.5t55.5 19.5q35 0 55 -19.5t20 -55.5t-20 -56z" />
    <glyph glyph-name="dotlessi" unicode="&#x131;" horiz-adv-x="257" 
d="M73 0v517h115v-517h-115z" />
    <glyph glyph-name="IJ" unicode="&#x132;" horiz-adv-x="802" 
d="M87 0v724h117v-724h-117zM723 724v-534q0 -104 -55 -153t-156 -49q-94 0 -145 43.5t-55 139.5l113 18q5 -54 23 -79t67 -25q45 0 68 22t23 80v537h117z" />
    <glyph glyph-name="ij" unicode="&#x133;" horiz-adv-x="512" 
d="M186.5 623.5q-19.5 -19.5 -55.5 -19.5q-35 0 -55 20t-20 56t20 55.5t55 19.5q36 0 55.5 -19.5t19.5 -55.5q0 -37 -19.5 -56.5zM73 0v517h115v-517h-115zM444 629q-20 -20 -55 -20q-36 0 -55.5 20t-19.5 56q0 37 19.5 56.5t55.5 19.5t55.5 -19.5t19.5 -56.5q0 -36 -20 -56
zM221 -216q-31 7 -46 16l10 88q42 -17 78 -17q67 0 67 80v566h115v-573q0 -86 -42.5 -126.5t-120.5 -40.5q-30 0 -61 7z" />
    <glyph glyph-name="Jcircumflex" unicode="&#x134;" horiz-adv-x="511" 
d="M432 724v-534q0 -104 -55 -153t-156 -49q-94 0 -145 43.5t-55 139.5l113 18q5 -54 23 -79t67 -25q45 0 68 22t23 80v537h117zM294 767l-82 9l112 133h103l110 -133l-83 -7l-79 76z" />
    <glyph glyph-name="jcircumflex" unicode="&#x135;" horiz-adv-x="255" 
d="M-36 -216q-31 7 -46 16l10 88q42 -17 78 -17q67 0 67 80v566h115v-573q0 -86 -42.5 -126.5t-120.5 -40.5q-30 0 -61 7zM131 682l-83 -107l-82 7l109 165h111l109 -165l-81 -5z" />
    <glyph glyph-name="Kcommaaccent" unicode="&#x136;" horiz-adv-x="655" 
d="M511 724h127l-276 -307l283 -417h-137l-228 327l-76 -82v-245h-117v724h117v-338zM406 -68l-74 -187l-82 12l42 175h114z" />
    <glyph glyph-name="kcommaaccent" unicode="&#x137;" horiz-adv-x="544" 
d="M388 517h129l-176 -186l189 -331h-126l-149 255l-68 -67v-188h-115v755h115v-447zM350 -68l-74 -187l-82 12l42 175h114z" />
    <glyph glyph-name="kgreenlandic" unicode="&#x138;" horiz-adv-x="544" 
d="M388 517h129l-176 -186l189 -331h-126l-149 255l-68 -67v-188h-115v517h115v-209z" />
    <glyph glyph-name="Lacute" unicode="&#x139;" horiz-adv-x="558" 
d="M524 99v-99h-437v724h117v-625h320zM67 778l96 137h130l-142 -148z" />
    <glyph glyph-name="lacute" unicode="&#x13a;" horiz-adv-x="257" 
d="M73 0v755h115v-755h-115zM44 799l96 137h130l-142 -148z" />
    <glyph glyph-name="Lcommaaccent" unicode="&#x13b;" horiz-adv-x="558" 
d="M524 99v-99h-437v724h117v-625h320zM375 -68l-74 -187l-82 12l42 175h114z" />
    <glyph glyph-name="lcommaaccent" unicode="&#x13c;" horiz-adv-x="257" 
d="M73 0v755h115v-755h-115zM199 -68l-74 -187l-82 12l42 175h114z" />
    <glyph glyph-name="Lcaron" unicode="&#x13d;" horiz-adv-x="558" 
d="M524 99v-99h-437v724h117v-625h320zM443 724l-63 -201l-82 9l33 192h112z" />
    <glyph glyph-name="lcaron" unicode="&#x13e;" horiz-adv-x="309" 
d="M73 0v755h115v-755h-115zM381 755l-63 -201l-82 9l33 192h112z" />
    <glyph glyph-name="Ldot" unicode="&#x13f;" horiz-adv-x="558" 
d="M524 99v-99h-437v724h117v-625h320zM480 347q-20 -20 -55 -20q-36 0 -55.5 20t-19.5 56t19.5 55.5t55.5 19.5q35 0 55 -19.5t20 -55.5t-20 -56z" />
    <glyph glyph-name="ldot" unicode="&#x140;" horiz-adv-x="349" 
d="M73 0v755h115v-755h-115zM361.5 343q-19.5 -20 -55.5 -20t-55.5 19.5t-19.5 56.5q0 36 19.5 55.5t55.5 19.5q35 0 55 -19.5t20 -55.5t-19.5 -56z" />
    <glyph glyph-name="Lslash" unicode="&#x141;" horiz-adv-x="558" 
d="M421 507v-100l-217 -88v-220h320v-99h-437v271l-87 -35v98l87 36v354h117v-306z" />
    <glyph glyph-name="lslash" unicode="&#x142;" horiz-adv-x="308" 
d="M288 516v-100l-79 -39v-377h-115v331l-74 -36v100l74 35v325h115v-278z" />
    <glyph glyph-name="Nacute" unicode="&#x143;" horiz-adv-x="745" 
d="M195 569v-569h-108v724h147l317 -566v566h107v-724h-138zM324 778l96 137h130l-142 -148z" />
    <glyph glyph-name="nacute" unicode="&#x144;" horiz-adv-x="583" 
d="M402 0v333q0 50 -20 74.5t-65 24.5q-35 0 -72 -17t-59 -38v-377h-115v517h102l5 -54q37 30 82.5 47.5t96.5 17.5q83 0 121.5 -43.5t38.5 -132.5v-352h-115zM246 582l88 164h130l-138 -174z" />
    <glyph glyph-name="Ncommaaccent" unicode="&#x145;" horiz-adv-x="745" 
d="M195 569v-569h-108v724h147l317 -566v566h107v-724h-138zM441 -68l-74 -187l-82 12l42 175h114z" />
    <glyph glyph-name="ncommaaccent" unicode="&#x146;" horiz-adv-x="583" 
d="M402 0v333q0 50 -20 74.5t-65 24.5q-35 0 -72 -17t-59 -38v-377h-115v517h102l5 -54q37 30 82.5 47.5t96.5 17.5q83 0 121.5 -43.5t38.5 -132.5v-352h-115zM359 -68l-74 -187l-82 12l42 175h114z" />
    <glyph glyph-name="Ncaron" unicode="&#x147;" horiz-adv-x="745" 
d="M195 569v-569h-108v724h147l317 -566v566h107v-724h-138zM470 913l82 -9l-112 -133h-103l-110 133l83 7l79 -76z" />
    <glyph glyph-name="ncaron" unicode="&#x148;" horiz-adv-x="583" 
d="M402 0v333q0 50 -20 74.5t-65 24.5q-35 0 -72 -17t-59 -38v-377h-115v517h102l5 -54q37 30 82.5 47.5t96.5 17.5q83 0 121.5 -43.5t38.5 -132.5v-352h-115zM311 637l84 106l79 -7l-109 -164h-111l-109 164l85 6z" />
    <glyph glyph-name="Eng" unicode="&#x14a;" horiz-adv-x="745" 
d="M616.5 -179q-41.5 -44 -111.5 -44q-39 0 -77 7t-58 17l17 101q49 -17 89 -17q28 0 42 15t14 58v43l-337 568v-569h-108v724h147l317 -531v531h107v-773q0 -86 -41.5 -130z" />
    <glyph glyph-name="eng" unicode="&#x14b;" horiz-adv-x="583" 
d="M293 -216q-31 7 -46 16l10 88q43 -17 78 -17q67 0 67 80v382q0 50 -20 74.5t-65 24.5q-35 0 -72 -17t-59 -38v-377h-115v517h102l5 -54q37 30 82.5 47.5t96.5 17.5q83 0 121.5 -43.5t38.5 -132.5v-408q0 -86 -42.5 -126.5t-120.5 -40.5q-30 0 -61 7z" />
    <glyph glyph-name="Omacron" unicode="&#x14c;" horiz-adv-x="760" 
d="M127 89q-82 101 -82 271q0 109 39.5 194.5t117.5 134t188 48.5q109 0 182 -47.5t108 -129t35 -185.5q0 -181 -86.5 -284t-253.5 -103q-166 0 -248 101zM537 156.5q58 68.5 58 208.5q0 135 -55 202.5t-153 67.5q-101 0 -161 -69.5t-60 -203.5q0 -137 57 -205.5t157 -68.5
q99 0 157 68.5zM234 873h311v-83h-311v83z" />
    <glyph glyph-name="omacron" unicode="&#x14d;" horiz-adv-x="582" 
d="M100.5 59.5q-57.5 71.5 -57.5 196.5q0 127 65.5 199.5t191.5 72.5q123 0 181 -69.5t58 -190.5q0 -133 -61.5 -206.5t-190.5 -73.5t-186.5 71.5zM387 121q32 44 32 141q0 94 -30 133.5t-93 39.5q-133 0 -133 -175q0 -95 31.5 -139t98.5 -44q62 0 94 44zM147 699h299v-83
h-299v83z" />
    <glyph glyph-name="Obreve" unicode="&#x14e;" horiz-adv-x="760" 
d="M127 89q-82 101 -82 271q0 109 39.5 194.5t117.5 134t188 48.5q109 0 182 -47.5t108 -129t35 -185.5q0 -181 -86.5 -284t-253.5 -103q-166 0 -248 101zM537 156.5q58 68.5 58 208.5q0 135 -55 202.5t-153 67.5q-101 0 -161 -69.5t-60 -203.5q0 -137 57 -205.5t157 -68.5
q99 0 157 68.5zM445.5 865.5q19.5 15.5 26.5 54.5l79 -6q-7 -70 -49.5 -104.5t-114.5 -34.5q-142 0 -152 137l80 8q7 -38 24.5 -54t51.5 -16q35 0 54.5 15.5z" />
    <glyph glyph-name="obreve" unicode="&#x14f;" horiz-adv-x="582" 
d="M100.5 59.5q-57.5 71.5 -57.5 196.5q0 127 65.5 199.5t191.5 72.5q123 0 181 -69.5t58 -190.5q0 -133 -61.5 -206.5t-190.5 -73.5t-186.5 71.5zM387 121q32 44 32 141q0 94 -30 133.5t-93 39.5q-133 0 -133 -175q0 -95 31.5 -139t98.5 -44q62 0 94 44zM415.5 610.5
q-42.5 -39.5 -118.5 -39.5q-149 0 -155 155l80 9q4 -49 22.5 -69t56.5 -20q39 0 59 19.5t24 68.5l78 -6q-4 -78 -46.5 -117.5z" />
    <glyph glyph-name="Ohungarumlaut" unicode="&#x150;" horiz-adv-x="760" 
d="M127 89q-82 101 -82 271q0 109 39.5 194.5t117.5 134t188 48.5q109 0 182 -47.5t108 -129t35 -185.5q0 -181 -86.5 -284t-253.5 -103q-166 0 -248 101zM537 156.5q58 68.5 58 208.5q0 135 -55 202.5t-153 67.5q-101 0 -161 -69.5t-60 -203.5q0 -137 57 -205.5t157 -68.5
q99 0 157 68.5zM406 778l97 140h130l-146 -151zM269 780l60 134h126l-107 -147z" />
    <glyph glyph-name="ohungarumlaut" unicode="&#x151;" horiz-adv-x="582" 
d="M100.5 59.5q-57.5 71.5 -57.5 196.5q0 127 65.5 199.5t191.5 72.5q123 0 181 -69.5t58 -190.5q0 -133 -61.5 -206.5t-190.5 -73.5t-186.5 71.5zM387 121q32 44 32 141q0 94 -30 133.5t-93 39.5q-133 0 -133 -175q0 -95 31.5 -139t98.5 -44q62 0 94 44zM318 582l94 166
h130l-144 -176zM178 585l62 160h125l-110 -173z" />
    <glyph glyph-name="OE" unicode="&#x152;" horiz-adv-x="1082" 
d="M604 94q-36 -51 -95.5 -78.5t-133.5 -27.5q-166 0 -248 101t-82 272q0 109 39.5 194t116.5 133.5t185 48.5q73 0 127.5 -25t90.5 -71v83h425v-98h-320v-214h301v-97h-301v-217h335v-98h-440v94zM536 154.5q58 66.5 59 205.5q0 138 -54.5 206.5t-153.5 68.5
q-102 0 -161.5 -68.5t-59.5 -204.5q0 -138 57 -206t157 -68q98 0 156 66.5z" />
    <glyph glyph-name="oe" unicode="&#x153;" horiz-adv-x="915" 
d="M544 14.5q-47 26.5 -71 71.5q-57 -98 -191 -98q-126 0 -182.5 72t-56.5 196q0 127 65 199.5t187 72.5q68 0 112 -25t72 -72q29 47 77 72t109 25q103 0 154 -62t51 -168q0 -38 -3 -68h-335q4 -148 130 -148q47 0 71.5 21t34.5 63l98 -24q-15 -73 -70.5 -113.5
t-133.5 -40.5q-71 0 -118 26.5zM727 406q-24 31 -76 31q-48 0 -80.5 -31t-36.5 -96h217q0 65 -24 96zM387 120.5q32 43.5 32 141.5q0 94 -30 133.5t-93 39.5q-133 0 -133 -175q0 -95 31 -139t99 -44q62 0 94 43.5z" />
    <glyph glyph-name="Racute" unicode="&#x154;" horiz-adv-x="639" 
d="M497 0l-156 291h-138v-291h-116v724h262q125 0 180.5 -56.5t55.5 -143.5q0 -78 -35.5 -128.5t-98.5 -74.5l173 -321h-127zM425 414.5q39 29.5 39 101.5q0 62 -37.5 87t-113.5 25h-110v-243h113q70 0 109 29.5zM226 778l96 137h130l-142 -148z" />
    <glyph glyph-name="racute" unicode="&#x155;" horiz-adv-x="376" 
d="M341 414q-43 0 -85 -15t-70 -40v-359h-115v517h97l9 -77q31 44 72 66t97 22l21 -1v-115q-18 2 -26 2zM160 582l88 164h130l-138 -174z" />
    <glyph glyph-name="Rcommaaccent" unicode="&#x156;" horiz-adv-x="639" 
d="M497 0l-156 291h-138v-291h-116v724h262q125 0 180.5 -56.5t55.5 -143.5q0 -78 -35.5 -128.5t-98.5 -74.5l173 -321h-127zM425 414.5q39 29.5 39 101.5q0 62 -37.5 87t-113.5 25h-110v-243h113q70 0 109 29.5zM400 -68l-74 -187l-82 12l42 175h114z" />
    <glyph glyph-name="rcommaaccent" unicode="&#x157;" horiz-adv-x="376" 
d="M341 414q-43 0 -85 -15t-70 -40v-359h-115v517h97l9 -77q31 44 72 66t97 22l21 -1v-115q-18 2 -26 2zM198 -68l-74 -187l-82 12l42 175h114z" />
    <glyph glyph-name="Rcaron" unicode="&#x158;" horiz-adv-x="639" 
d="M497 0l-156 291h-138v-291h-116v724h262q125 0 180.5 -56.5t55.5 -143.5q0 -78 -35.5 -128.5t-98.5 -74.5l173 -321h-127zM425 414.5q39 29.5 39 101.5q0 62 -37.5 87t-113.5 25h-110v-243h113q70 0 109 29.5zM386 913l82 -9l-112 -133h-103l-110 133l83 7l79 -76z" />
    <glyph glyph-name="rcaron" unicode="&#x159;" horiz-adv-x="376" 
d="M341 414q-43 0 -85 -15t-70 -40v-359h-115v517h97l9 -77q31 44 72 66t97 22l21 -1v-115q-18 2 -26 2zM226 637l84 106l79 -7l-109 -164h-111l-109 164l85 6z" />
    <glyph glyph-name="Sacute" unicode="&#x15a;" horiz-adv-x="599" 
d="M205 616q-33 -26 -33 -72q0 -37 21.5 -60.5t54 -37t88.5 -29.5q71 -21 115.5 -41.5t76 -61t31.5 -107.5q0 -111 -75.5 -165t-188.5 -54q-117 0 -188 49.5t-82 165.5l108 16q14 -66 49 -102t115 -36q62 0 103.5 25.5t41.5 84.5q0 38 -21.5 62t-54.5 37t-88 28
q-72 20 -116 39.5t-75.5 61t-31.5 111.5q0 64 33 111t90 71.5t129 24.5q228 0 246 -208l-108 -13q-9 60 -39 93t-100 33q-68 0 -101 -26zM228 778l96 137h130l-142 -148z" />
    <glyph glyph-name="sacute" unicode="&#x15b;" horiz-adv-x="493" 
d="M385 490q47 -38 63 -109l-100 -26q-10 44 -31 65.5t-67 21.5q-45 0 -67 -17t-22 -44q0 -33 27 -48.5t85 -25.5t95.5 -24t63 -45t25.5 -86q0 -79 -58 -121.5t-155 -42.5q-93 0 -146 37t-65 109l98 32q12 -44 36 -68t81 -24q45 0 71 15t26 47q0 25 -12.5 38.5t-33.5 20.5
t-62 15q-59 12 -95 25t-62.5 44.5t-26.5 88.5q0 77 56.5 118.5t142.5 41.5t133 -38zM183 582l88 164h130l-138 -174z" />
    <glyph glyph-name="Scircumflex" unicode="&#x15c;" horiz-adv-x="599" 
d="M205 616q-33 -26 -33 -72q0 -37 21.5 -60.5t54 -37t88.5 -29.5q71 -21 115.5 -41.5t76 -61t31.5 -107.5q0 -111 -75.5 -165t-188.5 -54q-117 0 -188 49.5t-82 165.5l108 16q14 -66 49 -102t115 -36q62 0 103.5 25.5t41.5 84.5q0 38 -21.5 62t-54.5 37t-88 28
q-72 20 -116 39.5t-75.5 61t-31.5 111.5q0 64 33 111t90 71.5t129 24.5q228 0 246 -208l-108 -13q-9 60 -39 93t-100 33q-68 0 -101 -26zM227 767l-82 9l112 133h103l110 -133l-83 -7l-79 76z" />
    <glyph glyph-name="scircumflex" unicode="&#x15d;" horiz-adv-x="493" 
d="M385 490q47 -38 63 -109l-100 -26q-10 44 -31 65.5t-67 21.5q-45 0 -67 -17t-22 -44q0 -33 27 -48.5t85 -25.5t95.5 -24t63 -45t25.5 -86q0 -79 -58 -121.5t-155 -42.5q-93 0 -146 37t-65 109l98 32q12 -44 36 -68t81 -24q45 0 71 15t26 47q0 25 -12.5 38.5t-33.5 20.5
t-62 15q-59 12 -95 25t-62.5 44.5t-26.5 88.5q0 77 56.5 118.5t142.5 41.5t133 -38zM252 682l-83 -107l-82 7l109 165h111l109 -165l-81 -5z" />
    <glyph glyph-name="Scedilla" unicode="&#x15e;" horiz-adv-x="599" 
d="M274 -166q24 0 37 10.5t13 30.5q0 23 -16.5 32.5t-53.5 10.5l10 71q-104 6 -166 56t-73 158l108 16q14 -66 49 -102t115 -36q62 0 103.5 25.5t41.5 84.5q0 38 -21.5 62t-54.5 37t-88 28q-72 20 -116 39.5t-75.5 61t-31.5 111.5q0 64 33 111t90 71.5t129 24.5
q228 0 246 -208l-108 -13q-9 60 -39 93t-100 33q-68 0 -101 -26t-33 -72q0 -37 21.5 -60.5t54 -37t88.5 -29.5q71 -21 115.5 -41.5t76 -61t31.5 -107.5q0 -102 -64.5 -156t-166.5 -62l-4 -27q81 -15 81 -89q0 -48 -33 -76.5t-85 -28.5q-44 0 -82 18l17 59q26 -11 52 -11z
" />
    <glyph glyph-name="scedilla" unicode="&#x15f;" horiz-adv-x="493" 
d="M219 -166q24 0 37 10.5t13 30.5q0 23 -16.5 32.5t-53.5 10.5l10 72q-155 14 -176 144l98 32q12 -44 36 -68t81 -24q45 0 71 15t26 47q0 25 -12.5 38.5t-33.5 20.5t-62 15q-59 12 -95 25t-62.5 44.5t-26.5 88.5q0 77 56.5 118.5t142.5 41.5t133 -38t63 -109l-100 -26
q-10 44 -31 65.5t-67 21.5q-45 0 -67 -17t-22 -44q0 -33 27 -48.5t85 -25.5t95.5 -24t63 -45t25.5 -86q0 -73 -49.5 -115t-134.5 -48l-4 -27q81 -15 81 -89q0 -48 -33 -76.5t-85 -28.5q-44 0 -82 18l17 59q26 -11 52 -11z" />
    <glyph glyph-name="Scaron" unicode="&#x160;" horiz-adv-x="599" 
d="M205 616q-33 -26 -33 -72q0 -37 21.5 -60.5t54 -37t88.5 -29.5q71 -21 115.5 -41.5t76 -61t31.5 -107.5q0 -111 -75.5 -165t-188.5 -54q-117 0 -188 49.5t-82 165.5l108 16q14 -66 49 -102t115 -36q62 0 103.5 25.5t41.5 84.5q0 38 -21.5 62t-54.5 37t-88 28
q-72 20 -116 39.5t-75.5 61t-31.5 111.5q0 64 33 111t90 71.5t129 24.5q228 0 246 -208l-108 -13q-9 60 -39 93t-100 33q-68 0 -101 -26zM388 913l82 -9l-112 -133h-103l-110 133l83 7l79 -76z" />
    <glyph glyph-name="scaron" unicode="&#x161;" horiz-adv-x="493" 
d="M385 490q47 -38 63 -109l-100 -26q-10 44 -31 65.5t-67 21.5q-45 0 -67 -17t-22 -44q0 -33 27 -48.5t85 -25.5t95.5 -24t63 -45t25.5 -86q0 -79 -58 -121.5t-155 -42.5q-93 0 -146 37t-65 109l98 32q12 -44 36 -68t81 -24q45 0 71 15t26 47q0 25 -12.5 38.5t-33.5 20.5
t-62 15q-59 12 -95 25t-62.5 44.5t-26.5 88.5q0 77 56.5 118.5t142.5 41.5t133 -38zM253 637l84 106l79 -7l-109 -164h-111l-109 164l85 6z" />
    <glyph glyph-name="uni0162" unicode="&#x162;" horiz-adv-x="571" 
d="M262 -166q24 0 37 10.5t13 30.5q0 23 -16.5 32.5t-53.5 10.5l11 82h-25v626h-217v98h549v-98h-215v-626h-28l-5 -38q81 -15 81 -89q0 -48 -33 -76.5t-85 -28.5q-44 0 -82 18l17 59q26 -11 52 -11z" />
    <glyph glyph-name="uni0163" unicode="&#x163;" horiz-adv-x="392" 
d="M201 -166q24 0 37 10.5t13 30.5q0 23 -16.5 32.5t-53.5 10.5l11 76q-50 11 -75 47.5t-25 102.5v288h-79v85h79v151l115 16v-167h140v-85h-140v-272q0 -41 14.5 -59.5t54.5 -18.5q22 0 46.5 7t41.5 17l19 -82q-21 -13 -56 -24t-72 -12l-4 -26q81 -15 81 -89
q0 -48 -33 -76.5t-85 -28.5q-44 0 -82 18l17 59q26 -11 52 -11z" />
    <glyph glyph-name="Tcaron" unicode="&#x164;" horiz-adv-x="571" 
d="M228 626h-217v98h549v-98h-215v-626h-117v626zM366 913l82 -9l-112 -133h-103l-110 133l83 7l79 -76z" />
    <glyph glyph-name="tcaron" unicode="&#x165;" horiz-adv-x="392" 
d="M323 -1q-38 -11 -77 -11q-78 0 -116 37.5t-38 118.5v288h-79v85h79v151l115 16v-167h140v-85h-140v-272q0 -41 14.5 -59.5t54.5 -18.5q22 0 46.5 7t41.5 17l19 -82q-22 -14 -60 -25zM403 775l-63 -201l-82 9l33 192h112z" />
    <glyph glyph-name="Tbar" unicode="&#x166;" horiz-adv-x="571" 
d="M228 315h-138v89h138v222h-217v98h549v-98h-215v-222h136v-89h-136v-315h-117v315z" />
    <glyph glyph-name="tbar" unicode="&#x167;" horiz-adv-x="392" 
d="M323 -1q-38 -11 -77 -11q-78 0 -116 37.5t-38 118.5v100h-79v84h79v104h-79v85h79v151l115 16v-167h140v-85h-140v-104h140v-84h-140v-84q0 -41 14.5 -59.5t54.5 -18.5q22 0 46.5 7t41.5 17l19 -82q-22 -14 -60 -25z" />
    <glyph glyph-name="Utilde" unicode="&#x168;" horiz-adv-x="711" 
d="M477.5 126q36.5 40 36.5 136v462h117v-474q0 -132 -73 -197t-207 -65q-141 0 -206 65t-65 200v471h117v-459q0 -94 38 -136.5t122 -42.5t120.5 40zM323 908.5q20 -6.5 45 -18.5q20 -10 34 -15t28 -5q19 0 26.5 10t7.5 38l64 -3q2 -18 2 -26q0 -49 -24 -76t-65 -27
q-24 0 -43.5 6.5t-47.5 19.5q-21 10 -35 14.5t-27 4.5q-18 0 -26.5 -11t-6.5 -40l-66 3q-2 18 -2 26q0 50 26 78t67 28q23 0 43 -6.5z" />
    <glyph glyph-name="utilde" unicode="&#x169;" horiz-adv-x="580" 
d="M185 517v-333q0 -51 18.5 -74.5t62.5 -23.5q35 0 71.5 17t58.5 37v377h115v-517h-100l-8 57q-35 -32 -80 -50t-97 -18q-80 0 -118 43.5t-38 131.5v353h115zM258 715.5q20 -6.5 45 -18.5q20 -10 34 -15t28 -5q19 0 26.5 10t7.5 39l64 -4q2 -18 2 -26q0 -49 -24 -76
t-65 -27q-24 0 -43.5 6.5t-47.5 19.5q-20 10 -34 15t-28 5q-18 0 -26.5 -11.5t-6.5 -40.5l-66 3q-1 8 -1 24q0 52 25.5 80t66.5 28q23 0 43 -6.5z" />
    <glyph glyph-name="Umacron" unicode="&#x16a;" horiz-adv-x="711" 
d="M477.5 126q36.5 40 36.5 136v462h117v-474q0 -132 -73 -197t-207 -65q-141 0 -206 65t-65 200v471h117v-459q0 -94 38 -136.5t122 -42.5t120.5 40zM201 873h311v-83h-311v83z" />
    <glyph glyph-name="umacron" unicode="&#x16b;" horiz-adv-x="580" 
d="M185 517v-333q0 -51 18.5 -74.5t62.5 -23.5q35 0 71.5 17t58.5 37v377h115v-517h-100l-8 57q-35 -32 -80 -50t-97 -18q-80 0 -118 43.5t-38 131.5v353h115zM142 699h299v-83h-299v83z" />
    <glyph glyph-name="Ubreve" unicode="&#x16c;" horiz-adv-x="711" 
d="M477.5 126q36.5 40 36.5 136v462h117v-474q0 -132 -73 -197t-207 -65q-141 0 -206 65t-65 200v471h117v-459q0 -94 38 -136.5t122 -42.5t120.5 40zM412.5 865.5q19.5 15.5 26.5 54.5l79 -6q-7 -70 -49.5 -104.5t-114.5 -34.5q-142 0 -152 137l80 8q7 -38 24.5 -54
t51.5 -16q35 0 54.5 15.5z" />
    <glyph glyph-name="ubreve" unicode="&#x16d;" horiz-adv-x="580" 
d="M185 517v-333q0 -51 18.5 -74.5t62.5 -23.5q35 0 71.5 17t58.5 37v377h115v-517h-100l-8 57q-35 -32 -80 -50t-97 -18q-80 0 -118 43.5t-38 131.5v353h115zM410.5 610.5q-42.5 -39.5 -118.5 -39.5q-149 0 -155 155l80 9q4 -49 22.5 -69t56.5 -20q39 0 59 19.5t24 68.5
l78 -6q-4 -78 -46.5 -117.5z" />
    <glyph glyph-name="Uring" unicode="&#x16e;" horiz-adv-x="711" 
d="M477.5 126q36.5 40 36.5 136v462h117v-474q0 -132 -73 -197t-207 -65q-141 0 -206 65t-65 200v471h117v-459q0 -94 38 -136.5t122 -42.5t120.5 40zM436 757.5q-30 -27.5 -80 -27.5t-80 26.5t-30 73.5q0 51 31.5 78.5t78.5 27.5q48 0 79 -26.5t31 -75.5t-30 -76.5z
M391.5 797.5q12.5 13.5 12.5 37.5t-12.5 36t-35.5 12t-37 -13t-14 -37t13 -36.5t37 -12.5t36.5 13.5z" />
    <glyph glyph-name="uring" unicode="&#x16f;" horiz-adv-x="580" 
d="M185 517v-333q0 -51 18.5 -74.5t62.5 -23.5q35 0 71.5 17t58.5 37v377h115v-517h-100l-8 57q-35 -32 -80 -50t-97 -18q-80 0 -118 43.5t-38 131.5v353h115zM371.5 599q-29.5 -27 -79.5 -27q-49 0 -79 26t-30 72q0 50 31.5 78t77.5 28q48 0 78.5 -26t30.5 -76
q0 -48 -29.5 -75zM325.5 638.5q12.5 12.5 12.5 35.5q0 22 -12 34t-34 12t-35 -12t-13 -35t12 -35t35 -12q22 0 34.5 12.5z" />
    <glyph glyph-name="Uhungarumlaut" unicode="&#x170;" horiz-adv-x="711" 
d="M477.5 126q36.5 40 36.5 136v462h117v-474q0 -132 -73 -197t-207 -65q-141 0 -206 65t-65 200v471h117v-459q0 -94 38 -136.5t122 -42.5t120.5 40zM373 778l97 140h130l-146 -151zM236 780l60 134h126l-107 -147z" />
    <glyph glyph-name="uhungarumlaut" unicode="&#x171;" horiz-adv-x="580" 
d="M185 517v-333q0 -51 18.5 -74.5t62.5 -23.5q35 0 71.5 17t58.5 37v377h115v-517h-100l-8 57q-35 -32 -80 -50t-97 -18q-80 0 -118 43.5t-38 131.5v353h115zM313 582l94 166h130l-144 -176zM173 585l62 160h125l-110 -173z" />
    <glyph glyph-name="Uogonek" unicode="&#x172;" horiz-adv-x="711" 
d="M497.5 -209q-34.5 -23 -76.5 -23q-50 0 -78 24t-28 67q0 68 74 131q-24 -2 -38 -2q-141 0 -206 65t-65 200v471h117v-459q0 -94 38 -136.5t122 -42.5t120.5 40t36.5 136v462h117v-474q0 -86 -31 -141.5t-90 -95.5q-47 -32 -75 -67t-28 -67q0 -37 35 -37q31 0 51 41
l55 -27q-16 -42 -50.5 -65z" />
    <glyph glyph-name="uogonek" unicode="&#x173;" horiz-adv-x="580" 
d="M505.5 -209q-34.5 -23 -76.5 -23q-50 0 -78 24t-28 67q0 75 88 141l-8 57q-35 -32 -80 -50t-97 -18q-80 0 -118 43.5t-38 131.5v353h115v-333q0 -51 18.5 -74.5t62.5 -23.5q35 0 71.5 17t58.5 37v377h115v-517q-51 -36 -73.5 -63t-22.5 -58q0 -37 35 -37q31 0 51 41
l55 -27q-16 -42 -50.5 -65z" />
    <glyph glyph-name="Wcircumflex" unicode="&#x174;" horiz-adv-x="919" 
d="M463 557h-2l-141 -557h-149l-158 724h123l115 -594h2l147 594h127l150 -599h2l109 599h117l-153 -724h-149zM383 767l-82 9l112 133h103l110 -133l-83 -7l-79 76z" />
    <glyph glyph-name="wcircumflex" unicode="&#x175;" horiz-adv-x="781" 
d="M2 517h116l113 -398h1l104 398h116l104 -396h1l110 396h112l-158 -517h-132l-97 379h-2l-93 -379h-137zM393 682l-83 -107l-82 7l109 165h111l109 -165l-81 -5z" />
    <glyph glyph-name="Ycircumflex" unicode="&#x176;" horiz-adv-x="582" 
d="M238 0v277l-248 447h128l180 -336h2l174 336h118l-237 -445l1 -279h-118zM212 767l-82 9l112 133h103l110 -133l-83 -7l-79 76z" />
    <glyph glyph-name="ycircumflex" unicode="&#x177;" horiz-adv-x="502" 
d="M127 517l127 -388h1l127 388h118q-94 -260 -216 -583q-32 -86 -72 -121.5t-108 -35.5q-28 0 -57.5 6t-46.5 14l11 86q18 -7 40.5 -11.5t40.5 -4.5q28 0 48.5 16.5t35.5 54.5l21 54l-194 525h124zM255 682l-83 -107l-82 7l109 165h111l109 -165l-81 -5z" />
    <glyph glyph-name="Ydieresis" unicode="&#x178;" horiz-adv-x="582" 
d="M238 0v277l-248 447h128l180 -336h2l174 336h118l-237 -445l1 -279h-118zM236 796.5q-20 -18.5 -53 -18.5t-53.5 18.5t-20.5 51.5q0 32 20.5 51t53.5 19t53 -19t20 -51q0 -33 -20 -51.5zM456 796.5q-20 -18.5 -53 -18.5q-34 0 -54 18.5t-20 51.5q0 32 20 51t54 19
q33 0 53 -19t20 -51q0 -33 -20 -51.5z" />
    <glyph glyph-name="Zacute" unicode="&#x179;" horiz-adv-x="589" 
d="M553 98v-98h-522v84l369 542h-359v98h497v-87l-365 -539h380zM205 778l96 137h130l-142 -148z" />
    <glyph glyph-name="zacute" unicode="&#x17a;" horiz-adv-x="462" 
d="M438 94v-94h-409v82l269 345h-265v90h393v-83l-267 -340h279zM168 582l88 164h130l-138 -174z" />
    <glyph glyph-name="Zdotaccent" unicode="&#x17b;" horiz-adv-x="589" 
d="M553 98v-98h-522v84l369 542h-359v98h497v-87l-365 -539h380zM339 798q-20 -20 -55 -20q-36 0 -55.5 20t-19.5 56t19.5 55.5t55.5 19.5q35 0 55 -19.5t20 -55.5t-20 -56z" />
    <glyph glyph-name="zdotaccent" unicode="&#x17c;" horiz-adv-x="462" 
d="M438 94v-94h-409v82l269 345h-265v90h393v-83l-267 -340h279zM286.5 624q-19.5 -20 -55.5 -20t-55.5 19.5t-19.5 56.5q0 36 19.5 55.5t55.5 19.5q35 0 55 -19.5t20 -55.5t-19.5 -56z" />
    <glyph glyph-name="Zcaron" unicode="&#x17d;" horiz-adv-x="589" 
d="M553 98v-98h-522v84l369 542h-359v98h497v-87l-365 -539h380zM365 913l82 -9l-112 -133h-103l-110 133l83 7l79 -76z" />
    <glyph glyph-name="zcaron" unicode="&#x17e;" horiz-adv-x="462" 
d="M438 94v-94h-409v82l269 345h-265v90h393v-83l-267 -340h279zM232 637l84 106l79 -7l-109 -164h-111l-109 164l85 6z" />
    <glyph glyph-name="longs" unicode="&#x17f;" horiz-adv-x="291" 
d="M298.5 759.5q-27.5 5.5 -59.5 5.5q-80 0 -124 -43.5t-44 -130.5v-591h115v588q0 51 20.5 70t59.5 19q34 0 71 -13l4 83q-15 7 -42.5 12.5z" />
    <glyph glyph-name="florin" unicode="&#x192;" horiz-adv-x="552" 
d="M452.5 635.5q-14.5 16.5 -40.5 16.5q-31 0 -48.5 -17.5t-25.5 -58.5l-25 -130h138l-14 -80h-137l-75 -381q-17 -87 -59.5 -126t-123.5 -39q-62 0 -101 30.5t-55 84.5l94 35q10 -32 25.5 -48t43.5 -16q29 0 45.5 16.5t24.5 58.5l74 385h-86l14 80h87l25 126
q17 86 59.5 125.5t124.5 39.5q118 0 154 -116l-94 -34q-10 32 -24.5 48.5z" />
    <glyph glyph-name="AEacute" unicode="&#x1fc;" horiz-adv-x="1001" 
d="M956 98v-98h-453v305h-201l-159 -305h-120l378 724h540v-98h-320v-223h301v-96h-301v-209h335zM462 626l-121 -226h162v226h-41zM589 778l96 137h130l-142 -148z" />
    <glyph glyph-name="aeacute" unicode="&#x1fd;" horiz-adv-x="851" 
d="M403 66q-39 -40 -91.5 -59t-109.5 -19q-86 0 -120.5 43.5t-34.5 96.5q0 94 65 134.5t185 43.5q26 0 56 -2v34q0 53 -19 78t-72 25q-45 0 -67.5 -19t-29.5 -61l-98 18q22 149 198 149q65 0 101 -19t57 -61q31 39 77 59.5t103 20.5q102 0 152.5 -62.5t50.5 -168.5
q0 -39 -3 -68h-335q2 -82 35 -114t95 -32q47 0 72 20.5t35 62.5l99 -23q-16 -73 -72 -114t-141 -41q-129 0 -188 78zM663.5 406.5q-24.5 31.5 -76.5 31.5q-47 0 -81.5 -33t-35.5 -96h217q1 66 -23.5 97.5zM311.5 88q34.5 15 59.5 41q-15 40 -18 101q-6 0 -21 0.5t-27 -0.5
q-66 -1 -103.5 -20.5t-37.5 -66.5q0 -31 18 -50.5t60 -19.5q35 0 69.5 15zM355 582l88 164h130l-138 -174z" />
    <glyph glyph-name="Scommaaccent" unicode="&#x218;" horiz-adv-x="599" 
d="M205 616q-33 -26 -33 -72q0 -37 21.5 -60.5t54 -37t88.5 -29.5q71 -21 115.5 -41.5t76 -61t31.5 -107.5q0 -111 -75.5 -165t-188.5 -54q-117 0 -188 49.5t-82 165.5l108 16q14 -66 49 -102t115 -36q62 0 103.5 25.5t41.5 84.5q0 38 -21.5 62t-54.5 37t-88 28
q-72 20 -116 39.5t-75.5 61t-31.5 111.5q0 64 33 111t90 71.5t129 24.5q228 0 246 -208l-108 -13q-9 60 -39 93t-100 33q-68 0 -101 -26zM366 -68l-74 -187l-82 12l42 175h114z" />
    <glyph glyph-name="scommaaccent" unicode="&#x219;" horiz-adv-x="493" 
d="M385 490q47 -38 63 -109l-100 -26q-10 44 -31 65.5t-67 21.5q-45 0 -67 -17t-22 -44q0 -33 27 -48.5t85 -25.5t95.5 -24t63 -45t25.5 -86q0 -79 -58 -121.5t-155 -42.5q-93 0 -146 37t-65 109l98 32q12 -44 36 -68t81 -24q45 0 71 15t26 47q0 25 -12.5 38.5t-33.5 20.5
t-62 15q-59 12 -95 25t-62.5 44.5t-26.5 88.5q0 77 56.5 118.5t142.5 41.5t133 -38zM315 -68l-74 -187l-82 12l42 175h114z" />
    <glyph glyph-name="uni021A" unicode="&#x21a;" horiz-adv-x="571" 
d="M228 626h-217v98h549v-98h-215v-626h-117v626zM351 -68l-74 -187l-82 12l42 175h114z" />
    <glyph glyph-name="uni021B" unicode="&#x21b;" horiz-adv-x="392" 
d="M323 -1q-38 -11 -77 -11q-78 0 -116 37.5t-38 118.5v288h-79v85h79v151l115 16v-167h140v-85h-140v-272q0 -41 14.5 -59.5t54.5 -18.5q22 0 46.5 7t41.5 17l19 -82q-22 -14 -60 -25zM292 -68l-74 -187l-82 12l42 175h114z" />
    <glyph glyph-name="uni0237" unicode="&#x237;" horiz-adv-x="255" 
d="M-36 -216q-31 7 -46 16l10 88q42 -17 78 -17q67 0 67 80v566h115v-573q0 -86 -42.5 -126.5t-120.5 -40.5q-30 0 -61 7z" />
    <glyph glyph-name="uni02BB" unicode="&#x2bb;" horiz-adv-x="500" 
d="M181 570l74 186l82 -12l-42 -174h-114z" />
    <glyph glyph-name="uni02BC" unicode="&#x2bc;" horiz-adv-x="500" 
d="M323 703l-74 -187l-82 12l42 175h114z" />
    <glyph glyph-name="circumflex" unicode="&#x2c6;" horiz-adv-x="500" 
d="M250 682l-83 -107l-82 7l109 165h111l109 -165l-81 -5z" />
    <glyph glyph-name="caron" unicode="&#x2c7;" horiz-adv-x="500" 
d="M251 637l84 106l79 -7l-109 -164h-111l-109 164l85 6z" />
    <glyph glyph-name="uni02C9" unicode="&#x2c9;" horiz-adv-x="500" 
d="M99 693h299v-83h-299v83z" />
    <glyph glyph-name="breve" unicode="&#x2d8;" horiz-adv-x="500" 
d="M368.5 610.5q-42.5 -39.5 -118.5 -39.5q-149 0 -155 155l80 9q4 -49 22.5 -69t56.5 -20q39 0 59 19.5t24 68.5l78 -6q-4 -78 -46.5 -117.5z" />
    <glyph glyph-name="dotaccent" unicode="&#x2d9;" horiz-adv-x="500" 
d="M305.5 624q-19.5 -20 -55.5 -20t-55.5 19.5t-19.5 56.5q0 36 19.5 55.5t55.5 19.5q35 0 55 -19.5t20 -55.5t-19.5 -56z" />
    <glyph glyph-name="ring" unicode="&#x2da;" horiz-adv-x="500" 
d="M329.5 599q-29.5 -27 -79.5 -27q-49 0 -79 26t-30 72q0 50 31.5 78t77.5 28q48 0 78.5 -26t30.5 -76q0 -48 -29.5 -75zM283.5 638.5q12.5 12.5 12.5 35.5q0 22 -12 34t-34 12t-35 -12t-13 -35t12 -35t35 -12q22 0 34.5 12.5z" />
    <glyph glyph-name="ogonek" unicode="&#x2db;" horiz-adv-x="500" 
d="M323.5 -209q-34.5 -23 -76.5 -23q-50 0 -78 24t-28 67q0 50 33 88.5t85 74.5l63 -15q-49 -46 -69 -72t-20 -56q0 -37 35 -37q31 0 51 41l55 -27q-16 -42 -50.5 -65z" />
    <glyph glyph-name="tilde" unicode="&#x2dc;" horiz-adv-x="500" 
d="M216 715.5q20 -6.5 45 -18.5q20 -10 34 -15t28 -5q19 0 26.5 10t7.5 39l64 -4q2 -18 2 -26q0 -49 -24 -76t-65 -27q-24 0 -43.5 6.5t-47.5 19.5q-20 10 -34 15t-28 5q-18 0 -26.5 -11.5t-6.5 -40.5l-66 3q-1 8 -1 24q0 52 25.5 80t66.5 28q23 0 43 -6.5z" />
    <glyph glyph-name="hungarumlaut" unicode="&#x2dd;" horiz-adv-x="500" 
d="M271 582l94 166h130l-144 -176zM131 585l62 160h125l-110 -173z" />
    <glyph glyph-name="gravecomb" unicode="&#x300;" horiz-adv-x="0" 
d="M-395 746h130l88 -163l-80 -11z" />
    <glyph glyph-name="acutecomb" unicode="&#x301;" horiz-adv-x="0" 
d="M-337 583l88 163h130l-138 -174z" />
    <glyph glyph-name="uni0302" unicode="&#x302;" horiz-adv-x="0" 
d="M-418 582l109 165h111l108 -165l-80 -5l-84 107l-82 -109z" />
    <glyph glyph-name="tildecomb" unicode="&#x303;" horiz-adv-x="0" 
d="M-427 590q-1 8 -1 24q0 51 25.5 79t66.5 28q23 0 43 -6.5t45 -18.5q20 -10 34 -15t28 -5q19 0 27 10t8 39l63 -3q2 -18 2 -26q0 -49 -24 -75.5t-65 -26.5q-24 0 -43.5 6.5t-47.5 19.5q-21 10 -35 14.5t-27 4.5q-33 0 -33 -38l1 -13z" />
    <glyph glyph-name="uni0304" unicode="&#x304;" horiz-adv-x="0" 
d="M-404 699h299v-82h-299v82z" />
    <glyph glyph-name="uni0306" unicode="&#x306;" horiz-adv-x="0" 
d="M-412 727l80 9q4 -49 22.5 -69.5t56.5 -20.5q39 0 59 20t24 70l78 -6q-4 -77 -46.5 -117t-118.5 -40q-149 0 -155 154z" />
    <glyph glyph-name="uni0307" unicode="&#x307;" horiz-adv-x="0" 
d="M-304.5 624.5q-19.5 19.5 -19.5 55.5q0 35 19.5 54t54.5 19q36 0 56 -19t20 -54q0 -36 -20 -55.5t-56 -19.5q-35 0 -54.5 19.5z" />
    <glyph glyph-name="uni0308" unicode="&#x308;" horiz-adv-x="0" 
d="M-306 623q-20 -19 -53 -19t-53.5 19t-20.5 52q0 31 20.5 50.5t53.5 19.5q32 0 52.5 -19.5t20.5 -50.5q0 -33 -20 -52zM-86 623q-20 -19 -53 -19q-34 0 -54 19t-20 52q0 32 20 51t54 19q32 0 52.5 -19.5t20.5 -50.5q0 -33 -20 -52z" />
    <glyph glyph-name="uni030A" unicode="&#x30a;" horiz-adv-x="0" 
d="M-332.5 598q-29.5 26 -29.5 72q0 50 31 77.5t77 27.5q48 0 78.5 -26t30.5 -75q0 -48 -29.5 -75t-79.5 -27q-49 0 -78.5 26zM-219.5 639q12.5 13 12.5 35q0 23 -12.5 34.5t-34.5 11.5q-21 0 -34.5 -12.5t-13.5 -34.5q0 -23 12.5 -35t35.5 -12q22 0 34.5 13z" />
    <glyph glyph-name="uni030B" unicode="&#x30b;" horiz-adv-x="0" 
d="M-242 583l94 165h130l-144 -176zM-381 585l62 160h125l-110 -173z" />
    <glyph glyph-name="uni030C" unicode="&#x30c;" horiz-adv-x="0" 
d="M-415 736l85 6l80 -107l84 108l79 -7l-108 -164h-111z" />
    <glyph glyph-name="uni0312" unicode="&#x312;" horiz-adv-x="0" 
d="M-319 570l74 186l82 -12l-42 -174h-114z" />
    <glyph glyph-name="uni0326" unicode="&#x326;" horiz-adv-x="0" 
d="M-180 -68l-74 -187l-82 12l42 175h114z" />
    <glyph glyph-name="uni0327" unicode="&#x327;" horiz-adv-x="0" 
d="M-274 -166q24 0 37 10.5t13 30.5q0 23 -16.5 32.5t-53.5 10.5l16 112l63 -8l-9 -60q81 -15 81 -89q0 -48 -33 -76.5t-85 -28.5q-44 0 -82 18l17 59q26 -11 52 -11z" />
    <glyph glyph-name="uni0328" unicode="&#x328;" horiz-adv-x="0" 
d="M-176.5 -209q-34.5 -23 -76.5 -23q-50 0 -78 24t-28 67q0 50 33 88.5t85 74.5l63 -15q-49 -46 -69 -72t-20 -56q0 -37 35 -37q31 0 51 41l55 -27q-16 -42 -50.5 -65z" />
    <glyph glyph-name="uni0394" unicode="&#x394;" horiz-adv-x="701" 
d="M660 66v-66h-619v65l229 659h149zM343 616l-172 -518h351l-177 518h-2z" />
    <glyph glyph-name="uni03A9" unicode="&#x3a9;" horiz-adv-x="788" 
d="M232 575q-57 -63 -57 -163t47 -156.5t124 -72.5v-183h-270v90h168v38q-87 29 -138.5 103t-51.5 182q0 88 37.5 161.5t115.5 118t193 44.5q112 0 187 -44t111 -117t36 -162q0 -96 -44 -173.5t-146 -112.5v-38h167v-90h-269v183q84 17 127.5 76.5t43.5 154.5
q0 103 -56 163.5t-158 60.5q-110 0 -167 -63z" />
    <glyph glyph-name="uni03BC" unicode="&#x3bc;" horiz-adv-x="609" 
d="M433 4q-22 14 -29 53q-36 -32 -70.5 -50t-83.5 -18q-40 0 -67 20v-221h-111v729h114v-336q0 -52 20 -73.5t57 -21.5q31 0 66 12.5t68 41.5v377h115v-408q0 -22 6.5 -31t24.5 -9q12 0 31 6l4 -68q-34 -17 -83 -17q-40 0 -62 14z" />
    <glyph glyph-name="pi" unicode="&#x3c0;" horiz-adv-x="639" 
d="M236 425l-54 -425h-114l57 425h-101v92h583v-92h-97v-315q0 -21 9 -31t29 -10q17 0 36 6l4 -68q-38 -17 -83 -17q-105 0 -105 117v318h-164z" />
    <glyph glyph-name="uni060C" unicode="&#x60c;" horiz-adv-x="255" 
d="M125 -18q-76 54 -76 122q0 44 30.5 87t86.5 78l34 -49q-32 -27 -46.5 -46.5t-14.5 -36.5t14.5 -35.5t46.5 -43.5z" />
    <glyph glyph-name="uni061B" unicode="&#x61b;" horiz-adv-x="251" 
d="M42 77l83 84l84 -84l-84 -83zM125 373q-76 54 -76 122q0 44 30.5 87t86.5 78l34 -49q-32 -27 -46.5 -46.5t-14.5 -36.5t14.5 -35.5t46.5 -43.5z" />
    <glyph glyph-name="uni061F" unicode="&#x61f;" horiz-adv-x="452" 
d="M223 203q1 9 1 35q0 22 -7 36t-24 27.5t-53 34.5q-48 28 -68.5 64.5t-20.5 83.5q0 55 25 97t68 65t95 23q45 0 89.5 -21.5t76.5 -59.5l-56 -80q-23 20 -54.5 32t-62.5 12q-35 0 -57.5 -15t-22.5 -42q0 -21 16.5 -39t51.5 -36q43 -23 65 -41.5t32 -41.5t10 -59
q0 -28 -7 -75h-97zM195 69l76 76l76 -76l-76 -77z" />
    <glyph glyph-name="uni0621" unicode="&#x621;" horiz-adv-x="426" 
d="M395 48l-342 -63l-22 100l80 18q-61 43 -61 119q0 46 22 85t58.5 62t79.5 23q99 0 142 -108l-62 -35q-12 15 -30 24t-39 9q-35 0 -58 -17.5t-23 -44.5q0 -34 39 -53.5t114 -22.5l82 19z" />
    <glyph glyph-name="uni0622" unicode="&#x622;" horiz-adv-x="229" 
d="M59 675h111l-7 -675h-97zM245 803q-12 -34 -32.5 -52t-47.5 -18q-19 0 -51 13q-34 14 -50 14q-13 0 -24 -8t-22 -26l-32 21q11 34 31.5 52t47.5 18q19 0 51 -13q36 -15 50 -15q13 0 23.5 8.5t22.5 26.5z" />
    <glyph glyph-name="uni0623" unicode="&#x623;" horiz-adv-x="229" 
d="M59 675h111l-7 -675h-97zM196 746l-167 -31l-9 45l42 10q-31 20 -31 60q0 33 22.5 56.5t53.5 23.5q22 0 40 -13t28 -38l-28 -18q-14 16 -35 16q-17 0 -27 -7t-10 -21q0 -37 73 -40l39 9z" />
    <glyph glyph-name="uni0624" unicode="&#x624;" horiz-adv-x="428" 
d="M341 317.5q46 -75.5 46 -200.5q0 -87 -26.5 -159t-79 -115t-126.5 -43q-43 0 -82.5 19t-59.5 48l34 77q49 -21 97 -21q61 0 101 33t51 92q-36 -33 -95 -33q-72 0 -110.5 47.5t-38.5 126.5q0 54 20 101t56.5 75t84.5 28q82 0 128 -75.5zM157 142.5q20 -17.5 56 -17.5
q23 0 46 5.5t39 15.5q-6 66 -27 96.5t-61 30.5q-35 0 -54 -23.5t-19 -57.5q0 -32 20 -49.5zM294 470l-167 -31l-9 45l42 10q-31 20 -31 60q0 33 22.5 56.5t53.5 23.5q22 0 40 -13t28 -38l-28 -18q-14 16 -35 16q-17 0 -27 -7t-10 -21q0 -37 73 -40l39 9z" />
    <glyph glyph-name="uni0625" unicode="&#x625;" horiz-adv-x="229" 
d="M59 675h111l-7 -675h-97zM211 -206l-167 -31l-9 45l42 10q-31 20 -31 60q0 33 22.5 56.5t53.5 23.5q22 0 40 -13t28 -38l-28 -18q-14 16 -35 16q-17 0 -27 -7t-10 -21q0 -37 73 -40l39 9z" />
    <glyph glyph-name="uni0626" unicode="&#x626;" horiz-adv-x="677" 
d="M161.5 -172q-59.5 28 -92.5 79.5t-33 118.5q0 64 21 124t60 112l71 -40q-43 -77 -43 -148q0 -65 44.5 -102t123.5 -37q48 0 97.5 13.5t81.5 35.5t32 44q0 11 -13.5 19t-44.5 18l-56 18q-60 19 -88 52t-28 82q0 51 26 97t69 73.5t90 27.5q64 0 104 -41t46 -113l-77 -10
q-5 25 -22 38.5t-46 13.5q-35 0 -62.5 -20t-27.5 -45q0 -17 15.5 -26.5t63.5 -24.5l57 -18q56 -18 80.5 -46t24.5 -72q0 -65 -47.5 -123t-125.5 -93t-165 -35q-76 0 -135.5 28zM240 333l-167 -31l-9 45l42 10q-31 20 -31 60q0 33 22.5 56.5t53.5 23.5q22 0 40 -13t28 -38
l-28 -18q-14 16 -35 16q-17 0 -27 -7t-10 -21q0 -37 73 -40l39 9z" />
    <glyph glyph-name="uni0627" unicode="&#x627;" horiz-adv-x="229" 
d="M59 675h111l-7 -675h-97z" />
    <glyph glyph-name="uni0628" unicode="&#x628;" horiz-adv-x="766" 
d="M185 12q-76 20 -110.5 62.5t-34.5 112.5q0 43 14.5 97.5t38.5 101.5l76 -22q-21 -68 -21 -118q0 -45 22.5 -70t74 -35.5t143.5 -10.5q101 0 169 16t68 39q0 32 -16 86.5t-39 102.5l100 44q24 -50 39 -117t15 -120q0 -98 -80.5 -143.5t-255.5 -45.5q-127 0 -203 20z
M306 -152l80 80l80 -80l-80 -80z" />
    <glyph glyph-name="uni0629" unicode="&#x629;" horiz-adv-x="452" 
d="M90 40q-48 47 -48 134q0 67 26 125t68.5 92t89.5 34q48 0 90.5 -34t68 -92.5t25.5 -127.5q0 -86 -48 -132t-136 -46t-136 47zM293.5 140.5q28.5 17.5 28.5 41.5q0 49 -27 78.5t-69 29.5q-38 0 -67 -27t-29 -69q0 -33 26.5 -52t69.5 -19q39 0 67.5 17.5zM289 478l-63 63
l-63 -63l-80 80l80 79l63 -62l63 62l80 -79z" />
    <glyph glyph-name="uni062A" unicode="&#x62a;" horiz-adv-x="766" 
d="M185 12q-76 20 -110.5 62.5t-34.5 112.5q0 43 14.5 97.5t38.5 101.5l76 -22q-21 -68 -21 -118q0 -45 22.5 -70t74 -35.5t143.5 -10.5q101 0 169 16t68 39q0 32 -16 86.5t-39 102.5l100 44q24 -50 39 -117t15 -120q0 -98 -80.5 -143.5t-255.5 -45.5q-127 0 -203 20z
M448 412l-63 63l-63 -63l-80 80l80 79l63 -62l63 62l80 -79z" />
    <glyph glyph-name="uni062B" unicode="&#x62b;" horiz-adv-x="766" 
d="M185 12q-76 20 -110.5 62.5t-34.5 112.5q0 43 14.5 97.5t38.5 101.5l76 -22q-21 -68 -21 -118q0 -45 22.5 -70t74 -35.5t143.5 -10.5q101 0 169 16t68 39q0 32 -16 86.5t-39 102.5l100 44q24 -50 39 -117t15 -120q0 -98 -80.5 -143.5t-255.5 -45.5q-127 0 -203 20z
M384 563l-80 80l80 80l79 -80zM448 407l-63 64l-63 -64l-80 81l80 80l63 -63l63 63l80 -80z" />
    <glyph glyph-name="uni062C" unicode="&#x62c;" horiz-adv-x="567" 
d="M590 -193q-49 -52 -114.5 -79.5t-142.5 -27.5q-82 0 -144.5 30t-97 84t-34.5 125q0 102 77.5 183.5t212.5 129.5l-42 9q-83 19 -109 19q-21 0 -36 -10t-26 -34l-77 35q39 129 136 129q27 0 67.5 -8.5t110.5 -28.5q62 -17 90 -23t51 -6h20v-123q-157 -31 -260 -94.5
t-103 -151.5q0 -59 50 -94t134 -35q109 0 190 52zM287 1l80 80l80 -80l-80 -80z" />
    <glyph glyph-name="uni062D" unicode="&#x62d;" horiz-adv-x="567" 
d="M590 -193q-49 -52 -114.5 -79.5t-142.5 -27.5q-82 0 -144.5 30t-97 84t-34.5 125q0 102 77.5 183.5t212.5 129.5l-42 9q-83 19 -109 19q-21 0 -36 -10t-26 -34l-77 35q39 129 136 129q27 0 67.5 -8.5t110.5 -28.5q62 -17 90 -23t51 -6h20v-123q-157 -31 -260 -94.5
t-103 -151.5q0 -59 50 -94t134 -35q109 0 190 52z" />
    <glyph glyph-name="uni062E" unicode="&#x62e;" horiz-adv-x="567" 
d="M590 -193q-49 -52 -114.5 -79.5t-142.5 -27.5q-82 0 -144.5 30t-97 84t-34.5 125q0 102 77.5 183.5t212.5 129.5l-42 9q-83 19 -109 19q-21 0 -36 -10t-26 -34l-77 35q39 129 136 129q27 0 67.5 -8.5t110.5 -28.5q62 -17 90 -23t51 -6h20v-123q-157 -31 -260 -94.5
t-103 -151.5q0 -59 50 -94t134 -35q109 0 190 52zM244 524l80 79l80 -79l-80 -80z" />
    <glyph glyph-name="uni062F" unicode="&#x62f;" horiz-adv-x="439" 
d="M113.5 -6q-37.5 2 -60.5 6l-13 137q57 -10 129 -10q46 0 86 8.5t40 18.5q0 36 -43.5 96t-107.5 113l88 84q78 -72 121 -151.5t43 -152.5q0 -78 -51.5 -114.5t-162.5 -36.5q-31 0 -68.5 2z" />
    <glyph glyph-name="uni0630" unicode="&#x630;" horiz-adv-x="445" 
d="M113.5 -6q-37.5 2 -60.5 6l-13 137q57 -10 129 -10q46 0 86 8.5t40 18.5q0 36 -43.5 96t-107.5 113l88 84q78 -72 121 -151.5t43 -152.5q0 -78 -51.5 -114.5t-162.5 -36.5q-31 0 -68.5 2zM120 569l80 79l80 -79l-80 -80z" />
    <glyph glyph-name="uni0631" unicode="&#x631;" horiz-adv-x="388" 
d="M14 -181.5q-39 18.5 -62 48.5l39 88q45 -20 87 -20q41 0 80.5 25.5t64 67.5t24.5 90q0 26 -27.5 84.5t-66.5 118.5l101 56q44 -59 69 -130.5t25 -136.5q0 -81 -36.5 -153t-94.5 -114.5t-119 -42.5q-45 0 -84 18.5z" />
    <glyph glyph-name="uni0632" unicode="&#x632;" horiz-adv-x="388" 
d="M14 -181.5q-39 18.5 -62 48.5l39 88q45 -20 87 -20q41 0 80.5 25.5t64 67.5t24.5 90q0 26 -27.5 84.5t-66.5 118.5l101 56q44 -59 69 -130.5t25 -136.5q0 -81 -36.5 -153t-94.5 -114.5t-119 -42.5q-45 0 -84 18.5zM124 500l80 79l80 -79l-80 -80z" />
    <glyph glyph-name="uni0633" unicode="&#x633;" horiz-adv-x="1067" 
d="M1007 309.5q18 -67.5 18 -119.5q0 -86 -50 -138t-133 -52q-34 0 -65 13.5t-52 35.5q-19 -23 -48.5 -36t-64.5 -13q-26 0 -50 9q-11 -94 -80 -151.5t-181 -57.5q-79 0 -139 28.5t-93 80.5t-33 122q0 59 21 119.5t60 111.5l71 -40q-43 -77 -43 -148q0 -63 42.5 -99.5
t116.5 -36.5q73 0 117 27.5t44 71.5q0 36 -19 96t-50 123l100 46q33 -65 55 -157q20 -20 56 -20q31 0 48.5 14.5t25.5 44.5q10 42 20 126l89 -11q-13 -102 -13 -120q0 -23 20.5 -38.5t51.5 -15.5q33 0 56 15.5t23 37.5q0 34 -19.5 91.5t-47.5 104.5l102 49q26 -46 44 -113.5
z" />
    <glyph glyph-name="uni0634" unicode="&#x634;" horiz-adv-x="1066" 
d="M1007 309.5q18 -67.5 18 -119.5q0 -86 -50 -138t-133 -52q-34 0 -65 13.5t-52 35.5q-19 -23 -48.5 -36t-64.5 -13q-26 0 -50 9q-11 -94 -80 -151.5t-181 -57.5q-79 0 -139 28.5t-93 80.5t-33 122q0 59 21 119.5t60 111.5l71 -40q-43 -77 -43 -148q0 -63 42.5 -99.5
t116.5 -36.5q73 0 117 27.5t44 71.5q0 36 -19 96t-50 123l100 46q33 -65 55 -157q20 -20 56 -20q31 0 48.5 14.5t25.5 44.5q10 42 20 126l89 -11q-13 -102 -13 -120q0 -23 20.5 -38.5t51.5 -15.5q33 0 56 15.5t23 37.5q0 34 -19.5 91.5t-47.5 104.5l102 49q26 -46 44 -113.5
zM708 552l-80 80l80 80l79 -80zM772 396l-63 64l-63 -64l-80 81l80 80l63 -63l63 63l80 -80z" />
    <glyph glyph-name="uni0635" unicode="&#x635;" horiz-adv-x="1129" 
d="M997 392.5q42 -28.5 66 -78.5t24 -110q0 -103 -80.5 -157.5t-231.5 -54.5q-132 0 -211 58v-8q0 -70 -31.5 -125t-91 -86t-140.5 -31q-79 0 -139 28.5t-93 80.5t-33 122q0 59 21 119.5t60 111.5l71 -40q-43 -77 -43 -148q0 -63 42.5 -99.5t116.5 -36.5q73 0 117 27.5
t44 71.5q0 36 -19 96t-50 123l100 46q30 -57 59 -91.5t71 -54.5q61 127 133 196t145 69q51 0 93 -28.5zM939 148q50 21 50 60q0 33 -25.5 60.5t-62.5 27.5q-46 0 -93.5 -43t-89.5 -122q31 -4 78 -4q93 0 143 21z" />
    <glyph glyph-name="uni0636" unicode="&#x636;" horiz-adv-x="1129" 
d="M997 392.5q42 -28.5 66 -78.5t24 -110q0 -103 -80.5 -157.5t-231.5 -54.5q-132 0 -211 58v-8q0 -70 -31.5 -125t-91 -86t-140.5 -31q-79 0 -139 28.5t-93 80.5t-33 122q0 59 21 119.5t60 111.5l71 -40q-43 -77 -43 -148q0 -63 42.5 -99.5t116.5 -36.5q73 0 117 27.5
t44 71.5q0 36 -19 96t-50 123l100 46q30 -57 59 -91.5t71 -54.5q61 127 133 196t145 69q51 0 93 -28.5zM939 148q50 21 50 60q0 33 -25.5 60.5t-62.5 27.5q-46 0 -93.5 -43t-89.5 -122q31 -4 78 -4q93 0 143 21zM804 559l80 79l80 -79l-80 -80z" />
    <glyph glyph-name="uni0637" unicode="&#x637;" horiz-adv-x="656" 
d="M526 392.5q41 -28.5 64.5 -78.5t23.5 -110q0 -102 -80.5 -156.5t-233.5 -54.5q-69 0 -139 1t-108 6l-13 139q48 -6 108 -6l-17 542h111l-9 -404q44 72 97.5 111t104.5 39q50 0 91 -28.5zM516 207q0 36 -24.5 62.5t-58.5 26.5q-47 0 -97 -43.5t-91 -123.5q48 -2 77 -2
q194 0 194 80z" />
    <glyph glyph-name="uni0638" unicode="&#x638;" horiz-adv-x="650" 
d="M526 392.5q41 -28.5 64.5 -78.5t23.5 -110q0 -102 -80.5 -156.5t-233.5 -54.5q-69 0 -139 1t-108 6l-13 139q48 -6 108 -6l-17 542h111l-9 -404q44 72 97.5 111t104.5 39q50 0 91 -28.5zM516 207q0 36 -24.5 62.5t-58.5 26.5q-47 0 -97 -43.5t-91 -123.5q48 -2 77 -2
q194 0 194 80zM354 554l80 79l80 -79l-80 -80z" />
    <glyph glyph-name="uni0639" unicode="&#x639;" horiz-adv-x="504" 
d="M527 -193q-45 -48 -110 -77.5t-139 -29.5q-77 0 -134.5 27t-88.5 76.5t-31 115.5q0 71 35 129.5t102 99.5q-39 23 -59.5 60.5t-20.5 85.5q0 50 24 92t65 66.5t90 24.5q54 0 93 -32.5t58 -92.5l-74 -35q-10 18 -29.5 29t-43.5 11q-38 0 -63 -19.5t-25 -49.5q0 -71 125 -84
q56 14 120 18l12 -118q-145 -11 -222.5 -52.5t-77.5 -109.5q0 -50 43 -78.5t117 -28.5q51 0 99.5 14t86.5 39z" />
    <glyph glyph-name="uni063A" unicode="&#x63a;" horiz-adv-x="503" 
d="M527 -193q-45 -48 -110 -77.5t-139 -29.5q-77 0 -134.5 27t-88.5 76.5t-31 115.5q0 71 35 129.5t102 99.5q-39 23 -59.5 60.5t-20.5 85.5q0 50 24 92t65 66.5t90 24.5q54 0 93 -32.5t58 -92.5l-74 -35q-10 18 -29.5 29t-43.5 11q-38 0 -63 -19.5t-25 -49.5q0 -71 125 -84
q56 14 120 18l12 -118q-145 -11 -222.5 -52.5t-77.5 -109.5q0 -50 43 -78.5t117 -28.5q51 0 99.5 14t86.5 39zM176 612l80 79l80 -79l-80 -80z" />
    <glyph glyph-name="uni0640" unicode="&#x640;" horiz-adv-x="211" 
d="M-16 10v115l16 10h211l16 -10v-115l-16 -10h-211z" />
    <glyph glyph-name="uni0641" unicode="&#x641;" horiz-adv-x="766" 
d="M676 455.5q45 -83.5 45 -229.5q0 -94 -37 -144.5t-110 -70t-195 -19.5q-121 0 -195.5 20t-109 63t-34.5 112q0 43 14.5 97.5t38.5 101.5l76 -22q-21 -68 -21 -118q0 -45 22.5 -71.5t73 -39t135.5 -12.5q123 0 187.5 12t64.5 39v52q-40 -31 -96 -31q-69 0 -107 40t-38 110
q0 53 21 97.5t57 70.5t79 26q84 0 129 -83.5zM546 300q49 0 79 19q-8 52 -28.5 80.5t-52.5 28.5q-29 0 -48.5 -22.5t-19.5 -51.5q0 -54 70 -54zM467 672l80 79l80 -79l-80 -80z" />
    <glyph glyph-name="uni0642" unicode="&#x642;" horiz-adv-x="646" 
d="M558 301q46 -92 46 -272q0 -111 -75 -170t-216 -59q-84 0 -146.5 28t-96.5 80.5t-34 122.5q0 59 21 119.5t60 111.5l70 -38q-42 -79 -42 -150q0 -65 45 -102t126 -37q84 0 141.5 17.5t57.5 45.5v54v15q-20 -15 -46 -24t-54 -9q-69 0 -110 44.5t-41 119.5q0 53 20 97.5
t57 71t85 26.5q86 0 132 -92zM508 162q-18 122 -87 122q-36 0 -55.5 -23t-19.5 -59q0 -30 21 -46.5t56 -16.5q49 0 85 23zM487 451l-63 63l-63 -63l-80 80l80 79l63 -62l63 62l80 -79z" />
    <glyph glyph-name="uni0643" unicode="&#x643;" horiz-adv-x="710" 
d="M114.5 39.5q-73.5 47.5 -73.5 147.5q0 46 16.5 100.5t43.5 98.5l75 -29q-13 -30 -20.5 -62t-7.5 -55q0 -59 47 -85.5t146 -26.5q65 0 111.5 7.5t70.5 19t23 23.5l-6 497h111l-6 -509q-1 -86 -80 -130t-224 -44q-153 0 -226.5 47.5zM271 352q41 4 69 11t28 14q0 2 -5 5
t-17 8l-13 5q-18 8 -26 20t-8 30q0 31 36.5 54.5t93.5 26.5l2 -57q-29 -2 -48.5 -8.5t-19.5 -13.5q0 -5 25 -17l14 -7q36 -14 36 -41q0 -32 -43.5 -57.5t-109.5 -29.5z" />
    <glyph glyph-name="uni0644" unicode="&#x644;" horiz-adv-x="623" 
d="M106.5 -138q-70.5 62 -70.5 169q0 59 21 119.5t60 111.5l71 -40q-43 -76 -43 -148q0 -66 41 -102.5t115 -36.5q71 0 115 28.5t44 72.5l-7 639h111l-6 -645q0 -67 -32.5 -119t-91 -81.5t-136.5 -29.5q-121 0 -191.5 62z" />
    <glyph glyph-name="uni0645" unicode="&#x645;" horiz-adv-x="519" 
d="M389.5 368.5q41.5 -27.5 64.5 -74.5t23 -102q0 -175 -171 -197l-100 -12q-29 -4 -41 -9t-16.5 -17.5t-4.5 -40.5l-1 -292h-97l-9 339q-1 63 23.5 92.5t89.5 40.5q-39 49 -39 117q0 48 23.5 90.5t66 67.5t94.5 25q53 0 94.5 -27.5zM380 187q0 33 -22 60t-61 27
q-40 0 -63.5 -22.5t-23.5 -56.5q0 -21 11.5 -43.5t33.5 -41.5l67 9q58 7 58 68z" />
    <glyph glyph-name="uni0646" unicode="&#x646;" horiz-adv-x="606" 
d="M162 -171.5q-60 28.5 -93 80.5t-33 122q0 59 21 119.5t60 111.5l71 -40q-43 -77 -43 -148q0 -63 42.5 -99.5t116.5 -36.5q73 0 117 27.5t44 71.5q0 36 -19 96t-50 123l100 46q29 -57 48.5 -131t19.5 -129q0 -70 -31.5 -125t-91 -86t-140.5 -31q-79 0 -139 28.5zM218 393
l80 79l80 -79l-80 -80z" />
    <glyph glyph-name="uni0647" unicode="&#x647;" horiz-adv-x="452" 
d="M90 40q-48 47 -48 134q0 67 26 125t68.5 92t89.5 34q48 0 90.5 -34t68 -92.5t25.5 -127.5q0 -86 -48 -132t-136 -46t-136 47zM293.5 140.5q28.5 17.5 28.5 41.5q0 49 -27 78.5t-69 29.5q-38 0 -67 -27t-29 -69q0 -33 26.5 -52t69.5 -19q39 0 67.5 17.5z" />
    <glyph glyph-name="uni0648" unicode="&#x648;" horiz-adv-x="429" 
d="M341 317.5q46 -75.5 46 -200.5q0 -87 -26.5 -159t-79 -115t-126.5 -43q-43 0 -82.5 19t-59.5 48l34 77q49 -21 97 -21q61 0 101 33t51 92q-36 -33 -95 -33q-72 0 -110.5 47.5t-38.5 126.5q0 54 20 101t56.5 75t84.5 28q82 0 128 -75.5zM157 142.5q20 -17.5 56 -17.5
q23 0 46 5.5t39 15.5q-6 66 -27 96.5t-61 30.5q-35 0 -54 -23.5t-19 -57.5q0 -32 20 -49.5z" />
    <glyph glyph-name="uni0649" unicode="&#x649;" horiz-adv-x="677" 
d="M161.5 -172q-59.5 28 -92.5 79.5t-33 118.5q0 64 21 124t60 112l71 -40q-43 -77 -43 -148q0 -65 44.5 -102t123.5 -37q48 0 97.5 13.5t81.5 35.5t32 44q0 11 -13.5 19t-44.5 18l-56 18q-60 19 -88 52t-28 82q0 51 26 97t69 73.5t90 27.5q64 0 104 -41t46 -113l-77 -10
q-5 25 -22 38.5t-46 13.5q-35 0 -62.5 -20t-27.5 -45q0 -17 15.5 -26.5t63.5 -24.5l57 -18q56 -18 80.5 -46t24.5 -72q0 -65 -47.5 -123t-125.5 -93t-165 -35q-76 0 -135.5 28z" />
    <glyph glyph-name="uni064A" unicode="&#x64a;" horiz-adv-x="677" 
d="M161.5 -172q-59.5 28 -92.5 79.5t-33 118.5q0 64 21 124t60 112l71 -40q-43 -77 -43 -148q0 -65 44.5 -102t123.5 -37q48 0 97.5 13.5t81.5 35.5t32 44q0 11 -13.5 19t-44.5 18l-56 18q-60 19 -88 52t-28 82q0 51 26 97t69 73.5t90 27.5q64 0 104 -41t46 -113l-77 -10
q-5 25 -22 38.5t-46 13.5q-35 0 -62.5 -20t-27.5 -45q0 -17 15.5 -26.5t63.5 -24.5l57 -18q56 -18 80.5 -46t24.5 -72q0 -65 -47.5 -123t-125.5 -93t-165 -35q-76 0 -135.5 28zM370 -412l-67 67l-67 -67l-79 80l79 80l67 -67l67 67l79 -80z" />
    <glyph glyph-name="uni064B" unicode="&#x64b;" horiz-adv-x="0" 
d="M183 674q106 30 208 72l4 -49q-99 -41 -208 -72zM194 590q106 30 208 72l4 -49q-99 -41 -208 -72z" />
    <glyph glyph-name="uni064C" unicode="&#x64c;" horiz-adv-x="0" 
d="M367.5 710q18.5 -22 18.5 -56q0 -50 -38.5 -81t-96.5 -31q-21 0 -33 3l-19 44q12 12 12 25q0 20 -22 20q-18 0 -35 -16l-18 25q12 16 28 24.5t32 8.5q23 0 37.5 -14.5t14.5 -37.5q0 -21 -12 -38q8 -2 14 -2q45 0 71 19q-29 6 -45.5 22t-16.5 41q0 28 17.5 47t44.5 19
q28 0 46.5 -22zM311 645.5q14 -7.5 34 -9.5q2 10 2 16q0 16 -8 26.5t-21 10.5q-9 0 -15 -5.5t-6 -16.5q0 -14 14 -21.5z" />
    <glyph glyph-name="uni064D" unicode="&#x64d;" horiz-adv-x="0" 
d="M193 -120q106 30 208 72l4 -49q-99 -41 -208 -72zM204 -204q106 30 208 72l4 -49q-99 -41 -208 -72z" />
    <glyph glyph-name="uni064E" unicode="&#x64e;" horiz-adv-x="0" 
d="M194 590q106 30 208 72l4 -49q-99 -41 -208 -72z" />
    <glyph glyph-name="uni064F" unicode="&#x64f;" horiz-adv-x="0" 
d="M366.5 710q18.5 -22 18.5 -56q0 -51 -38.5 -81.5t-91.5 -30.5q-23 0 -44 5l3 42q21 -3 40 -3q43 0 67 18q-31 5 -46.5 22t-15.5 41q0 27 17.5 46t43.5 19q28 0 46.5 -22zM307.5 646.5q11.5 -8.5 36.5 -10.5q2 10 2 16q0 16 -7.5 26.5t-20.5 10.5q-9 0 -15.5 -5.5
t-6.5 -16.5q0 -12 11.5 -20.5z" />
    <glyph glyph-name="uni0650" unicode="&#x650;" horiz-adv-x="0" 
d="M194 -118q106 30 208 72l4 -49q-99 -41 -208 -72z" />
    <glyph glyph-name="uni0651" unicode="&#x651;" horiz-adv-x="0" 
d="M407 609q0 -30 -17 -48.5t-48 -18.5q-15 0 -28 6t-20 17q-21 -23 -51 -23q-27 0 -43.5 18.5t-16.5 45.5q0 20 9 42.5t24 38.5l29 -15q-22 -30 -22 -54q0 -12 7.5 -18t19.5 -6q11 0 17.5 5t8.5 20l6 50l36 -4l-5 -43q-3 -28 30 -28q26 0 26 20q0 31 -26 67l35 17
q29 -43 29 -89z" />
    <glyph glyph-name="uni0652" unicode="&#x652;" horiz-adv-x="0" 
d="M250.5 560q-20.5 18 -20.5 43q0 34 20.5 60t49.5 26t49.5 -26t20.5 -60q0 -25 -20.5 -43t-49.5 -18t-49.5 18zM322.5 593q9.5 6 9.5 16q0 14 -9.5 24t-22.5 10t-22.5 -10t-9.5 -24q0 -10 9.5 -16t22.5 -6t22.5 6z" />
    <glyph glyph-name="uni0653" unicode="&#x653;" horiz-adv-x="0" 
d="M430 612q-12 -34 -32.5 -52t-47.5 -18q-19 0 -51 13q-34 14 -50 14q-13 0 -24 -8t-22 -26l-32 21q11 34 31.5 52t47.5 18q19 0 51 -13q36 -15 50 -15q13 0 23.5 8.5t22.5 26.5z" />
    <glyph glyph-name="uni0654" unicode="&#x654;" horiz-adv-x="0" 
d="M381 555l-167 -31l-9 45l42 10q-31 20 -31 60q0 33 22.5 56.5t53.5 23.5q22 0 40 -13t28 -38l-28 -18q-14 16 -35 16q-17 0 -27 -7t-10 -21q0 -37 73 -40l39 9z" />
    <glyph glyph-name="uni0655" unicode="&#x655;" horiz-adv-x="0" 
d="M395 -212l-167 -31l-9 45l42 10q-31 20 -31 60q0 33 22.5 56.5t53.5 23.5q22 0 40 -13t28 -38l-28 -18q-14 16 -35 16q-17 0 -27 -7t-10 -21q0 -37 73 -40l39 9z" />
    <glyph glyph-name="uni0656" unicode="&#x656;" horiz-adv-x="0" 
d="M283 -215q0 91 -7 151l45 9q3 -27 3 -62q0 -53 -8 -98h-33z" />
    <glyph glyph-name="uni0660" unicode="&#x660;" horiz-adv-x="259" 
d="M38 185l92 91l92 -91l-92 -92z" />
    <glyph glyph-name="uni0661" unicode="&#x661;" horiz-adv-x="260" 
d="M85 295.5q-23 151.5 -62 279.5l117 35q31 -95 51 -246t20 -274q0 -53 -4 -90h-96q-3 144 -26 295.5z" />
    <glyph glyph-name="uni0662" unicode="&#x662;" horiz-adv-x="455" 
d="M418 607l-12 -124q-55 7 -130 7q-59 0 -112 -5q21 -92 32.5 -189.5t11.5 -180.5q0 -64 -6 -115h-94q-2 141 -25 290.5t-60 275.5l73 39q77 13 168 13q79 0 154 -11z" />
    <glyph glyph-name="uni0663" unicode="&#x663;" horiz-adv-x="574" 
d="M532.5 552q5.5 -41 5.5 -75q0 -83 -35.5 -129.5t-99.5 -46.5q-56 0 -87 36q-30 -36 -76 -36q-25 0 -44 10q13 -106 13 -196q0 -67 -6 -115h-92q-3 142 -26 293t-62 282l111 35l29 -107q11 -42 23 -61t36 -19q23 0 35 12t13 34l4 90l74 -1l-1 -90q0 -22 12.5 -33.5
t34.5 -11.5q25 0 39 12t14 34q0 45 -22 136l92 20q10 -32 15.5 -73z" />
    <glyph glyph-name="uni0664" unicode="&#x664;" horiz-adv-x="467" 
d="M407 4q-70 -12 -132 -12q-110 0 -168 39t-58 113q0 45 26.5 84t71.5 64q-49 13 -74.5 43t-25.5 74q0 49 41.5 94t112.5 75.5t156 39.5l6 -121q-54 -6 -101.5 -20.5t-76 -33t-28.5 -36.5q0 -21 33 -34t87 -13q48 0 63 3l4 -104q-84 -8 -132 -32.5t-48 -58.5q0 -25 35 -39
t98 -14q55 0 102 10z" />
    <glyph glyph-name="uni0665" unicode="&#x665;" horiz-adv-x="551" 
d="M104.5 49.5q-63.5 57.5 -63.5 160.5q0 89 32 164.5t86 120t116 44.5t116 -44.5t86.5 -120t32.5 -164.5q0 -104 -63.5 -161t-171.5 -57q-107 0 -170.5 57.5zM368.5 151.5q37.5 28.5 37.5 75.5t-18.5 89t-48.5 67t-64 25q-33 0 -63 -25.5t-48.5 -67.5t-18.5 -88
q0 -49 36.5 -76.5t93.5 -27.5q56 0 93.5 28.5z" />
    <glyph glyph-name="uni0666" unicode="&#x666;" horiz-adv-x="470" 
d="M440 15l-121 -23q-19 87 -28.5 201.5t-9.5 221.5v60q-40 -8 -115 -8q-42 0 -83 5.5t-68 13.5l14 124q68 -16 161 -16q88 0 197 16q-2 -38 -2 -87q0 -280 55 -508z" />
    <glyph glyph-name="uni0667" unicode="&#x667;" horiz-adv-x="541" 
d="M513 578q-34 -88 -88 -242.5t-113 -335.5h-95q-58 186 -104 319t-97 258l118 40q27 -72 65 -195.5t68 -236.5q56 211 130 432z" />
    <glyph glyph-name="uni0668" unicode="&#x668;" horiz-adv-x="541" 
d="M395 -8q-28 73 -66 198.5t-67 235.5q-62 -236 -130 -434l-116 39q34 88 88 242.5t113 335.5h95q59 -193 104.5 -324t96.5 -253z" />
    <glyph glyph-name="uni0669" unicode="&#x669;" horiz-adv-x="492" 
d="M347 -8q-20 99 -33 262q-22 -17 -51.5 -27t-62.5 -10q-78 0 -125.5 50.5t-47.5 133.5q0 62 24.5 111.5t67 77.5t95.5 28q61 0 100 -28t62.5 -90t36.5 -167q25 -196 55 -318zM147.5 349.5q23.5 -20.5 64.5 -20.5q27 0 52.5 7.5t40.5 19.5q-8 77 -29.5 110.5t-63.5 33.5
q-38 0 -63 -27.5t-25 -67.5q0 -35 23.5 -55.5z" />
    <glyph glyph-name="uni066A" unicode="&#x66a;" horiz-adv-x="688" 
d="M464 724h105l-354 -736h-107zM458 185l92 91l92 -91l-92 -92zM47 505l92 91l92 -91l-92 -92z" />
    <glyph glyph-name="uni066D" unicode="&#x66d;" horiz-adv-x="466" 
d="M401 654l17 -55l-114 -57l76 -116l-44 -34l-102 96l-101 -99l-44 36l75 116l-116 57l17 55l121 -27l22 129h54l19 -131z" />
    <glyph glyph-name="uni066E" unicode="&#x66e;" horiz-adv-x="766" 
d="M185 12q-76 20 -110.5 62.5t-34.5 112.5q0 43 14.5 97.5t38.5 101.5l76 -22q-21 -68 -21 -118q0 -45 22.5 -70t74 -35.5t143.5 -10.5q101 0 169 16t68 39q0 32 -16 86.5t-39 102.5l100 44q24 -50 39 -117t15 -120q0 -98 -80.5 -143.5t-255.5 -45.5q-127 0 -203 20z" />
    <glyph glyph-name="uni066F" unicode="&#x66f;" horiz-adv-x="646" 
d="M558 301q46 -92 46 -272q0 -111 -75 -170t-216 -59q-84 0 -146.5 28t-96.5 80.5t-34 122.5q0 59 21 119.5t60 111.5l70 -38q-42 -79 -42 -150q0 -65 45 -102t126 -37q84 0 141.5 17.5t57.5 45.5v54v15q-20 -15 -46 -24t-54 -9q-69 0 -110 44.5t-41 119.5q0 53 20 97.5
t57 71t85 26.5q86 0 132 -92zM508 162q-18 122 -87 122q-36 0 -55.5 -23t-19.5 -59q0 -30 21 -46.5t56 -16.5q49 0 85 23z" />
    <glyph glyph-name="uni0670" unicode="&#x670;" horiz-adv-x="0" 
d="M283 543q0 91 -7 151l45 9q3 -27 3 -62q0 -53 -8 -98h-33z" />
    <glyph glyph-name="uni0671" unicode="&#x671;" horiz-adv-x="229" 
d="M59 675h111l-7 -675h-97zM214 870.5q20 -24.5 20 -59.5q0 -42 -28 -61.5t-87 -19.5q-62 0 -103 6l-5 54q24 -4 48 -5q50 110 107 110q28 0 48 -24.5zM175.5 789q17.5 7 17.5 23q0 13 -8 21t-21 8q-32 0 -63 -59h21q36 0 53.5 7z" />
    <glyph glyph-name="uni067E" unicode="&#x67e;" horiz-adv-x="766" 
d="M185 12q-76 20 -110.5 62.5t-34.5 112.5q0 43 14.5 97.5t38.5 101.5l76 -22q-21 -68 -21 -118q0 -45 22.5 -70t74 -35.5t143.5 -10.5q101 0 169 16t68 39q0 32 -16 86.5t-39 102.5l100 44q24 -50 39 -117t15 -120q0 -98 -80.5 -143.5t-255.5 -45.5q-127 0 -203 20z
M319 -226l-79 80l79 80l67 -67l67 67l79 -80l-79 -80l-67 67zM385 -219l79 -80l-79 -80l-80 80z" />
    <glyph glyph-name="uni0686" unicode="&#x686;" horiz-adv-x="567" 
d="M590 -193q-49 -52 -114.5 -79.5t-142.5 -27.5q-82 0 -144.5 30t-97 84t-34.5 125q0 102 77.5 183.5t212.5 129.5l-42 9q-83 19 -109 19q-21 0 -36 -10t-26 -34l-77 35q39 129 136 129q27 0 67.5 -8.5t110.5 -28.5q62 -17 90 -23t51 -6h20v-123q-157 -31 -260 -94.5
t-103 -151.5q0 -59 50 -94t134 -35q109 0 190 52zM329 -17l-53 53l53 53l38 -38l37 38l53 -53l-53 -53l-37 38zM366 -14l52 -51l-52 -51l-51 51z" />
    <glyph glyph-name="uni0698" unicode="&#x698;" horiz-adv-x="388" 
d="M14 -181.5q-39 18.5 -62 48.5l39 88q45 -20 87 -20q41 0 80.5 25.5t64 67.5t24.5 90q0 26 -27.5 84.5t-66.5 118.5l101 56q44 -59 69 -130.5t25 -136.5q0 -81 -36.5 -153t-94.5 -114.5t-119 -42.5q-45 0 -84 18.5zM203 571l-80 80l80 80l79 -80zM267 415l-63 64l-63 -64
l-80 81l80 80l63 -63l63 63l80 -80z" />
    <glyph glyph-name="uni06A1" unicode="&#x6a1;" horiz-adv-x="763" 
d="M676 455.5q45 -83.5 45 -229.5q0 -94 -37 -144.5t-110 -70t-195 -19.5q-121 0 -195.5 20t-109 63t-34.5 112q0 43 14.5 97.5t38.5 101.5l76 -22q-21 -68 -21 -118q0 -45 22.5 -71.5t73 -39t135.5 -12.5q123 0 187.5 12t64.5 39v52q-40 -31 -96 -31q-69 0 -107 40t-38 110
q0 53 21 97.5t57 70.5t79 26q84 0 129 -83.5zM546 300q49 0 79 19q-8 52 -28.5 80.5t-52.5 28.5q-29 0 -48.5 -22.5t-19.5 -51.5q0 -54 70 -54z" />
    <glyph glyph-name="uni06A4" unicode="&#x6a4;" horiz-adv-x="766" 
d="M676 455.5q45 -83.5 45 -229.5q0 -94 -37 -144.5t-110 -70t-195 -19.5q-121 0 -195.5 20t-109 63t-34.5 112q0 43 14.5 97.5t38.5 101.5l76 -22q-21 -68 -21 -118q0 -45 22.5 -71.5t73 -39t135.5 -12.5q123 0 187.5 12t64.5 39v52q-40 -31 -96 -31q-69 0 -107 40t-38 110
q0 53 21 97.5t57 70.5t79 26q84 0 129 -83.5zM546 300q49 0 79 19q-8 52 -28.5 80.5t-52.5 28.5q-29 0 -48.5 -22.5t-19.5 -51.5q0 -54 70 -54zM546 743l-80 80l80 80l79 -80zM610 587l-63 64l-63 -64l-80 81l80 80l63 -63l63 63l80 -80z" />
    <glyph glyph-name="uni06A9" unicode="&#x6a9;" horiz-adv-x="728" 
d="M579 292q42 -68 42 -134q0 -79 -78.5 -121t-224.5 -42q-278 0 -278 194q0 43 14.5 97t38.5 102l76 -22q-22 -78 -22 -124q0 -55 43.5 -83.5t127.5 -28.5q49 0 94 6.5t73 17t28 22.5q0 36 -50 96t-129 117l16 101q171 96 346 167l20 -112q-79 -32 -134.5 -57t-125.5 -60
q81 -68 123 -136z" />
    <glyph glyph-name="uni06AF" unicode="&#x6af;" horiz-adv-x="729" 
d="M579 292q42 -68 42 -134q0 -79 -78.5 -121t-224.5 -42q-278 0 -278 194q0 43 14.5 97t38.5 102l76 -22q-22 -78 -22 -124q0 -55 43.5 -83.5t127.5 -28.5q49 0 94 6.5t73 17t28 22.5q0 36 -50 96t-129 117l16 101q171 96 346 167l20 -112q-79 -32 -134.5 -57t-125.5 -60
q81 -68 123 -136zM378 632q76 35 246 111l10 -50q-82 -36 -246 -112z" />
    <glyph glyph-name="uni06BA" unicode="&#x6ba;" horiz-adv-x="606" 
d="M162 -171.5q-60 28.5 -93 80.5t-33 122q0 59 21 119.5t60 111.5l71 -40q-43 -77 -43 -148q0 -63 42.5 -99.5t116.5 -36.5q73 0 117 27.5t44 71.5q0 36 -19 96t-50 123l100 46q29 -57 48.5 -131t19.5 -129q0 -70 -31.5 -125t-91 -86t-140.5 -31q-79 0 -139 28.5z" />
    <glyph glyph-name="uni06CC" unicode="&#x6cc;" horiz-adv-x="677" 
d="M161.5 -172q-59.5 28 -92.5 79.5t-33 118.5q0 64 21 124t60 112l71 -40q-43 -77 -43 -148q0 -65 44.5 -102t123.5 -37q48 0 97.5 13.5t81.5 35.5t32 44q0 11 -13.5 19t-44.5 18l-56 18q-60 19 -88 52t-28 82q0 51 26 97t69 73.5t90 27.5q64 0 104 -41t46 -113l-77 -10
q-5 25 -22 38.5t-46 13.5q-35 0 -62.5 -20t-27.5 -45q0 -17 15.5 -26.5t63.5 -24.5l57 -18q56 -18 80.5 -46t24.5 -72q0 -65 -47.5 -123t-125.5 -93t-165 -35q-76 0 -135.5 28z" />
    <glyph glyph-name="uni06F0" unicode="&#x6f0;" horiz-adv-x="259" 
d="M38 185l92 91l92 -91l-92 -92z" />
    <glyph glyph-name="uni06F1" unicode="&#x6f1;" horiz-adv-x="260" 
d="M85 295.5q-23 151.5 -62 279.5l117 35q31 -95 51 -246t20 -274q0 -53 -4 -90h-96q-3 144 -26 295.5z" />
    <glyph glyph-name="uni06F2" unicode="&#x6f2;" horiz-adv-x="455" 
d="M418 607l-12 -124q-55 7 -130 7q-59 0 -112 -5q21 -92 32.5 -189.5t11.5 -180.5q0 -64 -6 -115h-94q-2 141 -25 290.5t-60 275.5l73 39q77 13 168 13q79 0 154 -11z" />
    <glyph glyph-name="uni06F3" unicode="&#x6f3;" horiz-adv-x="574" 
d="M532.5 552q5.5 -41 5.5 -75q0 -83 -35.5 -129.5t-99.5 -46.5q-56 0 -87 36q-30 -36 -76 -36q-25 0 -44 10q13 -106 13 -196q0 -67 -6 -115h-92q-3 142 -26 293t-62 282l111 35l29 -107q11 -42 23 -61t36 -19q23 0 35 12t13 34l4 90l74 -1l-1 -90q0 -22 12.5 -33.5
t34.5 -11.5q25 0 39 12t14 34q0 45 -22 136l92 20q10 -32 15.5 -73z" />
    <glyph glyph-name="uni06F4" unicode="&#x6f4;" 
d="M423.5 290.5q-58.5 -9.5 -118.5 -9.5q-55 0 -108 5q9 -88 9 -171q0 -77 -6 -115h-93q-3 144 -26 295.5t-62 279.5l117 35q29 -88 48 -215q43 -4 103 -6q-26 34 -26 79q0 42 19 76t51 53.5t70 19.5q30 0 58 -13.5t50 -38.5l-36 -64q-27 18 -61 18q-31 0 -50.5 -15
t-19.5 -38q0 -27 27.5 -42.5t78.5 -20.5q39 8 64 16l17 -102q-47 -17 -105.5 -26.5z" />
    <glyph glyph-name="uni06F5" unicode="&#x6f5;" horiz-adv-x="551" 
d="M390.5 491.5q54.5 -47.5 87 -126.5t32.5 -168q0 -94 -39 -150t-104 -56q-32 0 -57 16t-38 44q-14 -27 -39.5 -43.5t-56.5 -16.5q-62 0 -98.5 55.5t-36.5 149.5q0 89 33 168.5t87 127t115 47.5q60 0 114.5 -47.5zM408 216q0 50 -18.5 94.5t-49 71t-64.5 26.5
q-35 0 -65.5 -26.5t-49 -71t-18.5 -95.5q0 -44 14 -69t39 -25q21 0 32.5 13t16.5 44l7 50l58 -5l-4 -48q-1 -27 10.5 -40.5t33.5 -13.5q58 0 58 95z" />
    <glyph glyph-name="uni06F6" unicode="&#x6f6;" horiz-adv-x="464" 
d="M408 279q-95 -23 -167 -97.5t-107 -191.5l-102 19q39 178 149 280q-48 22 -74 60.5t-26 88.5t23.5 91t62.5 64.5t83 23.5q37 0 72 -16t62 -47l-43 -67q-34 21 -75 21q-35 0 -59.5 -20t-24.5 -50q0 -32 31 -50t91 -21q44 19 97 27z" />
    <glyph glyph-name="uni06F7" unicode="&#x6f7;" horiz-adv-x="541" 
d="M513 578q-34 -88 -88 -242.5t-113 -335.5h-95q-58 186 -104 319t-97 258l118 40q27 -72 65 -195.5t68 -236.5q56 211 130 432z" />
    <glyph glyph-name="uni06F8" unicode="&#x6f8;" horiz-adv-x="541" 
d="M395 -8q-28 73 -66 198.5t-67 235.5q-62 -236 -130 -434l-116 39q34 88 88 242.5t113 335.5h95q59 -193 104.5 -324t96.5 -253z" />
    <glyph glyph-name="uni06F9" unicode="&#x6f9;" horiz-adv-x="492" 
d="M347 -8q-20 99 -33 262q-22 -17 -51.5 -27t-62.5 -10q-78 0 -125.5 50.5t-47.5 133.5q0 62 24.5 111.5t67 77.5t95.5 28q61 0 100 -28t62.5 -90t36.5 -167q25 -196 55 -318zM147.5 349.5q23.5 -20.5 64.5 -20.5q27 0 52.5 7.5t40.5 19.5q-8 77 -29.5 110.5t-63.5 33.5
q-38 0 -63 -27.5t-25 -67.5q0 -35 23.5 -55.5z" />
    <glyph glyph-name="Wgrave" unicode="&#x1e80;" horiz-adv-x="919" 
d="M463 557h-2l-141 -557h-149l-158 724h123l115 -594h2l147 594h127l150 -599h2l109 599h117l-153 -724h-149zM542 778l-95 137h-131l142 -148z" />
    <glyph glyph-name="wgrave" unicode="&#x1e81;" horiz-adv-x="781" 
d="M2 517h116l113 -398h1l104 398h116l104 -396h1l110 396h112l-158 -517h-132l-97 379h-2l-93 -379h-137zM395 746l88 -164l-80 -10l-138 174h130z" />
    <glyph glyph-name="Wacute" unicode="&#x1e82;" horiz-adv-x="919" 
d="M463 557h-2l-141 -557h-149l-158 724h123l115 -594h2l147 594h127l150 -599h2l109 599h117l-153 -724h-149zM384 778l96 137h130l-142 -148z" />
    <glyph glyph-name="wacute" unicode="&#x1e83;" horiz-adv-x="781" 
d="M2 517h116l113 -398h1l104 398h116l104 -396h1l110 396h112l-158 -517h-132l-97 379h-2l-93 -379h-137zM310 582l88 164h130l-138 -174z" />
    <glyph glyph-name="Wdieresis" unicode="&#x1e84;" horiz-adv-x="919" 
d="M463 557h-2l-141 -557h-149l-158 724h123l115 -594h2l147 594h127l150 -599h2l109 599h117l-153 -724h-149zM407 796.5q-20 -18.5 -53 -18.5t-53.5 18.5t-20.5 51.5q0 32 20.5 51t53.5 19t53 -19t20 -51q0 -33 -20 -51.5zM627 796.5q-20 -18.5 -53 -18.5q-34 0 -54 18.5
t-20 51.5q0 32 20 51t54 19q33 0 53 -19t20 -51q0 -33 -20 -51.5z" />
    <glyph glyph-name="wdieresis" unicode="&#x1e85;" horiz-adv-x="781" 
d="M2 517h116l113 -398h1l104 398h116l104 -396h1l110 396h112l-158 -517h-132l-97 379h-2l-93 -379h-137zM337 623q-20 -19 -53 -19t-53.5 19t-20.5 52q0 31 20.5 50.5t53.5 19.5q32 0 52.5 -19.5t20.5 -50.5q0 -33 -20 -52zM557 623q-20 -19 -53 -19q-34 0 -54 19t-20 52
q0 32 20 51t54 19q32 0 52.5 -19.5t20.5 -50.5q0 -33 -20 -52z" />
    <glyph glyph-name="uni1E9E" unicode="&#x1e9e;" horiz-adv-x="730" 
d="M636.5 375q57.5 -54 57.5 -153q0 -108 -56.5 -170.5t-166.5 -62.5q-84 0 -138 41t-65 131l100 19q8 -48 33 -73.5t71 -25.5q104 0 104 134q0 77 -37 105t-115 28h-57v80l139 181q-64 34 -142 34q-84 0 -129.5 -40.5t-45.5 -133.5v-469h-115v470q0 132 80 199.5t209 67.5
q83 0 154.5 -25.5t119.5 -81.5l-157 -201q99 0 156.5 -54z" />
    <glyph glyph-name="Ygrave" unicode="&#x1ef2;" horiz-adv-x="582" 
d="M238 0v277l-248 447h128l180 -336h2l174 336h118l-237 -445l1 -279h-118zM371 778l-95 137h-131l142 -148z" />
    <glyph glyph-name="ygrave" unicode="&#x1ef3;" horiz-adv-x="502" 
d="M127 517l127 -388h1l127 388h118q-94 -260 -216 -583q-32 -86 -72 -121.5t-108 -35.5q-28 0 -57.5 6t-46.5 14l11 86q18 -7 40.5 -11.5t40.5 -4.5q28 0 48.5 16.5t35.5 54.5l21 54l-194 525h124zM240 746l88 -164l-80 -10l-138 174h130z" />
    <glyph glyph-name="uni2009" unicode="&#x2009;" horiz-adv-x="125" 
 />
    <glyph glyph-name="endash" unicode="&#x2013;" horiz-adv-x="500" 
d="M0 325h499v-87h-499v87z" />
    <glyph glyph-name="emdash" unicode="&#x2014;" horiz-adv-x="1000" 
d="M0 325h999v-87h-999v87z" />
    <glyph glyph-name="quoteleft" unicode="&#x2018;" horiz-adv-x="215" 
d="M32 550l84 234l86 -10l-53 -224h-117z" />
    <glyph glyph-name="quoteright" unicode="&#x2019;" horiz-adv-x="215" 
d="M199 770l-84 -234l-86 10l53 224h117z" />
    <glyph glyph-name="quotesinglbase" unicode="&#x201a;" horiz-adv-x="202" 
d="M175 91l-84 -234l-86 10l53 224h117z" />
    <glyph glyph-name="quotedblleft" unicode="&#x201c;" horiz-adv-x="381" 
d="M198 550l84 234l86 -10l-53 -224h-117zM32 550l84 234l86 -10l-53 -224h-117z" />
    <glyph glyph-name="quotedblright" unicode="&#x201d;" horiz-adv-x="381" 
d="M365 770l-84 -234l-86 10l53 224h117zM199 770l-84 -234l-86 10l53 224h117z" />
    <glyph glyph-name="quotedblbase" unicode="&#x201e;" horiz-adv-x="368" 
d="M175 91l-84 -234l-86 10l53 224h117zM341 91l-84 -234l-86 10l53 224h117z" />
    <glyph glyph-name="dagger" unicode="&#x2020;" horiz-adv-x="419" 
d="M265 -83h-111l15 561l-149 -12v97l149 -13l-12 174h105l-13 -173l150 12v-97l-154 13z" />
    <glyph glyph-name="daggerdbl" unicode="&#x2021;" horiz-adv-x="431" 
d="M254 163l151 12v-97l-149 13l12 -174h-105l13 173l-150 -12v97l150 -11l-1 314l-149 -12v97l149 -13l-12 174h105l-13 -173l150 12v-97l-153 11z" />
    <glyph glyph-name="bullet" unicode="&#x2022;" horiz-adv-x="419" 
d="M315.5 175.5q-36.5 -35.5 -106.5 -35.5q-69 0 -105.5 35.5t-36.5 104.5t36.5 104t105.5 35q70 0 106.5 -35t36.5 -104t-36.5 -104.5z" />
    <glyph glyph-name="ellipsis" unicode="&#x2026;" horiz-adv-x="676" 
d="M336 -12q-78 0 -78 75q0 76 78 76q38 0 58 -19.5t20 -56.5q0 -75 -78 -75zM122 -12q-78 0 -78 75q0 76 78 76q38 0 58 -19.5t20 -56.5q0 -75 -78 -75zM554 -12q-78 0 -78 75q0 76 78 76q38 0 58 -19.5t20 -56.5q0 -75 -78 -75z" />
    <glyph glyph-name="perthousand" unicode="&#x2030;" horiz-adv-x="1032" 
d="M76 454.5q-34 42.5 -34 115.5q0 79 39.5 123t112.5 44q74 0 109.5 -41.5t35.5 -116.5q0 -78 -39.5 -122.5t-112.5 -44.5q-77 0 -111 42.5zM513 724h103l-438 -739h-104zM238.5 503q14.5 25 14.5 74q0 46 -13.5 69.5t-47.5 23.5q-63 0 -63 -95q0 -48 13.5 -72.5
t47.5 -24.5t48.5 25zM396 30.5q-34 42.5 -34 115.5q0 79 39.5 123t112.5 44q74 0 109.5 -41.5t35.5 -116.5q0 -78 -39.5 -122.5t-112.5 -44.5q-77 0 -111 42.5zM727 30.5q-34 42.5 -34 115.5q0 79 39.5 123t112.5 44q74 0 109.5 -41.5t35.5 -116.5q0 -78 -39.5 -122.5
t-112.5 -44.5q-77 0 -111 42.5zM558.5 79q14.5 25 14.5 74q0 46 -13.5 69.5t-47.5 23.5q-33 0 -48 -25.5t-15 -69.5q0 -48 14 -72.5t48 -24.5q33 0 47.5 25zM889.5 79q14.5 25 14.5 74q0 46 -13.5 69.5t-47.5 23.5q-33 0 -48 -25.5t-15 -69.5q0 -48 14 -72.5t48 -24.5
q33 0 47.5 25z" />
    <glyph glyph-name="guilsinglleft" unicode="&#x2039;" horiz-adv-x="279" 
d="M49 258l89 150h98l-86 -147l83 -158h-97z" />
    <glyph glyph-name="guilsinglright" unicode="&#x203a;" horiz-adv-x="279" 
d="M228 254l-87 -151h-98l84 151l-85 154h98z" />
    <glyph glyph-name="fraction" unicode="&#x2044;" horiz-adv-x="163" 
d="M201 724h105l-354 -736h-107z" />
    <glyph glyph-name="uni2070" unicode="&#x2070;" horiz-adv-x="416" 
d="M76.5 400q-39.5 58 -39.5 175q0 230 175 230q92 0 129.5 -56t37.5 -170q0 -120 -40.5 -178.5t-132.5 -58.5q-90 0 -129.5 58zM258.5 455q13.5 35 13.5 121q0 57 -5 88.5t-18.5 46.5t-38.5 15q-38 0 -51.5 -33.5t-13.5 -118.5t13 -119.5t50 -34.5t50.5 35z" />
    <glyph glyph-name="uni2074" unicode="&#x2074;" horiz-adv-x="404" 
d="M232 447h-208v70l183 280h125v-271h52v-79h-52v-98h-100v98zM233 709l-120 -183h120v183z" />
    <glyph glyph-name="uni2075" unicode="&#x2075;" horiz-adv-x="399" 
d="M321 797v-83h-176l-12 -106v-7q39 34 92 34q55 0 89.5 -34t34.5 -103q0 -73 -47 -114.5t-122 -41.5q-62 0 -104.5 27.5t-50.5 88.5l89 17q8 -57 65 -57q30 0 49 19.5t19 56.5q0 35 -17 51t-43 16q-34 0 -65 -27l-67 23l17 240h249z" />
    <glyph glyph-name="uni2076" unicode="&#x2076;" horiz-adv-x="421" 
d="M269.5 719q-12.5 12 -34.5 12q-41 0 -61.5 -40.5t-20.5 -109.5q16 18 43.5 30t60.5 12q55 0 88.5 -32t33.5 -95q0 -77 -44.5 -115.5t-117.5 -38.5q-90 0 -126 60t-36 160q0 98 42.5 170.5t144.5 72.5q114 0 135 -108l-90 -20q-5 30 -17.5 42zM172.5 444
q13.5 -27 48.5 -27q27 0 41.5 18.5t14.5 52.5q0 33 -12 50t-39 17q-19 0 -38 -10t-31 -23q2 -51 15.5 -78z" />
    <glyph glyph-name="uni2077" unicode="&#x2077;" horiz-adv-x="365" 
d="M235 714h-202v83h309v-75l-177 -373h-108z" />
    <glyph glyph-name="uni2078" unicode="&#x2078;" horiz-adv-x="403" 
d="M350 549q24 -27 24 -74q0 -36 -21.5 -66.5t-62 -48.5t-94.5 -18q-79 0 -122 32t-43 85q0 43 24.5 70t69.5 46q-37 14 -57 42t-20 65q0 58 45.5 90.5t114.5 32.5q72 0 112.5 -28t40.5 -76q0 -70 -82 -106q47 -19 71 -46zM255.5 653.5q13.5 17.5 13.5 37.5q0 22 -15.5 33.5
t-43.5 11.5q-27 0 -42 -12.5t-15 -33.5t17 -37t50 -30q22 13 35.5 30.5zM140.5 511.5q-13.5 -16.5 -13.5 -39.5q0 -26 18 -41.5t54 -15.5q31 0 49 14.5t18 38.5q0 27 -21.5 43.5t-63.5 31.5q-27 -15 -40.5 -31.5z" />
    <glyph glyph-name="uni2079" unicode="&#x2079;" horiz-adv-x="420" 
d="M151 430.5q14 -14.5 40 -14.5q79 0 81 144q-17 -16 -44.5 -27t-58.5 -11q-56 0 -90.5 33.5t-34.5 97.5q0 75 46 113.5t119 38.5q88 0 123.5 -59t35.5 -162q0 -102 -39 -172t-141 -70q-127 0 -147 109l90 24q6 -30 20 -44.5zM249 703q-12 28 -47 28q-27 0 -41 -19t-14 -53
t13 -52.5t40 -18.5q36 0 65 31q-4 56 -16 84z" />
    <glyph glyph-name="uni207A" unicode="&#x207a;" horiz-adv-x="439" 
d="M179 528h-87v76h87v86h80v-86h88v-76h-88v-89h-80v89z" />
    <glyph glyph-name="uni207B" unicode="&#x207b;" horiz-adv-x="439" 
d="M95 607h250v-76h-250v76z" />
    <glyph glyph-name="uni207C" unicode="&#x207c;" horiz-adv-x="442" 
d="M96 645h250v-77h-250v77zM96 524h250v-76h-250v76z" />
    <glyph glyph-name="uni207D" unicode="&#x207d;" horiz-adv-x="270" 
d="M49 544q0 77 27.5 143.5t75.5 130.5h102q-48 -67 -74 -130.5t-26 -141.5t25 -140t69 -130h-103q-96 128 -96 268z" />
    <glyph glyph-name="uni207E" unicode="&#x207e;" horiz-adv-x="305" 
d="M92.5 684.5q25.5 -64.5 25.5 -139.5q0 -81 -25 -142.5t-71 -126.5h101q47 63 73.5 128t26.5 142t-28 146t-71 126h-104q47 -69 72.5 -133.5z" />
    <glyph glyph-name="uni207F" unicode="&#x207f;" horiz-adv-x="404" 
d="M268 350v210q0 29 -12.5 43.5t-39.5 14.5q-21 0 -42.5 -10t-33.5 -21v-237h-93v337h82l5 -37q23 19 52.5 31t62.5 12q57 0 84 -28t27 -86v-229h-92z" />
    <glyph glyph-name="uni2080" unicode="&#x2080;" horiz-adv-x="416" 
d="M76.5 -96q-39.5 58 -39.5 175q0 230 175 230q92 0 129.5 -56t37.5 -170q0 -120 -40.5 -178.5t-132.5 -58.5q-90 0 -129.5 58zM258.5 -41q13.5 35 13.5 121q0 57 -5 88.5t-18.5 46.5t-38.5 15q-38 0 -51.5 -33.5t-13.5 -118.5t13 -119.5t50 -34.5t50.5 35z" />
    <glyph glyph-name="uni2081" unicode="&#x2081;" horiz-adv-x="305" 
d="M135 185q-15 -7 -48 -12.5t-51 -5.5l-5 80q92 6 136 52h71v-448h-103v334z" />
    <glyph glyph-name="uni2082" unicode="&#x2082;" horiz-adv-x="393" 
d="M306.5 278.5q36.5 -30.5 36.5 -85.5q0 -49 -27 -88.5t-96 -104.5l-54 -59v-3h184v-85h-302v84l100 107q54 57 73 85t19 58q0 45 -50 45q-28 0 -42.5 -16t-19.5 -48l-88 13q7 64 50.5 96t108.5 32q71 0 107.5 -30.5z" />
    <glyph glyph-name="uni2083" unicode="&#x2083;" horiz-adv-x="384" 
d="M140 -64.5q14 -13.5 44 -13.5q29 0 46.5 15.5t17.5 47.5q0 34 -18 48.5t-54 14.5h-47v70h30q40 0 61.5 18.5t21.5 49.5q0 47 -51 47q-28 0 -42 -12.5t-20 -40.5l-87 17q12 60 55 86t104 26q68 0 105 -28t37 -79q0 -43 -25 -69.5t-62 -38.5v-2q96 -20 96 -110
q0 -63 -46 -99.5t-120 -36.5q-62 0 -104.5 27.5t-50.5 88.5l90 16q5 -29 19 -42.5z" />
    <glyph glyph-name="uni2084" unicode="&#x2084;" horiz-adv-x="404" 
d="M232 -49h-208v70l183 280h125v-271h52v-79h-52v-98h-100v98zM233 213l-120 -183h120v183z" />
    <glyph glyph-name="uni2085" unicode="&#x2085;" horiz-adv-x="399" 
d="M321 301v-83h-176l-12 -106v-7q39 34 92 34q55 0 89.5 -34t34.5 -103q0 -73 -47 -114.5t-122 -41.5q-62 0 -104.5 27.5t-50.5 88.5l89 17q8 -57 65 -57q30 0 49 19.5t19 56.5q0 35 -17 51t-43 16q-34 0 -65 -27l-67 23l17 240h249z" />
    <glyph glyph-name="uni2086" unicode="&#x2086;" horiz-adv-x="421" 
d="M269.5 223q-12.5 12 -34.5 12q-41 0 -61.5 -40.5t-20.5 -109.5q16 18 43.5 30t60.5 12q55 0 88.5 -32t33.5 -95q0 -77 -44.5 -115.5t-117.5 -38.5q-90 0 -126 60t-36 160q0 98 42.5 170.5t144.5 72.5q114 0 135 -108l-90 -20q-5 30 -17.5 42zM172.5 -52
q13.5 -27 48.5 -27q27 0 41.5 18.5t14.5 52.5q0 33 -12 50t-39 17q-19 0 -38 -10t-31 -23q2 -51 15.5 -78z" />
    <glyph glyph-name="uni2087" unicode="&#x2087;" horiz-adv-x="365" 
d="M235 218h-202v83h309v-75l-177 -373h-108z" />
    <glyph glyph-name="uni2088" unicode="&#x2088;" horiz-adv-x="403" 
d="M350 53q24 -27 24 -74q0 -36 -21.5 -66.5t-62 -48.5t-94.5 -18q-79 0 -122 32t-43 85q0 43 24.5 70t69.5 46q-37 14 -57 42t-20 65q0 58 45.5 90.5t114.5 32.5q72 0 112.5 -28t40.5 -76q0 -70 -82 -106q47 -19 71 -46zM255.5 157.5q13.5 17.5 13.5 37.5q0 22 -15.5 33.5
t-43.5 11.5q-27 0 -42 -12.5t-15 -33.5t17 -37t50 -30q22 13 35.5 30.5zM140.5 15.5q-13.5 -16.5 -13.5 -39.5q0 -26 18 -41.5t54 -15.5q31 0 49 14.5t18 38.5q0 27 -21.5 43.5t-63.5 31.5q-27 -15 -40.5 -31.5z" />
    <glyph glyph-name="uni2089" unicode="&#x2089;" horiz-adv-x="420" 
d="M151 -65.5q14 -14.5 40 -14.5q79 0 81 144q-17 -16 -44.5 -27t-58.5 -11q-56 0 -90.5 33.5t-34.5 97.5q0 75 46 113.5t119 38.5q88 0 123.5 -59t35.5 -162q0 -102 -39 -172t-141 -70q-127 0 -147 109l90 24q6 -30 20 -44.5zM249 207q-12 28 -47 28q-27 0 -41 -19t-14 -53
t13 -52.5t40 -18.5q36 0 65 31q-4 56 -16 84z" />
    <glyph glyph-name="uni208A" unicode="&#x208a;" horiz-adv-x="439" 
d="M179 32h-87v76h87v86h80v-86h88v-76h-88v-89h-80v89z" />
    <glyph glyph-name="uni208B" unicode="&#x208b;" horiz-adv-x="439" 
d="M95 111h250v-76h-250v76z" />
    <glyph glyph-name="uni208C" unicode="&#x208c;" horiz-adv-x="442" 
d="M96 149h250v-77h-250v77zM96 28h250v-76h-250v76z" />
    </font>
</defs>
</svg>
